<svg xmlns="http://www.w3.org/2000/svg" xmlns:xlink="http://www.w3.org/1999/xlink" width="904" height="613.945" viewBox="0 0 904 613.945">
  <defs>
    <clipPath id="clip-path">
      <rect id="Rect치ngulo_339325" data-name="Rect치ngulo 339325" width="904" height="613.944" fill="none"/>
    </clipPath>
  </defs>
  <g id="Grupo_973500" data-name="Grupo 973500" transform="translate(-345 -5165.556)">
    <path id="Trazado_699057" data-name="Trazado 699057" d="M30.484,17.223a6.231,6.231,0,0,1-.961,3.146,5.8,5.8,0,0,1-2.467,2.115,8.4,8.4,0,0,1-3.627.75,6.7,6.7,0,0,1-5.3-2.191A9.048,9.048,0,0,1,16.2,14.855v-.844a10.328,10.328,0,0,1,.873-4.389,6.615,6.615,0,0,1,2.514-2.906,7.013,7.013,0,0,1,3.8-1.025,7.354,7.354,0,0,1,4.992,1.635,6.459,6.459,0,0,1,2.145,4.506h-4.1a3.056,3.056,0,0,0-.785-2.238,3.229,3.229,0,0,0-2.25-.68,2.457,2.457,0,0,0-2.25,1.148,7.381,7.381,0,0,0-.75,3.668v1.207a8.167,8.167,0,0,0,.686,3.9,2.509,2.509,0,0,0,2.361,1.172,3.159,3.159,0,0,0,2.168-.668,2.835,2.835,0,0,0,.8-2.121Zm11.637,2.59H36.484L35.5,23H31.105L37.363,5.938H41.23L47.535,23H43.117Zm-4.652-3.176h3.668L39.3,10.719Zm24.492-10.7V17.105a6.419,6.419,0,0,1-.809,3.287,5.238,5.238,0,0,1-2.32,2.115,8.174,8.174,0,0,1-3.574.727,7.062,7.062,0,0,1-4.91-1.617,5.768,5.768,0,0,1-1.828-4.43V5.938h4.137V17.27q.07,2.8,2.6,2.8a2.518,2.518,0,0,0,1.934-.7,3.286,3.286,0,0,0,.656-2.285V5.938ZM73.328,18.465a1.69,1.69,0,0,0-.639-1.406,7.938,7.938,0,0,0-2.244-1.043,21.53,21.53,0,0,1-2.625-1.043Q64.5,13.344,64.5,10.5a4.014,4.014,0,0,1,.826-2.5,5.344,5.344,0,0,1,2.338-1.687,9.1,9.1,0,0,1,3.4-.6,7.958,7.958,0,0,1,3.3.656,5.223,5.223,0,0,1,2.268,1.869A4.881,4.881,0,0,1,77.441,11h-4.1A2.063,2.063,0,0,0,72.7,9.383a2.489,2.489,0,0,0-1.729-.574,2.807,2.807,0,0,0-1.74.486,1.432,1.432,0,0,0,.064,2.426,8.867,8.867,0,0,0,2.473,1.1,15.147,15.147,0,0,1,2.906,1.225,4.884,4.884,0,0,1,2.766,4.395,4.166,4.166,0,0,1-1.687,3.516,7.506,7.506,0,0,1-4.629,1.277,9.184,9.184,0,0,1-3.756-.744,5.663,5.663,0,0,1-2.531-2.039,5.313,5.313,0,0,1-.85-2.982h4.125a2.617,2.617,0,0,0,.709,2.021,3.351,3.351,0,0,0,2.3.65,2.647,2.647,0,0,0,1.611-.439A1.45,1.45,0,0,0,73.328,18.465Zm15.914,1.348H83.605L82.621,23H78.227L84.484,5.938h3.867L94.656,23H90.238ZM84.59,16.637h3.668l-1.84-5.918Z" transform="translate(626 5196.556)" fill="#12263f"/>
    <path id="Trazado_699058" data-name="Trazado 699058" d="M59.988,15.758H53.52v4.078H61.16V23H49.406V5.938H61.184V9.113H53.52v3.6h6.469Zm13.594.445H66.949V23H62.836V5.938H74.25V9.113h-7.3v3.926h6.633Zm12.961-.445H80.074v4.078h7.641V23H75.961V5.938H87.738V9.113H80.074v3.6h6.469ZM103.2,17.223a6.231,6.231,0,0,1-.961,3.146,5.8,5.8,0,0,1-2.467,2.115,8.4,8.4,0,0,1-3.627.75,6.7,6.7,0,0,1-5.3-2.191,9.048,9.048,0,0,1-1.934-6.187v-.844a10.328,10.328,0,0,1,.873-4.389A6.615,6.615,0,0,1,92.3,6.717a7.013,7.013,0,0,1,3.8-1.025,7.354,7.354,0,0,1,4.992,1.635,6.459,6.459,0,0,1,2.145,4.506h-4.1a3.056,3.056,0,0,0-.785-2.238,3.229,3.229,0,0,0-2.25-.68,2.457,2.457,0,0,0-2.25,1.148,7.381,7.381,0,0,0-.75,3.668v1.207a8.167,8.167,0,0,0,.686,3.9,2.509,2.509,0,0,0,2.361,1.172,3.159,3.159,0,0,0,2.168-.668,2.835,2.835,0,0,0,.8-2.121Zm15-8.109h-5.121V23h-4.113V9.113h-5.027V5.938H118.2Zm15.855,5.707a10.062,10.062,0,0,1-.926,4.418,6.842,6.842,0,0,1-2.631,2.959,7.326,7.326,0,0,1-3.885,1.037,7.429,7.429,0,0,1-3.867-1,6.831,6.831,0,0,1-2.631-2.865,9.772,9.772,0,0,1-.99-4.277v-.961a10.106,10.106,0,0,1,.92-4.424,6.825,6.825,0,0,1,2.637-2.959,7.805,7.805,0,0,1,7.775-.012A6.948,6.948,0,0,1,133.1,9.67a9.816,9.816,0,0,1,.955,4.365Zm-4.184-.715a7.175,7.175,0,0,0-.85-3.861,2.725,2.725,0,0,0-2.432-1.318q-3.094,0-3.27,4.641L123.3,14.82a7.379,7.379,0,0,0,.832,3.855,2.721,2.721,0,0,0,2.473,1.348,2.688,2.688,0,0,0,2.4-1.324,7.178,7.178,0,0,0,.855-3.809Z" transform="translate(1071 5196.556)" fill="#12263f"/>
    <g id="Grupo_973011" data-name="Grupo 973011" transform="translate(345 5165.557)">
      <path id="Trazado_697455" data-name="Trazado 697455" d="M627.8,339.207l.285-.456h86.168v49.378H597.14Zm-28.042-48.966h114.5v45.152H626.6ZM714.257,0V286.884H597.766l-30.53-51.369H709.468v-3.358H565.24l-28.757-48.384H680.239v-3.358H534.96v.8l-32.512-54.7-2.886,1.717L622.691,335.393H409.359l.043-.077L352.266,236.5l137.308-.985-.022-3.358-138.81,1,0,.72-28.966-50.1H466.3v-3.358H321.026v2.056l-33.5-57.936-2.907,1.681L405.54,335.345l-.027.048h-240.4L146.16,290.241H288.687v-3.357H144.75l-21.566-51.369H266.672v-3.358h-144.9l-20.313-48.384H243.413v-3.358H100.052L76.674,124.726l-3.1,1.3,87.9,209.368H0v3.358H160.917L74.558,556.607l3.123,1.237,23.812-60.073v.187H246.771V494.6H102.751l20.759-52.367v1H268.786v-3.358H124.445l19.18-48.385H287.568v-3.358H144.956l19.573-49.378h239.11L347.21,439.873h-.81v1.451L281.624,557.4l2.933,1.637,34.355-61.565v.482h150.75V494.6H320.517l28.665-51.368h142.5v-3.358H351.056l27.559-49.387v1H510.458v-3.358H379.93l27.555-49.378H624.127L494.608,545.388l2.843,1.784,31.913-50.912v1.7H674.641V494.6H530.405l32.2-51.368h145v-3.358H564.708L596.033,389.9v1.592H714.257V613.944h3.358V338.751h61.01v-3.358h-61.01V0Z" fill="#696969"/>
      <rect id="Rect치ngulo_339324" data-name="Rect치ngulo 339324" width="126.992" height="3.358" transform="translate(384.585 286.884)" fill="#696969"/>
      <g id="Grupo_973010" data-name="Grupo 973010" transform="translate(0 0)">
        <g id="Grupo_973009" data-name="Grupo 973009" clip-path="url(#clip-path)">
          <path id="Trazado_697456" data-name="Trazado 697456" d="M507.166,119.164H408.6a14.179,14.179,0,0,1-14.18-14.18V99.512A14.179,14.179,0,0,1,408.6,85.333h98.568a14.179,14.179,0,0,1,14.18,14.179v5.473a14.179,14.179,0,0,1-14.18,14.18" transform="translate(47.105 10.191)" fill="#68006a"/>
          <path id="Trazado_697457" data-name="Trazado 697457" d="M317.832,120.053H219.264a14.18,14.18,0,0,1-14.18-14.18V100.4a14.179,14.179,0,0,1,14.18-14.179h98.568a14.179,14.179,0,0,1,14.18,14.179v5.473a14.179,14.179,0,0,1-14.18,14.18" transform="translate(24.493 10.297)" fill="#900095"/>
          <path id="Trazado_697458" data-name="Trazado 697458" d="M140.5,120.053H41.931a14.18,14.18,0,0,1-14.18-14.18V100.4a14.179,14.179,0,0,1,14.18-14.179H140.5a14.179,14.179,0,0,1,14.18,14.179v5.473a14.179,14.179,0,0,1-14.18,14.18" transform="translate(3.314 10.297)" fill="#68006a"/>
          <path id="Trazado_697459" data-name="Trazado 697459" d="M507.166,520.386H408.6a14.179,14.179,0,0,1-14.18-14.18v-5.473a14.179,14.179,0,0,1,14.18-14.179h98.568a14.179,14.179,0,0,1,14.18,14.179v5.473a14.179,14.179,0,0,1-14.18,14.18" transform="translate(47.105 58.109)" fill="#68006a"/>
          <path id="Trazado_697460" data-name="Trazado 697460" d="M317.832,521.275H219.264a14.18,14.18,0,0,1-14.18-14.18v-5.473a14.179,14.179,0,0,1,14.18-14.179h98.568a14.179,14.179,0,0,1,14.18,14.179V507.1a14.18,14.18,0,0,1-14.18,14.18" transform="translate(24.493 58.215)" fill="#900095"/>
          <path id="Trazado_697461" data-name="Trazado 697461" d="M140.5,521.275H41.931a14.18,14.18,0,0,1-14.18-14.18v-5.473a14.179,14.179,0,0,1,14.18-14.179H140.5a14.179,14.179,0,0,1,14.18,14.179V507.1a14.18,14.18,0,0,1-14.18,14.18" transform="translate(3.314 58.215)" fill="#68006a"/>
          <path id="Trazado_697462" data-name="Trazado 697462" d="M808.414,345.168H693.983a14.428,14.428,0,0,1-14.428-14.428V281.983a14.428,14.428,0,0,1,14.428-14.428h114.43a14.428,14.428,0,0,1,14.428,14.428V330.74a14.429,14.429,0,0,1-14.428,14.428" transform="translate(81.158 31.954)" fill="#ffce30"/>
          <path id="Trazado_699059" data-name="Trazado 699059" d="M4.936,14.176V19H1.508V4.781H7.182a6.608,6.608,0,0,1,2.886.6,4.526,4.526,0,0,1,1.943,1.709A4.667,4.667,0,0,1,12.7,9.605a4.114,4.114,0,0,1-1.489,3.325,6.179,6.179,0,0,1-4.087,1.245Zm0-2.646H7.182a2.118,2.118,0,0,0,1.519-.5,1.85,1.85,0,0,0,.522-1.406,2.287,2.287,0,0,0-.537-1.592,1.9,1.9,0,0,0-1.465-.605H4.936Zm14.873,2.441H17.953V19H14.525V4.781h5.6A6.246,6.246,0,0,1,24.076,5.9,3.8,3.8,0,0,1,25.5,9.074a4.616,4.616,0,0,1-.6,2.458,4.263,4.263,0,0,1-1.88,1.58l2.969,5.741V19H22.318Zm-1.855-2.637h2.168a1.946,1.946,0,0,0,1.47-.514,1.987,1.987,0,0,0,.493-1.434,2.01,2.01,0,0,0-.5-1.444,1.928,1.928,0,0,0-1.465-.524H17.953Zm21.66.85a8.385,8.385,0,0,1-.771,3.682,5.7,5.7,0,0,1-2.192,2.466,6.1,6.1,0,0,1-3.237.864,6.191,6.191,0,0,1-3.223-.835A5.692,5.692,0,0,1,28,15.973a8.144,8.144,0,0,1-.825-3.564v-.8a8.422,8.422,0,0,1,.767-3.687,5.688,5.688,0,0,1,2.2-2.466,6.5,6.5,0,0,1,6.479-.01,5.79,5.79,0,0,1,2.2,2.446,8.18,8.18,0,0,1,.8,3.638Zm-3.486-.6a5.979,5.979,0,0,0-.708-3.218,2.271,2.271,0,0,0-2.026-1.1q-2.578,0-2.725,3.867l-.01,1.045a6.149,6.149,0,0,0,.693,3.213,2.268,2.268,0,0,0,2.061,1.123,2.24,2.24,0,0,0,2-1.1,5.982,5.982,0,0,0,.713-3.174ZM41.381,19V4.781h5.107a7.232,7.232,0,0,1,4.175,1.006,3.347,3.347,0,0,1,1.431,2.92,3.383,3.383,0,0,1-.508,1.885,2.959,2.959,0,0,1-1.494,1.152A3,3,0,0,1,51.8,12.838a3.18,3.18,0,0,1,.6,1.953,3.765,3.765,0,0,1-1.323,3.14A6.3,6.3,0,0,1,47.152,19Zm3.428-6.045v3.408h2.246a2.136,2.136,0,0,0,1.426-.425,1.487,1.487,0,0,0,.5-1.2,1.576,1.576,0,0,0-1.768-1.787Zm0-2.246H46.6a2.539,2.539,0,0,0,1.6-.411,1.46,1.46,0,0,0,.479-1.185,1.533,1.533,0,0,0-.518-1.3,2.77,2.77,0,0,0-1.67-.4h-1.68Zm12.9,5.654h5.967V19H54.281V4.781h3.428Zm16.23-3.4H68.549v3.4h6.367V19H65.121V4.781h9.814V7.428H68.549v3h5.391Zm6.875-8.184,3.174,9.893,3.164-9.893h4.512V19H88.227V15.68l.332-6.8L85.121,19H82.855L79.408,8.873l.332,6.807V19H76.313V4.781Zm21.279,11.563H97.4L96.576,19H92.914L98.129,4.781h3.223L106.605,19h-3.682ZM98.217,13.7h3.057L99.74,8.766Z" transform="translate(778 325.999)" fill="#12263f"/>
          <path id="Trazado_699062" data-name="Trazado 699062" d="M25.194,19H21.786V13.063H16.737V19H13.31V4.781h3.428v5.645h5.049V4.781h3.408ZM39.4,12.184a8.385,8.385,0,0,1-.771,3.682,5.7,5.7,0,0,1-2.192,2.466A6.1,6.1,0,0,1,33.2,19.2a6.191,6.191,0,0,1-3.223-.835,5.692,5.692,0,0,1-2.192-2.388,8.144,8.144,0,0,1-.825-3.564v-.8a8.422,8.422,0,0,1,.767-3.687,5.688,5.688,0,0,1,2.2-2.466,6.5,6.5,0,0,1,6.479-.01,5.79,5.79,0,0,1,2.2,2.446,8.18,8.18,0,0,1,.8,3.638Zm-3.486-.6a5.979,5.979,0,0,0-.708-3.218,2.271,2.271,0,0,0-2.026-1.1q-2.578,0-2.725,3.867l-.01,1.045a6.149,6.149,0,0,0,.693,3.213A2.268,2.268,0,0,0,33.2,16.52a2.24,2.24,0,0,0,2-1.1,5.982,5.982,0,0,0,.713-3.174Zm9.756-6.807,3.174,9.893,3.164-9.893h4.512V19H53.085V15.68l.332-6.8L49.979,19H47.714L44.267,8.873,44.6,15.68V19H41.171V4.781ZM58.7,19V4.781h5.107a7.232,7.232,0,0,1,4.175,1.006,3.347,3.347,0,0,1,1.431,2.92,3.383,3.383,0,0,1-.508,1.885,2.959,2.959,0,0,1-1.494,1.152,3,3,0,0,1,1.709,1.094,3.18,3.18,0,0,1,.6,1.953,3.765,3.765,0,0,1-1.323,3.14A6.3,6.3,0,0,1,64.472,19Zm3.428-6.045v3.408h2.246a2.136,2.136,0,0,0,1.426-.425,1.487,1.487,0,0,0,.5-1.2,1.576,1.576,0,0,0-1.768-1.787Zm0-2.246h1.787a2.539,2.539,0,0,0,1.6-.411A1.46,1.46,0,0,0,66,9.112a1.533,1.533,0,0,0-.518-1.3,2.77,2.77,0,0,0-1.67-.4h-1.68Zm14.756,3.262H75.028V19H71.6V4.781h5.6A6.246,6.246,0,0,1,81.151,5.9a3.8,3.8,0,0,1,1.426,3.17,4.616,4.616,0,0,1-.6,2.458,4.263,4.263,0,0,1-1.88,1.58l2.969,5.741V19H79.394Zm-1.855-2.637H77.2a1.946,1.946,0,0,0,1.47-.514,1.987,1.987,0,0,0,.493-1.434,2.01,2.01,0,0,0-.5-1.444A1.928,1.928,0,0,0,77.2,7.418H75.028Zm18.438,1.631H88.075v3.4h6.367V19H84.647V4.781h9.814V7.428H88.075v3h5.391Z" transform="translate(42 100.999)" fill="#fff"/>
          <path id="Trazado_699063" data-name="Trazado 699063" d="M10.238,4.781l3.174,9.893,3.164-9.893h4.512V19H17.65V15.68l.332-6.8L14.545,19H12.279L8.832,8.873l.332,6.807V19H5.736V4.781ZM31.518,16.344h-4.7L26,19H22.338L27.553,4.781h3.223L36.029,19H32.348ZM27.641,13.7H30.7L29.164,8.766Zm19.414-6.27H42.787V19H39.359V7.428H35.17V4.781H47.055Zm10.264,5.537H51.928v3.4h6.367V19H48.5V4.781h9.814V7.428H51.928v3h5.391Zm7.656,1.006H63.119V19H59.691V4.781h5.6A6.246,6.246,0,0,1,69.242,5.9a3.8,3.8,0,0,1,1.426,3.17,4.616,4.616,0,0,1-.6,2.458,4.263,4.263,0,0,1-1.88,1.58l2.969,5.741V19H67.484Zm-1.855-2.637h2.168a1.946,1.946,0,0,0,1.47-.514,1.987,1.987,0,0,0,.493-1.434,2.01,2.01,0,0,0-.5-1.444,1.928,1.928,0,0,0-1.465-.524H63.119ZM76.391,19H72.973V4.781h3.418Zm10.635-2.656h-4.7L81.508,19H77.846L83.061,4.781h3.223L91.537,19H87.855ZM83.148,13.7h3.057L84.672,8.766ZM96,16.363h5.967V19H92.572V4.781H96Z" transform="translate(41 549.999)" fill="#fff"/>
          <path id="Trazado_699061" data-name="Trazado 699061" d="M13.026,4.781,16.2,14.674l3.164-9.893h4.512V19H20.438V15.68l.332-6.8L17.333,19H15.067L11.62,8.873l.332,6.807V19H8.524V4.781ZM34.306,16.344h-4.7L28.788,19H25.126L30.341,4.781h3.223L38.817,19H35.136ZM30.429,13.7h3.057L31.952,8.766ZM32.4.973h3.477L33.163,4.039l-2.686,0ZM51.708,12.184a8.4,8.4,0,0,1-.654,3.442,5.984,5.984,0,0,1-1.807,2.358L51.542,19.8l-2.119,1.8-3.057-2.461a6.353,6.353,0,0,1-.859.059,6.163,6.163,0,0,1-3.223-.84,5.712,5.712,0,0,1-2.192-2.4,8.159,8.159,0,0,1-.815-3.594v-.752a8.414,8.414,0,0,1,.767-3.691A5.713,5.713,0,0,1,42.23,5.455a6.5,6.5,0,0,1,6.479-.01,5.79,5.79,0,0,1,2.2,2.446,8.18,8.18,0,0,1,.8,3.638Zm-3.486-.6a5.979,5.979,0,0,0-.708-3.218,2.441,2.441,0,0,0-4.067-.015,6.057,6.057,0,0,0-.693,3.174v.654a6.145,6.145,0,0,0,.693,3.218,2.27,2.27,0,0,0,2.061,1.118,2.237,2.237,0,0,0,2.007-1.1,6.016,6.016,0,0,0,.708-3.174ZM64.608,4.781v9.307a5.349,5.349,0,0,1-.674,2.739A4.365,4.365,0,0,1,62,18.59a6.812,6.812,0,0,1-2.979.605,5.885,5.885,0,0,1-4.092-1.348,4.806,4.806,0,0,1-1.523-3.691V4.781h3.447v9.443q.059,2.334,2.168,2.334a2.1,2.1,0,0,0,1.611-.586,2.739,2.739,0,0,0,.547-1.9V4.781ZM70.4,19H66.981V4.781H70.4Zm14.258,0H81.249L76.21,10.152V19H72.782V4.781H76.21l5.029,8.848V4.781h3.418Zm10.42-2.656h-4.7L89.56,19H85.9L91.112,4.781h3.223L99.589,19H95.907ZM91.2,13.7h3.057L92.724,8.766Z" transform="translate(242 100.999)" fill="#fff"/>
          <path id="Trazado_699064" data-name="Trazado 699064" d="M18.178,4.781l3.174,9.893,3.164-9.893h4.512V19H25.59V15.68l.332-6.8L22.484,19H20.219L16.771,8.873,17.1,15.68V19H13.676V4.781Zm21.846,8.184H34.633v3.4H41V19H31.205V4.781H41.02V7.428H34.633v3h5.391ZM36.83.973h3.477L37.592,4.039l-2.686,0ZM53.754,7.428H49.486V19H46.059V7.428H41.869V4.781H53.754Zm13.213,4.756a8.385,8.385,0,0,1-.771,3.682A5.7,5.7,0,0,1,64,18.331a6.1,6.1,0,0,1-3.237.864,6.191,6.191,0,0,1-3.223-.835,5.692,5.692,0,0,1-2.192-2.388,8.144,8.144,0,0,1-.825-3.564v-.8a8.422,8.422,0,0,1,.767-3.687,5.688,5.688,0,0,1,2.2-2.466,6.5,6.5,0,0,1,6.479-.01,5.79,5.79,0,0,1,2.2,2.446,8.18,8.18,0,0,1,.8,3.638Zm-3.486-.6a5.979,5.979,0,0,0-.708-3.218,2.271,2.271,0,0,0-2.026-1.1q-2.578,0-2.725,3.867l-.01,1.045a6.149,6.149,0,0,0,.693,3.213,2.268,2.268,0,0,0,2.061,1.123,2.24,2.24,0,0,0,2-1.1,5.982,5.982,0,0,0,.713-3.174ZM68.734,19V4.781h4.58a6.737,6.737,0,0,1,3.389.854,6.006,6.006,0,0,1,2.349,2.412,7.283,7.283,0,0,1,.854,3.491v.654a7.325,7.325,0,0,1-.825,3.5,6.032,6.032,0,0,1-2.324,2.422A6.589,6.589,0,0,1,73.412,19ZM72.162,7.428v8.936h1.191a2.666,2.666,0,0,0,2.266-1.05,5.145,5.145,0,0,0,.791-3.12v-.615a5.1,5.1,0,0,0-.791-3.105,2.713,2.713,0,0,0-2.3-1.045Zm21.543,4.756a8.385,8.385,0,0,1-.771,3.682,5.7,5.7,0,0,1-2.192,2.466A6.1,6.1,0,0,1,87.5,19.2a6.191,6.191,0,0,1-3.223-.835,5.692,5.692,0,0,1-2.192-2.388,8.144,8.144,0,0,1-.825-3.564v-.8a8.422,8.422,0,0,1,.767-3.687,5.688,5.688,0,0,1,2.2-2.466,6.5,6.5,0,0,1,6.479-.01,5.79,5.79,0,0,1,2.2,2.446,8.18,8.18,0,0,1,.8,3.638Zm-3.486-.6a5.979,5.979,0,0,0-.708-3.218,2.271,2.271,0,0,0-2.026-1.1q-2.578,0-2.725,3.867l-.01,1.045a6.149,6.149,0,0,0,.693,3.213A2.268,2.268,0,0,0,87.5,16.52a2.24,2.24,0,0,0,2-1.1,5.982,5.982,0,0,0,.713-3.174Z" transform="translate(241 549.999)" fill="#fff"/>
          <path id="Trazado_699060" data-name="Trazado 699060" d="M17.4,12.965H12.006v3.4h6.367V19H8.578V4.781h9.814V7.428H12.006v3H17.4ZM31.645,19H28.236L23.2,10.152V19H19.77V4.781H23.2l5.029,8.848V4.781h3.418ZM44.691,7.428H40.424V19H37V7.428H32.807V4.781H44.691ZM57.9,12.184a8.385,8.385,0,0,1-.771,3.682,5.7,5.7,0,0,1-2.192,2.466A6.1,6.1,0,0,1,51.7,19.2a6.191,6.191,0,0,1-3.223-.835,5.692,5.692,0,0,1-2.192-2.388,8.144,8.144,0,0,1-.825-3.564v-.8a8.422,8.422,0,0,1,.767-3.687,5.688,5.688,0,0,1,2.2-2.466,6.5,6.5,0,0,1,6.479-.01,5.79,5.79,0,0,1,2.2,2.446,8.18,8.18,0,0,1,.8,3.638Zm-3.486-.6A5.979,5.979,0,0,0,53.71,8.37a2.271,2.271,0,0,0-2.026-1.1q-2.578,0-2.725,3.867l-.01,1.045a6.149,6.149,0,0,0,.693,3.213A2.268,2.268,0,0,0,51.7,16.52a2.24,2.24,0,0,0,2-1.1,5.982,5.982,0,0,0,.713-3.174Zm10.537,2.383H63.1V19H59.672V4.781h5.6A6.246,6.246,0,0,1,69.223,5.9a3.8,3.8,0,0,1,1.426,3.17,4.616,4.616,0,0,1-.6,2.458,4.263,4.263,0,0,1-1.88,1.58l2.969,5.741V19H67.465ZM63.1,11.334h2.168a1.946,1.946,0,0,0,1.47-.514,1.987,1.987,0,0,0,.493-1.434,2.01,2.01,0,0,0-.5-1.444,1.928,1.928,0,0,0-1.465-.524H63.1ZM84.594,19H81.186l-5.039-8.848V19H72.719V4.781h3.428l5.029,8.848V4.781h3.418ZM98.8,12.184a8.385,8.385,0,0,1-.771,3.682,5.7,5.7,0,0,1-2.192,2.466A6.1,6.1,0,0,1,92.6,19.2a6.191,6.191,0,0,1-3.223-.835,5.692,5.692,0,0,1-2.192-2.388,8.144,8.144,0,0,1-.825-3.564v-.8a8.422,8.422,0,0,1,.767-3.687,5.688,5.688,0,0,1,2.2-2.466,6.5,6.5,0,0,1,6.479-.01,5.79,5.79,0,0,1,2.2,2.446,8.18,8.18,0,0,1,.8,3.638Zm-3.486-.6a5.979,5.979,0,0,0-.708-3.218,2.271,2.271,0,0,0-2.026-1.1q-2.578,0-2.725,3.867l-.01,1.045a6.149,6.149,0,0,0,.693,3.213A2.268,2.268,0,0,0,92.6,16.52a2.24,2.24,0,0,0,2-1.1,5.982,5.982,0,0,0,.713-3.174Z" transform="translate(453 100.999)" fill="#fff"/>
          <path id="Trazado_699065" data-name="Trazado 699065" d="M22.06,4.781l3.174,9.893L28.4,4.781h4.512V19H29.472V15.68l.332-6.8L26.366,19H24.1L20.653,8.873l.332,6.807V19H17.558V4.781Zm21.846,8.184H38.515v3.4h6.367V19H35.087V4.781H44.9V7.428H38.515v3h5.391ZM46.278,19V4.781h4.58a6.737,6.737,0,0,1,3.389.854A6.006,6.006,0,0,1,56.6,8.048a7.283,7.283,0,0,1,.854,3.491v.654a7.325,7.325,0,0,1-.825,3.5A6.032,6.032,0,0,1,54.3,18.116,6.589,6.589,0,0,1,50.956,19ZM49.706,7.428v8.936H50.9a2.666,2.666,0,0,0,2.266-1.05,5.145,5.145,0,0,0,.791-3.12v-.615a5.1,5.1,0,0,0-.791-3.105,2.713,2.713,0,0,0-2.3-1.045ZM62.86,19H59.442V4.781H62.86Zm2.383,0V4.781h4.58a6.737,6.737,0,0,1,3.389.854,6.006,6.006,0,0,1,2.349,2.412,7.283,7.283,0,0,1,.854,3.491v.654a7.325,7.325,0,0,1-.825,3.5,6.032,6.032,0,0,1-2.324,2.422A6.589,6.589,0,0,1,69.921,19ZM68.671,7.428v8.936h1.191a2.666,2.666,0,0,0,2.266-1.05,5.145,5.145,0,0,0,.791-3.12v-.615a5.1,5.1,0,0,0-.791-3.105,2.713,2.713,0,0,0-2.3-1.045Zm17.373,8.916h-4.7L80.526,19H76.864L82.079,4.781H85.3L90.556,19H86.874ZM82.167,13.7h3.057L83.69,8.766Z" transform="translate(452 549.999)" fill="#fff"/>
        </g>
      </g>
    </g>
  </g>
</svg>
