<svg xmlns="http://www.w3.org/2000/svg" xmlns:xlink="http://www.w3.org/1999/xlink" width="1009" height="624" viewBox="0 0 1009 624">
  <defs>
    <clipPath id="clip-path">
      <rect id="Rectángulo_339327" data-name="Rectángulo 339327" width="889" height="603.758" fill="none"/>
    </clipPath>
    <clipPath id="clip-path-2">
      <rect id="Rectángulo_339325" data-name="Rectángulo 339325" width="904" height="613.944" fill="none"/>
    </clipPath>
  </defs>
  <g id="Grupo_973504" data-name="Grupo 973504" transform="translate(-177 -4342.502)">
    <text id="CAUSA" transform="translate(567 4379)" fill="#12263f" font-size="30" font-family="Roboto-BlackItalic, Roboto" font-weight="800" font-style="italic"><tspan x="-48.391" y="31">CAUSA</tspan></text>
    <text id="EFECTO" transform="translate(1001 4379)" fill="#12263f" font-size="30" font-family="Roboto-BlackItalic, Roboto" font-weight="800" font-style="italic"><tspan x="-53.035" y="31">EFECTO</tspan></text>
    <g id="Grupo_973011" data-name="Grupo 973011" transform="translate(286 4348.001)">
      <g id="Grupo_973013" data-name="Grupo 973013" transform="translate(11 5.094)">
        <path id="Trazado_697463" data-name="Trazado 697463" d="M617.386,344.763l.281-.463h84.738v50.187H587.232ZM589.81,294.995h112.6v45.892H616.2ZM702.405,0V291.582H587.847l-30.024-52.211H697.7v-3.413H555.861l-28.28-49.176H668.951v-3.413H526.084v.81l-31.972-55.6-2.838,1.745L612.359,340.886H402.567l.042-.078L346.421,240.373l135.03-1-.022-3.413L344.922,236.97l0,.732L316.44,186.782H458.566v-3.413H315.7v2.09l-32.942-58.885-2.859,1.709L398.811,340.837l-.026.049H162.375l-18.64-45.892H283.9v-3.412H142.348L121.14,239.372H262.248v-3.413H119.754L99.778,186.782h139.6v-3.413H98.392l-22.99-56.6-3.046,1.321,86.437,212.8H0V344.3H158.247L73.321,565.723l3.071,1.257L99.81,505.923v.19H242.677V502.7H101.046l20.414-53.225v1.015H264.326v-3.413H122.38L141.242,397.9H282.8v-3.413H142.551L161.8,344.3H396.941L341.449,447.077h-.8v1.475l-63.7,117.981,2.884,1.664,33.785-62.574v.49H461.869V502.7H315.2l28.19-52.21H483.519v-3.413H345.231l27.1-50.2V397.9H501.988v-3.413H373.625l27.1-50.187H613.771L486.4,554.32l2.8,1.813,31.383-51.745v1.725H663.447V502.7H521.6l31.663-52.21H695.861v-3.413H555.338l30.805-50.8V397.9H702.405V624h3.3V344.3h60v-3.413h-60V0Z" transform="translate(0 -10.592)" fill="#696969"/>
        <rect id="Rectángulo_339326" data-name="Rectángulo 339326" width="124.885" height="3.303" transform="translate(378.204 282.124)" fill="#696969"/>
        <g id="Grupo_973014" data-name="Grupo 973014" transform="translate(0 -0.001)">
          <g id="Grupo_973013-2" data-name="Grupo 973013" clip-path="url(#clip-path)">
            <path id="Trazado_697471" data-name="Trazado 697471" d="M155.487,318.535l-18.641-44.4H277.009v-3.3H135.46l-21.208-50.517-1.386-3.3L92.89,169.43l-1.386-3.3-22.99-54.764-3.046,1.278L151.9,318.535Z" transform="translate(6.603 11.232)" fill="#900095"/>
            <path id="Trazado_697472" data-name="Trazado 697472" d="M142.15,259.742A11.742,11.742,0,1,1,130.408,248a11.743,11.743,0,0,1,11.743,11.743" transform="translate(11.968 25.012)" fill="#ab3faf"/>
            <path id="Trazado_697473" data-name="Trazado 697473" d="M96.04,187.263l-.849,1.417,2.081,1.247H11.216l2.081-1.247-.85-1.417-5.407,3.244,5.024,3.5.943-1.356-1.538-1.07H97.018l-1.537,1.07L96.423,194l5.025-3.5Z" transform="translate(0.71 18.887)" fill="#900095"/>
            <path id="Trazado_697474" data-name="Trazado 697474" d="M119.483,256.6l-.7,1.417,1.723,1.247H49.235l1.724-1.247-.7-1.417-4.478,3.244,4.161,3.5.782-1.356-1.274-1.07h70.848l-1.274,1.07.781,1.356,4.162-3.5Z" transform="translate(4.617 25.879)" fill="#900095"/>
          </g>
        </g>
      </g>
      <g id="Grupo_973010" data-name="Grupo 973010" transform="translate(0 0)">
        <g id="Grupo_973009" data-name="Grupo 973009" transform="translate(-4)" clip-path="url(#clip-path-2)">
          <path id="Trazado_697456" data-name="Trazado 697456" d="M507.166,119.164H408.6a14.179,14.179,0,0,1-14.18-14.18V99.512A14.179,14.179,0,0,1,408.6,85.333h98.568a14.179,14.179,0,0,1,14.18,14.179v5.473a14.179,14.179,0,0,1-14.18,14.18" transform="translate(47.105 10.191)" fill="#68006a"/>
          <path id="Trazado_697457" data-name="Trazado 697457" d="M317.832,120.053H219.264a14.18,14.18,0,0,1-14.18-14.18V100.4a14.179,14.179,0,0,1,14.18-14.179h98.568a14.179,14.179,0,0,1,14.18,14.179v5.473a14.179,14.179,0,0,1-14.18,14.18" transform="translate(24.493 10.297)" fill="#900095"/>
          <path id="Trazado_697458" data-name="Trazado 697458" d="M140.5,120.053H41.931a14.18,14.18,0,0,1-14.18-14.18V100.4a14.179,14.179,0,0,1,14.18-14.179H140.5a14.179,14.179,0,0,1,14.18,14.179v5.473a14.179,14.179,0,0,1-14.18,14.18" transform="translate(3.314 10.297)" fill="#68006a"/>
          <path id="Trazado_697459" data-name="Trazado 697459" d="M507.166,520.386H408.6a14.179,14.179,0,0,1-14.18-14.18v-5.473a14.179,14.179,0,0,1,14.18-14.179h98.568a14.179,14.179,0,0,1,14.18,14.179v5.473a14.179,14.179,0,0,1-14.18,14.18" transform="translate(47.105 58.109)" fill="#68006a"/>
          <path id="Trazado_697460" data-name="Trazado 697460" d="M317.832,521.275H219.264a14.18,14.18,0,0,1-14.18-14.18v-5.473a14.179,14.179,0,0,1,14.18-14.179h98.568a14.179,14.179,0,0,1,14.18,14.179V507.1a14.18,14.18,0,0,1-14.18,14.18" transform="translate(24.493 58.215)" fill="#900095"/>
          <path id="Trazado_697461" data-name="Trazado 697461" d="M140.5,521.275H41.931a14.18,14.18,0,0,1-14.18-14.18v-5.473a14.179,14.179,0,0,1,14.18-14.179H140.5a14.179,14.179,0,0,1,14.18,14.179V507.1a14.18,14.18,0,0,1-14.18,14.18" transform="translate(3.314 58.215)" fill="#68006a"/>
          <path id="Trazado_697462" data-name="Trazado 697462" d="M693.983,345.168a14.428,14.428,0,0,1-14.428-14.428V281.983a14.428,14.428,0,0,1,14.428-14.428h114.43a14.428,14.428,0,0,1,14.428,14.428V330.74a14.429,14.429,0,0,1-14.428,14.428" transform="translate(81.158 31.954)" fill="#ffce30"/>
          <text id="PROBLEMA" transform="translate(778 325.999)" fill="#12263f" font-size="20" font-family="Roboto-Black, Roboto" font-weight="800"><tspan x="-53.066" y="19">PROBLEMA</tspan></text>
          <text id="HOMBRE" transform="translate(42 100.999)" fill="#fff" font-size="20" font-family="Roboto-Black, Roboto" font-weight="800"><tspan x="-41.265" y="19">HOMBRE</tspan></text>
          <text id="MATERIAL" transform="translate(41 549.999)" fill="#fff" font-size="20" font-family="Roboto-Black, Roboto" font-weight="800"><tspan x="-48.838" y="19">MATERIAL</tspan></text>
          <text id="MÁQUINA" transform="translate(242 100.999)" fill="#fff" font-size="20" font-family="Roboto-Black, Roboto" font-weight="800"><tspan x="-46.05" y="19">MÁQUINA</tspan></text>
          <text id="MÉTODO" transform="translate(241 549.999)" fill="#fff" font-size="20" font-family="Roboto-Black, Roboto" font-weight="800"><tspan x="-40.898" y="19">MÉTODO</tspan></text>
          <text id="ENTORNO" transform="translate(453 100.999)" fill="#fff" font-size="20" font-family="Roboto-Black, Roboto" font-weight="800"><tspan x="-45.996" y="19">ENTORNO</tspan></text>
          <text id="MEDIDA" transform="translate(452 549.999)" fill="#fff" font-size="20" font-family="Roboto-Black, Roboto" font-weight="800"><tspan x="-37.017" y="19">MEDIDA</tspan></text>
        </g>
      </g>
    </g>
    <text id="CAUSA_PRINCIPAL" data-name="CAUSA
PRINCIPAL" transform="translate(202 4535.502)" fill="#12263f" font-size="20" font-family="Roboto-BlackItalic, Roboto" font-weight="800" font-style="italic"><tspan x="-32.261" y="21">CAUSA</tspan><tspan x="-49.419" y="48">PRINCIPAL</tspan></text>
    <text id="SUBCATEGORÍA" transform="translate(177 4624.502)" fill="#12263f" font-size="20" font-family="Roboto-BlackItalic, Roboto" font-weight="800" font-style="italic"><tspan x="-72.461" y="21">SUBCATEGORÍA</tspan></text>
  </g>
</svg>
