<svg xmlns="http://www.w3.org/2000/svg" xmlns:xlink="http://www.w3.org/1999/xlink" width="1239.999" height="636.068" viewBox="0 0 1239.999 636.068">
  <defs>
    <linearGradient id="linear-gradient" x2="1" y2="1" gradientUnits="objectBoundingBox">
      <stop offset="0" stop-color="#3c0061"/>
      <stop offset="1" stop-color="#b3009d"/>
    </linearGradient>
    <clipPath id="clip-path">
      <rect id="Rectángulo_339723" data-name="Rectángulo 339723" width="713.149" height="526.927" fill="none"/>
    </clipPath>
  </defs>
  <g id="Grupo_973502" data-name="Grupo 973502" transform="translate(-180 -8449)">
    <g id="Grupo_973239" data-name="Grupo 973239" transform="translate(180 8380)">
      <g id="Grupo_49020" data-name="Grupo 49020" transform="translate(0 69)">
        <g id="Group_1153" data-name="Group 1153">
          <path id="Recurso_1" data-name="Recurso 1" d="M0,0H1240V636.069H0Z" fill="url(#linear-gradient)"/>
        </g>
      </g>
    </g>
    <g id="Trazado_697855" data-name="Trazado 697855" transform="translate(986 8643)" fill="none">
      <path d="M22,0H273c12.15,0,22,8.011,22,17.892V160.219c0,9.882-9.85,17.892-22,17.892H22c-12.15,0-22-8.011-22-17.892V17.892C0,8.011,9.85,0,22,0Z" stroke="none"/>
      <path d="M 22 5 C 19.584716796875 5 17.25076293945312 5.381576538085938 15.06304931640625 6.134170532226562 C 13.0003662109375 6.843704223632812 11.16183471679688 7.848159790039062 9.59844970703125 9.11962890625 C 6.633087158203125 11.53132629394531 5 14.64691162109375 5 17.8924560546875 L 5 160.2188720703125 C 5 163.4643707275391 6.633087158203125 166.5799560546875 9.59844970703125 168.9916687011719 C 11.16183471679688 170.2631683349609 13.0003662109375 171.2676239013672 15.06304931640625 171.9771575927734 C 17.25079345703125 172.7297515869141 19.584716796875 173.111328125 22 173.111328125 L 273 173.111328125 C 275.415283203125 173.111328125 277.7492065429688 172.7297515869141 279.9369506835938 171.9771575927734 C 281.9995727539062 171.2676239013672 283.838134765625 170.2631683349609 285.4015502929688 168.9916687011719 C 288.3669128417969 166.5799560546875 290 163.4643707275391 290 160.2188720703125 L 290 17.8924560546875 C 290 14.64691162109375 288.3669128417969 11.53132629394531 285.4015502929688 9.11962890625 C 283.8381652832031 7.848159790039062 281.9995727539062 6.843704223632812 279.9369506835938 6.134170532226562 C 277.7492065429688 5.381576538085938 275.415283203125 5 273 5 L 22 5 M 22 0 L 273 0 C 285.1502380371094 0 295 8.010711669921875 295 17.8924560546875 L 295 160.2188720703125 C 295 170.1005859375 285.1502380371094 178.111328125 273 178.111328125 L 22 178.111328125 C 9.849700927734375 178.111328125 0 170.1005859375 0 160.2188720703125 L 0 17.8924560546875 C 0 8.010711669921875 9.849700927734375 0 22 0 Z" stroke="none" fill="#fff"/>
    </g>
    <text id="Técnica_de_las_curvas_V-I_" data-name="Técnica de las curvas V-I 
" transform="translate(1001 8706)" fill="#fff" font-size="38" font-family="Roboto-Black, Roboto" font-weight="800"><tspan x="10.705" y="36">Técnica de las </tspan><tspan x="45.95" y="78">curvas V-I </tspan></text>
    <text id="Ejemplo" transform="translate(1004 8658)" fill="#fff" font-size="18" font-family="Roboto-BlackItalic, Roboto" font-weight="800" font-style="italic"><tspan x="0" y="19">Ejemplo</tspan></text>
    <line id="Línea_411" data-name="Línea 411" x2="139" transform="translate(986 8689)" fill="none" stroke="#f5f5f5" stroke-width="3"/>
    <g id="Grupo_973355" data-name="Grupo 973355" transform="translate(180 8506.24)" opacity="0.46">
      <path id="Trazado_698443" data-name="Trazado 698443" d="M108.973,120.126H2.983v-3H107.916l48.252-34.09,1.9,2.4Z" transform="translate(0.177 0.12)" fill="#fff"/>
      <path id="Trazado_698444" data-name="Trazado 698444" d="M129.847,134.521H2.132v-3H128.605l95.547-83.172h212.7l39.2-36.357,2.226,2.139L438.149,51.349H225.394Z" transform="translate(0.126)" fill="#fff"/>
      <path id="Trazado_698445" data-name="Trazado 698445" d="M302.434,196.106l-45.976-43.99H3.834v-3H257.786l45.965,43.98,211.518-1.591,46.445-34.077,1.95,2.369L516.37,194.5l-.538,0Z" transform="translate(0.227 0.219)" fill="#fff"/>
      <path id="Trazado_698446" data-name="Trazado 698446" d="M614.921,304.064H510.616l-46.876-43.189-139.71-.8L219.474,164.911H4.685v-3H220.757l104.564,95.172,139.72.8,46.868,43.182H614.921Z" transform="translate(0.277 0.297)" fill="#fff"/>
      <path id="Trazado_698447" data-name="Trazado 698447" d="M510.152,318.033,463.74,275.27l-139.711-.8L219.474,179.306H4.685v-3H220.756l104.564,95.172,139.72.8,47.332,43.609Z" transform="translate(0.277 0.323)" fill="#fff"/>
      <path id="Trazado_698448" data-name="Trazado 698448" d="M687.729,349.649l-183.31-.535-.458-.408L453.45,303.594l-143.136-.867-.455-.412-104.7-94.486-202.176-.2,0-3,203.448.2.46.415,104.7,94.489,143.128.867,50.964,45.516,182.051.531Z" transform="translate(0.177 0.378)" fill="#fff"/>
      <path id="Trazado_698449" data-name="Trazado 698449" d="M629.561,381.188,609,361.384l-114.153,1.067-49.894-45.867-140.611-2.133-.452-.412-103.5-94.48H2.132v-3H201.679l103.97,94.911L446.269,313.6l49.859,45.836,114.2-1.066,21.507,20.715Z" transform="translate(0.126 0.422)" fill="#fff"/>
      <path id="Trazado_698450" data-name="Trazado 698450" d="M312.569,287.809l-.468-.431-103.5-95.007L5.54,192.9l-.009-3,204.36-.535.465.426,103.491,95,126.741-1.06.03,3Z" transform="translate(0.328 0.312)" fill="#fff"/>
      <path id="Trazado_698451" data-name="Trazado 698451" d="M555.48,373.641H491.136L442.46,328.853l-140-.532L302,327.91l-104.1-93.426L3.825,233.421l.019-3,195.327,1.071,104.56,93.833,140.026.534.461.423,48.212,44.359H555.48Z" transform="translate(0.227 0.424)" fill="#fff"/>
      <path id="Trazado_698452" data-name="Trazado 698452" d="M616.354,404.157l-18.766-16.651-113.574.533-50.487-44.793L292.3,342.18l-.457-.417-104.1-95.01L2.7,247.284l-.011-3,186.33-.535L293.592,339.19,434.8,340.256l50.467,44.777L598.84,384.5l19.691,17.471Z" transform="translate(0.16 0.469)" fill="#fff"/>
      <path id="Trazado_698453" data-name="Trazado 698453" d="M542.146,400.832l-61.927-.539-49.873-45.315-141.224-.533-.461-.426-102.883-95L5.561,261.679l-.05-3L187.052,256l103.372,95.445,141.209.533L481.513,397.3l60.662.527Z" transform="translate(0.326 0.473)" fill="#fff"/>
      <path id="Trazado_698454" data-name="Trazado 698454" d="M412.414,367.776,283.192,366.7l-.453-.406-104.1-92.893L4.4,272.875l.011-3,175.5.535,104.565,93.3,127.973,1.062Z" transform="translate(0.26 0.444)" fill="#fff"/>
      <path id="Trazado_698455" data-name="Trazado 698455" d="M473.7,429.09l-54.082-47.45-140.036.534-.465-.428L175.024,286.207,4.412,287.27l-.02-3L176.3,283.2l.468.429,104.094,95.54,139.995-.532,54.084,47.45,186.86-.531.011,3Z" transform="translate(0.26 0.525)" fill="#fff"/>
      <path id="Trazado_698456" data-name="Trazado 698456" d="M590.921,450.452l-12.746-13.366H462.269l-49.277-44.253-139.41-.533-.456-.406L168.425,299H4.4v-3H169.683l105.165,93.3,139.42.533,49.271,44.249H579.591l13.692,14.358Z" transform="translate(0.261 0.705)" fill="#fff"/>
      <path id="Trazado_698457" data-name="Trazado 698457" d="M462.193,452.021,411.7,405.092l-140.6-1.066-.454-.408-104.1-93.42-161.012.531-.011-3,162.286-.535,104.568,93.842L413.016,402.1l.46.426,50.006,46.479,54.023-.526.033,3Z" transform="translate(0.328 0.705)" fill="#fff"/>
      <path id="Trazado_698458" data-name="Trazado 698458" d="M262.844,413.753l-102.9-91.3-154.413-.53.013-3,155.664.534.457.405,103.359,91.7Z" transform="translate(0.328 0.521)" fill="#fff"/>
      <path id="Trazado_698459" data-name="Trazado 698459" d="M210.619,406.278,131.16,334.19l-126.751.53-.014-3,128.039-.536.464.421,79.922,72.509Z" transform="translate(0.26 0.517)" fill="#fff"/>
      <path id="Trazado_698460" data-name="Trazado 698460" d="M507.97,504.8l-213.955-.535-.458-.406L116.146,345.919l-111.735.53-.017-3,113.007-.536.463.411L295.28,501.265l212.7.531Z" transform="translate(0.26 0.705)" fill="#fff"/>
      <path id="Trazado_698461" data-name="Trazado 698461" d="M138.6,394.539,97,356.051l-94.292.529-.019-3,95.6-.537L140.822,392.4Z" transform="translate(0.159 0.513)" fill="#fff"/>
      <path id="Trazado_698462" data-name="Trazado 698462" d="M0,396.186l19.207,16.145,35.642-.446-.041-3-34.409.43L2.112,393.945Z" transform="translate(0 0.547)" fill="#fff"/>
      <path id="Trazado_698463" data-name="Trazado 698463" d="M525.42,278.316l-34.994-32.1-175.449-.533-.454-.4-45.068-39.453,2.16-2.2,44.615,39.055,175.49.533,35.914,32.945Z" transform="translate(15.96 0.318)" fill="#fff"/>
      <path id="Trazado_698464" data-name="Trazado 698464" d="M414.568,72.942h-152.6v-3H413.426l34.25-26.655,135.773-.536.013,3-134.64.531Z" transform="translate(15.517)" fill="#fff"/>
      <rect id="Rectángulo_339721" data-name="Rectángulo 339721" width="3.032" height="307.072" transform="matrix(0.002, -1, 1, 0.002, 223.395, 88.937)" fill="#fff"/>
      <path id="Trazado_698465" data-name="Trazado 698465" d="M385.079,130.105,356.1,103.866H194.412L165.39,124.36l-1.9-2.4,29.868-21.092H357.372l29.906,27.075Z" transform="translate(9.684 0.143)" fill="#fff"/>
      <path id="Trazado_698466" data-name="Trazado 698466" d="M473.351,156.116,309.9,155.579,273.994,124.26l2.156-2.2,35,30.527,161.051.529,33.045-26.12,132.776-.536.015,3-131.63.531Z" transform="translate(16.229 0.175)" fill="#fff"/>
      <path id="Trazado_698467" data-name="Trazado 698467" d="M306.138,180.643l-29.3-25.458,2.151-2.208,28.384,24.658,161.676-1.059,34.424-25.8,1.975,2.35-35.282,26.446Z" transform="translate(16.398 0.214)" fill="#fff"/>
      <rect id="Rectángulo_339722" data-name="Rectángulo 339722" width="3.032" height="186.287" transform="translate(344.779 215.581) rotate(-89.826)" fill="#fff"/>
      <path id="Trazado_698468" data-name="Trazado 698468" d="M376,234.488l-.011-3,163.411-.531,50.474-46.383,85.971-.537.021,3-84.692.529-50.48,46.387Z" transform="translate(22.271 0.273)" fill="#fff"/>
      <path id="Trazado_698469" data-name="Trazado 698469" d="M270.194,475.6l-43.8-38.865,127.227.551-.015,3-119.152-.516,37.922,33.644Z" transform="translate(13.41 0.705)" fill="#fff"/>
      <path id="Trazado_698470" data-name="Trazado 698470" d="M640.133,516.616l-33.187-31.548-181.466-.533-43.727-40.412,2.223-2.145,42.8,39.561,181.491.533L642.388,514.5Z" transform="translate(22.612 0.705)" fill="#fff"/>
      <g id="Grupo_973354" data-name="Grupo 973354">
        <g id="Grupo_973353" data-name="Grupo 973353" clip-path="url(#clip-path)">
          <path id="Trazado_698471" data-name="Trazado 698471" d="M158.619,83.982c0,4.57-4.17,8.275-9.314,8.275s-9.315-3.7-9.315-8.275,4.17-8.275,9.315-8.275,9.314,3.7,9.314,8.275" transform="translate(8.292 0.101)" fill="#fff"/>
          <path id="Trazado_698472" data-name="Trazado 698472" d="M214.784,86.648c0,4.57-4.171,8.275-9.315,8.275s-9.315-3.7-9.315-8.275,4.17-8.275,9.315-8.275,9.315,3.7,9.315,8.275" transform="translate(11.619 0.105)" fill="#fff"/>
          <path id="Trazado_698473" data-name="Trazado 698473" d="M282.294,120.77c0,4.57-4.17,8.275-9.314,8.275s-9.315-3.7-9.315-8.275,4.17-8.275,9.315-8.275,9.314,3.7,9.314,8.275" transform="translate(15.618 0.151)" fill="#fff"/>
          <path id="Trazado_698474" data-name="Trazado 698474" d="M387.248,134.632c0,4.57-4.17,8.275-9.314,8.275s-9.315-3.7-9.315-8.275,4.17-8.275,9.315-8.275,9.314,3.7,9.314,8.275" transform="translate(21.834 0.169)" fill="#fff"/>
          <path id="Trazado_698475" data-name="Trazado 698475" d="M518.3,86.648c0,4.57-4.17,8.275-9.314,8.275s-9.315-3.7-9.315-8.275,4.17-8.275,9.315-8.275,9.314,3.7,9.314,8.275" transform="translate(29.597 0.105)" fill="#fff"/>
          <path id="Trazado_698476" data-name="Trazado 698476" d="M541.559,157.024c0,4.57-4.17,8.275-9.314,8.275s-9.315-3.7-9.315-8.275,4.17-8.275,9.315-8.275,9.314,3.7,9.314,8.275" transform="translate(30.974 0.199)" fill="#fff"/>
          <path id="Trazado_698477" data-name="Trazado 698477" d="M632.9,128.767c0,4.57-4.17,8.275-9.314,8.275s-9.315-3.7-9.315-8.275,4.17-8.275,9.315-8.275,9.314,3.7,9.314,8.275" transform="translate(36.385 0.161)" fill="#fff"/>
          <path id="Trazado_698478" data-name="Trazado 698478" d="M674.311,186.348c0,4.57-4.17,8.275-9.314,8.275s-9.315-3.7-9.315-8.275,4.17-8.275,9.315-8.275,9.314,3.7,9.314,8.275" transform="translate(38.838 0.238)" fill="#fff"/>
          <path id="Trazado_698479" data-name="Trazado 698479" d="M517.732,214.072c0,4.57-4.17,8.275-9.314,8.275s-9.315-3.7-9.315-8.275,4.17-8.275,9.315-8.275,9.314,3.7,9.314,8.275" transform="translate(29.563 0.276)" fill="#fff"/>
          <path id="Trazado_698480" data-name="Trazado 698480" d="M277.189,200.743c0,4.57-4.17,8.275-9.315,8.275s-9.314-3.7-9.314-8.275,4.169-8.275,9.314-8.275,9.315,3.7,9.315,8.275" transform="translate(15.315 0.258)" fill="#fff"/>
          <path id="Trazado_698481" data-name="Trazado 698481" d="M329.382,214.605c0,4.57-4.17,8.275-9.314,8.275s-9.315-3.7-9.315-8.275,4.17-8.275,9.315-8.275,9.314,3.7,9.314,8.275" transform="translate(18.407 0.276)" fill="#fff"/>
          <path id="Trazado_698482" data-name="Trazado 698482" d="M382.142,231.133c0,4.57-4.17,8.275-9.314,8.275s-9.315-3.7-9.315-8.275,4.17-8.275,9.315-8.275,9.314,3.7,9.314,8.275" transform="translate(21.532 0.298)" fill="#fff"/>
          <path id="Trazado_698483" data-name="Trazado 698483" d="M432.634,287.114c0,4.57-4.17,8.275-9.314,8.275s-9.315-3.7-9.315-8.275,4.17-8.275,9.315-8.275,9.314,3.7,9.314,8.275" transform="translate(24.523 0.373)" fill="#fff"/>
          <path id="Trazado_698484" data-name="Trazado 698484" d="M499.01,321.769c0,4.57-4.17,8.275-9.314,8.275s-9.315-3.7-9.315-8.275,4.17-8.275,9.315-8.275,9.314,3.7,9.314,8.275" transform="translate(28.454 0.42)" fill="#fff"/>
          <path id="Trazado_698485" data-name="Trazado 698485" d="M597.156,302.575c0,4.57-4.17,8.275-9.314,8.275s-9.315-3.7-9.315-8.275,4.17-8.275,9.315-8.275,9.314,3.7,9.314,8.275" transform="translate(34.268 0.394)" fill="#fff"/>
          <path id="Trazado_698486" data-name="Trazado 698486" d="M661.263,350.559c0,4.57-4.17,8.275-9.314,8.275s-9.315-3.7-9.315-8.275,4.17-8.275,9.315-8.275,9.314,3.7,9.314,8.275" transform="translate(38.065 0.458)" fill="#fff"/>
          <path id="Trazado_698487" data-name="Trazado 698487" d="M605.1,379.882c0,4.57-4.17,8.275-9.314,8.275s-9.315-3.7-9.315-8.275,4.17-8.275,9.315-8.275,9.314,3.7,9.314,8.275" transform="translate(34.738 0.498)" fill="#fff"/>
          <path id="Trazado_698488" data-name="Trazado 698488" d="M534.184,374.018c0,4.57-4.17,8.275-9.314,8.275s-9.315-3.7-9.315-8.275,4.17-8.275,9.315-8.275,9.314,3.7,9.314,8.275" transform="translate(30.538 0.49)" fill="#fff"/>
          <path id="Trazado_698489" data-name="Trazado 698489" d="M526.809,399.609c0,4.57-4.17,8.275-9.314,8.275s-9.315-3.7-9.315-8.275,4.17-8.275,9.315-8.275,9.314,3.7,9.314,8.275" transform="translate(30.101 0.524)" fill="#fff"/>
          <path id="Trazado_698490" data-name="Trazado 698490" d="M593.185,404.407c0,4.57-4.17,8.275-9.314,8.275s-9.315-3.7-9.315-8.275,4.17-8.275,9.315-8.275,9.314,3.7,9.314,8.275" transform="translate(34.032 0.53)" fill="#fff"/>
          <path id="Trazado_698491" data-name="Trazado 698491" d="M138.763,396.41c0,4.57-4.17,8.275-9.314,8.275s-9.315-3.7-9.315-8.275,4.17-8.275,9.315-8.275,9.314,3.7,9.314,8.275" transform="translate(7.116 0.52)" fill="#fff"/>
          <path id="Trazado_698492" data-name="Trazado 698492" d="M212.514,406.54c0,4.57-4.17,8.275-9.314,8.275s-9.315-3.7-9.315-8.275,4.17-8.275,9.315-8.275,9.314,3.7,9.314,8.275" transform="translate(11.484 0.533)" fill="#fff"/>
          <path id="Trazado_698493" data-name="Trazado 698493" d="M263.006,416.67c0,4.57-4.17,8.275-9.314,8.275s-9.315-3.7-9.315-8.275,4.17-8.275,9.315-8.275,9.314,3.7,9.314,8.275" transform="translate(14.475 0.547)" fill="#fff"/>
          <path id="Trazado_698494" data-name="Trazado 698494" d="M388.95,439.6c0,4.57-4.17,8.275-9.314,8.275s-9.315-3.7-9.315-8.275,4.17-8.275,9.315-8.275,9.314,3.7,9.314,8.275" transform="translate(21.935 0.578)" fill="#fff"/>
          <path id="Trazado_698495" data-name="Trazado 698495" d="M504.683,450.792c0,4.57-4.17,8.275-9.314,8.275s-9.315-3.7-9.315-8.275,4.17-8.275,9.315-8.275,9.314,3.7,9.314,8.275" transform="translate(28.79 0.593)" fill="#fff"/>
          <path id="Trazado_698496" data-name="Trazado 698496" d="M496.174,503.041c0,4.57-4.171,8.275-9.315,8.275s-9.315-3.7-9.315-8.275,4.17-8.275,9.315-8.275,9.315,3.7,9.315,8.275" transform="translate(28.286 0.662)" fill="#fff"/>
          <path id="Trazado_698497" data-name="Trazado 698497" d="M573.9,456.123c0,4.57-4.17,8.275-9.314,8.275s-9.315-3.7-9.315-8.275,4.17-8.275,9.315-8.275,9.314,3.7,9.314,8.275" transform="translate(32.89 0.6)" fill="#fff"/>
          <path id="Trazado_698498" data-name="Trazado 698498" d="M638,517.969c0,4.57-4.17,8.275-9.314,8.275s-9.315-3.7-9.315-8.275,4.17-8.275,9.315-8.275S638,513.4,638,517.969" transform="translate(36.687 0.682)" fill="#fff"/>
          <path id="Trazado_698499" data-name="Trazado 698499" d="M169.4,128.234c0,4.57-4.17,8.275-9.314,8.275s-9.315-3.7-9.315-8.275,4.17-8.275,9.315-8.275,9.314,3.7,9.314,8.275" transform="translate(8.93 0.161)" fill="#fff"/>
          <path id="Trazado_698500" data-name="Trazado 698500" d="M464.12,8.275c0,4.57-4.17,8.275-9.314,8.275s-9.315-3.7-9.315-8.275S449.661,0,454.806,0s9.314,3.7,9.314,8.275" transform="translate(26.388)" fill="#fff"/>
          <path id="Trazado_698501" data-name="Trazado 698501" d="M252.615,78.332c-5.719,0-10.373-4.162-10.373-9.276s4.654-9.276,10.373-9.276,10.374,4.162,10.374,9.276-4.654,9.276-10.374,9.276m0-16.55c-4.552,0-8.255,3.262-8.255,7.274s3.7,7.274,8.255,7.274,8.256-3.263,8.256-7.274-3.7-7.274-8.256-7.274" transform="translate(14.349 0.08)" fill="#fff"/>
          <path id="Trazado_698502" data-name="Trazado 698502" d="M575.987,52.741c-5.72,0-10.374-4.162-10.374-9.276s4.654-9.276,10.374-9.276,10.373,4.162,10.373,9.276-4.654,9.276-10.373,9.276m0-16.55c-4.553,0-8.256,3.262-8.256,7.274s3.7,7.274,8.256,7.274,8.255-3.263,8.255-7.274-3.7-7.274-8.255-7.274" transform="translate(33.503 0.046)" fill="#fff"/>
          <path id="Trazado_698503" data-name="Trazado 698503" d="M499.4,157.238c-5.72,0-10.374-4.161-10.374-9.275s4.654-9.276,10.374-9.276,10.373,4.162,10.373,9.276-4.654,9.275-10.373,9.275m0-16.549c-4.553,0-8.256,3.262-8.256,7.274s3.7,7.273,8.256,7.273,8.255-3.262,8.255-7.273-3.7-7.274-8.255-7.274" transform="translate(28.966 0.186)" fill="#fff"/>
          <path id="Trazado_698504" data-name="Trazado 698504" d="M273.606,156.706c-5.72,0-10.374-4.162-10.374-9.276s4.654-9.276,10.374-9.276,10.373,4.162,10.373,9.276-4.654,9.276-10.373,9.276m0-16.55c-4.553,0-8.256,3.262-8.256,7.274s3.7,7.274,8.256,7.274,8.255-3.263,8.255-7.274-3.7-7.274-8.255-7.274" transform="translate(15.592 0.185)" fill="#fff"/>
          <path id="Trazado_698505" data-name="Trazado 698505" d="M518.687,291.059c-5.719,0-10.373-4.161-10.373-9.275s4.654-9.276,10.373-9.276,10.374,4.161,10.374,9.276-4.654,9.275-10.374,9.275m0-16.549c-4.552,0-8.255,3.263-8.255,7.274s3.7,7.273,8.255,7.273,8.256-3.262,8.256-7.273-3.7-7.274-8.256-7.274" transform="translate(30.109 0.365)" fill="#fff"/>
          <path id="Trazado_698506" data-name="Trazado 698506" d="M632.151,436.61c-5.719,0-10.373-4.161-10.373-9.275s4.654-9.276,10.373-9.276,10.374,4.161,10.374,9.276-4.654,9.275-10.374,9.275m0-16.549c-4.552,0-8.255,3.263-8.255,7.274s3.7,7.273,8.255,7.273,8.256-3.262,8.256-7.273-3.7-7.274-8.256-7.274" transform="translate(36.829 0.56)" fill="#fff"/>
          <path id="Trazado_698507" data-name="Trazado 698507" d="M398.416,375.3c-5.719,0-10.373-4.161-10.373-9.275s4.654-9.276,10.373-9.276,10.374,4.161,10.374,9.276-4.654,9.275-10.374,9.275m0-16.549c-4.552,0-8.255,3.263-8.255,7.274s3.7,7.273,8.255,7.273,8.256-3.262,8.256-7.273-3.7-7.274-8.256-7.274" transform="translate(22.985 0.478)" fill="#fff"/>
          <path id="Trazado_698508" data-name="Trazado 698508" d="M354.733,448.34c-5.72,0-10.374-4.161-10.374-9.275s4.654-9.276,10.374-9.276,10.373,4.161,10.373,9.276-4.654,9.275-10.373,9.275m0-16.549c-4.553,0-8.256,3.263-8.256,7.274s3.7,7.273,8.256,7.273,8.255-3.262,8.255-7.273-3.7-7.274-8.255-7.274" transform="translate(20.397 0.575)" fill="#fff"/>
          <path id="Trazado_698509" data-name="Trazado 698509" d="M274.741,488.327c-5.72,0-10.374-4.162-10.374-9.276s4.654-9.276,10.374-9.276,10.373,4.161,10.373,9.276-4.654,9.276-10.373,9.276m0-16.55c-4.553,0-8.256,3.263-8.256,7.274s3.7,7.274,8.256,7.274S283,483.062,283,479.05s-3.7-7.274-8.255-7.274" transform="translate(15.659 0.629)" fill="#fff"/>
          <path id="Trazado_698510" data-name="Trazado 698510" d="M58.538,419.285c-4.8,0-8.707-3.5-8.707-7.794s3.906-7.794,8.707-7.794,8.706,3.5,8.706,7.794-3.905,7.794-8.706,7.794m0-13.586c-3.633,0-6.588,2.6-6.588,5.792s2.955,5.792,6.588,5.792,6.587-2.6,6.587-5.792S62.17,405.7,58.538,405.7" transform="translate(2.952 0.541)" fill="#fff"/>
          <path id="Trazado_698511" data-name="Trazado 698511" d="M122.914,5.126c0-2.318,2.326-4.2,5.2-4.2s5.2,1.879,5.2,4.2a4.319,4.319,0,0,1-3.293,3.9V61.942L76.481,98.74H3.3V96H74.164V28.916a4.2,4.2,0,0,1-2.88-3.738c0-2.318,2.326-4.2,5.2-4.2s5.2,1.879,5.2,4.2c0,2.021-1.77,3.706-4.125,4.105V94.412l23.4-16.087V19.279a4.366,4.366,0,0,1-3.5-3.949c0-2.318,2.327-4.2,5.2-4.2s5.2,1.879,5.2,4.2a4.366,4.366,0,0,1-3.5,3.949V76l22.286-15.319V9.128c-2.142-.519-3.713-2.1-3.713-4" transform="translate(0.196 0.001)" fill="#fff"/>
          <path id="Trazado_698512" data-name="Trazado 698512" d="M124.691,467.876c0,2.318,2.326,4.2,5.2,4.2s5.2-1.878,5.2-4.2a4.319,4.319,0,0,0-3.293-3.9V411.06l-53.531-36.8H5.079V377H75.941v67.087a4.2,4.2,0,0,0-2.88,3.739c0,2.318,2.326,4.2,5.2,4.2s5.2-1.878,5.2-4.2c0-2.021-1.77-3.706-4.125-4.105V378.59l23.4,16.086v59.047a4.366,4.366,0,0,0-3.5,3.949c0,2.318,2.327,4.2,5.2,4.2s5.2-1.879,5.2-4.2a4.366,4.366,0,0,0-3.5-3.949V397L128.4,412.324v51.55c-2.142.519-3.713,2.1-3.713,4" transform="translate(0.301 0.501)" fill="#fff"/>
        </g>
      </g>
    </g>
  </g>
</svg>
