<svg xmlns="http://www.w3.org/2000/svg" xmlns:xlink="http://www.w3.org/1999/xlink" width="543.75" height="186" viewBox="0 0 543.75 186">
  <defs>
    <clipPath id="clip-path">
      <rect id="Rectángulo_339287" data-name="Rectángulo 339287" width="142.34" height="142.384" fill="none"/>
    </clipPath>
  </defs>
  <g id="Grupo_973506" data-name="Grupo 973506" transform="translate(-223 -863)">
    <g id="Rectángulo_339285" data-name="Rectángulo 339285" transform="translate(223 905)" fill="#3c0061" stroke="#707070" stroke-width="1">
      <rect width="505" height="129" rx="25" stroke="none"/>
      <rect x="0.5" y="0.5" width="504" height="128" rx="24.5" fill="none"/>
    </g>
    <text id="Fallas_en_general_del_circuito_provocadas_por_errores_de_ensamble_o_errores_como_tal_del_diseño" data-name="Fallas en general del circuito provocadas por errores de ensamble o errores como tal del diseño" transform="translate(329.007 934.347)" fill="#fff" font-size="16" font-family="Roboto-Regular, Roboto"><tspan x="0" y="15">Fallas en general del circuito provocadas </tspan><tspan x="0" y="39">por errores de ensamble o errores como </tspan><tspan x="0" y="63">tal del diseño</tspan></text>
    <text id="A_" data-name="A
" transform="translate(241 1000)" fill="#ffce30" font-size="100" font-family="Roboto-BlackItalic, Roboto" font-weight="800" font-style="italic"><tspan x="0" y="0">A</tspan><tspan x="0" y="22"></tspan></text>
    <g id="Grupo_972948" data-name="Grupo 972948" transform="translate(624.41 863)">
      <g id="Grupo_972947" data-name="Grupo 972947" clip-path="url(#clip-path)">
        <path id="Trazado_697296" data-name="Trazado 697296" d="M38.042,39.118h90.55a10.762,10.762,0,0,1,10.5,11.007V125.8a10.762,10.762,0,0,1-10.5,11.007H38.042a10.762,10.762,0,0,1-10.5-11.007V50.125a10.762,10.762,0,0,1,10.5-11.007" transform="translate(-12.239 -17.382)" fill="#00cca7"/>
        <path id="Trazado_697297" data-name="Trazado 697297" d="M42.669,16.53c.043-4.362-.436-8.893,3.67-11.919,3.911-2.883,7.866-2.724,11.77-.083,6.343-5.913,11-5.921,15.6-.682,3.361-.359,6.472-1.452,9.115-.761,2.66.7,4.855,3.169,7.635,5.133,5.586-2.514,11.511-.733,14.181,8.437.825-.97,1.534-1.7,2.121-2.511a21.35,21.35,0,0,1,33.483-2.018c1.592,1.745,2.579,3.6,1.557,6.024-1.048,2.483-3,3.343-5.553,3.262a27.078,27.078,0,0,1-3.605-.014c-3.461-.587-4.91,1.99-6.643,4.092A1.511,1.511,0,0,0,126,26.945c1.713,1.964,3.037,4.5,6.392,4.037a10.566,10.566,0,0,1,4.948.155,10.026,10.026,0,0,1,4.377,3.253c1.285,1.76.4,3.712-.921,5.324a21.34,21.34,0,0,1-33.692-.92c-.675-.917-1.37-1.819-2.034-2.7-.75,5.652-1.144,11.14-2.28,16.469-1.147,5.374-3.032,10.592-4.735,16.359h9.44c4.537,0,9.074-.044,13.611.025a2.939,2.939,0,0,0,3.22-1.828,9.271,9.271,0,0,1,10.611-5.129,9.522,9.522,0,0,1-.08,18.542c-4.177,1.007-8.366-1.1-10.679-5.158a3.489,3.489,0,0,0-2.307-1.72c-7.868-.121-15.739-.066-23.609-.047a3.718,3.718,0,0,0-.888.264v9.146h7.447c3.611,0,7.223-.064,10.833.019,4.686.108,7.547,3.038,7.667,7.707a16.724,16.724,0,0,1-.008,2.22c-.305,2.8.164,4.781,3.132,6.362,3.68,1.959,4.793,6.826,3.361,10.772a9.5,9.5,0,0,1-18.111-.967c-.958-4.223.7-8.581,4.453-10.423,1.932-.948,2.356-2.045,2.333-4.008-.086-7.286.458-6.827-6.749-6.8-4.709.019-9.418,0-14.479,0-.019,6.539,1.124,13.591-7.192,16.272,0,6.3-.016,12.5.009,18.7.008,1.909,1.008,2.877,2.961,2.852,2.218-.028,4.436-.006,6.586-.006,3.144-5.914,6.766-8,11.634-6.784a9.2,9.2,0,0,1,7.237,8.99,9.431,9.431,0,0,1-6.844,9.348,9.219,9.219,0,0,1-10.7-4.435c-.968-1.906-2.078-2.327-4.041-2.312-10.082.077-11.543-1.439-11.543-11.522V104.7H73.464c0,5.994-.076,11.98.1,17.959.021.687,1.389,1.458,2.26,1.974A9.561,9.561,0,0,1,79.191,137.9,9.473,9.473,0,1,1,63.649,127.1a5.632,5.632,0,0,1,2.234-2.01c2.9-.976,3.053-3.06,2.964-5.637-.169-4.875-.049-9.761-.049-14.793H56.89c0,5,0,9.888,0,14.772,0,1.481.041,2.968-.074,4.441A6.675,6.675,0,0,1,51,130.325a15.663,15.663,0,0,1-4.14.217c-2.75-.252-4.646.245-6.155,3.091-1.895,3.573-6.626,4.781-10.51,3.5a9.37,9.37,0,0,1-6.435-9.357,9.434,9.434,0,0,1,17.416-4.684c.482.784.863,1.63,1.384,2.627,2.193,0,4.5,0,6.806,0a2.484,2.484,0,0,0,2.8-2.72c.044-5.833.057-11.667-.032-17.5a2.467,2.467,0,0,0-1.209-1.785c-4.3-2.028-6.051-5.464-5.919-10.069.051-1.756.008-3.515.008-5.508a21.172,21.172,0,0,0-2.15-.224q-7.639-.028-15.278-.007c-3.451.009-3.75.33-3.776,3.886a14.219,14.219,0,0,1-.011,1.665c-.319,2.544.168,4.293,2.868,5.669,3.663,1.866,5,6.692,3.7,10.686a9.485,9.485,0,0,1-18.184-.666c-1.009-4.169.616-8.59,4.406-10.4,2.115-1.013,2.487-2.29,2.338-4.262-.725-9.667,3.159-11.93,11.422-11.509,4.777.244,9.578.044,14.511.044V73.575H37.45c-5.555,0-11.113-.074-16.664.075a3.72,3.72,0,0,0-2.637,1.621c-2.428,4.2-6.635,6.316-10.9,5.209a9.5,9.5,0,0,1-.066-18.448c4.3-1.122,8.529.939,10.909,5.159.414.733,1.366,1.64,2.084,1.652,7.1.123,14.212.074,21.99.074a82.583,82.583,0,0,0-5.992-7.059,16.446,16.446,0,0,1-5.391-14.735,37.018,37.018,0,0,0,.018-3.815C26.129,46.5,21.382,47.958,16.13,47.4a21.72,21.72,0,0,1-14.8-7.865c-2.823-3.355-.914-7.9,3.484-8.448,1.645-.205,3.327-.1,4.992-.151.831-.026,1.961.24,2.437-.194a63.586,63.586,0,0,0,4.336-4.727C14.841,24.49,13.314,22.5,11.3,21.586c-1.615-.736-3.822-.193-5.765-.183A5.064,5.064,0,0,1,.477,18.229c-.967-2.141-.327-3.92,1.1-5.609,8.819-10.472,25.221-10.183,33.26.855,2.063,2.832,4.207,3.855,7.836,3.054m.064,19.42c-6.319-.686-7.161.033-7.161,5.758a79.85,79.85,0,0,0,.087,8.878,11.523,11.523,0,0,0,2.01,5.48c2.848,3.754,6.03,7.26,9.168,10.786a11.889,11.889,0,0,1,3.054,8.373q-.074,9.582,0,19.164c.029,3.6,1.7,5.225,5.309,5.234q15.831.042,31.663,0c3.9-.008,5.463-1.619,5.49-5.621.035-4.906.159-9.819-.029-14.719a43.983,43.983,0,0,1,2.383-16.072c1.486-4.366,2.732-8.815,4-13.253a16.556,16.556,0,0,0,.743-4.343c.068-9.258.055-18.516.029-27.774-.009-3.416-1.977-5.8-4.666-5.8-2.747-.006-4.726,2.325-4.755,5.729-.039,4.629-.012,9.258-.01,13.887,0,1.767.252,3.923-2.258,3.958-2.722.038-2.423-2.262-2.429-4.093-.021-6.11.036-12.221-.028-18.331-.039-3.752-1.909-5.9-4.865-5.839-2.878.057-4.516,2.09-4.54,5.78-.036,5.555-.013,11.11-.013,16.664,0,1.81-.354,3.581-2.573,3.486-2.019-.087-2.253-1.762-2.24-3.487.043-6.2.032-12.405.011-18.609C71.1,7.358,69.191,4.96,66.269,5.023c-2.948.063-4.588,2.2-4.594,6.044-.009,6.2-.029,12.406.013,18.609.012,1.83-.249,3.623-2.423,3.609s-2.444-1.843-2.438-3.647c.019-5.554.03-11.11-.005-16.664-.023-3.651-1.727-5.66-4.651-5.62-2.856.038-4.725,2.176-4.761,5.673-.058,5.646-.017,11.295-.019,16.942,0,3.333.172,6.682-.117,9.989-.089,1.016-1.45,1.921-2.229,2.877-.771-.956-1.86-1.806-2.226-2.9-.387-1.154-.087-2.538-.087-3.986m-.127-14.182a4.928,4.928,0,0,0-1.249-.238c-4.762.532-7.773-1.627-10.574-5.48-5.806-7.986-17.628-8.406-24.6-1.33a19.839,19.839,0,0,0-1.49,2.058c2.945,0,5.328-.088,7.7.019,4.135.187,9.29,6.2,8.85,10.2-.406,3.7-5.817,8.636-9.581,8.7-2.17.036-4.341.006-6.959.006a14.49,14.49,0,0,0,.988,1.552c6.682,7.435,18.524,7.566,24.611-.338,3.195-4.148,6.508-6.578,11.743-6.088.138.013.3-.182.562-.358Zm61.856,7.848c2.573,2.463,4.669,3.951,6.094,5.924,6.323,8.75,18.431,9.731,25.789,1.91a10.539,10.539,0,0,0,1.028-1.735,23.039,23.039,0,0,0-3.438.024c-5.141.872-8.821-1.417-11.422-5.526a9.006,9.006,0,0,1-1.363-5.107c.261-3.636,5.841-8.28,9.517-8.338,2.154-.034,4.309-.007,6.751-.007-5.765-9.14-19.49-9.154-26.254-.631-1.8,2.264-4.091,4.135-6.7,6.727ZM21.289,111.438a4.648,4.648,0,0,0,4.8-4.638,4.755,4.755,0,0,0-4.789-4.7,4.705,4.705,0,0,0-4.63,4.547,4.594,4.594,0,0,0,4.617,4.79m99.492,0a4.6,4.6,0,0,0,4.793-4.616,4.715,4.715,0,0,0-4.735-4.727,4.774,4.774,0,0,0-4.685,4.53,4.653,4.653,0,0,0,4.627,4.813M37.846,128.2a4.506,4.506,0,0,0-4.632-4.732,4.769,4.769,0,0,0-4.76,4.719,4.942,4.942,0,0,0,4.6,4.682,4.708,4.708,0,0,0,4.79-4.67m71.112-4.731a4.5,4.5,0,0,0-4.557,4.8,4.678,4.678,0,0,0,4.58,4.6,4.918,4.918,0,0,0,4.807-4.752,4.762,4.762,0,0,0-4.83-4.649M9.644,66.583A4.661,4.661,0,0,0,9.266,75.9a4.662,4.662,0,1,0,.378-9.313m127.716,4.73a4.568,4.568,0,0,0-4.645-4.729,4.659,4.659,0,0,0-.127,9.318,4.54,4.54,0,0,0,4.772-4.589M71.248,128.128a4.7,4.7,0,0,0-4.784,4.662,4.657,4.657,0,0,0,9.309.254,4.7,4.7,0,0,0-4.525-4.916" transform="translate(0 0)" fill="#161615"/>
        <path id="Trazado_697298" data-name="Trazado 697298" d="M71.112,39.964c0,1.449-.3,2.833.087,3.986.367,1.092,1.456,1.941,2.227,2.9.778-.956,2.139-1.861,2.228-2.877.289-3.308.116-6.656.117-9.989,0-5.648-.039-11.3.019-16.942.036-3.5,1.9-5.634,4.761-5.673,2.924-.039,4.628,1.97,4.651,5.621.035,5.554.024,11.11.006,16.664-.006,1.8.276,3.632,2.437,3.646s2.435-1.779,2.423-3.609c-.042-6.2-.023-12.405-.013-18.608.006-3.84,1.646-5.982,4.594-6.045,2.923-.062,4.834,2.335,4.846,6.164.021,6.2.032,12.406-.011,18.609-.012,1.725.221,3.4,2.241,3.487,2.218.1,2.573-1.675,2.573-3.486,0-5.555-.023-11.11.013-16.665.023-3.69,1.661-5.723,4.539-5.78,2.957-.059,4.826,2.088,4.865,5.839.064,6.11.008,12.22.029,18.331.006,1.831-.292,4.131,2.429,4.093,2.51-.035,2.259-2.19,2.258-3.958,0-4.629-.03-9.258.01-13.887.029-3.4,2.008-5.734,4.755-5.729,2.689,0,4.656,2.387,4.666,5.8.026,9.258.038,18.516-.029,27.774a16.559,16.559,0,0,1-.743,4.344c-1.266,4.437-2.512,8.887-4,13.253A43.992,43.992,0,0,0,120.708,83.3c.189,4.9.064,9.812.03,14.719-.028,4-1.6,5.614-5.491,5.621q-15.831.033-31.663,0c-3.614-.01-5.28-1.637-5.309-5.234q-.079-9.582,0-19.164a11.887,11.887,0,0,0-3.054-8.373c-3.137-3.526-6.32-7.031-9.168-10.785a11.527,11.527,0,0,1-2.01-5.48,79.858,79.858,0,0,1-.087-8.878c0-5.725.842-6.444,7.161-5.758" transform="translate(-28.379 -4.015)" fill="#fec493"/>
        <path id="Trazado_697299" data-name="Trazado 697299" d="M46.357,29.539v8.706c-.267.176-.424.371-.562.358-5.236-.49-8.549,1.94-11.743,6.088-6.087,7.9-17.929,7.773-24.611.337a14.487,14.487,0,0,1-.987-1.551c2.618,0,4.789.029,6.959-.007,3.765-.062,9.175-5,9.582-8.7.44-4.008-4.716-10.018-8.851-10.2-2.374-.108-4.758-.02-7.7-.02a19.756,19.756,0,0,1,1.49-2.058c6.977-7.076,18.8-6.656,24.605,1.33,2.8,3.852,5.812,6.012,10.573,5.479a4.954,4.954,0,0,1,1.249.239" transform="translate(-3.75 -7.771)" fill="#dadada"/>
        <path id="Trazado_697300" data-name="Trazado 697300" d="M188,37.469V30.71c2.611-2.592,4.9-4.462,6.7-6.727,6.763-8.523,20.49-8.509,26.254.631-2.442,0-4.6-.028-6.751.006-3.675.058-9.255,4.7-9.516,8.338a9.006,9.006,0,0,0,1.363,5.107c2.6,4.11,6.281,6.4,11.422,5.526a23.039,23.039,0,0,1,3.438-.024,10.473,10.473,0,0,1-1.029,1.735c-7.358,7.821-19.466,6.841-25.789-1.91-1.426-1.973-3.522-3.461-6.094-5.924" transform="translate(-83.539 -7.853)" fill="#dadada"/>
        <path id="Trazado_697301" data-name="Trazado 697301" d="M34.62,193.086A4.594,4.594,0,0,1,30,188.3a4.705,4.705,0,0,1,4.63-4.547,4.755,4.755,0,0,1,4.789,4.7,4.647,4.647,0,0,1-4.8,4.637" transform="translate(-13.331 -81.649)" fill="#e1b127"/>
        <path id="Trazado_697302" data-name="Trazado 697302" d="M213.667,193.081a4.652,4.652,0,0,1-4.626-4.812,4.774,4.774,0,0,1,4.685-4.53,4.716,4.716,0,0,1,4.735,4.727,4.6,4.6,0,0,1-4.794,4.616" transform="translate(-92.886 -81.645)" fill="#e1b127"/>
        <path id="Trazado_697303" data-name="Trazado 697303" d="M60.6,226.939a4.707,4.707,0,0,1-4.79,4.669,4.942,4.942,0,0,1-4.6-4.682,4.769,4.769,0,0,1,4.76-4.72,4.506,4.506,0,0,1,4.632,4.732" transform="translate(-22.754 -98.738)" fill="#e1b127"/>
        <path id="Trazado_697304" data-name="Trazado 697304" d="M192.448,222.209a4.762,4.762,0,0,1,4.83,4.649,4.917,4.917,0,0,1-4.807,4.752,4.677,4.677,0,0,1-4.58-4.6,4.5,4.5,0,0,1,4.557-4.8" transform="translate(-83.489 -98.739)" fill="#e1b127"/>
        <path id="Trazado_697305" data-name="Trazado 697305" d="M13.551,119.826a4.662,4.662,0,1,1-.378,9.313,4.661,4.661,0,0,1,.378-9.313" transform="translate(-3.907 -53.244)" fill="#e1b127"/>
        <path id="Trazado_697306" data-name="Trazado 697306" d="M239.726,124.559a4.539,4.539,0,0,1-4.772,4.588,4.659,4.659,0,0,1,.127-9.317,4.568,4.568,0,0,1,4.645,4.729" transform="translate(-102.366 -53.247)" fill="#e1b127"/>
        <path id="Trazado_697307" data-name="Trazado 697307" d="M124.4,230.59a4.7,4.7,0,0,1,4.525,4.916,4.657,4.657,0,0,1-9.309-.254,4.7,4.7,0,0,1,4.784-4.662" transform="translate(-53.151 -102.462)" fill="#e1b127"/>
      </g>
    </g>
  </g>
</svg>
