<svg xmlns="http://www.w3.org/2000/svg" xmlns:xlink="http://www.w3.org/1999/xlink" width="922.718" height="615.11" viewBox="0 0 922.718 615.11">
  <defs>
    <clipPath id="clip-path">
      <rect id="Rect치ngulo_339320" data-name="Rect치ngulo 339320" width="905.718" height="615.11" fill="none"/>
    </clipPath>
  </defs>
  <g id="Grupo_973502" data-name="Grupo 973502" transform="translate(-235.282 -4362.333)">
    <g id="Grupo_973003" data-name="Grupo 973003" transform="translate(235.282 4362.333)">
      <g id="Grupo_973002" data-name="Grupo 973002" clip-path="url(#clip-path)">
        <path id="Trazado_697448" data-name="Trazado 697448" d="M780.1,339.4v-3.365H718.979V0h-3.365v287.43H598.9l-30.589-51.467h142.5V232.6h-144.5L537.5,184.121H681.531v-3.365H535.978v.8L503.4,126.748l-2.891,1.719L623.875,336.031H410.137l.043-.077-57.244-99,137.57-.987-.024-3.365-139.074,1,.006.721-29.022-50.194h144.8v-3.365H321.636v2.059l-33.561-58.045-2.912,1.685L406.31,335.982l-.027.048H165.428l-18.99-45.237h142.8v-3.365H145.025l-21.606-51.467h143.76V232.6H122.006l-20.351-48.476h142.22v-3.365H100.242L76.82,124.963l-3.1,1.3,88.062,209.766H0V339.4H161.223L74.7,557.665l3.128,1.239,23.858-60.187v.187H247.24v-3.365H102.946l20.8-52.466v1H269.3v-3.365H124.682L143.9,392.232H288.114v-3.365H145.231L164.843,339.4H404.406L347.87,440.709h-.811v1.454l-64.9,116.3,2.94,1.64,34.419-61.682v.483H470.554v-3.365H321.126l28.72-51.466H492.612v-3.365H351.723l27.612-49.481v1H511.428v-3.365H380.653L408.26,339.4H625.313L495.548,546.424l2.85,1.788L530.37,497.2v1.7H675.924v-3.365H531.413l32.258-51.466H708.948v-3.365H565.781l31.384-50.072v1.595H715.614V615.111h3.365V339.4Zm-179.2-48.6H715.614v45.237H627.789Zm114.712,98.073H598.275L629,339.852l.286-.456h86.331Z" transform="translate(0 0)" fill="#696969"/>
        <rect id="Rect치ngulo_339319" data-name="Rect치ngulo 339319" width="127.234" height="3.365" transform="translate(385.316 287.429)" fill="#696969"/>
        <path id="Trazado_697449" data-name="Trazado 697449" d="M465.56,120.118H418.206A14.206,14.206,0,0,1,404,105.911v-5.483a14.206,14.206,0,0,1,14.207-14.206H465.56a14.206,14.206,0,0,1,14.207,14.206v5.483a14.206,14.206,0,0,1-14.207,14.207" transform="translate(49.108 10.481)" fill="#68006a"/>
        <path id="Trazado_697450" data-name="Trazado 697450" d="M278.893,120.118H231.539a14.206,14.206,0,0,1-14.207-14.207v-5.483a14.206,14.206,0,0,1,14.207-14.206h47.354A14.206,14.206,0,0,1,293.1,100.428v5.483a14.206,14.206,0,0,1-14.207,14.207" transform="translate(26.418 10.481)" fill="#900095"/>
        <path id="Trazado_697451" data-name="Trazado 697451" d="M92.227,120.118H44.873a14.206,14.206,0,0,1-14.207-14.207v-5.483A14.206,14.206,0,0,1,44.873,86.222H92.227a14.206,14.206,0,0,1,14.207,14.206v5.483a14.206,14.206,0,0,1-14.207,14.207" transform="translate(3.728 10.481)" fill="#68006a"/>
        <path id="Trazado_697452" data-name="Trazado 697452" d="M464.671,521.9H417.317a14.206,14.206,0,0,1-14.207-14.207v-5.483A14.206,14.206,0,0,1,417.317,488h47.354a14.206,14.206,0,0,1,14.207,14.206v5.483A14.206,14.206,0,0,1,464.671,521.9" transform="translate(49 59.319)" fill="#68006a"/>
        <path id="Trazado_697453" data-name="Trazado 697453" d="M277.116,521.9H229.762a14.206,14.206,0,0,1-14.207-14.207v-5.483A14.206,14.206,0,0,1,229.762,488h47.354a14.206,14.206,0,0,1,14.207,14.206v5.483A14.206,14.206,0,0,1,277.116,521.9" transform="translate(26.202 59.319)" fill="#900095"/>
        <path id="Trazado_697454" data-name="Trazado 697454" d="M90.449,521.9H43.095a14.206,14.206,0,0,1-14.207-14.207v-5.483A14.206,14.206,0,0,1,43.095,488H90.449a14.206,14.206,0,0,1,14.207,14.206v5.483A14.206,14.206,0,0,1,90.449,521.9" transform="translate(3.512 59.319)" fill="#68006a"/>
        <path id="Trazado_697447" data-name="Trazado 697447" d="M808.658,345.316H694.011a14.456,14.456,0,0,1-14.456-14.456V282.011a14.455,14.455,0,0,1,14.456-14.456H808.658a14.456,14.456,0,0,1,14.456,14.456V330.86a14.456,14.456,0,0,1-14.456,14.456" transform="translate(82.604 32.523)" fill="#ffce30"/>
        <text id="PROBLEMA" transform="translate(780.718 326.667)" fill="#12263f" font-size="20" font-family="Roboto-Black, Roboto" font-weight="800"><tspan x="-53.066" y="19">PROBLEMA</tspan></text>
      </g>
    </g>
    <text id="CAUSA" transform="translate(455 4394)" fill="#12263f" font-size="24" font-family="Roboto-Black, Roboto" font-weight="800"><tspan x="-39.609" y="23">CAUSA</tspan></text>
    <text id="EFECTO" transform="translate(975 4394)" fill="#12263f" font-size="24" font-family="Roboto-Black, Roboto" font-weight="800"><tspan x="-43.383" y="23">EFECTO</tspan></text>
  </g>
</svg>
