<svg xmlns="http://www.w3.org/2000/svg" xmlns:xlink="http://www.w3.org/1999/xlink" width="1240" height="90" viewBox="0 0 1240 90">
  <defs>
    <clipPath id="clip-path">
      <rect id="Rectángulo_339725" data-name="Rectángulo 339725" width="1240" height="90" transform="translate(-6800 -3269)" fill="#fff" stroke="#707070" stroke-width="1"/>
    </clipPath>
    <clipPath id="clip-path-2">
      <rect id="Rectángulo_339723" data-name="Rectángulo 339723" width="298.403" height="220.482" fill="none"/>
    </clipPath>
    <linearGradient id="linear-gradient" x2="1" y2="1" gradientUnits="objectBoundingBox">
      <stop offset="0" stop-color="#3c0061"/>
      <stop offset="1" stop-color="#b3009d"/>
    </linearGradient>
  </defs>
  <g id="Grupo_973357" data-name="Grupo 973357" transform="translate(6833 3293)">
    <g id="Enmascarar_grupo_75" data-name="Enmascarar grupo 75" transform="translate(-33 -24)" clip-path="url(#clip-path)">
      <g id="Grupo_973355" data-name="Grupo 973355" transform="translate(-6800 -3308.815)" opacity="0.46">
        <path id="Trazado_698443" data-name="Trazado 698443" d="M47.332,98.556H2.983V97.3H46.89L67.08,83.036l.8,1.005Z" transform="translate(-1.661 -48.241)" fill="#fff"/>
        <path id="Trazado_698444" data-name="Trazado 698444" d="M55.572,63.262H2.132V62.007h52.92l39.98-34.8h89l16.4-15.213.932.9L184.575,28.461H95.552Z" transform="translate(-1.187 -6.974)" fill="#fff"/>
        <path id="Trazado_698445" data-name="Trazado 698445" d="M128.778,168.778,109.54,150.371H3.834v-1.255H110.1l19.233,18.4,88.506-.666,19.434-14.259.816.991-19.79,14.52-.225,0Z" transform="translate(-2.135 -86.63)" fill="#fff"/>
        <path id="Trazado_698446" data-name="Trazado 698446" d="M260.026,221.392H216.382l-19.614-18.072-58.459-.335-43.749-39.82H4.685v-1.255H95.1l43.753,39.823,58.463.334,19.611,18.069h43.1Z" transform="translate(-2.608 -94.038)" fill="#fff"/>
        <path id="Trazado_698447" data-name="Trazado 698447" d="M216.188,235.609l-19.42-17.893-58.459-.335-43.749-39.82H4.685v-1.255H95.1l43.753,39.823,58.463.335,19.805,18.247Z" transform="translate(-2.608 -102.399)" fill="#fff"/>
        <path id="Trazado_698448" data-name="Trazado 698448" d="M289.5,265.31l-76.7-.224-.191-.171L191.471,246.04l-59.893-.363-.191-.172L87.577,205.969l-84.6-.083,0-1.255,85.129.084.192.174,43.811,39.537,59.889.363,21.325,19.045,76.176.222Z" transform="translate(-1.66 -118.848)" fill="#fff"/>
        <path id="Trazado_698449" data-name="Trazado 698449" d="M264.667,285.445l-8.6-8.287L208.3,277.6l-20.877-19.192-58.836-.892-.189-.172L85.091,217.814H2.132v-1.255h83.5l43.5,39.714,58.839.893,20.863,19.179,47.783-.446,9,8.668Z" transform="translate(-1.187 -125.768)" fill="#fff"/>
        <path id="Trazado_698450" data-name="Trazado 698450" d="M134.005,230.558l-.2-.18L90.5,190.624l-84.969.222,0-1.255,85.51-.224.195.178,43.3,39.753,53.032-.444.012,1.255Z" transform="translate(-3.08 -110)" fill="#fff"/>
        <path id="Trazado_698451" data-name="Trazado 698451" d="M234.654,290.349H207.731l-20.368-18.741-58.582-.223-.191-.172-43.56-39.092-81.2-.445.008-1.255,81.731.448,43.751,39.263,58.591.223.193.177,20.173,18.561h26.382Z" transform="translate(-2.13 -133.829)" fill="#fff"/>
        <path id="Trazado_698452" data-name="Trazado 698452" d="M259.468,310.868l-7.852-6.967-47.523.223-21.125-18.743-59.095-.446-.191-.175L80.124,245.006,2.7,245.228l0-1.255,77.966-.224,43.755,39.935,59.085.446,21.117,18.736,47.523-.223,8.239,7.31Z" transform="translate(-1.5 -141.56)" fill="#fff"/>
        <path id="Trazado_698453" data-name="Trazado 698453" d="M230.056,316.6l-25.912-.226-20.868-18.961-59.093-.223-.193-.178L80.941,257.267,5.533,258.378l-.021-1.255L81.474,256l43.254,39.937,59.086.223,20.871,18.965,25.383.221Z" transform="translate(-3.069 -148.686)" fill="#fff"/>
        <path id="Trazado_698454" data-name="Trazado 698454" d="M175.124,310.84l-54.07-.448-.19-.17L77.3,271.352,4.4,271.13l0-1.255,73.433.224,43.753,39.041,53.548.444Z" transform="translate(-2.448 -156.765)" fill="#fff"/>
        <path id="Trazado_698455" data-name="Trazado 698455" d="M200.765,344.245l-22.63-19.855-58.6.223-.195-.179L75.79,284.458,4.4,284.9l-.008-1.255,71.933-.448.2.179,43.556,39.977,58.578-.223,22.631,19.855,78.188-.222,0,1.255Z" transform="translate(-2.445 -164.481)" fill="#fff"/>
        <path id="Trazado_698456" data-name="Trazado 698456" d="M249.819,360.627l-5.333-5.593h-48.5l-20.619-18.517-58.333-.223-.191-.17-43.81-38.87H4.4V296H73.56l44,39.041,58.338.223,20.617,18.515h48.56l5.729,6.008Z" transform="translate(-2.45 -171.85)" fill="#fff"/>
        <path id="Trazado_698457" data-name="Trazado 698457" d="M196.612,367.794l-21.126-19.637-58.831-.446-.19-.171-43.557-39.09-67.372.222,0-1.255,67.905-.224L117.19,346.46l58.844.446.192.178,20.924,19.448,22.6-.22.014,1.255Z" transform="translate(-3.079 -178.36)" fill="#fff"/>
        <path id="Trazado_698458" data-name="Trazado 698458" d="M113.2,358.6,70.14,320.4l-64.611-.222.005-1.255,65.134.223.191.169,43.248,38.371Z" transform="translate(-3.079 -185.259)" fill="#fff"/>
        <path id="Trazado_698459" data-name="Trazado 698459" d="M90.685,362.606,57.437,332.442,4.4,332.663l-.006-1.255,53.575-.224.194.176L91.606,361.7Z" transform="translate(-2.447 -192.39)" fill="#fff"/>
        <path id="Trazado_698460" data-name="Trazado 698460" d="M215.105,410.65l-89.525-.224-.191-.17L51.154,344.171,4.4,344.393l-.007-1.255,47.286-.224.194.172,74.236,66.087,89,.222Z" transform="translate(-2.446 -199.133)" fill="#fff"/>
        <path id="Trazado_698461" data-name="Trazado 698461" d="M59.558,370.406,42.153,354.3,2.7,354.523l-.008-1.255,40-.225,17.8,16.466Z" transform="translate(-1.498 -205.104)" fill="#fff"/>
        <path id="Trazado_698462" data-name="Trazado 698462" d="M0,394.883l8.037,6.756,14.914-.187-.017-1.255-14.4.18L.884,393.945Z" transform="translate(0 -228.878)" fill="#fff"/>
        <path id="Trazado_698463" data-name="Trazado 698463" d="M376.558,234.881l-14.643-13.432-73.413-.223-.19-.167-18.858-16.508.9-.921,18.668,16.342,73.431.223,15.028,13.785Z" transform="translate(-150.028 -118.293)" fill="#fff"/>
        <path id="Trazado_698464" data-name="Trazado 698464" d="M325.818,55.384H261.964V54.129H325.34l14.331-11.153,56.812-.224.005,1.255-56.338.222Z" transform="translate(-145.858 -24.863)" fill="#fff"/>
        <rect id="Rectángulo_339721" data-name="Rectángulo 339721" width="1.269" height="128.488" transform="matrix(0.002, -1, 1, 0.002, 93.475, 37.214)" fill="#fff"/>
        <path id="Trazado_698465" data-name="Trazado 698465" d="M256.208,113.1l-12.128-10.98H176.427L164.283,110.7l-.8-1.005,12.5-8.826h68.63l12.514,11.329Z" transform="translate(-91.027 -58.6)" fill="#fff"/>
        <path id="Trazado_698466" data-name="Trazado 698466" d="M357.411,136.308l-68.392-.225-15.025-13.1.9-.922,14.645,12.773,67.389.221,13.827-10.929,55.557-.224.006,1.255-55.078.222Z" transform="translate(-152.556 -70.911)" fill="#fff"/>
        <path id="Trazado_698467" data-name="Trazado 698467" d="M289.095,163.272l-12.262-10.652.9-.924,11.877,10.318,67.65-.443,14.4-10.8.827.983-14.763,11.066Z" transform="translate(-154.136 -87.595)" fill="#fff"/>
        <rect id="Rectángulo_339722" data-name="Rectángulo 339722" width="1.269" height="77.948" transform="translate(144.266 90.206) rotate(-89.826)" fill="#fff"/>
        <path id="Trazado_698468" data-name="Trazado 698468" d="M375.993,205.147l0-1.255,68.376-.222,21.12-19.408,35.973-.225.009,1.255-35.438.221-21.122,19.41Z" transform="translate(-209.345 -106.916)" fill="#fff"/>
        <path id="Trazado_698469" data-name="Trazado 698469" d="M244.718,453l-18.329-16.262,53.235.231-.006,1.255L229.762,438l15.868,14.078Z" transform="translate(-126.05 -253.697)" fill="#fff"/>
        <path id="Trazado_698470" data-name="Trazado 698470" d="M489.867,473.209l-13.886-13.2-75.931-.223-18.3-16.91.93-.9,17.911,16.553,75.941.223,14.275,13.57Z" transform="translate(-212.555 -256.746)" fill="#fff"/>
        <g id="Grupo_973354" data-name="Grupo 973354">
          <g id="Grupo_973353" data-name="Grupo 973353" clip-path="url(#clip-path-2)">
            <path id="Trazado_698471" data-name="Trazado 698471" d="M147.785,79.17a3.925,3.925,0,1,1-3.9-3.463,3.7,3.7,0,0,1,3.9,3.463" transform="translate(-77.944 -43.986)" fill="#fff"/>
            <path id="Trazado_698472" data-name="Trazado 698472" d="M203.949,81.836a3.925,3.925,0,1,1-3.9-3.463,3.7,3.7,0,0,1,3.9,3.463" transform="translate(-109.216 -45.535)" fill="#fff"/>
            <path id="Trazado_698473" data-name="Trazado 698473" d="M271.46,115.958a3.925,3.925,0,1,1-3.9-3.463,3.7,3.7,0,0,1,3.9,3.463" transform="translate(-146.805 -65.361)" fill="#fff"/>
            <path id="Trazado_698474" data-name="Trazado 698474" d="M376.414,129.82a3.925,3.925,0,1,1-3.9-3.463,3.7,3.7,0,0,1,3.9,3.463" transform="translate(-205.241 -73.415)" fill="#fff"/>
            <path id="Trazado_698475" data-name="Trazado 698475" d="M507.465,81.836a3.925,3.925,0,1,1-3.9-3.463,3.7,3.7,0,0,1,3.9,3.463" transform="translate(-278.209 -45.535)" fill="#fff"/>
            <path id="Trazado_698476" data-name="Trazado 698476" d="M530.725,152.212a3.925,3.925,0,1,1-3.9-3.463,3.7,3.7,0,0,1,3.9,3.463" transform="translate(-291.159 -86.425)" fill="#fff"/>
            <path id="Trazado_698477" data-name="Trazado 698477" d="M622.063,123.955a3.925,3.925,0,1,1-3.9-3.463,3.7,3.7,0,0,1,3.9,3.463" transform="translate(-342.015 -70.007)" fill="#fff"/>
            <path id="Trazado_698478" data-name="Trazado 698478" d="M663.477,181.536a3.925,3.925,0,1,1-3.9-3.463,3.7,3.7,0,0,1,3.9,3.463" transform="translate(-365.074 -103.462)" fill="#fff"/>
            <path id="Trazado_698479" data-name="Trazado 698479" d="M506.9,209.26A3.925,3.925,0,1,1,503,205.8a3.7,3.7,0,0,1,3.9,3.463" transform="translate(-277.893 -119.57)" fill="#fff"/>
            <path id="Trazado_698480" data-name="Trazado 698480" d="M266.355,195.931a3.925,3.925,0,1,1-3.9-3.463,3.7,3.7,0,0,1,3.9,3.463" transform="translate(-143.962 -111.826)" fill="#fff"/>
            <path id="Trazado_698481" data-name="Trazado 698481" d="M318.548,209.793a3.925,3.925,0,1,1-3.9-3.463,3.7,3.7,0,0,1,3.9,3.463" transform="translate(-173.023 -119.88)" fill="#fff"/>
            <path id="Trazado_698482" data-name="Trazado 698482" d="M371.308,226.321a3.925,3.925,0,1,1-3.9-3.463,3.7,3.7,0,0,1,3.9,3.463" transform="translate(-202.399 -129.483)" fill="#fff"/>
            <path id="Trazado_698483" data-name="Trazado 698483" d="M421.8,282.3a3.925,3.925,0,1,1-3.9-3.463,3.7,3.7,0,0,1,3.9,3.463" transform="translate(-230.512 -162.008)" fill="#fff"/>
            <path id="Trazado_698484" data-name="Trazado 698484" d="M488.176,316.957a3.925,3.925,0,1,1-3.9-3.463,3.7,3.7,0,0,1,3.9,3.463" transform="translate(-267.469 -182.143)" fill="#fff"/>
            <path id="Trazado_698485" data-name="Trazado 698485" d="M586.322,297.763a3.925,3.925,0,1,1-3.9-3.463,3.7,3.7,0,0,1,3.9,3.463" transform="translate(-322.115 -170.991)" fill="#fff"/>
            <path id="Trazado_698486" data-name="Trazado 698486" d="M650.429,345.747a3.925,3.925,0,1,1-3.9-3.463,3.7,3.7,0,0,1,3.9,3.463" transform="translate(-357.809 -198.87)" fill="#fff"/>
            <path id="Trazado_698487" data-name="Trazado 698487" d="M594.265,375.07a3.925,3.925,0,1,1-3.9-3.463,3.7,3.7,0,0,1,3.9,3.463" transform="translate(-326.538 -215.907)" fill="#fff"/>
            <path id="Trazado_698488" data-name="Trazado 698488" d="M523.35,369.206a3.925,3.925,0,1,1-3.9-3.463,3.7,3.7,0,0,1,3.9,3.463" transform="translate(-287.053 -212.5)" fill="#fff"/>
            <path id="Trazado_698489" data-name="Trazado 698489" d="M515.975,394.8a3.925,3.925,0,1,1-3.9-3.462,3.7,3.7,0,0,1,3.9,3.462" transform="translate(-282.947 -227.369)" fill="#fff"/>
            <path id="Trazado_698490" data-name="Trazado 698490" d="M582.351,399.595a3.925,3.925,0,1,1-3.9-3.463,3.7,3.7,0,0,1,3.9,3.463" transform="translate(-319.904 -230.156)" fill="#fff"/>
            <path id="Trazado_698491" data-name="Trazado 698491" d="M127.929,391.6a3.925,3.925,0,1,1-3.9-3.463,3.7,3.7,0,0,1,3.9,3.463" transform="translate(-66.889 -225.51)" fill="#fff"/>
            <path id="Trazado_698492" data-name="Trazado 698492" d="M201.68,401.728a3.925,3.925,0,1,1-3.9-3.462,3.7,3.7,0,0,1,3.9,3.462" transform="translate(-107.952 -231.396)" fill="#fff"/>
            <path id="Trazado_698493" data-name="Trazado 698493" d="M252.172,411.858a3.925,3.925,0,1,1-3.9-3.463,3.7,3.7,0,0,1,3.9,3.463" transform="translate(-136.065 -237.281)" fill="#fff"/>
            <path id="Trazado_698494" data-name="Trazado 698494" d="M378.116,434.784a3.925,3.925,0,1,1-3.9-3.463,3.7,3.7,0,0,1,3.9,3.463" transform="translate(-206.189 -250.602)" fill="#fff"/>
            <path id="Trazado_698495" data-name="Trazado 698495" d="M493.849,445.98a3.925,3.925,0,1,1-3.9-3.463,3.7,3.7,0,0,1,3.9,3.463" transform="translate(-270.627 -257.106)" fill="#fff"/>
            <path id="Trazado_698496" data-name="Trazado 698496" d="M485.339,498.229a3.925,3.925,0,1,1-3.9-3.463,3.7,3.7,0,0,1,3.9,3.463" transform="translate(-265.889 -287.464)" fill="#fff"/>
            <path id="Trazado_698497" data-name="Trazado 698497" d="M563.062,451.311a3.925,3.925,0,1,1-3.9-3.463,3.7,3.7,0,0,1,3.9,3.463" transform="translate(-309.164 -260.204)" fill="#fff"/>
            <path id="Trazado_698498" data-name="Trazado 698498" d="M627.169,513.157a3.925,3.925,0,1,1-3.9-3.463,3.7,3.7,0,0,1,3.9,3.463" transform="translate(-344.858 -296.137)" fill="#fff"/>
            <path id="Trazado_698499" data-name="Trazado 698499" d="M158.564,123.422a3.925,3.925,0,1,1-3.9-3.463,3.7,3.7,0,0,1,3.9,3.463" transform="translate(-83.946 -69.697)" fill="#fff"/>
            <path id="Trazado_698500" data-name="Trazado 698500" d="M453.286,3.463a3.925,3.925,0,0,1-7.795,0,3.925,3.925,0,0,1,7.795,0" transform="translate(-248.043)" fill="#fff"/>
            <path id="Trazado_698501" data-name="Trazado 698501" d="M246.582,67.542a3.906,3.906,0,1,1,4.341-3.882,4.135,4.135,0,0,1-4.341,3.882m0-6.925a3.068,3.068,0,1,0,3.454,3.044,3.272,3.272,0,0,0-3.454-3.044" transform="translate(-134.877 -34.732)" fill="#fff"/>
            <path id="Trazado_698502" data-name="Trazado 698502" d="M569.954,41.951a4.135,4.135,0,0,1-4.341-3.882,4.368,4.368,0,0,1,8.681,0,4.135,4.135,0,0,1-4.34,3.882m0-6.925A3.272,3.272,0,0,0,566.5,38.07a3.482,3.482,0,0,0,6.908,0,3.272,3.272,0,0,0-3.454-3.044" transform="translate(-314.925 -19.864)" fill="#fff"/>
            <path id="Trazado_698503" data-name="Trazado 698503" d="M493.366,146.449a3.906,3.906,0,1,1,4.34-3.881,4.135,4.135,0,0,1-4.34,3.881m0-6.925a3.068,3.068,0,1,0,3.454,3.044,3.272,3.272,0,0,0-3.454-3.044" transform="translate(-272.282 -80.578)" fill="#fff"/>
            <path id="Trazado_698504" data-name="Trazado 698504" d="M267.573,145.916a3.906,3.906,0,1,1,4.34-3.882,4.135,4.135,0,0,1-4.34,3.882m0-6.925a3.068,3.068,0,1,0,3.454,3.044,3.272,3.272,0,0,0-3.454-3.044" transform="translate(-146.564 -80.268)" fill="#fff"/>
            <path id="Trazado_698505" data-name="Trazado 698505" d="M512.654,280.27A3.906,3.906,0,1,1,517,276.389a4.135,4.135,0,0,1-4.341,3.881m0-6.925a3.068,3.068,0,1,0,3.454,3.044,3.272,3.272,0,0,0-3.454-3.044" transform="translate(-283.022 -158.329)" fill="#fff"/>
            <path id="Trazado_698506" data-name="Trazado 698506" d="M626.118,425.821a3.906,3.906,0,1,1,4.341-3.881,4.135,4.135,0,0,1-4.341,3.881m0-6.925a3.068,3.068,0,1,0,3.454,3.044,3.272,3.272,0,0,0-3.454-3.044" transform="translate(-346.196 -242.896)" fill="#fff"/>
            <path id="Trazado_698507" data-name="Trazado 698507" d="M392.383,364.509a3.906,3.906,0,1,1,4.341-3.881,4.135,4.135,0,0,1-4.341,3.881m0-6.925a3.068,3.068,0,1,0,3.454,3.044,3.272,3.272,0,0,0-3.454-3.044" transform="translate(-216.056 -207.273)" fill="#fff"/>
            <path id="Trazado_698508" data-name="Trazado 698508" d="M348.7,437.551a3.906,3.906,0,1,1,4.34-3.881,4.135,4.135,0,0,1-4.34,3.881m0-6.925a3.068,3.068,0,1,0,3.454,3.044,3.272,3.272,0,0,0-3.454-3.044" transform="translate(-191.734 -249.711)" fill="#fff"/>
            <path id="Trazado_698509" data-name="Trazado 698509" d="M268.708,477.537a3.906,3.906,0,1,1,4.34-3.882,4.135,4.135,0,0,1-4.34,3.882m0-6.925a3.068,3.068,0,1,0,3.454,3.044,3.272,3.272,0,0,0-3.454-3.044" transform="translate(-147.196 -272.943)" fill="#fff"/>
            <path id="Trazado_698510" data-name="Trazado 698510" d="M53.474,410.219a3.281,3.281,0,1,1,3.643-3.261,3.472,3.472,0,0,1-3.643,3.261m0-5.685a2.444,2.444,0,1,0,2.756,2.423,2.609,2.609,0,0,0-2.756-2.423" transform="translate(-27.745 -234.551)" fill="#fff"/>
            <path id="Trazado_698511" data-name="Trazado 698511" d="M53.351,2.685a2.224,2.224,0,0,1,4.348,0,1.807,1.807,0,0,1-1.378,1.631V26.459l-22.4,15.4H3.3V40.711H32.953V12.64a1.758,1.758,0,0,1-1.205-1.564A2,2,0,0,1,33.922,9.32,2,2,0,0,1,36.1,11.076a1.9,1.9,0,0,1-1.726,1.718V40.045l9.792-6.731V8.607A1.827,1.827,0,0,1,42.7,6.955a2.224,2.224,0,0,1,4.349,0,1.827,1.827,0,0,1-1.466,1.652V32.34L54.9,25.93V4.36a1.849,1.849,0,0,1-1.553-1.675" transform="translate(-1.839 -0.54)" fill="#fff"/>
            <path id="Trazado_698512" data-name="Trazado 698512" d="M55.128,413.433a2.224,2.224,0,0,0,4.348,0A1.807,1.807,0,0,0,58.1,411.8V389.66l-22.4-15.4H5.079v1.145H34.73v28.071a1.759,1.759,0,0,0-1.205,1.565A2,2,0,0,0,35.7,406.8a2,2,0,0,0,2.174-1.756,1.9,1.9,0,0,0-1.726-1.718V376.073l9.792,6.731v24.707a1.827,1.827,0,0,0-1.466,1.653,2.224,2.224,0,0,0,4.349,0,1.827,1.827,0,0,0-1.466-1.653V383.778l9.325,6.41v21.57a1.849,1.849,0,0,0-1.553,1.675" transform="translate(-2.828 -217.45)" fill="#fff"/>
          </g>
        </g>
      </g>
    </g>
    <g id="Grupo_973503" data-name="Grupo 973503">
      <g id="Grupo_973502" data-name="Grupo 973502" transform="translate(-6833 -3362)">
        <g id="Grupo_49020" data-name="Grupo 49020" transform="translate(0 69)">
          <g id="Group_1153" data-name="Group 1153">
            <path id="Recurso_1" data-name="Recurso 1" d="M0,0H1240V90H0Z" fill="url(#linear-gradient)"/>
          </g>
        </g>
      </g>
      <path id="Trazado_699080" data-name="Trazado 699080" d="M51.672,14.013H43.564V36H37.051V14.013h-7.96V8.984H51.672ZM62.193,36.371a10.32,10.32,0,0,1-7.478-2.755,9.515,9.515,0,0,1-2.857-7.171v-.52A12.329,12.329,0,0,1,53,20.488a8.35,8.35,0,0,1,3.331-3.646,10.054,10.054,0,0,1,5.2-1.29,8.69,8.69,0,0,1,6.68,2.625,10.317,10.317,0,0,1,2.449,7.32v2.431H58.222a4.507,4.507,0,0,0,1.466,2.653,4.362,4.362,0,0,0,2.932.965,5.62,5.62,0,0,0,4.639-2.078l2.857,3.377a7.988,7.988,0,0,1-3.312,2.57A11.192,11.192,0,0,1,62.193,36.371Zm-.705-15.994q-2.746,0-3.266,3.637h6.309v-.482A3.1,3.1,0,0,0,63.77,21.2,3.027,3.027,0,0,0,61.488,20.377Zm-.074-12.9h6.605l-5.158,5.826-5.1-.009ZM81.657,31.547a2.781,2.781,0,0,0,2.041-.714,2.62,2.62,0,0,0,.705-1.995h5.863A6.941,6.941,0,0,1,87.9,34.256a8.8,8.8,0,0,1-6.1,2.115,8.91,8.91,0,0,1-6.9-2.746q-2.523-2.746-2.523-7.607v-.26A12.228,12.228,0,0,1,73.5,20.386a8.173,8.173,0,0,1,3.238-3.581,9.654,9.654,0,0,1,5.01-1.252,8.689,8.689,0,0,1,6.216,2.171,7.7,7.7,0,0,1,2.3,5.882H84.4a3.432,3.432,0,0,0-.761-2.394,2.626,2.626,0,0,0-2.041-.835q-2.431,0-2.839,3.1a21.865,21.865,0,0,0-.13,2.709,8.588,8.588,0,0,0,.724,4.193A2.505,2.505,0,0,0,81.657,31.547Zm17-15.623.2,2.356a6.808,6.808,0,0,1,5.733-2.728,5.728,5.728,0,0,1,4.685,1.874,8.922,8.922,0,0,1,1.6,5.641V36h-6.271V23.327A3.388,3.388,0,0,0,104,21.091a2.833,2.833,0,0,0-2.227-.714,2.982,2.982,0,0,0-2.728,1.447V36H92.79V15.924ZM120.937,36h-6.271V15.924h6.271Zm-6.643-25.253a2.791,2.791,0,0,1,.965-2.189,4.1,4.1,0,0,1,5.01,0,2.791,2.791,0,0,1,.965,2.189,2.791,2.791,0,0,1-.965,2.189,4.1,4.1,0,0,1-5.01,0A2.791,2.791,0,0,1,114.294,10.747Zm18.981,20.8a2.781,2.781,0,0,0,2.041-.714,2.62,2.62,0,0,0,.705-1.995h5.863a6.941,6.941,0,0,1-2.366,5.418,8.8,8.8,0,0,1-6.1,2.115,8.91,8.91,0,0,1-6.9-2.746Q124,30.879,124,26.018v-.26a12.228,12.228,0,0,1,1.123-5.372,8.173,8.173,0,0,1,3.238-3.581,9.654,9.654,0,0,1,5.01-1.252,8.689,8.689,0,0,1,6.216,2.171,7.7,7.7,0,0,1,2.3,5.882h-5.863a3.432,3.432,0,0,0-.761-2.394,2.626,2.626,0,0,0-2.041-.835q-2.431,0-2.839,3.1a21.864,21.864,0,0,0-.13,2.709,8.588,8.588,0,0,0,.724,4.193A2.505,2.505,0,0,0,133.276,31.547ZM155.838,36a7.06,7.06,0,0,1-.594-1.8,5.814,5.814,0,0,1-4.824,2.171,7.123,7.123,0,0,1-4.824-1.716,5.463,5.463,0,0,1-1.985-4.314,5.615,5.615,0,0,1,2.412-4.936q2.412-1.67,7.014-1.67h1.93V22.673q0-2.778-2.394-2.778a1.956,1.956,0,0,0-2.227,2.2h-6.253a5.605,5.605,0,0,1,2.477-4.726,10.41,10.41,0,0,1,6.318-1.816,9.127,9.127,0,0,1,6.067,1.874,6.516,6.516,0,0,1,2.282,5.14v8.888a9.1,9.1,0,0,0,.854,4.23V36Zm-3.915-4.082a3.488,3.488,0,0,0,1.939-.5,3.14,3.14,0,0,0,1.1-1.132v-3.21h-1.818q-3.266,0-3.266,2.932a1.79,1.79,0,0,0,.575,1.382A2.082,2.082,0,0,0,151.923,31.918Zm21.449-6.1a12.264,12.264,0,0,1,2.06-7.515,6.779,6.779,0,0,1,5.752-2.746,5.766,5.766,0,0,1,4.527,2.115V7.5h6.271V36h-5.622l-.315-2.152a5.921,5.921,0,0,1-4.9,2.523,6.767,6.767,0,0,1-5.678-2.746Q173.373,30.879,173.373,25.813Zm6.253.39q0,5.344,3.117,5.344a3.078,3.078,0,0,0,2.969-1.744V22.158a3,3,0,0,0-2.932-1.781q-2.895,0-3.136,4.676ZM205.25,36.371a10.32,10.32,0,0,1-7.478-2.755,9.515,9.515,0,0,1-2.857-7.171v-.52a12.329,12.329,0,0,1,1.141-5.437,8.35,8.35,0,0,1,3.331-3.646,10.054,10.054,0,0,1,5.2-1.29,8.69,8.69,0,0,1,6.68,2.625,10.317,10.317,0,0,1,2.449,7.32v2.431H201.279a4.507,4.507,0,0,0,1.466,2.653,4.362,4.362,0,0,0,2.932.965,5.62,5.62,0,0,0,4.639-2.078l2.857,3.377a7.988,7.988,0,0,1-3.312,2.57A11.192,11.192,0,0,1,205.25,36.371Zm-.705-15.994q-2.746,0-3.266,3.637h6.309v-.482a3.1,3.1,0,0,0-.761-2.329A3.027,3.027,0,0,0,204.544,20.377ZM232.284,36h-6.271V7.5h6.271Zm15.159,0a7.06,7.06,0,0,1-.594-1.8,5.814,5.814,0,0,1-4.824,2.171,7.123,7.123,0,0,1-4.824-1.716,5.463,5.463,0,0,1-1.985-4.314,5.615,5.615,0,0,1,2.412-4.936q2.412-1.67,7.014-1.67h1.93V22.673q0-2.778-2.394-2.778a1.956,1.956,0,0,0-2.227,2.2H235.7a5.605,5.605,0,0,1,2.477-4.726,10.41,10.41,0,0,1,6.318-1.816,9.127,9.127,0,0,1,6.067,1.874,6.516,6.516,0,0,1,2.282,5.14v8.888a9.1,9.1,0,0,0,.854,4.23V36Zm-3.915-4.082a3.488,3.488,0,0,0,1.939-.5,3.14,3.14,0,0,0,1.1-1.132v-3.21h-1.818q-3.266,0-3.266,2.932a1.79,1.79,0,0,0,.575,1.382A2.082,2.082,0,0,0,243.528,31.918Zm23.286-1.559a1.445,1.445,0,0,0-.835-1.28,12.7,12.7,0,0,0-3.173-1,14.468,14.468,0,0,1-3.859-1.364,6.465,6.465,0,0,1-2.319-2.05,4.9,4.9,0,0,1-.8-2.765,5.549,5.549,0,0,1,2.282-4.555,9.4,9.4,0,0,1,5.975-1.791,10.416,10.416,0,0,1,6.383,1.8,5.628,5.628,0,0,1,2.412,4.731H266.61q0-2.412-2.542-2.412a2.52,2.52,0,0,0-1.651.547,1.7,1.7,0,0,0-.668,1.364,1.556,1.556,0,0,0,.816,1.354,7.714,7.714,0,0,0,2.607.854,22.527,22.527,0,0,1,3.145.8q4.527,1.559,4.527,5.585a5.258,5.258,0,0,1-2.44,4.472,10.7,10.7,0,0,1-6.318,1.726,10.919,10.919,0,0,1-4.6-.928,7.7,7.7,0,0,1-3.154-2.523,5.714,5.714,0,0,1-1.132-3.358h5.845a2.417,2.417,0,0,0,.928,2.032,3.816,3.816,0,0,0,2.282.64,3,3,0,0,0,1.92-.52A1.662,1.662,0,0,0,266.814,30.359Zm26.9,1.188a2.781,2.781,0,0,0,2.041-.714,2.62,2.62,0,0,0,.705-1.995h5.863a6.941,6.941,0,0,1-2.366,5.418,8.8,8.8,0,0,1-6.1,2.115,8.91,8.91,0,0,1-6.9-2.746q-2.523-2.746-2.523-7.607v-.26a12.228,12.228,0,0,1,1.123-5.372,8.173,8.173,0,0,1,3.238-3.581,9.654,9.654,0,0,1,5.01-1.252,8.689,8.689,0,0,1,6.216,2.171,7.7,7.7,0,0,1,2.3,5.882h-5.863a3.432,3.432,0,0,0-.761-2.394,2.626,2.626,0,0,0-2.041-.835q-2.431,0-2.839,3.1a21.867,21.867,0,0,0-.13,2.709,8.588,8.588,0,0,0,.724,4.193A2.505,2.505,0,0,0,293.718,31.547Zm23.212,2.282a6.447,6.447,0,0,1-5.362,2.542,6.323,6.323,0,0,1-5-1.92,8.077,8.077,0,0,1-1.7-5.52V15.924h6.253V28.968q0,2.579,2.5,2.579a3.268,3.268,0,0,0,3.062-1.54V15.924h6.29V36h-5.863Zm21.616-12.246-2.06-.148q-2.95,0-3.785,1.855V36h-6.253V15.924h5.863l.2,2.579a4.842,4.842,0,0,1,4.4-2.95,6.1,6.1,0,0,1,1.744.223Zm10.595,6.977,3.173-12.636H358.9L352.351,36h-6.383l-6.55-20.076h6.605ZM371.8,36a7.061,7.061,0,0,1-.594-1.8,5.814,5.814,0,0,1-4.824,2.171,7.123,7.123,0,0,1-4.824-1.716,5.463,5.463,0,0,1-1.985-4.314,5.615,5.615,0,0,1,2.412-4.936q2.412-1.67,7.014-1.67h1.93V22.673q0-2.778-2.394-2.778a1.956,1.956,0,0,0-2.227,2.2h-6.253a5.605,5.605,0,0,1,2.477-4.726,10.41,10.41,0,0,1,6.318-1.816,9.127,9.127,0,0,1,6.067,1.874,6.516,6.516,0,0,1,2.282,5.14v8.888a9.1,9.1,0,0,0,.854,4.23V36Zm-3.915-4.082a3.488,3.488,0,0,0,1.939-.5,3.14,3.14,0,0,0,1.1-1.132v-3.21h-1.818q-3.266,0-3.266,2.932a1.79,1.79,0,0,0,.575,1.382A2.081,2.081,0,0,0,367.881,31.918Zm23.286-1.559a1.445,1.445,0,0,0-.835-1.28,12.7,12.7,0,0,0-3.173-1,14.468,14.468,0,0,1-3.859-1.364,6.465,6.465,0,0,1-2.319-2.05,4.9,4.9,0,0,1-.8-2.765,5.549,5.549,0,0,1,2.282-4.555,9.4,9.4,0,0,1,5.975-1.791,10.416,10.416,0,0,1,6.383,1.8,5.628,5.628,0,0,1,2.412,4.731h-6.271q0-2.412-2.542-2.412a2.52,2.52,0,0,0-1.651.547,1.7,1.7,0,0,0-.668,1.364,1.556,1.556,0,0,0,.816,1.354,7.714,7.714,0,0,0,2.607.854,22.527,22.527,0,0,1,3.145.8q4.527,1.559,4.527,5.585a5.258,5.258,0,0,1-2.44,4.472,10.7,10.7,0,0,1-6.318,1.726,10.919,10.919,0,0,1-4.6-.928,7.7,7.7,0,0,1-3.154-2.523,5.714,5.714,0,0,1-1.132-3.358H385.4a2.417,2.417,0,0,0,.928,2.032,3.816,3.816,0,0,0,2.282.64,3,3,0,0,0,1.92-.52A1.662,1.662,0,0,0,391.167,30.359Zm29.187-1.707,5.381-19.668h7.273L423.917,36h-7.125L407.774,8.984h7.218Zm23.639-1.893H432.841V21.936h11.151ZM456.09,36H449.6V8.984h6.494Z" transform="translate(-6178 -3271)" fill="#fff"/>
    </g>
  </g>
</svg>
