<svg xmlns="http://www.w3.org/2000/svg" xmlns:xlink="http://www.w3.org/1999/xlink" width="85" height="71" viewBox="0 0 85 71">
  <defs>
    <clipPath id="clip-path">
      <rect id="Rectángulo_336755" data-name="Rectángulo 336755" width="57.382" height="59" fill="none"/>
    </clipPath>
  </defs>
  <g id="Grupo_904071" data-name="Grupo 904071" transform="translate(-180 -1894)">
    <rect id="Rectángulo_336752" data-name="Rectángulo 336752" width="85" height="71" rx="8" transform="translate(180 1894)" fill="#fbe594"/>
    <g id="Grupo_904073" data-name="Grupo 904073" transform="translate(193.513 1903.001)">
      <g id="Grupo_904072" data-name="Grupo 904072" clip-path="url(#clip-path)">
        <path id="Trazado_631581" data-name="Trazado 631581" d="M54.713,0A.99.99,0,0,0,54.9.112a3.353,3.353,0,0,1,2.456,3.415q0,13.533,0,27.065c0,3.877-.059,7.756.024,11.632a3.6,3.6,0,0,1-3.876,3.84c-5.337-.055-10.674-.016-16.011-.016h-.676c.584.6,1.1,1.154,1.648,1.675.093.089.324.074.481.048a1.821,1.821,0,0,1,1.636.512c1.863,1.8,3.727,3.6,5.573,5.42a1.783,1.783,0,0,1,.082,2.586c-.681.755-1.4,1.481-2.13,2.185a1.778,1.778,0,0,1-2.5.024q-2.88-2.737-5.709-5.527a1.8,1.8,0,0,1-.5-1.641.61.61,0,0,0-.106-.444c-.54-.623-1.1-1.226-1.643-1.819-.732.411-1.295.767-1.891,1.055a11.076,11.076,0,0,1-13.983-3.658.892.892,0,0,0-.848-.423q-6.652.015-13.3,0a3.385,3.385,0,0,1-3.562-2.79A4.728,4.728,0,0,1,0,42.339Q0,23.019,0,3.7A3.375,3.375,0,0,1,2.567.079C2.6.068,2.618.027,2.644,0ZM37.463,44.14a1.27,1.27,0,0,0,.2.022c5.317,0,10.634.007,15.95-.016,1.426-.006,1.875-.516,1.875-1.94q0-15.516,0-31.032v-.656H1.855v.642q0,15.545,0,31.09c0,1.389.518,1.913,1.91,1.914q6.046.005,12.093,0c.2,0,.394-.025.485-.031l-.728-4.565c-.378,0-.838.015-1.3,0-.642-.026-1.03-.39-1.027-.93s.393-.9,1.036-.927c.441-.02.884.011,1.324-.016.146-.009.374-.094.412-.2.222-.62.4-1.256.609-1.94-.771,0-1.5.009-2.226,0s-1.148-.356-1.154-.928.407-.926,1.138-.935c.94-.011,1.882-.024,2.821.006a1,1,0,0,0,.907-.456A11.1,11.1,0,0,1,33.583,31.2c.509.385.98.821,1.54,1.294,0-1.314,0-2.536,0-3.758,0-.921.288-1.213,1.188-1.215q1.094,0,2.188,0c.843,0,1.154.3,1.155,1.134q.009,4.922,0,9.845c0,.818-.3,1.107-1.1,1.129-.164,0-.327.026-.365.029l-.726,4.477M27.987,8.588q12.728,0,25.456.01c.539,0,.742-.13.728-.7-.036-1.477,0-2.956-.021-4.433a4.341,4.341,0,0,0-.174-1.012.737.737,0,0,0-.84-.587q-24.707.019-49.414.012c-1.25,0-1.793.531-1.8,1.775-.011,1.382,0,2.764,0,4.146,0,.789,0,.79.789.79H27.987M26.892,30.843a9.276,9.276,0,1,0,9.274,9.219,9.261,9.261,0,0,0-9.274-9.219m12.5,18.932-2.105,1.893,5.439,5.287,2.091-1.91-5.424-5.27m-2.4-20.368c0,1.653.063,3.246-.022,4.831a8.331,8.331,0,0,0,.755,2.965v-7.8ZM35.05,47.734l1.614,1.79.394-.436-.158.1-1.51-1.827-.341.376" transform="translate(0)" fill="#161615"/>
        <path id="Trazado_631582" data-name="Trazado 631582" d="M47.667,101.986l.726-4.477c.038,0,.2-.025.365-.029.8-.022,1.1-.312,1.1-1.129q.009-4.922,0-9.845c0-.838-.312-1.131-1.155-1.134q-1.094,0-2.188,0c-.9,0-1.187.294-1.189,1.215,0,1.222,0,2.445,0,3.758-.56-.473-1.031-.909-1.54-1.294a11.1,11.1,0,0,0-15.424,2.032,1,1,0,0,1-.907.456c-.94-.03-1.881-.017-2.821-.006-.731.008-1.145.359-1.138.935s.422.917,1.154.928,1.454,0,2.226,0c-.209.684-.386,1.32-.609,1.94-.038.105-.266.19-.412.2-.44.027-.883,0-1.324.016-.644.029-1.034.39-1.036.927s.385.9,1.027.93c.459.019.918,0,1.3,0l.728,4.565c-.092.006-.288.031-.485.031q-6.046,0-12.092,0c-1.392,0-1.91-.524-1.91-1.914q0-15.545,0-31.09v-.642H65.695v.656q0,15.516,0,31.032c0,1.424-.449,1.934-1.875,1.94-5.317.023-10.634.015-15.95.016a1.278,1.278,0,0,1-.2-.022M25.72,88.417a8.768,8.768,0,1,0-8.739-8.8,8.781,8.781,0,0,0,8.739,8.8m35.743.139q0-3.914,0-7.829c0-.812-.3-1.127-1.094-1.136s-1.574-.009-2.36,0c-.761.009-1.066.317-1.08,1.092-.012.633,0,1.266,0,1.9q0,6.793,0,13.585c0,1.069.246,1.308,1.328,1.309.672,0,1.343,0,2.015,0,.907,0,1.2-.292,1.2-1.207q0-3.857,0-7.714M51.1,89.945c0,2.129,0,4.258,0,6.387,0,.817.339,1.141,1.158,1.145.786,0,1.573.007,2.36,0a.943.943,0,0,0,1.054-1.017c.018-.4,0-.805,0-1.208q0-5.725,0-11.451c0-1.04-.284-1.317-1.335-1.318-.671,0-1.343,0-2.014,0-.923,0-1.228.309-1.229,1.248q0,3.107,0,6.215M49.714,73.933h8.518c.984,0,1.412-.294,1.4-.957-.012-.637-.424-.911-1.386-.911q-8.518,0-17.036,0a3.38,3.38,0,0,0-.686.047.9.9,0,0,0-.067,1.749,2.794,2.794,0,0,0,.739.069q4.259.006,8.518,0m-4.486,3.873c1.456,0,2.911,0,4.367,0a.946.946,0,0,0,.975-.564c.29-.66-.2-1.29-1.046-1.294q-4.281-.017-8.562,0c-.722,0-1.147.354-1.16.918-.014.6.4.936,1.173.938,1.417,0,2.835,0,4.252,0M19.42,91.535c-.5,0-1-.02-1.494.005a.919.919,0,1,0-.017,1.838c1,.033,1.993.032,2.988,0a.924.924,0,0,0,.929-.91.939.939,0,0,0-.969-.928c-.478-.024-.958,0-1.437,0m-.026,5.871v.007h1.38a1.143,1.143,0,0,0,.115-.007.953.953,0,0,0,.937-.906.914.914,0,0,0-.9-.931c-1.014-.035-2.031-.036-3.045,0a.874.874,0,0,0-.892.927.889.889,0,0,0,.916.905c.5.03,1,.006,1.494.006" transform="translate(-10.203 -57.846)" fill="#fff"/>
        <path id="Trazado_631583" data-name="Trazado 631583" d="M38.5,18.847H13.219c-.786,0-.788,0-.788-.79,0-1.382-.009-2.764,0-4.146.01-1.244.553-1.775,1.8-1.775q24.707,0,49.414-.012a.737.737,0,0,1,.84.587,4.349,4.349,0,0,1,.174,1.012c.019,1.478-.016,2.956.021,4.433.014.571-.189.7-.728.7q-12.728-.022-25.456-.01M16.579,15.5a1.455,1.455,0,0,0,1.453,1.46A1.529,1.529,0,0,0,19.5,15.48a1.5,1.5,0,0,0-1.487-1.449,1.431,1.431,0,0,0-1.43,1.472M22,15.461a1.456,1.456,0,0,0,1.422,1.5A1.516,1.516,0,0,0,24.9,15.493a1.5,1.5,0,0,0-1.479-1.46A1.442,1.442,0,0,0,22,15.461m5.415.025a1.456,1.456,0,0,0,1.445,1.468,1.46,1.46,0,0,0,.012-2.919,1.451,1.451,0,0,0-1.456,1.451" transform="translate(-10.515 -10.26)" fill="#fff"/>
        <path id="Trazado_631584" data-name="Trazado 631584" d="M123.851,200.48a9.276,9.276,0,0,1,.028,18.552,9.276,9.276,0,1,1-.028-18.552m0,.994a8.272,8.272,0,1,0,8.262,8.2,8.267,8.267,0,0,0-8.262-8.2" transform="translate(-96.959 -169.637)" fill="#26a07c"/>
        <path id="Trazado_631585" data-name="Trazado 631585" d="M244.47,323.54l5.424,5.27-2.09,1.91-5.439-5.287,2.105-1.893" transform="translate(-205.079 -273.765)" fill="#26a07c"/>
        <path id="Trazado_631586" data-name="Trazado 631586" d="M240.289,191.148h.733v7.8a8.334,8.334,0,0,1-.755-2.965c.085-1.585.022-3.178.022-4.831" transform="translate(-203.3 -161.741)" fill="#e1b127"/>
        <path id="Trazado_631587" data-name="Trazado 631587" d="M227.828,308.209l.341-.376,1.51,1.827.158-.1-.394.436-1.614-1.79" transform="translate(-192.778 -260.475)" fill="#fff"/>
        <path id="Trazado_631588" data-name="Trazado 631588" d="M52.8,102.264a8.768,8.768,0,1,1,8.784-8.658,8.739,8.739,0,0,1-8.784,8.658m2.681-2.377c-1.124-1.914-2.214-3.739-3.265-5.586a2.455,2.455,0,0,1-.309-1.129c-.03-1.957-.014-3.914-.014-5.871v-.649A6.789,6.789,0,0,0,46.2,91.587a6.5,6.5,0,0,0,2.074,7.086,6.78,6.78,0,0,0,7.2,1.213m4.1-7.376a6.721,6.721,0,0,0-5.771-5.781V92.51Zm-2.527,6.184a6.088,6.088,0,0,0,2.4-3.765c.052-.377-.207-.385-.475-.384q-1.78,0-3.559,0h-.812l2.443,4.149" transform="translate(-37.281 -71.692)" fill="#161615"/>
        <path id="Trazado_631589" data-name="Trazado 631589" d="M308.213,150.278q0,3.857,0,7.714c0,.915-.288,1.2-1.2,1.208-.672,0-1.343,0-2.015,0-1.081,0-1.327-.24-1.328-1.309q0-6.793,0-13.585c0-.633-.008-1.267,0-1.9.014-.775.319-1.083,1.08-1.092q1.18-.014,2.361,0c.792.009,1.094.323,1.094,1.136q0,3.914,0,7.829m-2.621,7.026h.715V143.192h-.715Z" transform="translate(-256.952 -119.567)" fill="#161615"/>
        <path id="Trazado_631590" data-name="Trazado 631590" d="M265.852,167.6q0-3.107,0-6.214c0-.939.306-1.245,1.229-1.248.671,0,1.343,0,2.014,0,1.051,0,1.334.278,1.335,1.318q0,5.725,0,11.451c0,.4.014.806,0,1.208a.943.943,0,0,1-1.054,1.017c-.786.008-1.573.005-2.36,0-.819,0-1.156-.328-1.158-1.145-.007-2.129,0-4.258,0-6.387m2.66-5.553h-.769v11.187h.769Z" transform="translate(-224.952 -135.499)" fill="#161615"/>
        <path id="Trazado_631591" data-name="Trazado 631591" d="M202.327,94.289q-4.259,0-8.518,0a2.787,2.787,0,0,1-.74-.069.9.9,0,0,1,.067-1.749,3.4,3.4,0,0,1,.686-.047q8.518,0,17.036,0c.962,0,1.374.274,1.386.912.013.663-.415.957-1.4.957h-8.518" transform="translate(-162.817 -78.201)" fill="#161615"/>
        <path id="Trazado_631592" data-name="Trazado 631592" d="M197.82,119.5c-1.417,0-2.835,0-4.252,0-.773,0-1.187-.34-1.173-.938.013-.564.439-.917,1.16-.918q4.281-.009,8.562,0c.843,0,1.335.634,1.046,1.294a.947.947,0,0,1-.975.564c-1.456-.007-2.911,0-4.367,0" transform="translate(-162.795 -99.538)" fill="#161615"/>
        <path id="Trazado_631593" data-name="Trazado 631593" d="M46.513,218.94c.479,0,.959-.019,1.437,0a.939.939,0,0,1,.969.928.924.924,0,0,1-.929.91c-1,.033-1.993.035-2.988,0a.919.919,0,1,1,.017-1.838c.5-.026,1-.005,1.494-.006" transform="translate(-37.297 -185.251)" fill="#161615"/>
        <path id="Trazado_631594" data-name="Trazado 631594" d="M46.486,246.9c-.5,0-1,.023-1.494-.006a.889.889,0,0,1-.916-.905.874.874,0,0,1,.892-.927c1.014-.034,2.031-.033,3.045,0a.914.914,0,0,1,.9.931.953.953,0,0,1-.937.906c-.038,0-.076.007-.115.007h-1.38V246.9" transform="translate(-37.296 -207.335)" fill="#161615"/>
        <path id="Trazado_631595" data-name="Trazado 631595" d="M39.416,25.99a1.431,1.431,0,0,1,1.43-1.472,1.5,1.5,0,0,1,1.487,1.449,1.529,1.529,0,0,1-1.464,1.483,1.455,1.455,0,0,1-1.453-1.46" transform="translate(-33.352 -20.746)" fill="#161615"/>
        <path id="Trazado_631596" data-name="Trazado 631596" d="M74.624,25.959a1.442,1.442,0,0,1,1.426-1.428,1.5,1.5,0,0,1,1.479,1.46,1.516,1.516,0,0,1-1.482,1.464,1.455,1.455,0,0,1-1.422-1.5" transform="translate(-63.144 -20.758)" fill="#161615"/>
        <path id="Trazado_631597" data-name="Trazado 631597" d="M109.823,25.991a1.451,1.451,0,0,1,1.456-1.451,1.46,1.46,0,0,1-.012,2.919,1.456,1.456,0,0,1-1.445-1.468" transform="translate(-92.927 -20.765)" fill="#161615"/>
        <path id="Trazado_631598" data-name="Trazado 631598" d="M129.458,206.939a8.272,8.272,0,1,1-8.25,8.451,8.257,8.257,0,0,1,8.25-8.451m0,1.878a6.4,6.4,0,1,0,6.4,6.378,6.395,6.395,0,0,0-6.4-6.378" transform="translate(-102.561 -175.102)" fill="#161615"/>
        <path id="Trazado_631599" data-name="Trazado 631599" d="M65.541,110.472a6.78,6.78,0,0,1-7.2-1.213,6.5,6.5,0,0,1-2.074-7.086,6.788,6.788,0,0,1,5.686-4.936v.649c0,1.957-.016,3.914.014,5.871a2.455,2.455,0,0,0,.309,1.129c1.051,1.847,2.141,3.672,3.265,5.586" transform="translate(-47.343 -82.278)" fill="#652e7f"/>
        <path id="Trazado_631600" data-name="Trazado 631600" d="M113.183,103.524h-5.771c0-1.935,0-3.858,0-5.781a6.721,6.721,0,0,1,5.771,5.781" transform="translate(-90.887 -82.706)" fill="#26a07c"/>
        <path id="Trazado_631601" data-name="Trazado 631601" d="M115.064,152.7l-2.443-4.149h.812q1.78,0,3.559,0c.268,0,.527.007.475.384a6.088,6.088,0,0,1-2.4,3.765" transform="translate(-95.295 -125.695)" fill="#e1b127"/>
        <rect id="Rectángulo_336753" data-name="Rectángulo 336753" width="0.715" height="14.111" transform="translate(48.639 23.625)" fill="#ffde7f"/>
        <rect id="Rectángulo_336754" data-name="Rectángulo 336754" width="0.769" height="11.187" transform="translate(42.792 26.546)" fill="#804a93"/>
        <path id="Trazado_631602" data-name="Trazado 631602" d="M139.685,219.149a6.4,6.4,0,0,1,.028,12.8,6.4,6.4,0,0,1-.028-12.8" transform="translate(-112.791 -185.434)" fill="#fff"/>
      </g>
    </g>
  </g>
</svg>
