<svg xmlns="http://www.w3.org/2000/svg" xmlns:xlink="http://www.w3.org/1999/xlink" width="909" height="613.945" viewBox="0 0 909 613.945">
  <defs>
    <clipPath id="clip-path">
      <rect id="Rectángulo_339325" data-name="Rectángulo 339325" width="904" height="613.944" fill="none"/>
    </clipPath>
  </defs>
  <g id="Grupo_973500" data-name="Grupo 973500" transform="translate(-345 -5165.556)">
    <text id="CAUSA" transform="translate(626 5196.556)" fill="#12263f" font-size="24" font-family="Roboto-Black, Roboto" font-weight="800"><tspan x="15.391" y="23">CAUSA</tspan></text>
    <text id="EFECTO" transform="translate(1071 5196.556)" fill="#12263f" font-size="24" font-family="Roboto-Black, Roboto" font-weight="800"><tspan x="48.117" y="23">EFECTO</tspan></text>
    <g id="Grupo_973011" data-name="Grupo 973011" transform="translate(345 5165.557)">
      <path id="Trazado_697455" data-name="Trazado 697455" d="M627.8,339.207l.285-.456h86.168v49.378H597.14Zm-28.042-48.966h114.5v45.152H626.6ZM714.257,0V286.884H597.766l-30.53-51.369H709.468v-3.358H565.24l-28.757-48.384H680.239v-3.358H534.96v.8l-32.512-54.7-2.886,1.717L622.691,335.393H409.359l.043-.077L352.266,236.5l137.308-.985-.022-3.358-138.81,1,0,.72-28.966-50.1H466.3v-3.358H321.026v2.056l-33.5-57.936-2.907,1.681L405.54,335.345l-.027.048h-240.4L146.16,290.241H288.687v-3.357H144.75l-21.566-51.369H266.672v-3.358h-144.9l-20.313-48.384H243.413v-3.358H100.052L76.674,124.726l-3.1,1.3,87.9,209.368H0v3.358H160.917L74.558,556.607l3.123,1.237,23.812-60.073v.187H246.771V494.6H102.751l20.759-52.367v1H268.786v-3.358H124.445l19.18-48.385H287.568v-3.358H144.956l19.573-49.378h239.11L347.21,439.873h-.81v1.451L281.624,557.4l2.933,1.637,34.355-61.565v.482h150.75V494.6H320.517l28.665-51.368h142.5v-3.358H351.056l27.559-49.387v1H510.458v-3.358H379.93l27.555-49.378H624.127L494.608,545.388l2.843,1.784,31.913-50.912v1.7H674.641V494.6H530.405l32.2-51.368h145v-3.358H564.708L596.033,389.9v1.592H714.257V613.944h3.358V338.751h61.01v-3.358h-61.01V0Z" fill="#696969"/>
      <rect id="Rectángulo_339324" data-name="Rectángulo 339324" width="126.992" height="3.358" transform="translate(384.585 286.884)" fill="#696969"/>
      <g id="Grupo_973010" data-name="Grupo 973010" transform="translate(0 0)">
        <g id="Grupo_973009" data-name="Grupo 973009" clip-path="url(#clip-path)">
          <path id="Trazado_697456" data-name="Trazado 697456" d="M507.166,119.164H408.6a14.179,14.179,0,0,1-14.18-14.18V99.512A14.179,14.179,0,0,1,408.6,85.333h98.568a14.179,14.179,0,0,1,14.18,14.179v5.473a14.179,14.179,0,0,1-14.18,14.18" transform="translate(47.105 10.191)" fill="#68006a"/>
          <path id="Trazado_697457" data-name="Trazado 697457" d="M317.832,120.053H219.264a14.18,14.18,0,0,1-14.18-14.18V100.4a14.179,14.179,0,0,1,14.18-14.179h98.568a14.179,14.179,0,0,1,14.18,14.179v5.473a14.179,14.179,0,0,1-14.18,14.18" transform="translate(24.493 10.297)" fill="#900095"/>
          <path id="Trazado_697458" data-name="Trazado 697458" d="M140.5,120.053H41.931a14.18,14.18,0,0,1-14.18-14.18V100.4a14.179,14.179,0,0,1,14.18-14.179H140.5a14.179,14.179,0,0,1,14.18,14.179v5.473a14.179,14.179,0,0,1-14.18,14.18" transform="translate(3.314 10.297)" fill="#68006a"/>
          <path id="Trazado_697459" data-name="Trazado 697459" d="M507.166,520.386H408.6a14.179,14.179,0,0,1-14.18-14.18v-5.473a14.179,14.179,0,0,1,14.18-14.179h98.568a14.179,14.179,0,0,1,14.18,14.179v5.473a14.179,14.179,0,0,1-14.18,14.18" transform="translate(47.105 58.109)" fill="#68006a"/>
          <path id="Trazado_697460" data-name="Trazado 697460" d="M317.832,521.275H219.264a14.18,14.18,0,0,1-14.18-14.18v-5.473a14.179,14.179,0,0,1,14.18-14.179h98.568a14.179,14.179,0,0,1,14.18,14.179V507.1a14.18,14.18,0,0,1-14.18,14.18" transform="translate(24.493 58.215)" fill="#900095"/>
          <path id="Trazado_697461" data-name="Trazado 697461" d="M140.5,521.275H41.931a14.18,14.18,0,0,1-14.18-14.18v-5.473a14.179,14.179,0,0,1,14.18-14.179H140.5a14.179,14.179,0,0,1,14.18,14.179V507.1a14.18,14.18,0,0,1-14.18,14.18" transform="translate(3.314 58.215)" fill="#68006a"/>
          <path id="Trazado_697462" data-name="Trazado 697462" d="M808.414,345.168H693.983a14.428,14.428,0,0,1-14.428-14.428V281.983a14.428,14.428,0,0,1,14.428-14.428h114.43a14.428,14.428,0,0,1,14.428,14.428V330.74a14.429,14.429,0,0,1-14.428,14.428" transform="translate(81.158 31.954)" fill="#ffce30"/>
          <text id="PROBLEMA" transform="translate(778 325.999)" fill="#12263f" font-size="20" font-family="Roboto-Black, Roboto" font-weight="800"><tspan x="0.434" y="19">PROBLEMA</tspan></text>
          <text id="HOMBRE" transform="translate(42 100.999)" fill="#fff" font-size="20" font-family="Roboto-Black, Roboto" font-weight="800"><tspan x="12.235" y="19">HOMBRE</tspan></text>
          <text id="MATERIAL" transform="translate(41 549.999)" fill="#fff" font-size="20" font-family="Roboto-Black, Roboto" font-weight="800"><tspan x="4.662" y="19">MATERIAL</tspan></text>
          <text id="MÁQUINA" transform="translate(242 100.999)" fill="#fff" font-size="20" font-family="Roboto-Black, Roboto" font-weight="800"><tspan x="7.45" y="19">MÁQUINA</tspan></text>
          <text id="MÉTODO" transform="translate(241 549.999)" fill="#fff" font-size="20" font-family="Roboto-Black, Roboto" font-weight="800"><tspan x="12.602" y="19">MÉTODO</tspan></text>
          <text id="ENTORNO" transform="translate(453 100.999)" fill="#fff" font-size="20" font-family="Roboto-Black, Roboto" font-weight="800"><tspan x="7.504" y="19">ENTORNO</tspan></text>
          <text id="MEDIDA" transform="translate(452 549.999)" fill="#fff" font-size="20" font-family="Roboto-Black, Roboto" font-weight="800"><tspan x="16.483" y="19">MEDIDA</tspan></text>
        </g>
      </g>
    </g>
  </g>
</svg>
