<svg id="Grupo_973295" data-name="Grupo 973295" xmlns="http://www.w3.org/2000/svg" xmlns:xlink="http://www.w3.org/1999/xlink" width="137.727" height="162.9" viewBox="0 0 137.727 162.9">
  <defs>
    <clipPath id="clip-path">
      <rect id="Rectángulo_339595" data-name="Rectángulo 339595" width="137.727" height="162.9" fill="none"/>
    </clipPath>
    <clipPath id="clip-path-2">
      <path id="Trazado_698111" data-name="Trazado 698111" d="M68.864,0a68.863,68.863,0,1,0,68.863,68.864A68.863,68.863,0,0,0,68.864,0Z" fill="none"/>
    </clipPath>
  </defs>
  <g id="Grupo_973292" data-name="Grupo 973292">
    <g id="Grupo_973291" data-name="Grupo 973291" clip-path="url(#clip-path)">
      <path id="Trazado_697973" data-name="Trazado 697973" d="M68.864,0A68.864,68.864,0,1,1,0,68.864,68.863,68.863,0,0,1,68.864,0" fill="#ffce30"/>
    </g>
  </g>
  <g id="Grupo_973294" data-name="Grupo 973294">
    <g id="Grupo_973293" data-name="Grupo 973293" clip-path="url(#clip-path-2)">
      <path id="Trazado_697974" data-name="Trazado 697974" d="M84.968,155.135a4.2,4.2,0,0,0,1.956-.486l26.195-14.724a8.04,8.04,0,0,0,4.092-6.943l.2-31.851-2.266-.015-.2,31.852a5.772,5.772,0,0,1-2.937,4.983L85.842,152.658a1.909,1.909,0,0,1-1.887-.076,1.938,1.938,0,0,1-.94-1.671V106.581H80.749v44.328a4.229,4.229,0,0,0,4.217,4.224Z" transform="translate(-2.735 -3.425)" fill="#8c8b8a"/>
      <path id="Trazado_697975" data-name="Trazado 697975" d="M92.136,145.136A3.857,3.857,0,0,0,94,144.647l17.731-10.607a9.5,9.5,0,0,0,4.6-8.026l.241-26.643-2.267-.019-.24,26.642a7.226,7.226,0,0,1-3.5,6.1l-17.7,10.583a1.584,1.584,0,0,1-2.321-1.433L91.3,102.3l-2.266-.044-.747,38.95a3.866,3.866,0,0,0,3.8,3.931h.049Z" transform="translate(-2.991 -3.365)" fill="#8c8b8a"/>
      <path id="Trazado_697976" data-name="Trazado 697976" d="M100.3,134.651a3.41,3.41,0,0,0,1.713-.466l8.247-5.023a5.161,5.161,0,0,0,2.488-4.363l.271-22.735-2.267-.027-.27,22.736a2.9,2.9,0,0,1-1.4,2.456l-8.224,5.01a1.124,1.124,0,0,1-1.134-.014,1.139,1.139,0,0,1-.578-1V97.975H96.881v33.249a3.442,3.442,0,0,0,3.422,3.429Z" transform="translate(-3.282 -3.319)" fill="#872178"/>
      <path id="Trazado_697977" data-name="Trazado 697977" d="M52.58,105.769a6.135,6.135,0,0,0,3.076-.834l14.63-8.443c4.37-2.517,7.923-8.679,7.923-13.726V49.247H75.944V82.761A15.263,15.263,0,0,1,69.15,94.525l-14.629,8.448a3.891,3.891,0,0,1-5.834-3.366l-.022-21.1H46.4l.023,21.1a6.185,6.185,0,0,0,6.158,6.16" transform="translate(-1.572 -1.668)" fill="#872178"/>
      <path id="Trazado_697978" data-name="Trazado 697978" d="M58.451,98.53a4.109,4.109,0,0,0,2.053-.558l10.061-5.941a8.717,8.717,0,0,0,3.991-6.921V51.594H72.291V85.11a6.549,6.549,0,0,1-2.868,4.966L59.357,96.019a1.84,1.84,0,0,1-2.749-1.625L56.9,75.372l-2.266-.036-.29,19.022a4.058,4.058,0,0,0,2.024,3.6,4.1,4.1,0,0,0,2.082.57" transform="translate(-1.841 -1.748)" fill="#8c8b8a"/>
      <rect id="Rectángulo_339596" data-name="Rectángulo 339596" width="2.266" height="61.207" transform="translate(92.232 32.959)" fill="#872178"/>
      <rect id="Rectángulo_339597" data-name="Rectángulo 339597" width="2.266" height="57.657" transform="translate(83.695 42.199)" fill="#8c8b8a"/>
      <path id="Trazado_697979" data-name="Trazado 697979" d="M63.068,166.814a4.879,4.879,0,0,0,2.512-.706l6.209-3.744a5.1,5.1,0,0,0,2.453-4.346V115.562H71.977V158.02a2.817,2.817,0,0,1-1.356,2.4l-6.209,3.744a2.6,2.6,0,0,1-3.945-2.194L60.293,148.4l-2.267.029L58.2,162A4.89,4.89,0,0,0,63.068,166.814Z" transform="translate(-1.966 -3.914)" fill="#872178"/>
      <path id="Trazado_697980" data-name="Trazado 697980" d="M76.17,37.506l24.816-14.418-.1,36.01L76.067,73.52Z" transform="translate(-2.577 -0.782)" fill="#454545"/>
      <path id="Trazado_697981" data-name="Trazado 697981" d="M71.217,34.644,96.033,20.223l4.789,2.764L76.005,37.408Z" transform="translate(-2.412 -0.685)" fill="#4f4e4e"/>
      <path id="Trazado_697982" data-name="Trazado 697982" d="M76,37.914l-.1,36.01L71.111,71.16l.1-36.01Z" transform="translate(-2.409 -1.191)" fill="#2e2e2e"/>
      <path id="Trazado_697983" data-name="Trazado 697983" d="M113.736,10.929c.031.015-15.938-9.266-15.938-9.266C94.617-.184,90.212.075,85.349,2.884,75.675,8.467,67.869,21.989,67.9,33.094c.016,5.523,1.962,9.406,5.1,11.233l15.969,9.281c-.2-.116-.379-.264-.568-.4,3.215,2.243,7.854,2.159,13.026-.828,9.664-5.577,17.47-19.1,17.438-30.211-.015-5.542-1.975-9.427-5.134-11.244" transform="translate(-2.3 -0.016)" fill="#2e2e2d"/>
      <path id="Trazado_697984" data-name="Trazado 697984" d="M101.879,12.489c9.664-5.579,17.521-1.1,17.553,10S111.658,47.127,101.994,52.7,84.464,53.81,84.433,42.695,92.2,18.074,101.879,12.489" transform="translate(-2.86 -0.342)" fill="#5d5c5c"/>
      <path id="Trazado_697985" data-name="Trazado 697985" d="M116.511,22.653c.015,6.073-2.686,13.141-6.783,18.882L91.937,51.823c-2.765-1.1-4.364-4.291-4.38-8.972-.015-4.986,1.812-10.635,4.726-15.665,0-.016,21.542-12.448,21.542-12.448,1.719,1.54,2.667,4.275,2.686,7.915" transform="translate(-2.966 -0.499)" fill="#fff"/>
      <path id="Trazado_697986" data-name="Trazado 697986" d="M112.2,26.529,94.247,36.9c-.924.53-1.665.1-1.665-.959V34a3.676,3.676,0,0,1,1.665-2.881L112.2,20.752c.918-.53,1.664-.1,1.664.96v1.935a3.676,3.676,0,0,1-1.664,2.881" transform="translate(-3.136 -0.695)" fill="#2e2e2d"/>
      <path id="Trazado_697987" data-name="Trazado 697987" d="M110.509,32.057,97.264,39.7V37.911l13.245-7.647Z" transform="translate(-3.295 -1.025)" fill="#2e2e2d"/>
      <path id="Trazado_697988" data-name="Trazado 697988" d="M108.764,36.334l-9.629,5.56v-1.3l9.629-5.56Z" transform="translate(-3.358 -1.187)" fill="#2e2e2d"/>
      <path id="Trazado_697989" data-name="Trazado 697989" d="M95.2,81.323l6.288-3.655-.083,28.708-6.289,3.655Z" transform="translate(-3.222 -2.631)" fill="#979797"/>
      <path id="Trazado_697990" data-name="Trazado 697990" d="M97.041,89.577,99.754,88l-.071,9.963L96.971,99.54Z" transform="translate(-3.285 -2.981)" fill="#2e2e2d"/>
      <path id="Trazado_697991" data-name="Trazado 697991" d="M89.521,78.044l6.288-3.655,5.487,3.167-6.289,3.655Z" transform="translate(-3.032 -2.52)" fill="#aeaeae"/>
      <path id="Trazado_697992" data-name="Trazado 697992" d="M95,81.34l-.084,28.708-5.486-3.167.084-28.708Z" transform="translate(-3.029 -2.648)" fill="#626262"/>
      <path id="Trazado_697993" data-name="Trazado 697993" d="M99.63,82.209A2.792,2.792,0,0,1,98.367,84.4c-.7.4-1.264.076-1.264-.729a2.791,2.791,0,0,1,1.264-2.188c.7-.4,1.264-.076,1.264.729" transform="translate(-3.289 -2.754)" fill="#fff"/>
      <path id="Trazado_697994" data-name="Trazado 697994" d="M99.63,105.14a2.792,2.792,0,0,1-1.264,2.188c-.7.4-1.264.076-1.264-.729a2.791,2.791,0,0,1,1.264-2.188c.7-.4,1.264-.076,1.264.729" transform="translate(-3.289 -3.531)" fill="#fff"/>
      <path id="Trazado_697995" data-name="Trazado 697995" d="M99.143,91.913c-.05-.029-.1-.053-.152-.084l-2,1.164c.052.028.1.053.152.084a.86.86,0,0,1,.115.078l2-1.162a.829.829,0,0,0-.113-.08" transform="translate(-3.285 -3.111)" fill="#872178"/>
      <path id="Trazado_697996" data-name="Trazado 697996" d="M101.446,90.536a1.049,1.049,0,0,0-.3-.277.406.406,0,0,0-.4-.039l-2,1.162a.406.406,0,0,1,.4.039,1.046,1.046,0,0,1,.3.277.917.917,0,0,1,.174,1.007L98.242,94.35a1.772,1.772,0,0,1,0,1.732.67.67,0,0,1-.181.153l2-1.162a.665.665,0,0,0,.18-.153,1.772,1.772,0,0,0,0-1.732l1.379-1.645a.925.925,0,0,0-.175-1.007" transform="translate(-3.322 -3.055)" fill="#872178"/>
      <path id="Trazado_697997" data-name="Trazado 697997" d="M99.1,91.457a1.035,1.035,0,0,1,.3.277.921.921,0,0,1,.174,1.007L98.2,94.386a1.772,1.772,0,0,1,0,1.732c-.268.32-.709.316-1.166.05-.055-.033-.046-3.188-.046-3.188.052.028.1.052.152.084a.772.772,0,0,1,.115.077l1.372-1.655a.361.361,0,0,1,.476-.029" transform="translate(-3.285 -3.095)" fill="#a44c93"/>
      <path id="Trazado_697998" data-name="Trazado 697998" d="M87.462,85.6l6.288-3.655-.083,28.708-6.289,3.655Z" transform="translate(-2.96 -2.776)" fill="#979797"/>
      <path id="Trazado_697999" data-name="Trazado 697999" d="M89.306,93.851l2.713-1.577-.071,9.963-2.713,1.577Z" transform="translate(-3.023 -3.126)" fill="#2e2e2d"/>
      <path id="Trazado_698000" data-name="Trazado 698000" d="M81.787,82.321l6.288-3.655,5.487,3.167-6.289,3.655Z" transform="translate(-2.77 -2.665)" fill="#aeaeae"/>
      <path id="Trazado_698001" data-name="Trazado 698001" d="M87.269,85.617l-.084,28.708-5.479-3.17.084-28.708Z" transform="translate(-2.768 -2.793)" fill="#626262"/>
      <path id="Trazado_698002" data-name="Trazado 698002" d="M91.9,86.486a2.792,2.792,0,0,1-1.264,2.188c-.7.4-1.264.076-1.264-.729a2.791,2.791,0,0,1,1.264-2.188c.7-.4,1.264-.077,1.264.729" transform="translate(-3.027 -2.899)" fill="#fff"/>
      <path id="Trazado_698003" data-name="Trazado 698003" d="M91.9,109.418a2.792,2.792,0,0,1-1.264,2.187c-.7.4-1.264.076-1.264-.729a2.792,2.792,0,0,1,1.264-2.187c.7-.4,1.264-.077,1.264.729" transform="translate(-3.027 -3.676)" fill="#fff"/>
      <path id="Trazado_698004" data-name="Trazado 698004" d="M94.081,102.211l-1.637-3.15a2.108,2.108,0,0,0-.193-1.83,2.989,2.989,0,0,0-1-1.123l-2,1.162a2.984,2.984,0,0,1,1,1.124,2.11,2.11,0,0,1,.194,1.829l1.638,3.15c.2.372.175.746-.028.862l2-1.162c.2-.118.221-.491.026-.862" transform="translate(-3.023 -3.256)" fill="#872178"/>
      <path id="Trazado_698005" data-name="Trazado 698005" d="M89.254,97.306a2.994,2.994,0,0,1,1,1.125,2.111,2.111,0,0,1,.194,1.83l1.638,3.148c.2.39.174.782-.057.88a.436.436,0,0,1-.376-.054,1.169,1.169,0,0,1-.427-.474l-1.639-3.148a1.7,1.7,0,0,1-.335-.142Z" transform="translate(-3.023 -3.296)" fill="#a44c93"/>
      <path id="Trazado_698006" data-name="Trazado 698006" d="M79.875,90.625l6.288-3.655-.083,28.708-6.289,3.655Z" transform="translate(-2.703 -2.946)" fill="#979797"/>
      <path id="Trazado_698007" data-name="Trazado 698007" d="M81.72,98.877,84.433,97.3l-.071,9.963-2.713,1.577Z" transform="translate(-2.766 -3.296)" fill="#2e2e2d"/>
      <path id="Trazado_698008" data-name="Trazado 698008" d="M74.2,87.348l6.288-3.655,5.487,3.167-6.289,3.655Z" transform="translate(-2.513 -2.835)" fill="#aeaeae"/>
      <path id="Trazado_698009" data-name="Trazado 698009" d="M79.682,90.643,79.6,119.351l-5.486-3.167L74.2,87.476Z" transform="translate(-2.51 -2.963)" fill="#626262"/>
      <path id="Trazado_698010" data-name="Trazado 698010" d="M84.309,91.51A2.792,2.792,0,0,1,83.046,93.7c-.7.4-1.264.076-1.264-.728a2.8,2.8,0,0,1,1.264-2.189c.7-.4,1.264-.074,1.264.729" transform="translate(-2.77 -3.069)" fill="#fff"/>
      <path id="Trazado_698011" data-name="Trazado 698011" d="M84.309,114.444a2.793,2.793,0,0,1-1.264,2.188c-.7.4-1.264.075-1.264-.729a2.791,2.791,0,0,1,1.264-2.188c.7-.4,1.264-.076,1.264.729" transform="translate(-2.77 -3.846)" fill="#fff"/>
      <path id="Trazado_698012" data-name="Trazado 698012" d="M83.82,101.217c-.051-.03-.1-.053-.153-.084l-2,1.162c.052.03.1.055.152.084a.848.848,0,0,1,.115.076l2-1.162a.757.757,0,0,0-.114-.076" transform="translate(-2.766 -3.426)" fill="#872178"/>
      <path id="Trazado_698013" data-name="Trazado 698013" d="M86.122,99.84a1.024,1.024,0,0,0-.3-.277.4.4,0,0,0-.4-.041l-2,1.164a.4.4,0,0,1,.4.039,1.03,1.03,0,0,1,.3.277.91.91,0,0,1,.174,1l-1.378,1.645a1.777,1.777,0,0,1,0,1.732.7.7,0,0,1-.181.153l2-1.162a.691.691,0,0,0,.181-.155,1.77,1.77,0,0,0,0-1.731l1.378-1.645a.914.914,0,0,0-.172-1" transform="translate(-2.803 -3.37)" fill="#872178"/>
      <path id="Trazado_698014" data-name="Trazado 698014" d="M83.784,100.764a1.017,1.017,0,0,1,.3.277.91.91,0,0,1,.174,1L82.88,103.69a1.777,1.777,0,0,1,0,1.732c-.27.32-.71.314-1.169.049-.054-.033-.045-3.189-.045-3.189.051.031.1.055.152.084a.911.911,0,0,1,.115.076l1.373-1.654a.359.359,0,0,1,.478-.024" transform="translate(-2.766 -3.411)" fill="#a44c93"/>
      <path id="Trazado_698015" data-name="Trazado 698015" d="M72.14,94.9l6.288-3.655-.083,28.708-6.289,3.654Z" transform="translate(-2.441 -3.091)" fill="#979797"/>
      <path id="Trazado_698016" data-name="Trazado 698016" d="M73.985,103.153l2.713-1.577-.071,9.963-2.713,1.577Z" transform="translate(-2.504 -3.441)" fill="#2e2e2d"/>
      <path id="Trazado_698017" data-name="Trazado 698017" d="M66.465,91.625l6.288-3.655,5.487,3.167-6.289,3.655Z" transform="translate(-2.251 -2.98)" fill="#aeaeae"/>
      <path id="Trazado_698018" data-name="Trazado 698018" d="M71.948,94.92l-.084,28.708-5.486-3.167.084-28.708Z" transform="translate(-2.248 -3.108)" fill="#626262"/>
      <path id="Trazado_698019" data-name="Trazado 698019" d="M76.574,95.789a2.792,2.792,0,0,1-1.264,2.187c-.7.4-1.264.076-1.264-.728a2.793,2.793,0,0,1,1.264-2.189c.7-.4,1.264-.079,1.264.73" transform="translate(-2.508 -3.214)" fill="#fff"/>
      <path id="Trazado_698020" data-name="Trazado 698020" d="M76.574,118.721a2.792,2.792,0,0,1-1.264,2.188c-.7.4-1.264.076-1.264-.729a2.791,2.791,0,0,1,1.264-2.188c.7-.4,1.264-.077,1.264.729" transform="translate(-2.508 -3.991)" fill="#fff"/>
      <path id="Trazado_698021" data-name="Trazado 698021" d="M78.762,111.514l-1.639-3.15a2.107,2.107,0,0,0-.193-1.829,2.985,2.985,0,0,0-1-1.124l-2,1.161a2.987,2.987,0,0,1,1,1.125,2.112,2.112,0,0,1,.194,1.83l1.638,3.149c.2.372.175.746-.026.864l2-1.162c.2-.119.222-.493.027-.864" transform="translate(-2.504 -3.571)" fill="#872178"/>
      <path id="Trazado_698022" data-name="Trazado 698022" d="M73.929,106.614a2.994,2.994,0,0,1,1,1.125,2.112,2.112,0,0,1,.194,1.83l1.638,3.149c.2.389.174.782-.057.879a.432.432,0,0,1-.376-.052,1.2,1.2,0,0,1-.427-.474l-1.637-3.15a1.754,1.754,0,0,1-.335-.139Z" transform="translate(-2.504 -3.611)" fill="#a44c93"/>
      <path id="Trazado_698023" data-name="Trazado 698023" d="M41.017,46.184,62.567,33.66,62.418,86,40.873,98.526Z" transform="translate(-1.384 -1.14)" fill="#d2d2d2"/>
      <path id="Trazado_698024" data-name="Trazado 698024" d="M31.824,40.872l21.55-12.524,8.889,5.132L40.713,46Z" transform="translate(-1.078 -0.96)" fill="#aeaeae"/>
      <path id="Trazado_698025" data-name="Trazado 698025" d="M40.7,46.441l-.149,52.343L31.667,93.65l.149-52.342Z" transform="translate(-1.073 -1.399)" fill="#626262"/>
      <path id="Trazado_698026" data-name="Trazado 698026" d="M42.509,83.971,64.06,71.447l-.01,3.111L42.5,87.082Z" transform="translate(-1.44 -2.42)" fill="#e9e9e8"/>
      <path id="Trazado_698027" data-name="Trazado 698027" d="M41.015,83.108l21.55-12.524,1.444.834L42.459,83.941Z" transform="translate(-1.389 -2.391)" fill="#aeaeae"/>
      <path id="Trazado_698028" data-name="Trazado 698028" d="M42.459,84.38l-.01,3.111-1.443-.834.008-3.111Z" transform="translate(-1.389 -2.83)" fill="#626262"/>
      <path id="Trazado_698029" data-name="Trazado 698029" d="M43.667,66.893l5.751-3.343L49.4,76.642l-5.751,3.342Z" transform="translate(-1.479 -2.153)" fill="#161715"/>
      <path id="Trazado_698030" data-name="Trazado 698030" d="M46.88,63.992l5.751-3.343-.014,4.993-5.751,3.342Z" transform="translate(-1.587 -2.054)" fill="#a44c93"/>
      <path id="Trazado_698031" data-name="Trazado 698031" d="M43.667,62.137l5.751-3.343,3.1,1.793-5.75,3.342Z" transform="translate(-1.479 -1.992)" fill="#913282"/>
      <path id="Trazado_698032" data-name="Trazado 698032" d="M46.772,64.047l-.014,4.992-3.105-1.792.014-4.993Z" transform="translate(-1.479 -2.109)" fill="#872178"/>
      <path id="Trazado_698033" data-name="Trazado 698033" d="M54.612,60.433l5.751-3.343-.014,13.092L54.6,73.524Z" transform="translate(-1.849 -1.934)" fill="#161715"/>
      <path id="Trazado_698034" data-name="Trazado 698034" d="M57.829,70.793,63.58,67.45l-.014,4.994-5.751,3.342Z" transform="translate(-1.958 -2.285)" fill="#872178"/>
      <path id="Trazado_698035" data-name="Trazado 698035" d="M54.613,68.938l5.751-3.343,3.1,1.793-5.75,3.342Z" transform="translate(-1.85 -2.222)" fill="#872178"/>
      <path id="Trazado_698036" data-name="Trazado 698036" d="M57.717,70.847,57.7,75.84,54.6,74.048l.014-4.992Z" transform="translate(-1.849 -2.339)" fill="#872178"/>
      <path id="Trazado_698037" data-name="Trazado 698037" d="M42.509,61.114,64.06,48.59,64.05,51.7,42.5,64.225Z" transform="translate(-1.44 -1.646)" fill="#e9e9e8"/>
      <path id="Trazado_698038" data-name="Trazado 698038" d="M41.015,60.249l21.55-12.524,1.444.834L42.459,61.083Z" transform="translate(-1.389 -1.617)" fill="#aeaeae"/>
      <path id="Trazado_698039" data-name="Trazado 698039" d="M42.459,61.523l-.01,3.111L41.006,63.8l.008-3.111Z" transform="translate(-1.389 -2.056)" fill="#626262"/>
      <path id="Trazado_698040" data-name="Trazado 698040" d="M48.6,48.754a4.192,4.192,0,0,1-1.9,3.284c-1.047.6-1.9.115-1.9-1.091a4.185,4.185,0,0,1,1.9-3.284c1.047-.609,1.9-.119,1.9,1.091" transform="translate(-1.518 -1.606)" fill="#fff"/>
      <path id="Trazado_698041" data-name="Trazado 698041" d="M59.77,42.177a4.2,4.2,0,0,1-1.9,3.284c-1.046.6-1.9.115-1.9-1.1a4.2,4.2,0,0,1,1.9-3.284c1.051-.6,1.9-.113,1.9,1.1" transform="translate(-1.896 -1.383)" fill="#fff"/>
      <path id="Trazado_698042" data-name="Trazado 698042" d="M48.6,90.453a4.187,4.187,0,0,1-1.9,3.284c-1.047.6-1.9.115-1.9-1.091a4.187,4.187,0,0,1,1.9-3.284c1.047-.607,1.9-.117,1.9,1.091" transform="translate(-1.518 -3.018)" fill="#fff"/>
      <path id="Trazado_698043" data-name="Trazado 698043" d="M59.77,83.877a4.19,4.19,0,0,1-1.9,3.284c-1.046.6-1.9.115-1.9-1.091a4.193,4.193,0,0,1,1.9-3.284c1.051-.609,1.9-.119,1.9,1.091" transform="translate(-1.896 -2.795)" fill="#fff"/>
      <path id="Trazado_698044" data-name="Trazado 698044" d="M47.018,107.8,62.977,98.53,62.865,137.3,46.906,146.57Z" transform="translate(-1.589 -3.338)" fill="#d2d2d2"/>
      <path id="Trazado_698045" data-name="Trazado 698045" d="M50.14,109.732l9.908-5.758-.09,31.763-9.908,5.758Z" transform="translate(-1.695 -3.522)" fill="#aeaeae"/>
      <path id="Trazado_698046" data-name="Trazado 698046" d="M40.207,103.871,56.167,94.6l6.583,3.8L46.79,107.672Z" transform="translate(-1.362 -3.204)" fill="#aeaeae"/>
      <path id="Trazado_698047" data-name="Trazado 698047" d="M46.787,107.994l-.11,38.771-6.583-3.8L40.2,104.2Z" transform="translate(-1.358 -3.53)" fill="#626262"/>
      <path id="Trazado_698048" data-name="Trazado 698048" d="M50.249,112.449,61.8,105.735l0,1.669-11.555,6.714Z" transform="translate(-1.702 -3.582)" fill="#e9e9e8"/>
      <path id="Trazado_698049" data-name="Trazado 698049" d="M49.448,111.985,61,105.271l.775.447-11.555,6.714Z" transform="translate(-1.675 -3.566)" fill="#fff"/>
      <path id="Trazado_698050" data-name="Trazado 698050" d="M50.223,112.669l0,1.668-.775-.447,0-1.668Z" transform="translate(-1.675 -3.801)" fill="#626262"/>
      <path id="Trazado_698051" data-name="Trazado 698051" d="M50.249,116.618,61.8,109.9l0,1.668-11.555,6.714Z" transform="translate(-1.702 -3.723)" fill="#e9e9e8"/>
      <path id="Trazado_698052" data-name="Trazado 698052" d="M49.448,116.154,61,109.441l.775.447L50.223,116.6Z" transform="translate(-1.675 -3.707)" fill="#fff"/>
      <path id="Trazado_698053" data-name="Trazado 698053" d="M50.223,116.838l0,1.668-.775-.447,0-1.668Z" transform="translate(-1.675 -3.943)" fill="#626262"/>
      <path id="Trazado_698054" data-name="Trazado 698054" d="M50.249,120.788,61.8,114.075l0,1.668-11.555,6.714Z" transform="translate(-1.702 -3.864)" fill="#e9e9e8"/>
      <path id="Trazado_698055" data-name="Trazado 698055" d="M49.448,120.325,61,113.611l.775.447-11.555,6.714Z" transform="translate(-1.675 -3.848)" fill="#fff"/>
      <path id="Trazado_698056" data-name="Trazado 698056" d="M50.223,121.008l0,1.669-.775-.447,0-1.668Z" transform="translate(-1.675 -4.084)" fill="#626262"/>
      <path id="Trazado_698057" data-name="Trazado 698057" d="M50.249,124.958,61.8,118.244l0,1.668-11.555,6.714Z" transform="translate(-1.702 -4.005)" fill="#e9e9e8"/>
      <path id="Trazado_698058" data-name="Trazado 698058" d="M49.448,124.494,61,117.78l.775.447-11.555,6.714Z" transform="translate(-1.675 -3.99)" fill="#fff"/>
      <path id="Trazado_698059" data-name="Trazado 698059" d="M50.223,125.177l0,1.668-.775-.447,0-1.668Z" transform="translate(-1.675 -4.225)" fill="#626262"/>
      <path id="Trazado_698060" data-name="Trazado 698060" d="M50.249,129.127,61.8,122.413l0,1.668-11.555,6.714Z" transform="translate(-1.702 -4.147)" fill="#e9e9e8"/>
      <path id="Trazado_698061" data-name="Trazado 698061" d="M49.448,128.663,61,121.95l.775.447-11.555,6.714Z" transform="translate(-1.675 -4.131)" fill="#fff"/>
      <path id="Trazado_698062" data-name="Trazado 698062" d="M50.223,129.347l0,1.668-.775-.447,0-1.669Z" transform="translate(-1.675 -4.366)" fill="#626262"/>
      <path id="Trazado_698063" data-name="Trazado 698063" d="M50.249,133.3,61.8,126.583l0,1.669-11.555,6.714Z" transform="translate(-1.702 -4.288)" fill="#e9e9e8"/>
      <path id="Trazado_698064" data-name="Trazado 698064" d="M49.448,132.833,61,126.12l.775.447-11.555,6.714Z" transform="translate(-1.675 -4.272)" fill="#fff"/>
      <path id="Trazado_698065" data-name="Trazado 698065" d="M50.223,133.516l0,1.668-.775-.447,0-1.668Z" transform="translate(-1.675 -4.507)" fill="#626262"/>
      <path id="Trazado_698066" data-name="Trazado 698066" d="M50.249,137.466,61.8,130.752l0,1.668-11.555,6.714Z" transform="translate(-1.702 -4.429)" fill="#e9e9e8"/>
      <path id="Trazado_698067" data-name="Trazado 698067" d="M49.448,137,61,130.289l.775.447L50.223,137.45Z" transform="translate(-1.675 -4.413)" fill="#fff"/>
      <path id="Trazado_698068" data-name="Trazado 698068" d="M50.223,137.685l0,1.668-.775-.447,0-1.668Z" transform="translate(-1.675 -4.649)" fill="#626262"/>
      <path id="Trazado_698069" data-name="Trazado 698069" d="M50.249,141.635,61.8,134.921l0,1.668L50.244,143.3Z" transform="translate(-1.702 -4.57)" fill="#e9e9e8"/>
      <path id="Trazado_698070" data-name="Trazado 698070" d="M49.448,141.172,61,134.458l.775.447-11.555,6.714Z" transform="translate(-1.675 -4.555)" fill="#fff"/>
      <path id="Trazado_698071" data-name="Trazado 698071" d="M50.223,141.855l0,1.669-.775-.447,0-1.668Z" transform="translate(-1.675 -4.79)" fill="#626262"/>
      <path id="Trazado_698072" data-name="Trazado 698072" d="M47.415,39.329A4.531,4.531,0,0,0,51.946,34.8V6.965a4.531,4.531,0,1,0-9.062,0V34.8A4.531,4.531,0,0,0,47.415,39.329Z" transform="translate(-1.453 -0.082)" fill="#8c8b8a"/>
      <path id="Trazado_698073" data-name="Trazado 698073" d="M28.839,115.291,16.892,82.679a1.462,1.462,0,1,1,2.708-.991L31.548,114.3c.192,1.131-2.281,1.834-2.709.994" transform="translate(-0.566 -2.727)" fill="#d2d2d2"/>
      <path id="Trazado_698074" data-name="Trazado 698074" d="M21.289,82.353a2.3,2.3,0,0,0,.624-1.534,1.465,1.465,0,0,0-.045-.31c-.011-.032-.07-.184-.07-.184l-1.764-4.816a2.128,2.128,0,0,1-.6,1.761,6.3,6.3,0,0,1-5.348,1.959,2.052,2.052,0,0,1-1.633-1.05c-.014,0,1.769,4.858,1.769,4.858l.1.275a.991.991,0,0,0,.117.2,2.243,2.243,0,0,0,1.493.8,6.3,6.3,0,0,0,5.349-1.96" transform="translate(-0.422 -2.558)" fill="#872178"/>
      <path id="Trazado_698075" data-name="Trazado 698075" d="M19.57,78.533l-4.664,1.709a3.858,3.858,0,0,1-4.949-2.3L1.2,54.035a3.856,3.856,0,0,1,2.295-4.948l4.665-1.709A3.856,3.856,0,0,1,13.1,49.673l8.76,23.912a3.856,3.856,0,0,1-2.295,4.949" transform="translate(-0.033 -1.597)" fill="#872178"/>
      <path id="Trazado_698076" data-name="Trazado 698076" d="M14.048,80.781c-2.141-.371-2.746-2.027-1.353-3.694a7.537,7.537,0,0,1,6.4-2.344c2.142.372,2.746,2.027,1.353,3.694a7.528,7.528,0,0,1-6.4,2.344" transform="translate(-0.405 -2.53)" fill="#872178"/>
      <path id="Trazado_698077" data-name="Trazado 698077" d="M18.991,76.3,11.878,56.887a2.335,2.335,0,0,1,.362-2.08l.082-.1a.644.644,0,0,1,1.2.21l7.113,19.413a2.331,2.331,0,0,1-.362,2.078l-.082.1a.643.643,0,0,1-1.2-.208" transform="translate(-0.399 -1.842)" fill="#a44c93"/>
      <path id="Trazado_698078" data-name="Trazado 698078" d="M11.174,77.587,4.063,58.174a.641.641,0,0,1,.781-.934l.125.021a2.333,2.333,0,0,1,1.621,1.355L13.7,78.028a.644.644,0,0,1-.78.933l-.125-.02a2.334,2.334,0,0,1-1.62-1.354" transform="translate(-0.134 -1.937)" fill="#a44c93"/>
      <path id="Trazado_698079" data-name="Trazado 698079" d="M15.364,77.892,7.9,57.864a.948.948,0,0,1,.629-1.183l.07-.018.106-.034a1.1,1.1,0,0,1,1.374.553l7.462,20.028a.948.948,0,0,1-.627,1.184c-.024.008-.048.014-.072.019l-.107.034a1.1,1.1,0,0,1-1.373-.554" transform="translate(-0.266 -1.916)" fill="#a44c93"/>
      <path id="Trazado_698080" data-name="Trazado 698080" d="M28.938,113.066l1.983.346,2.464,4.26.295,4.078L31.7,121.4l-2.225-4.414Z" transform="translate(-0.98 -3.83)" fill="#d2d2d2"/>
      <path id="Trazado_698081" data-name="Trazado 698081" d="M28.343,113.581c-.244-1.637,1.075-1.326,1.983.346l2.465,4.26.866,3.545-1.983-.345-2.8-3.882Z" transform="translate(-0.959 -3.811)" fill="#a3a3a3"/>
      <path id="Trazado_698082" data-name="Trazado 698082" d="M122.883,58.223a4.82,4.82,0,0,0-1.8-3.349l2.067-1.4.271-.186a4.817,4.817,0,0,1,1.8,3.349Z" transform="translate(-4.102 -1.805)" fill="#d2d2d2"/>
      <path id="Trazado_698083" data-name="Trazado 698083" d="M122.956,58.659c0-.105,0-.212-.01-.319l2.337-1.583-2.335,1.583,2.335-1.583c.008.106.011.213.009.316l-2.333,1.581,2.333-1.581q-1.167.8-2.337,1.585Z" transform="translate(-4.165 -1.923)" fill="#d2d2d2"/>
      <path id="Trazado_698084" data-name="Trazado 698084" d="M122.307,60.186a1.786,1.786,0,0,0,.629-1.518l2.337-1.584a1.78,1.78,0,0,1-.629,1.518l-2.337,1.584" transform="translate(-4.143 -1.934)" fill="#d2d2d2"/>
      <path id="Trazado_698085" data-name="Trazado 698085" d="M124.6,58.657l-2.337,1.584a1.231,1.231,0,0,1-1.237.027l2.338-1.585a1.227,1.227,0,0,0,1.236-.026" transform="translate(-4.099 -1.987)" fill="#464645"/>
      <path id="Trazado_698086" data-name="Trazado 698086" d="M123.342,59.967,121,61.551l.141-12.471,2.337-1.585Z" transform="translate(-4.099 -1.609)" fill="#8c8b8a"/>
      <path id="Trazado_698087" data-name="Trazado 698087" d="M127.852,65.126l-2.337,1.584-.907-.242,2.338-1.585Z" transform="translate(-4.221 -2.198)" fill="#d2d2d2"/>
      <path id="Trazado_698088" data-name="Trazado 698088" d="M124.483,66.511A8.254,8.254,0,0,0,121,61.986l2.067-1.4.272-.185a8.254,8.254,0,0,1,3.478,4.523c-.7.48-1.636,1.113-2.338,1.587" transform="translate(-4.099 -2.046)" fill="#d2d2d2"/>
      <path id="Trazado_698089" data-name="Trazado 698089" d="M126.9,64.295l0,.2a8.255,8.255,0,0,0-3.479-4.524l.142-12.471,1.383.8,2.5,8.433.365,7.805Zm-3.4-11.2-.059,5.211c1.035.471,1.848-.183,1.865-1.544,0-.105,0-.212-.011-.319a4.816,4.816,0,0,0-1.8-3.349" transform="translate(-4.181 -1.609)" fill="#d2d2d2"/>
      <path id="Trazado_698090" data-name="Trazado 698090" d="M119.148,46.255l.15-.655-2.338,1.584-.15.655-1.362,5.821,2.338-1.584Z" transform="translate(-3.911 -1.545)" fill="#a3a3a3"/>
      <path id="Trazado_698091" data-name="Trazado 698091" d="M118.347,54.115l2.337-1.584a1.837,1.837,0,0,0-.564,1.712c.006.085.015.17.028.258a5,5,0,0,0,2.2,3.525l-2.338,1.584a5.005,5.005,0,0,1-2.2-3.524c-.012-.088-.021-.175-.027-.258a1.835,1.835,0,0,1,.565-1.713" transform="translate(-3.989 -1.779)" fill="#464645"/>
      <path id="Trazado_698092" data-name="Trazado 698092" d="M123.933,70.484a2,2,0,0,0,.772-1.1l2.338-1.584a2.012,2.012,0,0,1-.77,1.1c-.7.473-1.639,1.107-2.34,1.583" transform="translate(-4.198 -2.297)" fill="#a3a3a3"/>
      <path id="Trazado_698093" data-name="Trazado 698093" d="M119.554,61.975l-2.338,1.584-.075-.539,2.338-1.584Z" transform="translate(-3.968 -2.081)" fill="#a3a3a3"/>
      <path id="Trazado_698094" data-name="Trazado 698094" d="M121.028,62.578l-2.337,1.584-1.471-.585,2.337-1.584Z" transform="translate(-3.971 -2.1)" fill="#a3a3a3"/>
      <path id="Trazado_698095" data-name="Trazado 698095" d="M125.232,56.957c0-.1,0-.211-.01-.319a4.817,4.817,0,0,0-1.8-3.349,5.3,5.3,0,0,0-2.057,1.41,6.814,6.814,0,0,0-.087,3.06c.128.672,1.246.911,2.085.742,1.035.471,1.848-.183,1.865-1.544" transform="translate(-4.104 -1.805)" fill="#464645"/>
      <path id="Trazado_698096" data-name="Trazado 698096" d="M118.463,60.263l-2.338,1.584-.677-7.96,2.338-1.584Z" transform="translate(-3.911 -1.772)" fill="#8c8b8a"/>
      <path id="Trazado_698097" data-name="Trazado 698097" d="M122.841,61.358c-.856-.34-1.554-.074-1.791.665l-1.471-.585L119.5,60.9l-.029-.214-.929-.652-.678-7.96,1.363-5.821.15-.655,1.363.543.833,6.035c-.939-.246-1.552.52-1.454,1.828.007.084.016.17.028.258a5,5,0,0,0,2.2,3.525l.25,1.8Z" transform="translate(-3.992 -1.545)" fill="#d2d2d2"/>
      <path id="Trazado_698098" data-name="Trazado 698098" d="M125.524,65.512c.006.077.009.155.008.23-.016,1.3-1.026,1.78-2.26,1.063a4.756,4.756,0,0,1-2.2-3.409c0-.08-.009-.159-.007-.236a1.954,1.954,0,0,1,.088-.587c.237-.74.935-1,1.791-.665a2.863,2.863,0,0,1,.375.184,4.765,4.765,0,0,1,2.2,3.42" transform="translate(-4.101 -2.092)" fill="#a3a3a3"/>
      <path id="Trazado_698099" data-name="Trazado 698099" d="M124.2,68.875a4.071,4.071,0,0,1-.475-.155,5.362,5.362,0,0,1-1.126-.628,8.467,8.467,0,0,1-2.931-4.017,6.234,6.234,0,0,1-.278-1.154c-.014-.11-.026-.217-.035-.323a3.789,3.789,0,0,1,.087-1.194l-.029-.214-.931-.651-2.337,1.584.929.651.031.214a3.788,3.788,0,0,0-.086,1.194c.008.1.018.214.035.323a6.386,6.386,0,0,0,.275,1.154,8.489,8.489,0,0,0,2.933,4.017,5.292,5.292,0,0,0,1.126.627,3.946,3.946,0,0,0,.474.156,2.178,2.178,0,0,0,1.8-.222l2.338-1.584a2.178,2.178,0,0,1-1.8.222" transform="translate(-3.934 -2.051)" fill="#5d5c5c"/>
      <path id="Trazado_698100" data-name="Trazado 698100" d="M127.016,66.2a3.648,3.648,0,0,1-.125,1.34,1.954,1.954,0,0,1-2.575,1.323,3.884,3.884,0,0,1-.474-.155,5.292,5.292,0,0,1-1.127-.627,8.486,8.486,0,0,1-2.933-4.017,6.419,6.419,0,0,1-.276-1.155c-.015-.11-.026-.217-.035-.323a3.79,3.79,0,0,1,.086-1.194l.076.54,1.471.585a1.975,1.975,0,0,0-.089.586c0,.077,0,.157.008.236a4.754,4.754,0,0,0,2.2,3.408c1.234.718,2.241.237,2.259-1.062,0-.075,0-.153-.007-.23a4.765,4.765,0,0,0-2.2-3.422,2.882,2.882,0,0,0-.376-.185l-.242-1.768a4.933,4.933,0,0,1,.639.311,8.255,8.255,0,0,1,3.478,4.523,6.127,6.127,0,0,1,.213.956c.012.114.022.221.031.327" transform="translate(-4.046 -2.035)" fill="#d2d2d2"/>
      <path id="Trazado_698101" data-name="Trazado 698101" d="M128.211,69.574c-.763.287-.949,1-.858,2.216.028.361.079.766.147,1.215l-2.336.151-.676-4.034a1.956,1.956,0,0,0,2.576-1.324l.954.379Z" transform="translate(-4.217 -2.297)" fill="#a3a3a3"/>
      <path id="Trazado_698102" data-name="Trazado 698102" d="M125.081,73.2l-.675-4.034-2.338,1.584.675,4.034,2.337-.15,2.338-1.585Z" transform="translate(-4.135 -2.343)" fill="#5d5c5c"/>
      <path id="Trazado_698103" data-name="Trazado 698103" d="M118.7,64.919,116.362,66.5l.014-1.3,2.338-1.585Z" transform="translate(-3.942 -2.155)" fill="#8c8b8a"/>
      <path id="Trazado_698104" data-name="Trazado 698104" d="M122.692,68.2l-.169,3.622-2.516-2.527a12.79,12.79,0,0,0-.018-1.305,5.184,5.184,0,0,0-1.208-3.067l.013-1.3.967.562a8.475,8.475,0,0,0,2.931,4.016" transform="translate(-4.023 -2.155)" fill="#a3a3a3"/>
      <path id="Trazado_698105" data-name="Trazado 698105" d="M122.484,72.018,120.146,73.6l-2.515-2.527,2.337-1.584Z" transform="translate(-3.985 -2.354)" fill="#5d5c5c"/>
      <path id="Trazado_698106" data-name="Trazado 698106" d="M119.926,69.337l-2.337,1.584a12.5,12.5,0,0,0-.019-1.3,5.179,5.179,0,0,0-1.207-3.068l2.337-1.583a5.181,5.181,0,0,1,1.208,3.067,12.765,12.765,0,0,1,.018,1.3" transform="translate(-3.942 -2.201)" fill="#747474"/>
      <path id="Trazado_698107" data-name="Trazado 698107" d="M135.6,116.511a.714.714,0,0,0,.324-.468l.223-.921a37.715,37.715,0,0,0,1.091-13.012,68.761,68.761,0,0,0-7.243-24.788,3.472,3.472,0,0,1-.363-1.246,1.208,1.208,0,0,1,.782-1.4c.078-.022.116-.1.114-.235a.581.581,0,0,0-.062-.2l-.369-.712a.686.686,0,0,0-.189-.228.307.307,0,0,0-.255-.084l-.121.031a1.113,1.113,0,0,1-.881-.239,2.661,2.661,0,0,1-.79-.933l-.156-.3a.942.942,0,0,0-.291-.346.4.4,0,0,0-.326-.091l-1.127.291-1.77.46-3.139,2.127c.167-.22.332-.442.508-.654.177-.182.351-.333.519-.508a2.4,2.4,0,0,0,.547-1.733l-1.953-2.279L119.425,67.6a.688.688,0,0,0-.335-.235.231.231,0,0,0-.26.078l-.128.164a.644.644,0,0,1-.716.192,1.93,1.93,0,0,1-.905-.633l-.136-.154a.433.433,0,0,0-.255-.167.157.157,0,0,0-.173.05.122.122,0,0,1,.034-.033L112.81,69.4a.123.123,0,0,0-.034.033l-.294.385a.259.259,0,0,0-.034.194.616.616,0,0,0,.147.322l.079.1a3.983,3.983,0,0,1,.941,2.14,1.6,1.6,0,0,1-.214,1.013c-3.437,5-4.887,11.962-4.283,19.989a60.927,60.927,0,0,0,2.886,14.117l.365,1.206A2.49,2.49,0,0,0,114,110.631l.82.131,1.041.159a.646.646,0,0,0,.476-.09l3.74-2.535a.884.884,0,0,0,.3-.84,2.2,2.2,0,0,0-.089-.453l-1.042-3.46a.818.818,0,0,0-.19-.32.528.528,0,0,0-.273-.16.365.365,0,0,1-.2-.121.582.582,0,0,1-.131-.225,52.569,52.569,0,0,1-1.745-9.84c-.537-7.161.746-13.378,3.8-17.906a6.62,6.62,0,0,0,.755,2.049c.2.36.406.695.671,1.165,4.491,8.376,7.133,16.952,7.708,24.613a36.337,36.337,0,0,1-.37,8.978l-.75.511a.187.187,0,0,0-.076.121l-.642,2.636a1.343,1.343,0,0,0-.031.426,2.667,2.667,0,0,0,.953,1.744l1.092.881.859.693a1.036,1.036,0,0,0,1.21.244l3.74-2.536c-.008.007-.02.007-.031.014" transform="translate(-3.692 -2.264)" fill="#23755c"/>
      <path id="Trazado_698108" data-name="Trazado 698108" d="M122.753,71.325a2.4,2.4,0,0,1-.547,1.733c-.168.174-.342.327-.519.508-3.813,4.6-5.442,11.384-4.848,19.315a52.569,52.569,0,0,0,1.745,9.84.581.581,0,0,0,.131.225.368.368,0,0,0,.2.121.528.528,0,0,1,.273.16.807.807,0,0,1,.19.32l1.042,3.46a2.2,2.2,0,0,1,.089.453c.045.613-.255,1.01-.776.929l-1.041-.159-.82-.131a2.493,2.493,0,0,1-1.63-1.742l-.364-1.2a60.927,60.927,0,0,1-2.886-14.117c-.6-8.029.845-14.993,4.283-19.989a1.6,1.6,0,0,0,.214-1.013,3.983,3.983,0,0,0-.941-2.14l-.079-.1a.616.616,0,0,1-.147-.322.249.249,0,0,1,.034-.194l.293-.385a.156.156,0,0,1,.173-.049.427.427,0,0,1,.256.166l.136.154a1.934,1.934,0,0,0,.905.634.641.641,0,0,0,.715-.193l.128-.164a.23.23,0,0,1,.26-.077.678.678,0,0,1,.336.235l1.242,1.444Z" transform="translate(-3.823 -2.264)" fill="#41a98c"/>
      <path id="Trazado_698109" data-name="Trazado 698109" d="M137.769,102.268a37.741,37.741,0,0,1-1.091,13.012l-.223.921c-.158.656-.834.757-1.5.211l-.858-.693L133,114.837a2.668,2.668,0,0,1-.954-1.745,1.4,1.4,0,0,1,.031-.426l.642-2.635a.182.182,0,0,1,.155-.151.42.42,0,0,1,.273.107.266.266,0,0,0,.2.073.118.118,0,0,0,.105-.111,35.95,35.95,0,0,0,.469-9.527c-.576-7.66-3.216-16.238-7.709-24.612-.266-.47-.471-.8-.671-1.165a6.476,6.476,0,0,1-.821-2.4l1.77-.46,1.127-.291a.4.4,0,0,1,.326.091.942.942,0,0,1,.291.346l.156.3a2.653,2.653,0,0,0,.79.933,1.113,1.113,0,0,0,.881.239l.121-.03a.3.3,0,0,1,.254.083.689.689,0,0,1,.19.228L131,74.4a.6.6,0,0,1,.062.2c0,.133-.036.213-.114.235a1.209,1.209,0,0,0-.782,1.4,3.483,3.483,0,0,0,.363,1.247,68.734,68.734,0,0,1,7.243,24.785" transform="translate(-4.225 -2.422)" fill="#41a98c"/>
      <path id="Trazado_698110" data-name="Trazado 698110" d="M121.654,52.407c-.839-.219-1.412.368-1.458,1.426a3.6,3.6,0,0,1,1.458-1.426" transform="translate(-4.071 -1.774)" fill="#464645"/>
    </g>
  </g>
</svg>
