<svg xmlns="http://www.w3.org/2000/svg" xmlns:xlink="http://www.w3.org/1999/xlink" width="1239.999" height="636.068" viewBox="0 0 1239.999 636.068">
  <defs>
    <linearGradient id="linear-gradient" x2="1" y2="1" gradientUnits="objectBoundingBox">
      <stop offset="0" stop-color="#3c0061"/>
      <stop offset="1" stop-color="#b3009d"/>
    </linearGradient>
    <clipPath id="clip-path">
      <rect id="Rectángulo_339723" data-name="Rectángulo 339723" width="713.149" height="526.927" fill="none"/>
    </clipPath>
  </defs>
  <g id="Grupo_973512" data-name="Grupo 973512" transform="translate(-180 -8449)">
    <g id="Grupo_973356" data-name="Grupo 973356">
      <g id="Grupo_973239" data-name="Grupo 973239" transform="translate(180 8380)">
        <g id="Grupo_49020" data-name="Grupo 49020" transform="translate(0 69)">
          <g id="Group_1153" data-name="Group 1153">
            <path id="Recurso_1" data-name="Recurso 1" d="M0,0H1240V636.069H0Z" fill="url(#linear-gradient)"/>
          </g>
        </g>
      </g>
      <path id="Trazado_697855" data-name="Trazado 697855" d="M22,5a21.273,21.273,0,0,0-6.937,1.134A17.775,17.775,0,0,0,9.6,9.12,11.394,11.394,0,0,0,5,17.892V160.219a11.394,11.394,0,0,0,4.6,8.773,17.774,17.774,0,0,0,5.465,2.985A21.273,21.273,0,0,0,22,173.111H273a21.273,21.273,0,0,0,6.937-1.134,17.775,17.775,0,0,0,5.465-2.985,11.394,11.394,0,0,0,4.6-8.773V17.892a11.394,11.394,0,0,0-4.6-8.773,17.775,17.775,0,0,0-5.465-2.985A21.273,21.273,0,0,0,273,5H22m0-5H273c12.15,0,22,8.011,22,17.892V160.219c0,9.882-9.85,17.892-22,17.892H22c-12.15,0-22-8.011-22-17.892V17.892C0,8.011,9.85,0,22,0Z" transform="translate(986 8643)" fill="#fff"/>
      <path id="Trazado_699081" data-name="Trazado 699081" d="M33.954,14.013H25.846V36H19.333V14.013h-7.96V8.984H33.954ZM44.475,36.371A10.32,10.32,0,0,1,37,33.616a9.515,9.515,0,0,1-2.857-7.171v-.52a12.329,12.329,0,0,1,1.141-5.437,8.35,8.35,0,0,1,3.331-3.646,10.054,10.054,0,0,1,5.2-1.29,8.69,8.69,0,0,1,6.68,2.625,10.317,10.317,0,0,1,2.449,7.32v2.431H40.5a4.507,4.507,0,0,0,1.466,2.653,4.362,4.362,0,0,0,2.932.965,5.62,5.62,0,0,0,4.639-2.078L52.4,32.846a7.988,7.988,0,0,1-3.312,2.57A11.192,11.192,0,0,1,44.475,36.371ZM43.77,20.377q-2.746,0-3.266,3.637h6.309v-.482a3.1,3.1,0,0,0-.761-2.329A3.027,3.027,0,0,0,43.77,20.377ZM43.7,7.481H50.3l-5.158,5.826-5.1-.009ZM63.938,31.547a2.781,2.781,0,0,0,2.041-.714,2.62,2.62,0,0,0,.705-1.995h5.863a6.941,6.941,0,0,1-2.366,5.418,8.8,8.8,0,0,1-6.1,2.115,8.91,8.91,0,0,1-6.9-2.746q-2.523-2.746-2.523-7.607v-.26a12.229,12.229,0,0,1,1.123-5.372,8.173,8.173,0,0,1,3.238-3.581,9.654,9.654,0,0,1,5.01-1.252,8.689,8.689,0,0,1,6.216,2.171,7.7,7.7,0,0,1,2.3,5.882H66.685a3.432,3.432,0,0,0-.761-2.394,2.626,2.626,0,0,0-2.041-.835q-2.431,0-2.839,3.1a21.864,21.864,0,0,0-.13,2.709,8.588,8.588,0,0,0,.724,4.193A2.505,2.505,0,0,0,63.938,31.547Zm17-15.623.2,2.356a6.808,6.808,0,0,1,5.733-2.728,5.728,5.728,0,0,1,4.685,1.874,8.922,8.922,0,0,1,1.6,5.641V36H86.891V23.327a3.388,3.388,0,0,0-.612-2.236,2.833,2.833,0,0,0-2.227-.714,2.982,2.982,0,0,0-2.728,1.447V36H75.071V15.924ZM103.219,36H96.947V15.924h6.271ZM96.576,10.747a2.791,2.791,0,0,1,.965-2.189,4.1,4.1,0,0,1,5.01,0,2.791,2.791,0,0,1,.965,2.189,2.791,2.791,0,0,1-.965,2.189,4.1,4.1,0,0,1-5.01,0A2.791,2.791,0,0,1,96.576,10.747Zm18.981,20.8a2.781,2.781,0,0,0,2.041-.714,2.62,2.62,0,0,0,.705-1.995h5.863a6.941,6.941,0,0,1-2.366,5.418,8.8,8.8,0,0,1-6.1,2.115,8.91,8.91,0,0,1-6.9-2.746q-2.523-2.746-2.523-7.607v-.26a12.228,12.228,0,0,1,1.123-5.372,8.173,8.173,0,0,1,3.238-3.581,9.654,9.654,0,0,1,5.01-1.252,8.689,8.689,0,0,1,6.216,2.171,7.7,7.7,0,0,1,2.3,5.882H118.3a3.432,3.432,0,0,0-.761-2.394,2.626,2.626,0,0,0-2.041-.835q-2.431,0-2.839,3.1a21.865,21.865,0,0,0-.13,2.709,8.588,8.588,0,0,0,.724,4.193A2.505,2.505,0,0,0,115.558,31.547ZM138.12,36a7.06,7.06,0,0,1-.594-1.8,5.814,5.814,0,0,1-4.824,2.171,7.123,7.123,0,0,1-4.824-1.716,5.463,5.463,0,0,1-1.985-4.314,5.615,5.615,0,0,1,2.412-4.936q2.412-1.67,7.014-1.67h1.93V22.673q0-2.778-2.394-2.778a1.956,1.956,0,0,0-2.227,2.2h-6.253a5.605,5.605,0,0,1,2.477-4.726,10.41,10.41,0,0,1,6.318-1.816,9.127,9.127,0,0,1,6.067,1.874,6.516,6.516,0,0,1,2.282,5.14v8.888a9.1,9.1,0,0,0,.854,4.23V36Zm-3.915-4.082a3.488,3.488,0,0,0,1.939-.5,3.14,3.14,0,0,0,1.1-1.132v-3.21H135.43q-3.266,0-3.266,2.932a1.79,1.79,0,0,0,.575,1.382A2.082,2.082,0,0,0,134.205,31.918Zm21.449-6.1a12.264,12.264,0,0,1,2.06-7.515,6.779,6.779,0,0,1,5.752-2.746,5.766,5.766,0,0,1,4.527,2.115V7.5h6.271V36h-5.622l-.315-2.152a5.921,5.921,0,0,1-4.9,2.523,6.767,6.767,0,0,1-5.678-2.746Q155.654,30.879,155.654,25.813Zm6.253.39q0,5.344,3.117,5.344a3.078,3.078,0,0,0,2.969-1.744V22.158a3,3,0,0,0-2.932-1.781q-2.895,0-3.136,4.676Zm25.624,10.168a10.32,10.32,0,0,1-7.478-2.755,9.515,9.515,0,0,1-2.857-7.171v-.52a12.329,12.329,0,0,1,1.141-5.437,8.35,8.35,0,0,1,3.331-3.646,10.054,10.054,0,0,1,5.2-1.29,8.69,8.69,0,0,1,6.68,2.625,10.317,10.317,0,0,1,2.449,7.32v2.431H183.561a4.507,4.507,0,0,0,1.466,2.653,4.362,4.362,0,0,0,2.932.965,5.62,5.62,0,0,0,4.639-2.078l2.857,3.377a7.988,7.988,0,0,1-3.312,2.57A11.192,11.192,0,0,1,187.531,36.371Zm-.705-15.994q-2.746,0-3.266,3.637h6.309v-.482a3.1,3.1,0,0,0-.761-2.329A3.027,3.027,0,0,0,186.826,20.377ZM214.565,36h-6.271V7.5h6.271Zm15.159,0a7.06,7.06,0,0,1-.594-1.8,5.814,5.814,0,0,1-4.824,2.171,7.123,7.123,0,0,1-4.824-1.716,5.463,5.463,0,0,1-1.985-4.314,5.615,5.615,0,0,1,2.412-4.936q2.412-1.67,7.014-1.67h1.93V22.673q0-2.778-2.394-2.778a1.956,1.956,0,0,0-2.227,2.2h-6.253a5.605,5.605,0,0,1,2.477-4.726,10.41,10.41,0,0,1,6.318-1.816,9.127,9.127,0,0,1,6.067,1.874,6.516,6.516,0,0,1,2.282,5.14v8.888a9.1,9.1,0,0,0,.854,4.23V36Zm-3.915-4.082a3.488,3.488,0,0,0,1.939-.5,3.14,3.14,0,0,0,1.1-1.132v-3.21h-1.818q-3.266,0-3.266,2.932a1.79,1.79,0,0,0,.575,1.382A2.082,2.082,0,0,0,225.81,31.918ZM249.1,30.359a1.445,1.445,0,0,0-.835-1.28,12.7,12.7,0,0,0-3.173-1,14.468,14.468,0,0,1-3.859-1.364,6.465,6.465,0,0,1-2.319-2.05,4.9,4.9,0,0,1-.8-2.765,5.549,5.549,0,0,1,2.282-4.555,9.4,9.4,0,0,1,5.975-1.791,10.416,10.416,0,0,1,6.383,1.8,5.628,5.628,0,0,1,2.412,4.731h-6.271q0-2.412-2.542-2.412a2.52,2.52,0,0,0-1.651.547,1.7,1.7,0,0,0-.668,1.364,1.556,1.556,0,0,0,.816,1.354,7.714,7.714,0,0,0,2.607.854,22.528,22.528,0,0,1,3.145.8q4.527,1.559,4.527,5.585a5.258,5.258,0,0,1-2.44,4.472,10.7,10.7,0,0,1-6.318,1.726,10.919,10.919,0,0,1-4.6-.928,7.7,7.7,0,0,1-3.154-2.523,5.714,5.714,0,0,1-1.132-3.358h5.845a2.416,2.416,0,0,0,.928,2.032,3.816,3.816,0,0,0,2.282.64,3,3,0,0,0,1.92-.52A1.662,1.662,0,0,0,249.1,30.359ZM56.192,73.547a2.781,2.781,0,0,0,2.041-.714,2.62,2.62,0,0,0,.705-1.995H64.8a6.941,6.941,0,0,1-2.366,5.418,8.8,8.8,0,0,1-6.1,2.115,8.91,8.91,0,0,1-6.9-2.746q-2.523-2.746-2.523-7.607v-.26a12.229,12.229,0,0,1,1.123-5.372,8.173,8.173,0,0,1,3.238-3.581,9.654,9.654,0,0,1,5.01-1.252A8.689,8.689,0,0,1,62.5,59.724a7.7,7.7,0,0,1,2.3,5.882H58.938a3.432,3.432,0,0,0-.761-2.394,2.626,2.626,0,0,0-2.041-.835q-2.431,0-2.839,3.1a21.864,21.864,0,0,0-.13,2.709,8.588,8.588,0,0,0,.724,4.193A2.505,2.505,0,0,0,56.192,73.547ZM79.4,75.829a6.447,6.447,0,0,1-5.362,2.542,6.323,6.323,0,0,1-5-1.92,8.077,8.077,0,0,1-1.7-5.52V57.924H73.6V70.968q0,2.579,2.5,2.579a3.268,3.268,0,0,0,3.062-1.54V57.924h6.29V78H79.589ZM101.02,63.583l-2.06-.148q-2.95,0-3.785,1.855V78H88.922V57.924h5.863l.2,2.579a4.842,4.842,0,0,1,4.4-2.95,6.1,6.1,0,0,1,1.744.223Zm10.595,6.977,3.173-12.636h6.587L114.825,78h-6.383l-6.55-20.076H108.5ZM134.27,78a7.06,7.06,0,0,1-.594-1.8,5.814,5.814,0,0,1-4.824,2.171,7.123,7.123,0,0,1-4.824-1.716,5.463,5.463,0,0,1-1.985-4.314,5.615,5.615,0,0,1,2.412-4.936q2.412-1.67,7.014-1.67h1.93V64.673q0-2.778-2.394-2.778a1.956,1.956,0,0,0-2.227,2.2h-6.253A5.605,5.605,0,0,1,125,59.369a10.41,10.41,0,0,1,6.318-1.816,9.127,9.127,0,0,1,6.067,1.874,6.516,6.516,0,0,1,2.282,5.14v8.888a9.1,9.1,0,0,0,.854,4.23V78Zm-3.915-4.082a3.488,3.488,0,0,0,1.939-.5,3.14,3.14,0,0,0,1.1-1.132v-3.21H131.58q-3.266,0-3.266,2.932a1.79,1.79,0,0,0,.575,1.382A2.082,2.082,0,0,0,130.355,73.918Zm23.286-1.559a1.445,1.445,0,0,0-.835-1.28,12.7,12.7,0,0,0-3.173-1,14.468,14.468,0,0,1-3.859-1.364,6.465,6.465,0,0,1-2.319-2.05,4.9,4.9,0,0,1-.8-2.765,5.549,5.549,0,0,1,2.282-4.555,9.4,9.4,0,0,1,5.975-1.791,10.416,10.416,0,0,1,6.383,1.8,5.628,5.628,0,0,1,2.412,4.731h-6.271q0-2.412-2.542-2.412a2.52,2.52,0,0,0-1.651.547,1.7,1.7,0,0,0-.668,1.364,1.556,1.556,0,0,0,.816,1.354,7.714,7.714,0,0,0,2.607.854,22.529,22.529,0,0,1,3.145.8q4.527,1.559,4.527,5.585a5.258,5.258,0,0,1-2.44,4.472,10.7,10.7,0,0,1-6.318,1.726,10.919,10.919,0,0,1-4.6-.928,7.7,7.7,0,0,1-3.154-2.523,5.714,5.714,0,0,1-1.132-3.358h5.845a2.416,2.416,0,0,0,.928,2.032,3.816,3.816,0,0,0,2.282.64,3,3,0,0,0,1.92-.52A1.662,1.662,0,0,0,153.641,72.359Zm29.187-1.707,5.381-19.668h7.273L186.39,78h-7.125l-9.018-27.016h7.218Zm23.639-1.893H195.315V63.936h11.151Zm12.1,9.24H212.07V50.984h6.494Z" transform="translate(1001 8706)" fill="#fff"/>
      <path id="Trazado_699082" data-name="Trazado 699082" d="M8.675,13.568h-4.7l-.536,3.059H9L8.587,19H.018L2.232,6.2h8.587l-.413,2.382H4.834l-.475,2.7H9.07ZM14.5,9.49,12.841,19.3a4.036,4.036,0,0,1-1.283,2.641,3.9,3.9,0,0,1-2.725.927,9.185,9.185,0,0,1-1.45-.167l.237-2.25a3.9,3.9,0,0,0,.8.105A1.407,1.407,0,0,0,9.932,19.2L11.6,9.49Zm-2.681-2.4a1.326,1.326,0,0,1,.457-1.075,1.646,1.646,0,0,1,1.134-.423,1.6,1.6,0,0,1,1.125.375,1.332,1.332,0,0,1,.475,1.018,1.35,1.35,0,0,1-.435,1.058A1.757,1.757,0,0,1,12.3,8.1,1.323,1.323,0,0,1,11.821,7.087Zm7.453,12.089a4.421,4.421,0,0,1-2.272-.6A3.793,3.793,0,0,1,15.5,16.921a4.44,4.44,0,0,1-.4-2.333l.026-.246a5.829,5.829,0,0,1,1.63-3.713,4.51,4.51,0,0,1,3.415-1.314,3.678,3.678,0,0,1,2.092.621A3.468,3.468,0,0,1,23.528,11.6a5.1,5.1,0,0,1,.264,2.381l-.167,1.206h-5.66a1.854,1.854,0,0,0,.422,1.213,1.549,1.549,0,0,0,1.178.492,2.993,2.993,0,0,0,2.259-.967l1.213,1.6a3.578,3.578,0,0,1-1.5,1.2,5.263,5.263,0,0,1-2.1.451Zm.7-7.576a1.487,1.487,0,0,0-1.068.385,3.229,3.229,0,0,0-.787,1.347h2.892l.053-.254a1.929,1.929,0,0,0,.018-.577A1.017,1.017,0,0,0,19.978,11.6ZM28.5,9.481l-.193,1.143a3.414,3.414,0,0,1,2.777-1.31,2.509,2.509,0,0,1,1.415.4,1.843,1.843,0,0,1,.738,1.028,3.619,3.619,0,0,1,2.892-1.433,2.241,2.241,0,0,1,1.956.989,4.117,4.117,0,0,1,.461,2.711L37.556,19h-2.9l1.011-5.987.035-.518q0-.869-.817-.9a1.872,1.872,0,0,0-1.424.781L32.309,19h-2.9l1-5.969.035-.527q0-.9-.817-.9a1.86,1.86,0,0,0-1.406.781L27.053,19H24.161l1.652-9.51Zm20.162,4.772a7.9,7.9,0,0,1-.782,2.659A4.348,4.348,0,0,1,46.4,18.644a3.417,3.417,0,0,1-1.973.541,2.584,2.584,0,0,1-2.021-.984l-.861,4.456H38.654L40.939,9.49l2.672-.009-.149.905a2.8,2.8,0,0,1,2.259-1.072,2.662,2.662,0,0,1,2.167.993,4.388,4.388,0,0,1,.831,2.663A10.274,10.274,0,0,1,48.665,14.254Zm-2.812-1.178q-.044-1.45-.984-1.477a1.7,1.7,0,0,0-1.521.747l-.677,3.771a1.173,1.173,0,0,0,1.213.782q1.538.026,1.89-2.646Q45.853,13.41,45.853,13.076ZM52.233,19h-2.9L51.671,5.5h2.9Zm7.383-9.686a3.994,3.994,0,0,1,2.206.637,3.59,3.59,0,0,1,1.367,1.727A5.33,5.33,0,0,1,63.5,14.14l-.018.193a5.636,5.636,0,0,1-1.626,3.533,4.575,4.575,0,0,1-3.41,1.31,3.977,3.977,0,0,1-2.188-.628,3.612,3.612,0,0,1-1.367-1.709,5.179,5.179,0,0,1-.321-2.443,5.863,5.863,0,0,1,1.6-3.727A4.547,4.547,0,0,1,59.616,9.314ZM57.463,14.4l-.026.518q-.123,1.957,1.2,1.992,1.705.053,1.978-2.764l.035-.8a2.155,2.155,0,0,0-.294-1.259,1.073,1.073,0,0,0-.918-.487,1.512,1.512,0,0,0-1.314.654A4.278,4.278,0,0,0,57.463,14.4Z" transform="translate(1004 8658)" fill="#fff"/>
      <path id="Línea_411" data-name="Línea 411" d="M139,1.5H0v-3H139Z" transform="translate(986 8689)" fill="#f5f5f5"/>
      <g id="Grupo_973355" data-name="Grupo 973355" transform="translate(180 8506.24)" opacity="0.46">
        <path id="Trazado_698443" data-name="Trazado 698443" d="M108.973,120.126H2.983v-3H107.916l48.252-34.09,1.9,2.4Z" transform="translate(0.177 0.12)" fill="#fff"/>
        <path id="Trazado_698444" data-name="Trazado 698444" d="M129.847,134.521H2.132v-3H128.605l95.547-83.172h212.7l39.2-36.357,2.226,2.139L438.149,51.349H225.394Z" transform="translate(0.126)" fill="#fff"/>
        <path id="Trazado_698445" data-name="Trazado 698445" d="M302.434,196.106l-45.976-43.99H3.834v-3H257.786l45.965,43.98,211.518-1.591,46.445-34.077,1.95,2.369L516.37,194.5l-.538,0Z" transform="translate(0.227 0.219)" fill="#fff"/>
        <path id="Trazado_698446" data-name="Trazado 698446" d="M614.921,304.064H510.616l-46.876-43.189-139.71-.8L219.474,164.911H4.685v-3H220.757l104.564,95.172,139.72.8,46.868,43.182H614.921Z" transform="translate(0.277 0.297)" fill="#fff"/>
        <path id="Trazado_698447" data-name="Trazado 698447" d="M510.152,318.033,463.74,275.27l-139.711-.8L219.474,179.306H4.685v-3H220.756l104.564,95.172,139.72.8,47.332,43.609Z" transform="translate(0.277 0.323)" fill="#fff"/>
        <path id="Trazado_698448" data-name="Trazado 698448" d="M687.729,349.649l-183.31-.535-.458-.408L453.45,303.594l-143.136-.867-.455-.412-104.7-94.486-202.176-.2,0-3,203.448.2.46.415,104.7,94.489,143.128.867,50.964,45.516,182.051.531Z" transform="translate(0.177 0.378)" fill="#fff"/>
        <path id="Trazado_698449" data-name="Trazado 698449" d="M629.561,381.188,609,361.384l-114.153,1.067-49.894-45.867-140.611-2.133-.452-.412-103.5-94.48H2.132v-3H201.679l103.97,94.911L446.269,313.6l49.859,45.836,114.2-1.066,21.507,20.715Z" transform="translate(0.126 0.422)" fill="#fff"/>
        <path id="Trazado_698450" data-name="Trazado 698450" d="M312.569,287.809l-.468-.431-103.5-95.007L5.54,192.9l-.009-3,204.36-.535.465.426,103.491,95,126.741-1.06.03,3Z" transform="translate(0.328 0.312)" fill="#fff"/>
        <path id="Trazado_698451" data-name="Trazado 698451" d="M555.48,373.641H491.136L442.46,328.853l-140-.532L302,327.91l-104.1-93.426L3.825,233.421l.019-3,195.327,1.071,104.56,93.833,140.026.534.461.423,48.212,44.359H555.48Z" transform="translate(0.227 0.424)" fill="#fff"/>
        <path id="Trazado_698452" data-name="Trazado 698452" d="M616.354,404.157l-18.766-16.651-113.574.533-50.487-44.793L292.3,342.18l-.457-.417-104.1-95.01L2.7,247.284l-.011-3,186.33-.535L293.592,339.19,434.8,340.256l50.467,44.777L598.84,384.5l19.691,17.471Z" transform="translate(0.16 0.469)" fill="#fff"/>
        <path id="Trazado_698453" data-name="Trazado 698453" d="M542.146,400.832l-61.927-.539-49.873-45.315-141.224-.533-.461-.426-102.883-95L5.561,261.679l-.05-3L187.052,256l103.372,95.445,141.209.533L481.513,397.3l60.662.527Z" transform="translate(0.326 0.473)" fill="#fff"/>
        <path id="Trazado_698454" data-name="Trazado 698454" d="M412.414,367.776,283.192,366.7l-.453-.406-104.1-92.893L4.4,272.875l.011-3,175.5.535,104.565,93.3,127.973,1.062Z" transform="translate(0.26 0.444)" fill="#fff"/>
        <path id="Trazado_698455" data-name="Trazado 698455" d="M473.7,429.09l-54.082-47.45-140.036.534-.465-.428L175.024,286.207,4.412,287.27l-.02-3L176.3,283.2l.468.429,104.094,95.54,139.995-.532,54.084,47.45,186.86-.531.011,3Z" transform="translate(0.26 0.525)" fill="#fff"/>
        <path id="Trazado_698456" data-name="Trazado 698456" d="M590.921,450.452l-12.746-13.366H462.269l-49.277-44.253-139.41-.533-.456-.406L168.425,299H4.4v-3H169.683l105.165,93.3,139.42.533,49.271,44.249H579.591l13.692,14.358Z" transform="translate(0.261 0.705)" fill="#fff"/>
        <path id="Trazado_698457" data-name="Trazado 698457" d="M462.193,452.021,411.7,405.092l-140.6-1.066-.454-.408-104.1-93.42-161.012.531-.011-3,162.286-.535,104.568,93.842L413.016,402.1l.46.426,50.006,46.479,54.023-.526.033,3Z" transform="translate(0.328 0.705)" fill="#fff"/>
        <path id="Trazado_698458" data-name="Trazado 698458" d="M262.844,413.753l-102.9-91.3-154.413-.53.013-3,155.664.534.457.405,103.359,91.7Z" transform="translate(0.328 0.521)" fill="#fff"/>
        <path id="Trazado_698459" data-name="Trazado 698459" d="M210.619,406.278,131.16,334.19l-126.751.53-.014-3,128.039-.536.464.421,79.922,72.509Z" transform="translate(0.26 0.517)" fill="#fff"/>
        <path id="Trazado_698460" data-name="Trazado 698460" d="M507.97,504.8l-213.955-.535-.458-.406L116.146,345.919l-111.735.53-.017-3,113.007-.536.463.411L295.28,501.265l212.7.531Z" transform="translate(0.26 0.705)" fill="#fff"/>
        <path id="Trazado_698461" data-name="Trazado 698461" d="M138.6,394.539,97,356.051l-94.292.529-.019-3,95.6-.537L140.822,392.4Z" transform="translate(0.159 0.513)" fill="#fff"/>
        <path id="Trazado_698462" data-name="Trazado 698462" d="M0,396.186l19.207,16.145,35.642-.446-.041-3-34.409.43L2.112,393.945Z" transform="translate(0 0.547)" fill="#fff"/>
        <path id="Trazado_698463" data-name="Trazado 698463" d="M525.42,278.316l-34.994-32.1-175.449-.533-.454-.4-45.068-39.453,2.16-2.2,44.615,39.055,175.49.533,35.914,32.945Z" transform="translate(15.96 0.318)" fill="#fff"/>
        <path id="Trazado_698464" data-name="Trazado 698464" d="M414.568,72.942h-152.6v-3H413.426l34.25-26.655,135.773-.536.013,3-134.64.531Z" transform="translate(15.517)" fill="#fff"/>
        <rect id="Rectángulo_339721" data-name="Rectángulo 339721" width="3.032" height="307.072" transform="matrix(0.002, -1, 1, 0.002, 223.395, 88.937)" fill="#fff"/>
        <path id="Trazado_698465" data-name="Trazado 698465" d="M385.079,130.105,356.1,103.866H194.412L165.39,124.36l-1.9-2.4,29.868-21.092H357.372l29.906,27.075Z" transform="translate(9.684 0.143)" fill="#fff"/>
        <path id="Trazado_698466" data-name="Trazado 698466" d="M473.351,156.116,309.9,155.579,273.994,124.26l2.156-2.2,35,30.527,161.051.529,33.045-26.12,132.776-.536.015,3-131.63.531Z" transform="translate(16.229 0.175)" fill="#fff"/>
        <path id="Trazado_698467" data-name="Trazado 698467" d="M306.138,180.643l-29.3-25.458,2.151-2.208,28.384,24.658,161.676-1.059,34.424-25.8,1.975,2.35-35.282,26.446Z" transform="translate(16.398 0.214)" fill="#fff"/>
        <rect id="Rectángulo_339722" data-name="Rectángulo 339722" width="3.032" height="186.287" transform="translate(344.779 215.581) rotate(-89.826)" fill="#fff"/>
        <path id="Trazado_698468" data-name="Trazado 698468" d="M376,234.488l-.011-3,163.411-.531,50.474-46.383,85.971-.537.021,3-84.692.529-50.48,46.387Z" transform="translate(22.271 0.273)" fill="#fff"/>
        <path id="Trazado_698469" data-name="Trazado 698469" d="M270.194,475.6l-43.8-38.865,127.227.551-.015,3-119.152-.516,37.922,33.644Z" transform="translate(13.41 0.705)" fill="#fff"/>
        <path id="Trazado_698470" data-name="Trazado 698470" d="M640.133,516.616l-33.187-31.548-181.466-.533-43.727-40.412,2.223-2.145,42.8,39.561,181.491.533L642.388,514.5Z" transform="translate(22.612 0.705)" fill="#fff"/>
        <g id="Grupo_973354" data-name="Grupo 973354">
          <g id="Grupo_973353" data-name="Grupo 973353" clip-path="url(#clip-path)">
            <path id="Trazado_698471" data-name="Trazado 698471" d="M158.619,83.982c0,4.57-4.17,8.275-9.314,8.275s-9.315-3.7-9.315-8.275,4.17-8.275,9.315-8.275,9.314,3.7,9.314,8.275" transform="translate(8.292 0.101)" fill="#fff"/>
            <path id="Trazado_698472" data-name="Trazado 698472" d="M214.784,86.648c0,4.57-4.171,8.275-9.315,8.275s-9.315-3.7-9.315-8.275,4.17-8.275,9.315-8.275,9.315,3.7,9.315,8.275" transform="translate(11.619 0.105)" fill="#fff"/>
            <path id="Trazado_698473" data-name="Trazado 698473" d="M282.294,120.77c0,4.57-4.17,8.275-9.314,8.275s-9.315-3.7-9.315-8.275,4.17-8.275,9.315-8.275,9.314,3.7,9.314,8.275" transform="translate(15.618 0.151)" fill="#fff"/>
            <path id="Trazado_698474" data-name="Trazado 698474" d="M387.248,134.632c0,4.57-4.17,8.275-9.314,8.275s-9.315-3.7-9.315-8.275,4.17-8.275,9.315-8.275,9.314,3.7,9.314,8.275" transform="translate(21.834 0.169)" fill="#fff"/>
            <path id="Trazado_698475" data-name="Trazado 698475" d="M518.3,86.648c0,4.57-4.17,8.275-9.314,8.275s-9.315-3.7-9.315-8.275,4.17-8.275,9.315-8.275,9.314,3.7,9.314,8.275" transform="translate(29.597 0.105)" fill="#fff"/>
            <path id="Trazado_698476" data-name="Trazado 698476" d="M541.559,157.024c0,4.57-4.17,8.275-9.314,8.275s-9.315-3.7-9.315-8.275,4.17-8.275,9.315-8.275,9.314,3.7,9.314,8.275" transform="translate(30.974 0.199)" fill="#fff"/>
            <path id="Trazado_698477" data-name="Trazado 698477" d="M632.9,128.767c0,4.57-4.17,8.275-9.314,8.275s-9.315-3.7-9.315-8.275,4.17-8.275,9.315-8.275,9.314,3.7,9.314,8.275" transform="translate(36.385 0.161)" fill="#fff"/>
            <path id="Trazado_698478" data-name="Trazado 698478" d="M674.311,186.348c0,4.57-4.17,8.275-9.314,8.275s-9.315-3.7-9.315-8.275,4.17-8.275,9.315-8.275,9.314,3.7,9.314,8.275" transform="translate(38.838 0.238)" fill="#fff"/>
            <path id="Trazado_698479" data-name="Trazado 698479" d="M517.732,214.072c0,4.57-4.17,8.275-9.314,8.275s-9.315-3.7-9.315-8.275,4.17-8.275,9.315-8.275,9.314,3.7,9.314,8.275" transform="translate(29.563 0.276)" fill="#fff"/>
            <path id="Trazado_698480" data-name="Trazado 698480" d="M277.189,200.743c0,4.57-4.17,8.275-9.315,8.275s-9.314-3.7-9.314-8.275,4.169-8.275,9.314-8.275,9.315,3.7,9.315,8.275" transform="translate(15.315 0.258)" fill="#fff"/>
            <path id="Trazado_698481" data-name="Trazado 698481" d="M329.382,214.605c0,4.57-4.17,8.275-9.314,8.275s-9.315-3.7-9.315-8.275,4.17-8.275,9.315-8.275,9.314,3.7,9.314,8.275" transform="translate(18.407 0.276)" fill="#fff"/>
            <path id="Trazado_698482" data-name="Trazado 698482" d="M382.142,231.133c0,4.57-4.17,8.275-9.314,8.275s-9.315-3.7-9.315-8.275,4.17-8.275,9.315-8.275,9.314,3.7,9.314,8.275" transform="translate(21.532 0.298)" fill="#fff"/>
            <path id="Trazado_698483" data-name="Trazado 698483" d="M432.634,287.114c0,4.57-4.17,8.275-9.314,8.275s-9.315-3.7-9.315-8.275,4.17-8.275,9.315-8.275,9.314,3.7,9.314,8.275" transform="translate(24.523 0.373)" fill="#fff"/>
            <path id="Trazado_698484" data-name="Trazado 698484" d="M499.01,321.769c0,4.57-4.17,8.275-9.314,8.275s-9.315-3.7-9.315-8.275,4.17-8.275,9.315-8.275,9.314,3.7,9.314,8.275" transform="translate(28.454 0.42)" fill="#fff"/>
            <path id="Trazado_698485" data-name="Trazado 698485" d="M597.156,302.575c0,4.57-4.17,8.275-9.314,8.275s-9.315-3.7-9.315-8.275,4.17-8.275,9.315-8.275,9.314,3.7,9.314,8.275" transform="translate(34.268 0.394)" fill="#fff"/>
            <path id="Trazado_698486" data-name="Trazado 698486" d="M661.263,350.559c0,4.57-4.17,8.275-9.314,8.275s-9.315-3.7-9.315-8.275,4.17-8.275,9.315-8.275,9.314,3.7,9.314,8.275" transform="translate(38.065 0.458)" fill="#fff"/>
            <path id="Trazado_698487" data-name="Trazado 698487" d="M605.1,379.882c0,4.57-4.17,8.275-9.314,8.275s-9.315-3.7-9.315-8.275,4.17-8.275,9.315-8.275,9.314,3.7,9.314,8.275" transform="translate(34.738 0.498)" fill="#fff"/>
            <path id="Trazado_698488" data-name="Trazado 698488" d="M534.184,374.018c0,4.57-4.17,8.275-9.314,8.275s-9.315-3.7-9.315-8.275,4.17-8.275,9.315-8.275,9.314,3.7,9.314,8.275" transform="translate(30.538 0.49)" fill="#fff"/>
            <path id="Trazado_698489" data-name="Trazado 698489" d="M526.809,399.609c0,4.57-4.17,8.275-9.314,8.275s-9.315-3.7-9.315-8.275,4.17-8.275,9.315-8.275,9.314,3.7,9.314,8.275" transform="translate(30.101 0.524)" fill="#fff"/>
            <path id="Trazado_698490" data-name="Trazado 698490" d="M593.185,404.407c0,4.57-4.17,8.275-9.314,8.275s-9.315-3.7-9.315-8.275,4.17-8.275,9.315-8.275,9.314,3.7,9.314,8.275" transform="translate(34.032 0.53)" fill="#fff"/>
            <path id="Trazado_698491" data-name="Trazado 698491" d="M138.763,396.41c0,4.57-4.17,8.275-9.314,8.275s-9.315-3.7-9.315-8.275,4.17-8.275,9.315-8.275,9.314,3.7,9.314,8.275" transform="translate(7.116 0.52)" fill="#fff"/>
            <path id="Trazado_698492" data-name="Trazado 698492" d="M212.514,406.54c0,4.57-4.17,8.275-9.314,8.275s-9.315-3.7-9.315-8.275,4.17-8.275,9.315-8.275,9.314,3.7,9.314,8.275" transform="translate(11.484 0.533)" fill="#fff"/>
            <path id="Trazado_698493" data-name="Trazado 698493" d="M263.006,416.67c0,4.57-4.17,8.275-9.314,8.275s-9.315-3.7-9.315-8.275,4.17-8.275,9.315-8.275,9.314,3.7,9.314,8.275" transform="translate(14.475 0.547)" fill="#fff"/>
            <path id="Trazado_698494" data-name="Trazado 698494" d="M388.95,439.6c0,4.57-4.17,8.275-9.314,8.275s-9.315-3.7-9.315-8.275,4.17-8.275,9.315-8.275,9.314,3.7,9.314,8.275" transform="translate(21.935 0.578)" fill="#fff"/>
            <path id="Trazado_698495" data-name="Trazado 698495" d="M504.683,450.792c0,4.57-4.17,8.275-9.314,8.275s-9.315-3.7-9.315-8.275,4.17-8.275,9.315-8.275,9.314,3.7,9.314,8.275" transform="translate(28.79 0.593)" fill="#fff"/>
            <path id="Trazado_698496" data-name="Trazado 698496" d="M496.174,503.041c0,4.57-4.171,8.275-9.315,8.275s-9.315-3.7-9.315-8.275,4.17-8.275,9.315-8.275,9.315,3.7,9.315,8.275" transform="translate(28.286 0.662)" fill="#fff"/>
            <path id="Trazado_698497" data-name="Trazado 698497" d="M573.9,456.123c0,4.57-4.17,8.275-9.314,8.275s-9.315-3.7-9.315-8.275,4.17-8.275,9.315-8.275,9.314,3.7,9.314,8.275" transform="translate(32.89 0.6)" fill="#fff"/>
            <path id="Trazado_698498" data-name="Trazado 698498" d="M638,517.969c0,4.57-4.17,8.275-9.314,8.275s-9.315-3.7-9.315-8.275,4.17-8.275,9.315-8.275S638,513.4,638,517.969" transform="translate(36.687 0.682)" fill="#fff"/>
            <path id="Trazado_698499" data-name="Trazado 698499" d="M169.4,128.234c0,4.57-4.17,8.275-9.314,8.275s-9.315-3.7-9.315-8.275,4.17-8.275,9.315-8.275,9.314,3.7,9.314,8.275" transform="translate(8.93 0.161)" fill="#fff"/>
            <path id="Trazado_698500" data-name="Trazado 698500" d="M464.12,8.275c0,4.57-4.17,8.275-9.314,8.275s-9.315-3.7-9.315-8.275S449.661,0,454.806,0s9.314,3.7,9.314,8.275" transform="translate(26.388)" fill="#fff"/>
            <path id="Trazado_698501" data-name="Trazado 698501" d="M252.615,78.332c-5.719,0-10.373-4.162-10.373-9.276s4.654-9.276,10.373-9.276,10.374,4.162,10.374,9.276-4.654,9.276-10.374,9.276m0-16.55c-4.552,0-8.255,3.262-8.255,7.274s3.7,7.274,8.255,7.274,8.256-3.263,8.256-7.274-3.7-7.274-8.256-7.274" transform="translate(14.349 0.08)" fill="#fff"/>
            <path id="Trazado_698502" data-name="Trazado 698502" d="M575.987,52.741c-5.72,0-10.374-4.162-10.374-9.276s4.654-9.276,10.374-9.276,10.373,4.162,10.373,9.276-4.654,9.276-10.373,9.276m0-16.55c-4.553,0-8.256,3.262-8.256,7.274s3.7,7.274,8.256,7.274,8.255-3.263,8.255-7.274-3.7-7.274-8.255-7.274" transform="translate(33.503 0.046)" fill="#fff"/>
            <path id="Trazado_698503" data-name="Trazado 698503" d="M499.4,157.238c-5.72,0-10.374-4.161-10.374-9.275s4.654-9.276,10.374-9.276,10.373,4.162,10.373,9.276-4.654,9.275-10.373,9.275m0-16.549c-4.553,0-8.256,3.262-8.256,7.274s3.7,7.273,8.256,7.273,8.255-3.262,8.255-7.273-3.7-7.274-8.255-7.274" transform="translate(28.966 0.186)" fill="#fff"/>
            <path id="Trazado_698504" data-name="Trazado 698504" d="M273.606,156.706c-5.72,0-10.374-4.162-10.374-9.276s4.654-9.276,10.374-9.276,10.373,4.162,10.373,9.276-4.654,9.276-10.373,9.276m0-16.55c-4.553,0-8.256,3.262-8.256,7.274s3.7,7.274,8.256,7.274,8.255-3.263,8.255-7.274-3.7-7.274-8.255-7.274" transform="translate(15.592 0.185)" fill="#fff"/>
            <path id="Trazado_698505" data-name="Trazado 698505" d="M518.687,291.059c-5.719,0-10.373-4.161-10.373-9.275s4.654-9.276,10.373-9.276,10.374,4.161,10.374,9.276-4.654,9.275-10.374,9.275m0-16.549c-4.552,0-8.255,3.263-8.255,7.274s3.7,7.273,8.255,7.273,8.256-3.262,8.256-7.273-3.7-7.274-8.256-7.274" transform="translate(30.109 0.365)" fill="#fff"/>
            <path id="Trazado_698506" data-name="Trazado 698506" d="M632.151,436.61c-5.719,0-10.373-4.161-10.373-9.275s4.654-9.276,10.373-9.276,10.374,4.161,10.374,9.276-4.654,9.275-10.374,9.275m0-16.549c-4.552,0-8.255,3.263-8.255,7.274s3.7,7.273,8.255,7.273,8.256-3.262,8.256-7.273-3.7-7.274-8.256-7.274" transform="translate(36.829 0.56)" fill="#fff"/>
            <path id="Trazado_698507" data-name="Trazado 698507" d="M398.416,375.3c-5.719,0-10.373-4.161-10.373-9.275s4.654-9.276,10.373-9.276,10.374,4.161,10.374,9.276-4.654,9.275-10.374,9.275m0-16.549c-4.552,0-8.255,3.263-8.255,7.274s3.7,7.273,8.255,7.273,8.256-3.262,8.256-7.273-3.7-7.274-8.256-7.274" transform="translate(22.985 0.478)" fill="#fff"/>
            <path id="Trazado_698508" data-name="Trazado 698508" d="M354.733,448.34c-5.72,0-10.374-4.161-10.374-9.275s4.654-9.276,10.374-9.276,10.373,4.161,10.373,9.276-4.654,9.275-10.373,9.275m0-16.549c-4.553,0-8.256,3.263-8.256,7.274s3.7,7.273,8.256,7.273,8.255-3.262,8.255-7.273-3.7-7.274-8.255-7.274" transform="translate(20.397 0.575)" fill="#fff"/>
            <path id="Trazado_698509" data-name="Trazado 698509" d="M274.741,488.327c-5.72,0-10.374-4.162-10.374-9.276s4.654-9.276,10.374-9.276,10.373,4.161,10.373,9.276-4.654,9.276-10.373,9.276m0-16.55c-4.553,0-8.256,3.263-8.256,7.274s3.7,7.274,8.256,7.274S283,483.062,283,479.05s-3.7-7.274-8.255-7.274" transform="translate(15.659 0.629)" fill="#fff"/>
            <path id="Trazado_698510" data-name="Trazado 698510" d="M58.538,419.285c-4.8,0-8.707-3.5-8.707-7.794s3.906-7.794,8.707-7.794,8.706,3.5,8.706,7.794-3.905,7.794-8.706,7.794m0-13.586c-3.633,0-6.588,2.6-6.588,5.792s2.955,5.792,6.588,5.792,6.587-2.6,6.587-5.792S62.17,405.7,58.538,405.7" transform="translate(2.952 0.541)" fill="#fff"/>
            <path id="Trazado_698511" data-name="Trazado 698511" d="M122.914,5.126c0-2.318,2.326-4.2,5.2-4.2s5.2,1.879,5.2,4.2a4.319,4.319,0,0,1-3.293,3.9V61.942L76.481,98.74H3.3V96H74.164V28.916a4.2,4.2,0,0,1-2.88-3.738c0-2.318,2.326-4.2,5.2-4.2s5.2,1.879,5.2,4.2c0,2.021-1.77,3.706-4.125,4.105V94.412l23.4-16.087V19.279a4.366,4.366,0,0,1-3.5-3.949c0-2.318,2.327-4.2,5.2-4.2s5.2,1.879,5.2,4.2a4.366,4.366,0,0,1-3.5,3.949V76l22.286-15.319V9.128c-2.142-.519-3.713-2.1-3.713-4" transform="translate(0.196 0.001)" fill="#fff"/>
            <path id="Trazado_698512" data-name="Trazado 698512" d="M124.691,467.876c0,2.318,2.326,4.2,5.2,4.2s5.2-1.878,5.2-4.2a4.319,4.319,0,0,0-3.293-3.9V411.06l-53.531-36.8H5.079V377H75.941v67.087a4.2,4.2,0,0,0-2.88,3.739c0,2.318,2.326,4.2,5.2,4.2s5.2-1.878,5.2-4.2c0-2.021-1.77-3.706-4.125-4.105V378.59l23.4,16.086v59.047a4.366,4.366,0,0,0-3.5,3.949c0,2.318,2.327,4.2,5.2,4.2s5.2-1.879,5.2-4.2a4.366,4.366,0,0,0-3.5-3.949V397L128.4,412.324v51.55c-2.142.519-3.713,2.1-3.713,4" transform="translate(0.301 0.501)" fill="#fff"/>
          </g>
        </g>
      </g>
    </g>
  </g>
</svg>
