<svg xmlns="http://www.w3.org/2000/svg" xmlns:xlink="http://www.w3.org/1999/xlink" width="315" height="546" viewBox="0 0 315 546">
  <defs>
    <clipPath id="clip-path">
      <rect id="Rectángulo_339733" data-name="Rectángulo 339733" width="315" height="546" transform="translate(-6805 -3203)" fill="#fff" stroke="#707070" stroke-width="1"/>
    </clipPath>
    <clipPath id="clip-path-2">
      <rect id="Rectángulo_339728" data-name="Rectángulo 339728" width="324.152" height="752.856" fill="none"/>
    </clipPath>
    <clipPath id="clip-path-3">
      <rect id="Rectángulo_339727" data-name="Rectángulo 339727" width="306.153" height="752.856" fill="none"/>
    </clipPath>
    <clipPath id="clip-path-4">
      <rect id="Rectángulo_339726" data-name="Rectángulo 339726" width="15.772" height="10.52" fill="none"/>
    </clipPath>
  </defs>
  <g id="Enmascarar_grupo_76" data-name="Enmascarar grupo 76" transform="translate(6805 3203)" clip-path="url(#clip-path)">
    <g id="Grupo_973364" data-name="Grupo 973364" transform="translate(-6788 -3203)">
      <g id="Grupo_973363" data-name="Grupo 973363" clip-path="url(#clip-path-2)">
        <g id="Grupo_973362" data-name="Grupo 973362">
          <g id="Grupo_973361" data-name="Grupo 973361" clip-path="url(#clip-path-3)">
            <path id="Trazado_698513" data-name="Trazado 698513" d="M32.183,122.111,48.827,270.447S40.7,301.778,41.666,310.77c.978,8.854,18.116,125.818,18.116,125.818L59,443.022l-.421,18.995,63.977.487A283.768,283.768,0,0,1,90.2,444.56a12.808,12.808,0,0,1-5.383-9.269c-5.061-36.007,4.9-156.169,4.9-156.169l7.833-156.5Z" transform="translate(73.781 279.945)" fill="#f5b0a9" fill-rule="evenodd"/>
            <path id="Trazado_698514" data-name="Trazado 698514" d="M46.93,130.415c-3.579.886-9.1,128.212-12.074,133.885C16.009,300.07,11.538,408.813,11.538,408.813L3.761,424.041l1.775,14.639s14.062,8.087,23.937,2.654l-1.534-14.688L26.779,407,74.3,271.5,100.3,133.322Z" transform="translate(8.622 298.982)" fill="#f5b0a9" fill-rule="evenodd"/>
            <path id="Trazado_698515" data-name="Trazado 698515" d="M146.872,299.522l2.272-87.832c.382-24.859-7.9-48.657-18.116-71.254l-21.54-36.188c-6.937,2.183-10.77-18.307-18.069-17.467-5.508.576-9.3,1.873-14.392,2.173-9.624.593-15.482,19.367-25.8,18.191-.049.593-2.051,5.357-2.2,5.775-4.949,13.282-21.945,25.092-28.671,64.468-7.642,44.746-7.6,121.663-6.638,126.911,72.966,3.2,90.347,5.729,133.157-4.777" transform="translate(30.428 198.89)" fill="#3c0061" fill-rule="evenodd"/>
            <path id="Trazado_698516" data-name="Trazado 698516" d="M40.6,243.483h66.052c2.446-.25,3.036-2.246,2.183-3.48-1.742-2.483-9.453-4.373-18.112-8.393-15.179,1.607-47-8.551-49.382-12.031-1.386,7.023-2.078,23.611-.731,23.907" transform="translate(91.446 503.394)" fill="#3c0061" fill-rule="evenodd"/>
            <path id="Trazado_698517" data-name="Trazado 698517" d="M5.033,219.579s5.874,16.644,12.209,16.107,11.9-13.516,11.9-13.516a58.553,58.553,0,0,1,1.278,17.055c-1.116,6.085-10.148,12.34-16.334,9.565-6.2-2.654-14.589-16.762-9.048-29.215" transform="translate(7.393 503.387)" fill="#3c0061" fill-rule="evenodd"/>
            <path id="Trazado_698518" data-name="Trazado 698518" d="M139.162,6.409s-.52,4.195-.843,5.6c-.342,1.617-1.729,6.364-1.729,6.364s-5.653,16.357-6.8,15.765-1.768-3.951-1.791-5.087-.109-2.483-.122-3.619a2.387,2.387,0,0,0-2.232-2.278c-1.4-.125-2.41,4.445-2.384,6.048a179.746,179.746,0,0,0,2.677,20.417c.26,1.725-14.737,28.089-19.143,37.548-7.665,15.254-16.315,30.522-17.134,32.145L39.24,171.7l12.354,26.785s56.79-57.28,59.3-60.5c1.2-1.534,16.259-38.388,16.245-38.388,6.269-18.675,11.748-35.131,12.874-38.24,0,0,5.973-8.38,10.046-13.453a55.784,55.784,0,0,0,6.7-13.094,40.81,40.81,0,0,0,5.169-13.394c1.37-6.727-2.986-1.047-2.986-1.047s-4.787,11.982-5.65,11.392c-.665-.448,2.308-6.8,3.879-14.2.365-1.877.787-3.806,1.136-5.528.876-4.544-1.63-6.493-3.358-1.877a47.357,47.357,0,0,0-1.959,6.364,38.041,38.041,0,0,1-2.15,5.877,45.805,45.805,0,0,1-2.311,6.045c-.145-.188-.889.306-.487-1.729.445-2.45,2.492-7.418,2.874-11.07.2-2.084.925-6.427.925-6.427A41.859,41.859,0,0,0,151.749,2c-2.111-.741-3.839,4.257-3.727,7.112a31.109,31.109,0,0,0-1.468,6.394s-3.319,8.9-4.567,8.406c-1.073-.372,2.654-23.295.491-23.894-1.818-.448-3.256,6.391-3.256,6.391" transform="translate(125.036 1.91) rotate(13)" fill="#f5b0a9" fill-rule="evenodd"/>
            <path id="Trazado_698519" data-name="Trazado 698519" d="M118.97,66.105A221.257,221.257,0,0,1,98.306,39.923c.556.491-29.429,18.191-39.3,26.377-16.153,13.4-18.935,44.5-26.166,60.369-4.445,9.792-5.1,17.3-2.295,23.351.122.286,29.165-23.413,52.7-44.285a382.269,382.269,0,0,0,35.737-39.652" transform="translate(81.258 85.734) rotate(13)" fill="#e5c23b" fill-rule="evenodd"/>
            <path id="Trazado_698520" data-name="Trazado 698520" d="M141.345,93.993c-1.873-6.727-6.035-15.528-8.416-21.662-4.023-10.332-5.232-19.959-8.811-24.1C122.192,46,97.554,46.36,94.519,46.06c-1.235-.184-6.167.171-10.938.491v-.066A341.838,341.838,0,0,0,49,50.666c-20,19.367-29.672,45.348-44.706,73.8,0,0,11.26,6.365,20.229,10.378,3.915,1.712,11.392,4.554,11.392,4.554s9.466-16.295,14.833-23.44l2.492-5.387c.194-.122,1.087-1.073,1.357-.491.4,1.011,17.266,90.453,17.266,90.453s47.09,4.356,59.137-1.357c0,0,2.209-59.862,6.638-77.395,1.633-6.493,6.671-17.006,3.678-27.806" transform="translate(9.842 105.479)" fill="#ffd947" fill-rule="evenodd"/>
            <path id="Trazado_698521" data-name="Trazado 698521" d="M66.174,66.712l-.948,1.307a7.245,7.245,0,0,1-5.821,8.2L8.347,148.127l61.406,42.322a7.84,7.84,0,0,0,10.773-1.837l49.276-69.42a6.963,6.963,0,0,0-1.63-9.7l-.125-.086Z" transform="translate(19.136 152.94)" fill="#12263f" fill-rule="evenodd"/>
            <path id="Trazado_698522" data-name="Trazado 698522" d="M23.865,75.3h0l58.746,40.511c3.395,2.361,7.458,2.417,9.074.171a4.416,4.416,0,0,0,.244-4.195,9.587,9.587,0,0,0-3.52-4.2L29.66,67.109a7.415,7.415,0,0,1-5.808,8.2" transform="translate(54.682 153.85)" fill="#ebf6f5" fill-rule="evenodd"/>
            <path id="Trazado_698523" data-name="Trazado 698523" d="M18.4,70.538c4.106,2.232,10.49,5.6,15.985,8.073,2.627,1.136,6.812,2.776,9.3,3.724-6.022,11.208-11.751,22.784-11.01,25.145.665,2.134,54.571,41.792,54.571,41.792l10.77-1.419s18.985,2.12,19.416,4.366c.454,2.127-8,1.607-9.137,1.9a10.6,10.6,0,0,0-2.937,1.3c1.706.764,3.961,1.827,6.121,2.654a28.72,28.72,0,0,0-13.032,15.353,63.455,63.455,0,0,1-21.836-10.813C64.061,156.411.973,120.937.021,114.2c-.543-4.014,9.071-24.786,18.369-43.666" transform="translate(-0.002 161.704)" fill="#f5b0a9" fill-rule="evenodd"/>
            <path id="Trazado_698524" data-name="Trazado 698524" d="M52.217,95.758a14.213,14.213,0,0,1,1.617,7.975c-.8,3.428-1.656,4.372-2.532,7.431a9.636,9.636,0,0,1-4.122,6.565c-3.158,2.716-18.353-3.135-18.353-3.135l10.457-17L45.3,99.837a11.479,11.479,0,0,0,4.81-1.468,33.488,33.488,0,0,0,2.111-2.6" transform="translate(66.087 219.529)" fill="#f5b0a9" fill-rule="evenodd"/>
            <path id="Trazado_698525" data-name="Trazado 698525" d="M29.2,54.828A48.073,48.073,0,0,0,37.36,75.834a13.37,13.37,0,0,0,12.354,6,9.211,9.211,0,0,0,2.15-.421,6.585,6.585,0,0,0,4.05-4.073,20.256,20.256,0,0,0,.843-8.86,144.5,144.5,0,0,0-4.715-22.376l1.712.036a87.717,87.717,0,0,1,4.692,22.2,21.716,21.716,0,0,1-.952,9.641,8.176,8.176,0,0,1-5.071,5.038,10.5,10.5,0,0,1-2.565.52,15,15,0,0,1-13.852-6.69A50.433,50.433,0,0,1,27.96,55.006Z" transform="translate(64.099 105.7)" fill="#e5c23b" fill-rule="evenodd"/>
            <path id="Trazado_698526" data-name="Trazado 698526" d="M32.943,59.9a.848.848,0,0,1-.925-.761v-.007a.825.825,0,0,1,.721-.922l.033,0c3.53-.382,6.654-.579,9.344-.6a37.9,37.9,0,0,1,6.855.454.853.853,0,0,1,.691.978.862.862,0,0,1-.981.7A36.054,36.054,0,0,0,42.1,59.3q-3.961.035-9.183.593" transform="translate(73.387 132.047)" fill="#e5c23b" fill-rule="evenodd"/>
            <path id="Trazado_698527" data-name="Trazado 698527" d="M33.213,60.644a.793.793,0,0,1-.817-.764.825.825,0,0,1,.665-.925,75.294,75.294,0,0,1,8.123-.606,29.062,29.062,0,0,1,6,.487.864.864,0,0,1,.606.981.773.773,0,0,1-.846.691l-.013,0a27.4,27.4,0,0,0-5.729-.444,73.633,73.633,0,0,0-7.984.593" transform="translate(74.252 133.751)" fill="#e5c23b" fill-rule="evenodd"/>
            <path id="Trazado_698528" data-name="Trazado 698528" d="M29.394,99.26q-7.626-15.4-1.5-39.78L19.437,79.061a.331.331,0,0,1,.461.1l.026.053c.138.356,2.321,11.7,5.1,26.238Z" transform="translate(44.56 136.36)" fill="#e5c23b" fill-rule="evenodd"/>
            <path id="Trazado_698529" data-name="Trazado 698529" d="M99.715,49.235C94.111,3.248,48.8,16.606,48.8,16.606c-.188,0-.352.036-.537.04-.23-.092-.451-.221-.685-.3a14.146,14.146,0,0,1-.372-4.33,10.864,10.864,0,0,0-2.1,3.635,17.7,17.7,0,0,0-10.237.945A22.541,22.541,0,0,1,39.28,18.41C3.036,32.8,17.25,131.542,24.6,135.048c7.928,3.78,24.417-.221,24.417-.221a13.991,13.991,0,0,1-2.492-2.519c5.887,3.092,20.453-1.406,20.453-1.406-7.28-5.159-7.863-12.986-9.147-22.623a191.533,191.533,0,0,1,.491-42.128l.03-.02c-.365,9.8,19.515,57.442,28.7,61.841s28.276,2.69,28.276,2.69a109.378,109.378,0,0,1-5.209-13.292c.6,1.05,2.272,5.308,4.405,8.814,2.433,3.974,4.61,4.7,9.186.668-5.525-8.617-12.238-24.022-23.989-77.618" transform="translate(35.744 27.547)" fill="#1c262b" fill-rule="evenodd"/>
            <path id="Trazado_698530" data-name="Trazado 698530" d="M27.489,46.135a143.093,143.093,0,0,1,2.624,26.6c-.767,8.268,2.944,34.832,19.554,34.881s5.317-27.562,3.763-35.648-3.674-36.718-3.674-36.718Z" transform="translate(63.02 80.805)" fill="#f5b0a9" fill-rule="evenodd"/>
            <path id="Trazado_698531" data-name="Trazado 698531" d="M50.662,46.635a73.462,73.462,0,0,0-1.508-12.284l-21.8,11.33s.78,4.31,1.567,9.753a20.429,20.429,0,0,0,21.737-8.811" transform="translate(62.717 78.751)" fill="#ffd947" fill-rule="evenodd"/>
            <path id="Trazado_698532" data-name="Trazado 698532" d="M39.573,20.027A28.555,28.555,0,0,0,25.122,33.382c-5.1,10.022-6.776,38.187,13.76,48.99s34.094-9.143,32.8-26.969c-1.271-17.9-6.96-41.275-32.106-35.375" transform="translate(50.024 43.779)" fill="#f5b0a9" fill-rule="evenodd"/>
            <path id="Trazado_698533" data-name="Trazado 698533" d="M47.378,22.6S40.967,40.847,27.5,45.668c0,0,13.947-10.325,16.137-22.544s3.74-.527,3.74-.527" transform="translate(63.047 40.238)" fill="#1c262b" fill-rule="evenodd"/>
            <path id="Trazado_698534" data-name="Trazado 698534" d="M39.487,16.2q-4.81-.978-5.8,2.282a14.326,14.326,0,0,0,8.86,8.58A18.375,18.375,0,0,1,39.487,16.2" transform="translate(77.227 36.615)" fill="#1c262b" fill-rule="evenodd"/>
            <path id="Trazado_698535" data-name="Trazado 698535" d="M71.479,19.683C63.251,5.311,34.263,24.5,34.263,24.5a48.665,48.665,0,0,1-16.344,28.53s7.408,4.7,24.661.547,28.9-33.9,28.9-33.9Z" transform="translate(41.08 32.883)" fill="#1c262b" fill-rule="evenodd"/>
            <path id="Trazado_698536" data-name="Trazado 698536" d="M24.993,15.757l0-.007v0Z" transform="translate(57.29 36.109)" fill="#1c262b" fill-rule="evenodd"/>
            <path id="Trazado_698537" data-name="Trazado 698537" d="M45.18,33.03c.543,4.656-1.113,8.617-3.7,8.85s-5.11-3.309-5.653-7.975c-.547-4.593,1.1-8.551,3.7-8.811s5.12,3.309,5.653,7.912" transform="translate(81.892 57.501)" fill="#f5b0a9" fill-rule="evenodd"/>
            <path id="Trazado_698538" data-name="Trazado 698538" d="M31.416,34.661c1.8,4.494.915,9.213-2.028,10.516s-6.727-1.248-8.528-5.726-.915-9.16,2-10.516,6.743,1.251,8.554,5.726" transform="translate(45.686 65.508)" fill="#f5b0a9" fill-rule="evenodd"/>
            <path id="Trazado_698539" data-name="Trazado 698539" d="M35.725,27.47c-8.831,1.946-7.678,1.689-12.755,7.612a11,11,0,0,1,8.745-8.366c2.143-.556,2.46-.8,4.007.757" transform="translate(52.66 60.273)" fill="#1c262b" fill-rule="evenodd"/>
            <path id="Trazado_698540" data-name="Trazado 698540" d="M27.822,33.979a3.155,3.155,0,1,1,.053-.013l-.053.013" transform="translate(55.255 63.957)" fill="#1c262b" fill-rule="evenodd"/>
            <path id="Trazado_698541" data-name="Trazado 698541" d="M26.016,30.648a1.1,1.1,0,0,1-1.3-.836,1.084,1.084,0,0,1,.826-1.284,1.11,1.11,0,0,1,1.307.826,1.089,1.089,0,0,1-.836,1.3h0" transform="translate(56.614 65.346)" fill="#f7fcff" fill-rule="evenodd"/>
            <path id="Trazado_698542" data-name="Trazado 698542" d="M25.268,28.762a.295.295,0,1,1-.122-.576,1.919,1.919,0,0,1,2.272,1.468.317.317,0,0,1-.237.356.3.3,0,0,1-.356-.221,1.314,1.314,0,0,0-1.554-1.014l0,0" transform="translate(57.092 64.519)" fill="#f7fcff" fill-rule="evenodd"/>
            <path id="Trazado_698543" data-name="Trazado 698543" d="M30.38,29c7.161-4.876,6.226-4.238,13.73-3.73a10.425,10.425,0,0,0-11.642.408c-1.8,1.1-2.19,1.172-2.1,3.322" transform="translate(69.585 54.308)" fill="#1c262b" fill-rule="evenodd"/>
            <path id="Trazado_698544" data-name="Trazado 698544" d="M35.975,30.954a3.074,3.074,0,1,0-3.925-1.873l.01.023a3.054,3.054,0,0,0,3.9,1.857l.016-.007" transform="translate(73.071 57.27)" fill="#1c262b" fill-rule="evenodd"/>
            <path id="Trazado_698545" data-name="Trazado 698545" d="M33.923,27.7a1.1,1.1,0,0,0,.665-1.4,1.087,1.087,0,1,0-.665,1.4" transform="translate(74.458 58.66)" fill="#f7fcff" fill-rule="evenodd"/>
            <path id="Trazado_698546" data-name="Trazado 698546" d="M33.578,25.882a.3.3,0,0,0-.194-.56,1.9,1.9,0,0,0-1.172,2.42l.01.03a.3.3,0,0,0,.379.188l0,0a.284.284,0,0,0,.181-.359l-.01-.023a1.329,1.329,0,0,1,.8-1.679" transform="translate(73.604 58.015)" fill="#f7fcff" fill-rule="evenodd"/>
            <path id="Trazado_698547" data-name="Trazado 698547" d="M31.682,43.573l-.491-.04a.489.489,0,0,1-.431-.54v-.016a.494.494,0,0,1,.55-.425l.01,0,.359.049c2.074-.26,3.342-.754,3.665-1.468.448-.981-.787-2.73-2.084-4.593a16.5,16.5,0,0,1-3.767-8.383.491.491,0,0,1,.981,0,15.572,15.572,0,0,0,3.579,7.833c1.59,2.272,2.848,4.073,2.183,5.558-.491,1.087-1.959,1.729-4.567,2.028" transform="translate(67.612 63.442)" fill="#ec797c"/>
            <path id="Trazado_698548" data-name="Trazado 698548" d="M44.008,33.675q-7.8,2.919-15.6,5.841c1.85,3.592,7.178,5.584,11,4.28s5.317-6.147,4.593-10.121" transform="translate(65.133 77.201)" fill="#ec797c"/>
            <g id="Grupo_973360" data-name="Grupo 973360" transform="translate(93.545 110.88)" opacity="0.3">
              <g id="Grupo_973359" data-name="Grupo 973359">
                <g id="Grupo_973358" data-name="Grupo 973358" clip-path="url(#clip-path-4)">
                  <path id="Trazado_698549" data-name="Trazado 698549" d="M44.008,33.675q-7.8,2.919-15.6,5.841c1.85,3.592,7.178,5.584,11,4.28s5.317-6.147,4.593-10.121" transform="translate(-28.412 -33.678)" fill="#040405"/>
                </g>
              </g>
            </g>
            <path id="Trazado_698550" data-name="Trazado 698550" d="M30.167,41.986a8.981,8.981,0,0,0,5.222,0c3-1.021,4.547-4.228,4.731-7.481a9.079,9.079,0,0,0-9.953,7.481" transform="translate(69.159 79.015)" fill="#ec797c"/>
          </g>
        </g>
      </g>
    </g>
  </g>
</svg>
