<svg id="Grupo_972954" data-name="Grupo 972954" xmlns="http://www.w3.org/2000/svg" xmlns:xlink="http://www.w3.org/1999/xlink" width="173.667" height="173.667" viewBox="0 0 173.667 173.667">
  <defs>
    <clipPath id="clip-path">
      <rect id="Rectángulo_339293" data-name="Rectángulo 339293" width="173.667" height="173.667" fill="#9d36a0"/>
    </clipPath>
  </defs>
  <g id="Grupo_972953" data-name="Grupo 972953" clip-path="url(#clip-path)">
    <path id="Trazado_697320" data-name="Trazado 697320" d="M173.666,86.833A86.833,86.833,0,1,1,86.833,0a86.834,86.834,0,0,1,86.834,86.833" fill="#8a008d"/>
    <path id="Trazado_697321" data-name="Trazado 697321" d="M208.856,236.313a6.113,6.113,0,0,1,.893.637c1.352,1.336,17.616,16.779,18.944,18.139a2.2,2.2,0,0,1,.514,2.308,1.974,1.974,0,0,1-2.029,1.4,2.351,2.351,0,0,1-1.388-.526c-1.464-1.369-17.8-16.891-19.2-18.327a2.055,2.055,0,0,1-.47-2.392,2.13,2.13,0,0,1,2.008-1.312,6.175,6.175,0,0,1,.724.075" transform="translate(-92.564 -106.19)" fill="#161615"/>
    <path id="Trazado_697322" data-name="Trazado 697322" d="M180.338,251.837a2.339,2.339,0,0,1,2.179-1.2,2.157,2.157,0,0,1,1.9,1.523,3.884,3.884,0,0,1,.134.813c.138,1.85,1.967,24.02,2.09,25.87a2.007,2.007,0,0,1-1.143,2.031,2.131,2.131,0,0,1-2.341-.212,1.815,1.815,0,0,1-.809-1.386c-.173-2.031-2.022-24.384-2.157-26.417a4.938,4.938,0,0,1,.143-1.021" transform="translate(-80.997 -112.659)" fill="#161615"/>
    <path id="Trazado_697323" data-name="Trazado 697323" d="M220.982,217.1a2.339,2.339,0,0,1-1.135-2.215,2.156,2.156,0,0,1,1.58-1.856,3.915,3.915,0,0,1,.817-.108c1.852-.081,24.068-1.231,25.922-1.3a2.007,2.007,0,0,1,1.995,1.2,2.131,2.131,0,0,1-.284,2.333,1.813,1.813,0,0,1-1.41.766c-2.035.111-24.434,1.275-26.47,1.348a4.945,4.945,0,0,1-1.016-.175" transform="translate(-98.817 -95.124)" fill="#161615"/>
    <path id="Trazado_697324" data-name="Trazado 697324" d="M72.214,92.059a5.869,5.869,0,0,0-.4,8.446,6.221,6.221,0,0,0,3,1.783l32.888,4.574a1.463,1.463,0,0,1,1.089.748c.229.417,1.5.963,1.224,1.393l-23.729,37.62a9.226,9.226,0,0,0,1.9,13.12,9.775,9.775,0,0,0,12.757-.964l61.515-60.355a5.831,5.831,0,0,0-.069-8.4,6.206,6.206,0,0,0-3.452-1.676l-32.6-4.533a1.44,1.44,0,0,1-1.257-1.6,1.391,1.391,0,0,1,.2-.552l23.481-37.783a9.574,9.574,0,0,0-2.051-12.447,9.539,9.539,0,0,0-5.219-1.48,10.073,10.073,0,0,0-8.458,2.754Z" transform="translate(-31.56 -13.42)" fill="#ffce30"/>
    <path id="Trazado_697325" data-name="Trazado 697325" d="M131.434,173.538,100.19,223.347a9.642,9.642,0,0,1-4.084-13.185q.129-.232.269-.457l23.489-37.783a1.414,1.414,0,0,0-.507-1.961,1.512,1.512,0,0,0-.549-.192l11.578,1.61A1.447,1.447,0,0,1,131.631,173a1.4,1.4,0,0,1-.2.537" transform="translate(-42.669 -76.311)" fill="#e1b127"/>
    <path id="Trazado_697326" data-name="Trazado 697326" d="M146.4,30.789,74.495,101.626a5.99,5.99,0,0,1-4.916-6.915A5.831,5.831,0,0,1,71.239,91.6l61.508-60.356a10.253,10.253,0,0,1,13.656-.455" transform="translate(-31.232 -12.765)" fill="#e1b127"/>
    <path id="Trazado_697327" data-name="Trazado 697327" d="M59.286,95.856a11.8,11.8,0,0,0,9.607,7.764l26.144,3.636L74.912,139.629a15.167,15.167,0,0,0,5.321,21.083,16,16,0,0,0,19.35-2.231l11.836-11.61a5.507,5.507,0,0,0-.06-7.929,5.86,5.86,0,0,0-8.137,0L91.387,150.551a4.317,4.317,0,0,1-3.6,1.175,4.2,4.2,0,0,1-3.643-4.7,4.048,4.048,0,0,1,.571-1.576l24.629-39.631a5.534,5.534,0,0,0-1.949-7.69,5.876,5.876,0,0,0-2.2-.77L70.4,92.521a.341.341,0,0,1-.3-.375.329.329,0,0,1,.1-.2l61.507-60.356a4.315,4.315,0,0,1,3.6-1.175,4.2,4.2,0,0,1,3.65,4.68,4.044,4.044,0,0,1-.578,1.594l-24.629,39.63a5.534,5.534,0,0,0,1.949,7.691,5.866,5.866,0,0,0,2.2.77l34.8,4.839a.342.342,0,0,1,.3.376.329.329,0,0,1-.1.2l-13.779,13.287a5.508,5.508,0,0,0,.059,7.93,5.861,5.861,0,0,0,8.137,0l13.779-13.286a11.324,11.324,0,0,0-.125-16.3,12.049,12.049,0,0,0-6.709-3.258l-26.144-3.636,20.124-32.373a15.166,15.166,0,0,0-5.321-21.082,16,16,0,0,0-19.35,2.231L62.058,84.058a11.205,11.205,0,0,0-2.772,11.8" transform="translate(-26.359 -8.631)" fill="#040405"/>
  </g>
</svg>
