<svg xmlns="http://www.w3.org/2000/svg" xmlns:xlink="http://www.w3.org/1999/xlink" width="998.102" height="624" viewBox="0 0 998.102 624">
  <defs>
    <clipPath id="clip-path">
      <rect id="Rectángulo_339327" data-name="Rectángulo 339327" width="889" height="603.758" fill="none"/>
    </clipPath>
    <clipPath id="clip-path-2">
      <rect id="Rectángulo_339325" data-name="Rectángulo 339325" width="904" height="613.944" fill="none"/>
    </clipPath>
  </defs>
  <g id="Grupo_973501" data-name="Grupo 973501" transform="translate(-187.898 -4342.502)">
    <path id="Trazado_699066" data-name="Trazado 699066" d="M24.509,23.734a7.69,7.69,0,0,1-1.472,3.984A8.327,8.327,0,0,1,19.668,30.4a10.431,10.431,0,0,1-4.519.894A7.025,7.025,0,0,1,9.89,29.14,8.656,8.656,0,0,1,7.8,23.5a18.367,18.367,0,0,1,.52-5.171,13.668,13.668,0,0,1,2.124-4.871,9.759,9.759,0,0,1,3.472-3.105,9.012,9.012,0,0,1,4.373-.989A7.629,7.629,0,0,1,23.8,11.459a8.2,8.2,0,0,1,2.2,5.61l-5-.015a4.109,4.109,0,0,0-.7-2.783,3.087,3.087,0,0,0-2.314-.894q-3.955-.132-4.819,6.152a33.806,33.806,0,0,0-.4,4.058q-.073,3.6,2.666,3.706a3.913,3.913,0,0,0,2.827-.872,4.359,4.359,0,0,0,1.348-2.629ZM38.411,27H31.6l-1.89,4H24.187L35.481,9.672H40.2L44.138,31H38.923Zm-4.937-3.955H37.9l-.937-7.354ZM65.613,9.672,63.24,23.588a8.751,8.751,0,0,1-2.981,5.7,9.085,9.085,0,0,1-6.218,2.021A8.482,8.482,0,0,1,50,30.3a5.878,5.878,0,0,1-2.527-2.71,7.291,7.291,0,0,1-.549-3.992L49.294,9.672h5.039L51.975,23.629a6.709,6.709,0,0,0-.029,1.393,2.516,2.516,0,0,0,.681,1.686,2.491,2.491,0,0,0,1.721.645q3.223.1,3.882-3.739L60.6,9.672ZM76.8,25.229q.322-1.655-1.787-2.563l-2.4-1q-5.054-2.271-4.8-6.182a5.457,5.457,0,0,1,1.23-3.186,7.308,7.308,0,0,1,3.12-2.175,11.481,11.481,0,0,1,4.351-.747,7.4,7.4,0,0,1,5.09,1.846,6.132,6.132,0,0,1,1.9,4.79h-4.98a2.984,2.984,0,0,0-.52-1.97,2.252,2.252,0,0,0-1.853-.769,3.883,3.883,0,0,0-2.227.586,2.377,2.377,0,0,0-1.143,1.655q-.278,1.465,2.175,2.4a23.92,23.92,0,0,1,3.567,1.611q3.5,2.095,3.281,5.654a5.79,5.79,0,0,1-1.187,3.237,6.859,6.859,0,0,1-2.966,2.153,10.96,10.96,0,0,1-4.255.732,10.273,10.273,0,0,1-3.208-.542,7.059,7.059,0,0,1-2.534-1.494,6.491,6.491,0,0,1-2.051-5.2l5.024.015a3.44,3.44,0,0,0,.63,2.483,3.026,3.026,0,0,0,2.417.842,3.627,3.627,0,0,0,2.1-.579A2.4,2.4,0,0,0,76.8,25.229ZM95.979,27H89.167l-1.89,4H81.755L93.049,9.672h4.717L101.707,31H96.492Zm-4.937-3.955h4.424l-.937-7.354Z" transform="translate(567 4379)" fill="#12263f"/>
    <path id="Trazado_699067" data-name="Trazado 699067" d="M52.923,21.947H45.086l-.894,5.1h9.272L52.777,31H38.495L42.186,9.672H56.5l-.688,3.97H46.522l-.791,4.5h7.852Zm16.538.557H61.419L59.94,31H54.93L58.622,9.672H72.494l-.688,3.97H62.958l-.85,4.907H70.15Zm15.952-.557H77.577l-.894,5.1h9.272L85.267,31H70.985L74.676,9.672H88.988l-.688,3.97H79.012l-.791,4.5h7.852Zm19.878,1.787a7.69,7.69,0,0,1-1.472,3.984A8.327,8.327,0,0,1,100.45,30.4a10.431,10.431,0,0,1-4.519.894,7.025,7.025,0,0,1-5.259-2.153,8.656,8.656,0,0,1-2.095-5.64,18.367,18.367,0,0,1,.52-5.171,13.668,13.668,0,0,1,2.124-4.871,9.759,9.759,0,0,1,3.472-3.105,9.012,9.012,0,0,1,4.373-.989,7.629,7.629,0,0,1,5.515,2.095,8.2,8.2,0,0,1,2.2,5.61l-5-.015a4.109,4.109,0,0,0-.7-2.783,3.087,3.087,0,0,0-2.314-.894q-3.955-.132-4.819,6.152a33.806,33.806,0,0,0-.4,4.058q-.073,3.6,2.666,3.706a3.913,3.913,0,0,0,2.827-.872,4.359,4.359,0,0,0,1.348-2.629Zm20.229-10.093H119.31l-3,17.358h-5.024L114.3,13.642h-6.108l.7-3.97h17.314Zm7.6,17.651a7.224,7.224,0,0,1-5.332-2.2,8.949,8.949,0,0,1-2.271-5.684,16.247,16.247,0,0,1,.278-4.138,14.539,14.539,0,0,1,1.509-4.387,11.041,11.041,0,0,1,2.71-3.34,9.268,9.268,0,0,1,6.27-2.168,7.711,7.711,0,0,1,3.816,1,7,7,0,0,1,2.615,2.761,9.918,9.918,0,0,1,1.143,4.1,16.811,16.811,0,0,1-.2,3.7,15.243,15.243,0,0,1-1.157,3.955,12.089,12.089,0,0,1-2.175,3.318,10.007,10.007,0,0,1-3.142,2.278A9.088,9.088,0,0,1,133.124,31.293ZM138.836,17.2q-.146-3.662-2.842-3.809a3.922,3.922,0,0,0-3.442,1.648,10.579,10.579,0,0,0-1.8,5.164,18.026,18.026,0,0,0-.205,3.267q.146,3.721,2.871,3.823a3.8,3.8,0,0,0,3.076-1.282,8.291,8.291,0,0,0,1.86-3.984A19.14,19.14,0,0,0,138.836,17.2Z" transform="translate(1001 4379)" fill="#12263f"/>
    <g id="Grupo_973011" data-name="Grupo 973011" transform="translate(286 4348.001)">
      <g id="Grupo_973013" data-name="Grupo 973013" transform="translate(11 5.094)">
        <path id="Trazado_697463" data-name="Trazado 697463" d="M617.386,344.763l.281-.463h84.738v50.187H587.232ZM589.81,294.995h112.6v45.892H616.2ZM702.405,0V291.582H587.847l-30.024-52.211H697.7v-3.413H555.861l-28.28-49.176H668.951v-3.413H526.084v.81l-31.972-55.6-2.838,1.745L612.359,340.886H402.567l.042-.078L346.421,240.373l135.03-1-.022-3.413L344.922,236.97l0,.732L316.44,186.782H458.566v-3.413H315.7v2.09l-32.942-58.885-2.859,1.709L398.811,340.837l-.026.049H162.375l-18.64-45.892H283.9v-3.412H142.348L121.14,239.372H262.248v-3.413H119.754L99.778,186.782h139.6v-3.413H98.392l-22.99-56.6-3.046,1.321,86.437,212.8H0V344.3H158.247L73.321,565.723l3.071,1.257L99.81,505.923v.19H242.677V502.7H101.046l20.414-53.225v1.015H264.326v-3.413H122.38L141.242,397.9H282.8v-3.413H142.551L161.8,344.3H396.941L341.449,447.077h-.8v1.475l-63.7,117.981,2.884,1.664,33.785-62.574v.49H461.869V502.7H315.2l28.19-52.21H483.519v-3.413H345.231l27.1-50.2V397.9H501.988v-3.413H373.625l27.1-50.187H613.771L486.4,554.32l2.8,1.813,31.383-51.745v1.725H663.447V502.7H521.6l31.663-52.21H695.861v-3.413H555.338l30.805-50.8V397.9H702.405V624h3.3V344.3h60v-3.413h-60V0Z" transform="translate(0 -10.592)" fill="#696969"/>
        <rect id="Rectángulo_339326" data-name="Rectángulo 339326" width="124.885" height="3.303" transform="translate(378.204 282.124)" fill="#696969"/>
        <g id="Grupo_973014" data-name="Grupo 973014" transform="translate(0 -0.001)">
          <g id="Grupo_973013-2" data-name="Grupo 973013" clip-path="url(#clip-path)">
            <path id="Trazado_697471" data-name="Trazado 697471" d="M155.487,318.535l-18.641-44.4H277.009v-3.3H135.46l-21.208-50.517-1.386-3.3L92.89,169.43l-1.386-3.3-22.99-54.764-3.046,1.278L151.9,318.535Z" transform="translate(6.603 11.232)" fill="#900095"/>
            <path id="Trazado_697472" data-name="Trazado 697472" d="M142.15,259.742A11.742,11.742,0,1,1,130.408,248a11.743,11.743,0,0,1,11.743,11.743" transform="translate(11.968 25.012)" fill="#ab3faf"/>
            <path id="Trazado_697473" data-name="Trazado 697473" d="M96.04,187.263l-.849,1.417,2.081,1.247H11.216l2.081-1.247-.85-1.417-5.407,3.244,5.024,3.5.943-1.356-1.538-1.07H97.018l-1.537,1.07L96.423,194l5.025-3.5Z" transform="translate(0.71 18.887)" fill="#900095"/>
            <path id="Trazado_697474" data-name="Trazado 697474" d="M119.483,256.6l-.7,1.417,1.723,1.247H49.235l1.724-1.247-.7-1.417-4.478,3.244,4.161,3.5.782-1.356-1.274-1.07h70.848l-1.274,1.07.781,1.356,4.162-3.5Z" transform="translate(4.617 25.879)" fill="#900095"/>
          </g>
        </g>
      </g>
      <g id="Grupo_973010" data-name="Grupo 973010" transform="translate(0 0)">
        <g id="Grupo_973009" data-name="Grupo 973009" transform="translate(-4)" clip-path="url(#clip-path-2)">
          <path id="Trazado_697456" data-name="Trazado 697456" d="M507.166,119.164H408.6a14.179,14.179,0,0,1-14.18-14.18V99.512A14.179,14.179,0,0,1,408.6,85.333h98.568a14.179,14.179,0,0,1,14.18,14.179v5.473a14.179,14.179,0,0,1-14.18,14.18" transform="translate(47.105 10.191)" fill="#68006a"/>
          <path id="Trazado_697457" data-name="Trazado 697457" d="M317.832,120.053H219.264a14.18,14.18,0,0,1-14.18-14.18V100.4a14.179,14.179,0,0,1,14.18-14.179h98.568a14.179,14.179,0,0,1,14.18,14.179v5.473a14.179,14.179,0,0,1-14.18,14.18" transform="translate(24.493 10.297)" fill="#900095"/>
          <path id="Trazado_697458" data-name="Trazado 697458" d="M140.5,120.053H41.931a14.18,14.18,0,0,1-14.18-14.18V100.4a14.179,14.179,0,0,1,14.18-14.179H140.5a14.179,14.179,0,0,1,14.18,14.179v5.473a14.179,14.179,0,0,1-14.18,14.18" transform="translate(3.314 10.297)" fill="#68006a"/>
          <path id="Trazado_697459" data-name="Trazado 697459" d="M507.166,520.386H408.6a14.179,14.179,0,0,1-14.18-14.18v-5.473a14.179,14.179,0,0,1,14.18-14.179h98.568a14.179,14.179,0,0,1,14.18,14.179v5.473a14.179,14.179,0,0,1-14.18,14.18" transform="translate(47.105 58.109)" fill="#68006a"/>
          <path id="Trazado_697460" data-name="Trazado 697460" d="M317.832,521.275H219.264a14.18,14.18,0,0,1-14.18-14.18v-5.473a14.179,14.179,0,0,1,14.18-14.179h98.568a14.179,14.179,0,0,1,14.18,14.179V507.1a14.18,14.18,0,0,1-14.18,14.18" transform="translate(24.493 58.215)" fill="#900095"/>
          <path id="Trazado_697461" data-name="Trazado 697461" d="M140.5,521.275H41.931a14.18,14.18,0,0,1-14.18-14.18v-5.473a14.179,14.179,0,0,1,14.18-14.179H140.5a14.179,14.179,0,0,1,14.18,14.179V507.1a14.18,14.18,0,0,1-14.18,14.18" transform="translate(3.314 58.215)" fill="#68006a"/>
          <path id="Trazado_697462" data-name="Trazado 697462" d="M693.983,345.168a14.428,14.428,0,0,1-14.428-14.428V281.983a14.428,14.428,0,0,1,14.428-14.428h114.43a14.428,14.428,0,0,1,14.428,14.428V330.74a14.429,14.429,0,0,1-14.428,14.428" transform="translate(81.158 31.954)" fill="#ffce30"/>
          <path id="Trazado_699068" data-name="Trazado 699068" d="M4.936,14.176V19H1.508V4.781H7.182a6.608,6.608,0,0,1,2.886.6,4.526,4.526,0,0,1,1.943,1.709A4.667,4.667,0,0,1,12.7,9.605a4.114,4.114,0,0,1-1.489,3.325,6.179,6.179,0,0,1-4.087,1.245Zm0-2.646H7.182a2.118,2.118,0,0,0,1.519-.5,1.85,1.85,0,0,0,.522-1.406,2.287,2.287,0,0,0-.537-1.592,1.9,1.9,0,0,0-1.465-.605H4.936Zm14.873,2.441H17.953V19H14.525V4.781h5.6A6.246,6.246,0,0,1,24.076,5.9,3.8,3.8,0,0,1,25.5,9.074a4.616,4.616,0,0,1-.6,2.458,4.263,4.263,0,0,1-1.88,1.58l2.969,5.741V19H22.318Zm-1.855-2.637h2.168a1.946,1.946,0,0,0,1.47-.514,1.987,1.987,0,0,0,.493-1.434,2.01,2.01,0,0,0-.5-1.444,1.928,1.928,0,0,0-1.465-.524H17.953Zm21.66.85a8.385,8.385,0,0,1-.771,3.682,5.7,5.7,0,0,1-2.192,2.466,6.1,6.1,0,0,1-3.237.864,6.191,6.191,0,0,1-3.223-.835A5.692,5.692,0,0,1,28,15.973a8.144,8.144,0,0,1-.825-3.564v-.8a8.422,8.422,0,0,1,.767-3.687,5.688,5.688,0,0,1,2.2-2.466,6.5,6.5,0,0,1,6.479-.01,5.79,5.79,0,0,1,2.2,2.446,8.18,8.18,0,0,1,.8,3.638Zm-3.486-.6a5.979,5.979,0,0,0-.708-3.218,2.271,2.271,0,0,0-2.026-1.1q-2.578,0-2.725,3.867l-.01,1.045a6.149,6.149,0,0,0,.693,3.213,2.268,2.268,0,0,0,2.061,1.123,2.24,2.24,0,0,0,2-1.1,5.982,5.982,0,0,0,.713-3.174ZM41.381,19V4.781h5.107a7.232,7.232,0,0,1,4.175,1.006,3.347,3.347,0,0,1,1.431,2.92,3.383,3.383,0,0,1-.508,1.885,2.959,2.959,0,0,1-1.494,1.152A3,3,0,0,1,51.8,12.838a3.18,3.18,0,0,1,.6,1.953,3.765,3.765,0,0,1-1.323,3.14A6.3,6.3,0,0,1,47.152,19Zm3.428-6.045v3.408h2.246a2.136,2.136,0,0,0,1.426-.425,1.487,1.487,0,0,0,.5-1.2,1.576,1.576,0,0,0-1.768-1.787Zm0-2.246H46.6a2.539,2.539,0,0,0,1.6-.411,1.46,1.46,0,0,0,.479-1.185,1.533,1.533,0,0,0-.518-1.3,2.77,2.77,0,0,0-1.67-.4h-1.68Zm12.9,5.654h5.967V19H54.281V4.781h3.428Zm16.23-3.4H68.549v3.4h6.367V19H65.121V4.781h9.814V7.428H68.549v3h5.391Zm6.875-8.184,3.174,9.893,3.164-9.893h4.512V19H88.227V15.68l.332-6.8L85.121,19H82.855L79.408,8.873l.332,6.807V19H76.313V4.781Zm21.279,11.563H97.4L96.576,19H92.914L98.129,4.781h3.223L106.605,19h-3.682ZM98.217,13.7h3.057L99.74,8.766Z" transform="translate(778 325.999)" fill="#12263f"/>
          <path id="Trazado_699072" data-name="Trazado 699072" d="M25.194,19H21.786V13.063H16.737V19H13.31V4.781h3.428v5.645h5.049V4.781h3.408ZM39.4,12.184a8.385,8.385,0,0,1-.771,3.682,5.7,5.7,0,0,1-2.192,2.466A6.1,6.1,0,0,1,33.2,19.2a6.191,6.191,0,0,1-3.223-.835,5.692,5.692,0,0,1-2.192-2.388,8.144,8.144,0,0,1-.825-3.564v-.8a8.422,8.422,0,0,1,.767-3.687,5.688,5.688,0,0,1,2.2-2.466,6.5,6.5,0,0,1,6.479-.01,5.79,5.79,0,0,1,2.2,2.446,8.18,8.18,0,0,1,.8,3.638Zm-3.486-.6a5.979,5.979,0,0,0-.708-3.218,2.271,2.271,0,0,0-2.026-1.1q-2.578,0-2.725,3.867l-.01,1.045a6.149,6.149,0,0,0,.693,3.213A2.268,2.268,0,0,0,33.2,16.52a2.24,2.24,0,0,0,2-1.1,5.982,5.982,0,0,0,.713-3.174Zm9.756-6.807,3.174,9.893,3.164-9.893h4.512V19H53.085V15.68l.332-6.8L49.979,19H47.714L44.267,8.873,44.6,15.68V19H41.171V4.781ZM58.7,19V4.781h5.107a7.232,7.232,0,0,1,4.175,1.006,3.347,3.347,0,0,1,1.431,2.92,3.383,3.383,0,0,1-.508,1.885,2.959,2.959,0,0,1-1.494,1.152,3,3,0,0,1,1.709,1.094,3.18,3.18,0,0,1,.6,1.953,3.765,3.765,0,0,1-1.323,3.14A6.3,6.3,0,0,1,64.472,19Zm3.428-6.045v3.408h2.246a2.136,2.136,0,0,0,1.426-.425,1.487,1.487,0,0,0,.5-1.2,1.576,1.576,0,0,0-1.768-1.787Zm0-2.246h1.787a2.539,2.539,0,0,0,1.6-.411A1.46,1.46,0,0,0,66,9.112a1.533,1.533,0,0,0-.518-1.3,2.77,2.77,0,0,0-1.67-.4h-1.68Zm14.756,3.262H75.028V19H71.6V4.781h5.6A6.246,6.246,0,0,1,81.151,5.9a3.8,3.8,0,0,1,1.426,3.17,4.616,4.616,0,0,1-.6,2.458,4.263,4.263,0,0,1-1.88,1.58l2.969,5.741V19H79.394Zm-1.855-2.637H77.2a1.946,1.946,0,0,0,1.47-.514,1.987,1.987,0,0,0,.493-1.434,2.01,2.01,0,0,0-.5-1.444A1.928,1.928,0,0,0,77.2,7.418H75.028Zm18.438,1.631H88.075v3.4h6.367V19H84.647V4.781h9.814V7.428H88.075v3h5.391Z" transform="translate(42 100.999)" fill="#fff"/>
          <path id="Trazado_699076" data-name="Trazado 699076" d="M10.238,4.781l3.174,9.893,3.164-9.893h4.512V19H17.65V15.68l.332-6.8L14.545,19H12.279L8.832,8.873l.332,6.807V19H5.736V4.781ZM31.518,16.344h-4.7L26,19H22.338L27.553,4.781h3.223L36.029,19H32.348ZM27.641,13.7H30.7L29.164,8.766Zm19.414-6.27H42.787V19H39.359V7.428H35.17V4.781H47.055Zm10.264,5.537H51.928v3.4h6.367V19H48.5V4.781h9.814V7.428H51.928v3h5.391Zm7.656,1.006H63.119V19H59.691V4.781h5.6A6.246,6.246,0,0,1,69.242,5.9a3.8,3.8,0,0,1,1.426,3.17,4.616,4.616,0,0,1-.6,2.458,4.263,4.263,0,0,1-1.88,1.58l2.969,5.741V19H67.484Zm-1.855-2.637h2.168a1.946,1.946,0,0,0,1.47-.514,1.987,1.987,0,0,0,.493-1.434,2.01,2.01,0,0,0-.5-1.444,1.928,1.928,0,0,0-1.465-.524H63.119ZM76.391,19H72.973V4.781h3.418Zm10.635-2.656h-4.7L81.508,19H77.846L83.061,4.781h3.223L91.537,19H87.855ZM83.148,13.7h3.057L84.672,8.766ZM96,16.363h5.967V19H92.572V4.781H96Z" transform="translate(41 549.999)" fill="#fff"/>
          <path id="Trazado_699071" data-name="Trazado 699071" d="M13.026,4.781,16.2,14.674l3.164-9.893h4.512V19H20.438V15.68l.332-6.8L17.333,19H15.067L11.62,8.873l.332,6.807V19H8.524V4.781ZM34.306,16.344h-4.7L28.788,19H25.126L30.341,4.781h3.223L38.817,19H35.136ZM30.429,13.7h3.057L31.952,8.766ZM32.4.973h3.477L33.163,4.039l-2.686,0ZM51.708,12.184a8.4,8.4,0,0,1-.654,3.442,5.984,5.984,0,0,1-1.807,2.358L51.542,19.8l-2.119,1.8-3.057-2.461a6.353,6.353,0,0,1-.859.059,6.163,6.163,0,0,1-3.223-.84,5.712,5.712,0,0,1-2.192-2.4,8.159,8.159,0,0,1-.815-3.594v-.752a8.414,8.414,0,0,1,.767-3.691A5.713,5.713,0,0,1,42.23,5.455a6.5,6.5,0,0,1,6.479-.01,5.79,5.79,0,0,1,2.2,2.446,8.18,8.18,0,0,1,.8,3.638Zm-3.486-.6a5.979,5.979,0,0,0-.708-3.218,2.441,2.441,0,0,0-4.067-.015,6.057,6.057,0,0,0-.693,3.174v.654a6.145,6.145,0,0,0,.693,3.218,2.27,2.27,0,0,0,2.061,1.118,2.237,2.237,0,0,0,2.007-1.1,6.016,6.016,0,0,0,.708-3.174ZM64.608,4.781v9.307a5.349,5.349,0,0,1-.674,2.739A4.365,4.365,0,0,1,62,18.59a6.812,6.812,0,0,1-2.979.605,5.885,5.885,0,0,1-4.092-1.348,4.806,4.806,0,0,1-1.523-3.691V4.781h3.447v9.443q.059,2.334,2.168,2.334a2.1,2.1,0,0,0,1.611-.586,2.739,2.739,0,0,0,.547-1.9V4.781ZM70.4,19H66.981V4.781H70.4Zm14.258,0H81.249L76.21,10.152V19H72.782V4.781H76.21l5.029,8.848V4.781h3.418Zm10.42-2.656h-4.7L89.56,19H85.9L91.112,4.781h3.223L99.589,19H95.907ZM91.2,13.7h3.057L92.724,8.766Z" transform="translate(242 100.999)" fill="#fff"/>
          <path id="Trazado_699075" data-name="Trazado 699075" d="M18.178,4.781l3.174,9.893,3.164-9.893h4.512V19H25.59V15.68l.332-6.8L22.484,19H20.219L16.771,8.873,17.1,15.68V19H13.676V4.781Zm21.846,8.184H34.633v3.4H41V19H31.205V4.781H41.02V7.428H34.633v3h5.391ZM36.83.973h3.477L37.592,4.039l-2.686,0ZM53.754,7.428H49.486V19H46.059V7.428H41.869V4.781H53.754Zm13.213,4.756a8.385,8.385,0,0,1-.771,3.682A5.7,5.7,0,0,1,64,18.331a6.1,6.1,0,0,1-3.237.864,6.191,6.191,0,0,1-3.223-.835,5.692,5.692,0,0,1-2.192-2.388,8.144,8.144,0,0,1-.825-3.564v-.8a8.422,8.422,0,0,1,.767-3.687,5.688,5.688,0,0,1,2.2-2.466,6.5,6.5,0,0,1,6.479-.01,5.79,5.79,0,0,1,2.2,2.446,8.18,8.18,0,0,1,.8,3.638Zm-3.486-.6a5.979,5.979,0,0,0-.708-3.218,2.271,2.271,0,0,0-2.026-1.1q-2.578,0-2.725,3.867l-.01,1.045a6.149,6.149,0,0,0,.693,3.213,2.268,2.268,0,0,0,2.061,1.123,2.24,2.24,0,0,0,2-1.1,5.982,5.982,0,0,0,.713-3.174ZM68.734,19V4.781h4.58a6.737,6.737,0,0,1,3.389.854,6.006,6.006,0,0,1,2.349,2.412,7.283,7.283,0,0,1,.854,3.491v.654a7.325,7.325,0,0,1-.825,3.5,6.032,6.032,0,0,1-2.324,2.422A6.589,6.589,0,0,1,73.412,19ZM72.162,7.428v8.936h1.191a2.666,2.666,0,0,0,2.266-1.05,5.145,5.145,0,0,0,.791-3.12v-.615a5.1,5.1,0,0,0-.791-3.105,2.713,2.713,0,0,0-2.3-1.045Zm21.543,4.756a8.385,8.385,0,0,1-.771,3.682,5.7,5.7,0,0,1-2.192,2.466A6.1,6.1,0,0,1,87.5,19.2a6.191,6.191,0,0,1-3.223-.835,5.692,5.692,0,0,1-2.192-2.388,8.144,8.144,0,0,1-.825-3.564v-.8a8.422,8.422,0,0,1,.767-3.687,5.688,5.688,0,0,1,2.2-2.466,6.5,6.5,0,0,1,6.479-.01,5.79,5.79,0,0,1,2.2,2.446,8.18,8.18,0,0,1,.8,3.638Zm-3.486-.6a5.979,5.979,0,0,0-.708-3.218,2.271,2.271,0,0,0-2.026-1.1q-2.578,0-2.725,3.867l-.01,1.045a6.149,6.149,0,0,0,.693,3.213A2.268,2.268,0,0,0,87.5,16.52a2.24,2.24,0,0,0,2-1.1,5.982,5.982,0,0,0,.713-3.174Z" transform="translate(241 549.999)" fill="#fff"/>
          <path id="Trazado_699073" data-name="Trazado 699073" d="M17.4,12.965H12.006v3.4h6.367V19H8.578V4.781h9.814V7.428H12.006v3H17.4ZM31.645,19H28.236L23.2,10.152V19H19.77V4.781H23.2l5.029,8.848V4.781h3.418ZM44.691,7.428H40.424V19H37V7.428H32.807V4.781H44.691ZM57.9,12.184a8.385,8.385,0,0,1-.771,3.682,5.7,5.7,0,0,1-2.192,2.466A6.1,6.1,0,0,1,51.7,19.2a6.191,6.191,0,0,1-3.223-.835,5.692,5.692,0,0,1-2.192-2.388,8.144,8.144,0,0,1-.825-3.564v-.8a8.422,8.422,0,0,1,.767-3.687,5.688,5.688,0,0,1,2.2-2.466,6.5,6.5,0,0,1,6.479-.01,5.79,5.79,0,0,1,2.2,2.446,8.18,8.18,0,0,1,.8,3.638Zm-3.486-.6A5.979,5.979,0,0,0,53.71,8.37a2.271,2.271,0,0,0-2.026-1.1q-2.578,0-2.725,3.867l-.01,1.045a6.149,6.149,0,0,0,.693,3.213A2.268,2.268,0,0,0,51.7,16.52a2.24,2.24,0,0,0,2-1.1,5.982,5.982,0,0,0,.713-3.174Zm10.537,2.383H63.1V19H59.672V4.781h5.6A6.246,6.246,0,0,1,69.223,5.9a3.8,3.8,0,0,1,1.426,3.17,4.616,4.616,0,0,1-.6,2.458,4.263,4.263,0,0,1-1.88,1.58l2.969,5.741V19H67.465ZM63.1,11.334h2.168a1.946,1.946,0,0,0,1.47-.514,1.987,1.987,0,0,0,.493-1.434,2.01,2.01,0,0,0-.5-1.444,1.928,1.928,0,0,0-1.465-.524H63.1ZM84.594,19H81.186l-5.039-8.848V19H72.719V4.781h3.428l5.029,8.848V4.781h3.418ZM98.8,12.184a8.385,8.385,0,0,1-.771,3.682,5.7,5.7,0,0,1-2.192,2.466A6.1,6.1,0,0,1,92.6,19.2a6.191,6.191,0,0,1-3.223-.835,5.692,5.692,0,0,1-2.192-2.388,8.144,8.144,0,0,1-.825-3.564v-.8a8.422,8.422,0,0,1,.767-3.687,5.688,5.688,0,0,1,2.2-2.466,6.5,6.5,0,0,1,6.479-.01,5.79,5.79,0,0,1,2.2,2.446,8.18,8.18,0,0,1,.8,3.638Zm-3.486-.6a5.979,5.979,0,0,0-.708-3.218,2.271,2.271,0,0,0-2.026-1.1q-2.578,0-2.725,3.867l-.01,1.045a6.149,6.149,0,0,0,.693,3.213A2.268,2.268,0,0,0,92.6,16.52a2.24,2.24,0,0,0,2-1.1,5.982,5.982,0,0,0,.713-3.174Z" transform="translate(453 100.999)" fill="#fff"/>
          <path id="Trazado_699074" data-name="Trazado 699074" d="M22.06,4.781l3.174,9.893L28.4,4.781h4.512V19H29.472V15.68l.332-6.8L26.366,19H24.1L20.653,8.873l.332,6.807V19H17.558V4.781Zm21.846,8.184H38.515v3.4h6.367V19H35.087V4.781H44.9V7.428H38.515v3h5.391ZM46.278,19V4.781h4.58a6.737,6.737,0,0,1,3.389.854A6.006,6.006,0,0,1,56.6,8.048a7.283,7.283,0,0,1,.854,3.491v.654a7.325,7.325,0,0,1-.825,3.5A6.032,6.032,0,0,1,54.3,18.116,6.589,6.589,0,0,1,50.956,19ZM49.706,7.428v8.936H50.9a2.666,2.666,0,0,0,2.266-1.05,5.145,5.145,0,0,0,.791-3.12v-.615a5.1,5.1,0,0,0-.791-3.105,2.713,2.713,0,0,0-2.3-1.045ZM62.86,19H59.442V4.781H62.86Zm2.383,0V4.781h4.58a6.737,6.737,0,0,1,3.389.854,6.006,6.006,0,0,1,2.349,2.412,7.283,7.283,0,0,1,.854,3.491v.654a7.325,7.325,0,0,1-.825,3.5,6.032,6.032,0,0,1-2.324,2.422A6.589,6.589,0,0,1,69.921,19ZM68.671,7.428v8.936h1.191a2.666,2.666,0,0,0,2.266-1.05,5.145,5.145,0,0,0,.791-3.12v-.615a5.1,5.1,0,0,0-.791-3.105,2.713,2.713,0,0,0-2.3-1.045Zm17.373,8.916h-4.7L80.526,19H76.864L82.079,4.781H85.3L90.556,19H86.874ZM82.167,13.7h3.057L83.69,8.766Z" transform="translate(452 549.999)" fill="#fff"/>
        </g>
      </g>
    </g>
    <path id="Trazado_699070" data-name="Trazado 699070" d="M32.173,16.156a5.127,5.127,0,0,1-.981,2.656A5.551,5.551,0,0,1,28.945,20.6a6.954,6.954,0,0,1-3.013.6,4.683,4.683,0,0,1-3.506-1.436A5.77,5.77,0,0,1,21.03,16a12.245,12.245,0,0,1,.347-3.447,9.112,9.112,0,0,1,1.416-3.247,6.506,6.506,0,0,1,2.314-2.07,6.008,6.008,0,0,1,2.915-.659,5.086,5.086,0,0,1,3.677,1.4,5.467,5.467,0,0,1,1.47,3.74l-3.33-.01a2.739,2.739,0,0,0-.469-1.855,2.058,2.058,0,0,0-1.543-.6q-2.637-.088-3.213,4.1a22.537,22.537,0,0,0-.264,2.705q-.049,2.4,1.777,2.471a2.609,2.609,0,0,0,1.885-.581,2.906,2.906,0,0,0,.9-1.753Zm9.268,2.178H36.9L35.64,21H31.958L39.487,6.781h3.145L45.259,21H41.782ZM38.149,15.7H41.1l-.625-4.9ZM59.575,6.781l-1.582,9.277a5.834,5.834,0,0,1-1.987,3.8,6.057,6.057,0,0,1-4.146,1.348,5.654,5.654,0,0,1-2.7-.669,3.919,3.919,0,0,1-1.685-1.807,4.861,4.861,0,0,1-.366-2.661L48.7,6.781h3.359l-1.572,9.3a4.472,4.472,0,0,0-.02.928,1.677,1.677,0,0,0,.454,1.124,1.661,1.661,0,0,0,1.147.43q2.148.068,2.588-2.492l1.582-9.295Zm7.461,10.371q.215-1.1-1.191-1.709l-1.6-.664q-3.369-1.514-3.2-4.121a3.638,3.638,0,0,1,.82-2.124,4.872,4.872,0,0,1,2.08-1.45,7.654,7.654,0,0,1,2.9-.5,4.932,4.932,0,0,1,3.394,1.23A4.088,4.088,0,0,1,71.5,11.01h-3.32A1.989,1.989,0,0,0,67.832,9.7,1.5,1.5,0,0,0,66.6,9.184a2.588,2.588,0,0,0-1.484.391,1.585,1.585,0,0,0-.762,1.1q-.186.977,1.45,1.6a15.947,15.947,0,0,1,2.378,1.074,3.927,3.927,0,0,1,2.188,3.77,3.86,3.86,0,0,1-.791,2.158A4.573,4.573,0,0,1,67.6,20.717a7.307,7.307,0,0,1-2.837.488,6.849,6.849,0,0,1-2.139-.361,4.706,4.706,0,0,1-1.689-1,4.327,4.327,0,0,1-1.367-3.467l3.35.01a2.293,2.293,0,0,0,.42,1.655,2.017,2.017,0,0,0,1.611.562,2.418,2.418,0,0,0,1.4-.386A1.6,1.6,0,0,0,67.036,17.152Zm12.783,1.182H75.278L74.019,21H70.337L77.866,6.781h3.145L83.638,21H80.161ZM76.528,15.7h2.949l-.625-4.9ZM7.28,43.166,6.44,48H3.1L5.562,33.781l5.107.01A5.148,5.148,0,0,1,14.4,35.108a4.058,4.058,0,0,1,1.2,3.414,4.642,4.642,0,0,1-.918,2.488,5.084,5.084,0,0,1-2.114,1.61,7.484,7.484,0,0,1-2.944.556Zm.459-2.637,2.012.02a2.38,2.38,0,0,0,2.48-2.79,1.5,1.5,0,0,0-.454-.945,1.556,1.556,0,0,0-.991-.387l-2.334-.01ZM21.9,42.971H20.044L19.165,48h-3.34l2.461-14.219,5.02.01a5.515,5.515,0,0,1,3.716,1.127A3.505,3.505,0,0,1,28.188,38a4.588,4.588,0,0,1-.889,2.551,5.231,5.231,0,0,1-2.187,1.6l1.914,5.692V48H23.462Zm-1.406-2.637,1.953.02a2.461,2.461,0,0,0,1.392-.392,2.156,2.156,0,0,0,.845-1.072,2.52,2.52,0,0,0,.146-1.317,1.311,1.311,0,0,0-1.387-1.145l-2.266-.01ZM32.144,48H28.8l2.471-14.219H34.6ZM46.06,48H42.827l-3.4-8.975L37.866,48h-3.34l2.461-14.219h3.262l3.389,8.975,1.553-8.975h3.34Zm14.1-4.844a5.127,5.127,0,0,1-.981,2.656A5.551,5.551,0,0,1,56.934,47.6a6.954,6.954,0,0,1-3.013.6,4.683,4.683,0,0,1-3.506-1.436,5.77,5.77,0,0,1-1.4-3.76,12.245,12.245,0,0,1,.347-3.447,9.112,9.112,0,0,1,1.416-3.247,6.506,6.506,0,0,1,2.314-2.07,6.008,6.008,0,0,1,2.915-.659,5.086,5.086,0,0,1,3.677,1.4,5.467,5.467,0,0,1,1.47,3.74l-3.33-.01a2.739,2.739,0,0,0-.469-1.855,2.058,2.058,0,0,0-1.543-.6q-2.637-.088-3.213,4.1a22.537,22.537,0,0,0-.264,2.705q-.049,2.4,1.777,2.471A2.609,2.609,0,0,0,56,44.948a2.906,2.906,0,0,0,.9-1.753ZM64.644,48H61.3l2.471-14.219H67.1Zm6.563-4.834L70.366,48h-3.34l2.461-14.219,5.107.01a5.148,5.148,0,0,1,3.735,1.317,4.058,4.058,0,0,1,1.2,3.414,4.642,4.642,0,0,1-.918,2.488,5.084,5.084,0,0,1-2.114,1.61,7.484,7.484,0,0,1-2.944.556Zm.459-2.637,2.012.02a2.38,2.38,0,0,0,2.48-2.79,1.5,1.5,0,0,0-.454-.945,1.556,1.556,0,0,0-.991-.387l-2.334-.01Zm14.7,4.8H81.821L80.562,48H76.88l7.529-14.219h3.145L90.181,48H86.7ZM83.071,42.7h2.949l-.625-4.9Zm12.051,2.666h5.791L100.454,48H91.323l2.461-14.219h3.35Z" transform="translate(202 4535.502)" fill="#12263f"/>
    <path id="Trazado_699069" data-name="Trazado 699069" d="M18.371,17.152q.215-1.1-1.191-1.709l-1.6-.664q-3.369-1.514-3.2-4.121a3.638,3.638,0,0,1,.82-2.124,4.872,4.872,0,0,1,2.08-1.45,7.654,7.654,0,0,1,2.9-.5,4.932,4.932,0,0,1,3.394,1.23,4.088,4.088,0,0,1,1.265,3.193h-3.32A1.989,1.989,0,0,0,19.167,9.7a1.5,1.5,0,0,0-1.235-.513,2.588,2.588,0,0,0-1.484.391,1.585,1.585,0,0,0-.762,1.1q-.186.977,1.45,1.6a15.947,15.947,0,0,1,2.378,1.074,3.927,3.927,0,0,1,2.188,3.77,3.86,3.86,0,0,1-.791,2.158,4.573,4.573,0,0,1-1.978,1.436,7.307,7.307,0,0,1-2.837.488,6.849,6.849,0,0,1-2.139-.361,4.706,4.706,0,0,1-1.689-1A4.327,4.327,0,0,1,10.9,16.381l3.35.01a2.293,2.293,0,0,0,.42,1.655,2.017,2.017,0,0,0,1.611.562,2.418,2.418,0,0,0,1.4-.386A1.6,1.6,0,0,0,18.371,17.152ZM36.145,6.781l-1.582,9.277a5.834,5.834,0,0,1-1.987,3.8,6.057,6.057,0,0,1-4.146,1.348,5.654,5.654,0,0,1-2.7-.669,3.919,3.919,0,0,1-1.685-1.807,4.861,4.861,0,0,1-.366-2.661l1.582-9.287h3.359l-1.572,9.3a4.473,4.473,0,0,0-.02.928,1.677,1.677,0,0,0,.454,1.124,1.661,1.661,0,0,0,1.147.43q2.148.068,2.588-2.492L32.8,6.781ZM35.793,21,38.254,6.781l4.521.01A6.591,6.591,0,0,1,46.77,7.807a3.074,3.074,0,0,1,1.2,2.822,3.529,3.529,0,0,1-2.461,3.184,2.412,2.412,0,0,1,1.294,1.06,3.1,3.1,0,0,1,.4,1.841,4.088,4.088,0,0,1-1.626,3.174A6.67,6.67,0,0,1,41.5,21Zm4.395-6.045-.6,3.4,2,.01a2.555,2.555,0,0,0,1.563-.463,1.817,1.817,0,0,0,.742-1.232q.273-1.626-1.25-1.7Zm.381-2.246,1.572.01q2.178-.049,2.441-1.675.234-1.606-1.66-1.616l-1.777-.01Zm19.746,3.447a5.127,5.127,0,0,1-.981,2.656A5.551,5.551,0,0,1,57.087,20.6a6.954,6.954,0,0,1-3.013.6,4.683,4.683,0,0,1-3.506-1.436,5.77,5.77,0,0,1-1.4-3.76,12.245,12.245,0,0,1,.347-3.447,9.112,9.112,0,0,1,1.416-3.247,6.506,6.506,0,0,1,2.314-2.07,6.008,6.008,0,0,1,2.915-.659,5.086,5.086,0,0,1,3.677,1.4,5.467,5.467,0,0,1,1.47,3.74l-3.33-.01a2.739,2.739,0,0,0-.469-1.855,2.058,2.058,0,0,0-1.543-.6q-2.637-.088-3.213,4.1a22.537,22.537,0,0,0-.264,2.705q-.049,2.4,1.777,2.471a2.609,2.609,0,0,0,1.885-.581,2.906,2.906,0,0,0,.9-1.753Zm9.268,2.178H65.041L63.781,21H60.1L67.629,6.781h3.145L73.4,21H69.924ZM66.291,15.7H69.24l-.625-4.9Zm19.932-6.27H82.082L80.08,21H76.73L78.742,9.428H74.67l.469-2.646H86.682Zm9.092,5.537H90.09l-.6,3.4h6.182L95.217,21H85.7L88.156,6.781H97.7l-.459,2.646H91.047l-.527,3h5.234Zm13.125,4.287a5.119,5.119,0,0,1-2.334,1.45,10.159,10.159,0,0,1-3.4.483,5.158,5.158,0,0,1-3.018-.9,4.783,4.783,0,0,1-1.758-2.451,7.978,7.978,0,0,1-.283-3.545l.078-.586a9.025,9.025,0,0,1,2.329-5.244,6.013,6.013,0,0,1,4.6-1.885,5.178,5.178,0,0,1,3.662,1.279,5.247,5.247,0,0,1,1.426,3.584l-3.2-.01a2.609,2.609,0,0,0-.562-1.663,1.919,1.919,0,0,0-1.4-.554,2.6,2.6,0,0,0-2.227,1.058,6.722,6.722,0,0,0-1.2,3.166,12.475,12.475,0,0,0-.2,2.731q.146,2.351,2.119,2.38a3.583,3.583,0,0,0,2.09-.576l.439-2.217h-2.314l.41-2.354h5.654Zm7.4,1.943a4.816,4.816,0,0,1-3.555-1.465,5.966,5.966,0,0,1-1.514-3.789,10.831,10.831,0,0,1,.186-2.759,9.693,9.693,0,0,1,1.006-2.925,7.361,7.361,0,0,1,1.807-2.227,6.179,6.179,0,0,1,4.18-1.445,5.141,5.141,0,0,1,2.544.669A4.666,4.666,0,0,1,122.238,9.1,6.612,6.612,0,0,1,123,11.83a11.207,11.207,0,0,1-.132,2.466,10.162,10.162,0,0,1-.771,2.637,8.059,8.059,0,0,1-1.45,2.212,6.671,6.671,0,0,1-2.095,1.519A6.059,6.059,0,0,1,115.842,21.2ZM119.65,11.8q-.1-2.441-1.895-2.539a2.615,2.615,0,0,0-2.295,1.1,7.053,7.053,0,0,0-1.2,3.442,12.017,12.017,0,0,0-.137,2.178q.1,2.48,1.914,2.549a2.536,2.536,0,0,0,2.051-.854,5.527,5.527,0,0,0,1.24-2.656A12.76,12.76,0,0,0,119.65,11.8Zm9.893,4.17h-1.855L126.809,21h-3.34L125.93,6.781l5.02.01a5.515,5.515,0,0,1,3.716,1.127A3.505,3.505,0,0,1,135.832,11a4.588,4.588,0,0,1-.889,2.551,5.231,5.231,0,0,1-2.187,1.6l1.914,5.692V21h-3.564Zm-1.406-2.637,1.953.02a2.461,2.461,0,0,0,1.392-.392,2.156,2.156,0,0,0,.845-1.072,2.52,2.52,0,0,0,.146-1.317,1.311,1.311,0,0,0-1.387-1.145l-2.266-.01ZM139.787,21h-3.34l2.471-14.219h3.33Zm1.719-18.027h3.584l-3.115,3.066-2.812,0Zm9.014,15.361h-4.541L144.719,21h-3.682l7.529-14.219h3.145L154.338,21h-3.477ZM147.229,15.7h2.949l-.625-4.9Z" transform="translate(177 4624.502)" fill="#12263f"/>
  </g>
</svg>
