<svg xmlns="http://www.w3.org/2000/svg" xmlns:xlink="http://www.w3.org/1999/xlink" width="106" height="106" viewBox="0 0 106 106">
  <defs>
    <clipPath id="clip-path">
      <rect id="Rectángulo_339718" data-name="Rectángulo 339718" width="45.486" height="83.278" fill="#12263f"/>
    </clipPath>
  </defs>
  <g id="Grupo_973509" data-name="Grupo 973509" transform="translate(-637 -1290)">
    <circle id="Elipse_5581" data-name="Elipse 5581" cx="53" cy="53" r="53" transform="translate(637 1290)" fill="#c4a424"/>
    <circle id="Elipse_1147" data-name="Elipse 1147" cx="50.5" cy="50.5" r="50.5" transform="translate(637 1290)" fill="#ffd947"/>
    <g id="Grupo_973350" data-name="Grupo 973350" transform="translate(668.199 1299.438)">
      <g id="Grupo_973349" data-name="Grupo 973349" clip-path="url(#clip-path)">
        <path id="Trazado_698429" data-name="Trazado 698429" d="M33.411,147.988A11.644,11.644,0,0,0,20.155,159.3a15.11,15.11,0,0,1-2.959,0c-.15-8.593,8.039-14.3,14.612-14.194A14.2,14.2,0,0,1,46.2,159.3a15.311,15.311,0,0,1-2.96,0,11.692,11.692,0,0,0-9.83-11.31" transform="translate(-12.936 -109.167)" fill="#12263f"/>
        <path id="Trazado_698430" data-name="Trazado 698430" d="M51.141,244.409c.717.223.7.222.593,1.071-.089.677-.371,2.233-1.048,1.9h0a13.345,13.345,0,0,1-4.89-1.753c-.654-.175.689-1.908,1.028-2.345.221-.285.336-.308.628-.157a9.98,9.98,0,0,0,3.69,1.287" transform="translate(-34.321 -182.843)" fill="#12263f"/>
        <path id="Trazado_698431" data-name="Trazado 698431" d="M97.774,238.575c-.329.622-5.23,4.067-5.478,2.971-.211-.669-.419-1.341-.674-1.994-.143-.367-.014-.53.3-.645,4.765-1.805,2.625-4.017,5.848-.332" transform="translate(-68.888 -177.991)" fill="#12263f"/>
        <path id="Trazado_698432" data-name="Trazado 698432" d="M20.25,209.3c.342-.075.486.111.539.413a10.379,10.379,0,0,0,1.53,4c.179.27.012.371-.169.489-.635.413-1.28.81-1.9,1.242-.237.165-.326.06-.439-.12a13.3,13.3,0,0,1-1.964-5.221c-.243-.7.132-.586.693-.573,0,0,1.235-.149,1.713-.23" transform="translate(-13.368 -157.458)" fill="#12263f"/>
        <path id="Trazado_698433" data-name="Trazado 698433" d="M123.144,209.991c-.7,3.26-.144,2.773-3.088,1.772-.244-.085-.38-.155-.273-.476a12.345,12.345,0,0,0,.387-1.59c.08-.425.366-.442.678-.393.271.043,1.391.129,1.63.214s.8.045.665.473" transform="translate(-90.091 -157.455)" fill="#12263f"/>
        <path id="Trazado_698434" data-name="Trazado 698434" d="M45.418,2.323c-.076-.283-.288-.577-1.188-.577C37.8,1.747,24.395,1.7,24.395,1.7s.028-.688,0-1.017a.754.754,0,0,0-.733-.665H21.646C21.63,0,13.926-.025,13.725.06a1.578,1.578,0,0,0-.042.618q0,3.35,0,6.7c0,.237.067.514-.289.576-.113.04-4.6-.19-5.128,5.49-.109,1.176.043,2.355.028,3.533C7.981,17.023.04,18.758.04,26.5.04,45.385,0,63.262,0,82.15c0,1.287.809,1.118,1.051,1.118,11.975,0,23.652.011,35.627.01.818,0,.82,0,.821-.831q.02-27.77.046-55.542c0-7.843-7.984-9.719-8.175-10.106-.116-.959-.02-1.924-.055-2.888a6.8,6.8,0,0,0-2.7-4.7A28.19,28.19,0,0,0,23.971,7.78a1.2,1.2,0,0,1-.119-.593c.82-.007.6-1.368.668-1.371,6.488-.01,20,.015,20.263-.032a.645.645,0,0,0,.631-.5,15.656,15.656,0,0,0,0-2.958M23.081,1.893q0,2.159-.007,4.318l-.652,0q0-2.156-.008-4.312l.667,0M16.712,3.05h4.1c0,1.225-.007,2.45.013,3.674.006.359-.128.482-.463.434a7.266,7.266,0,0,0-3.2,0c-.4.067-.465-.151-.461-.492.015-1.2.008-2.409.01-3.613M31.6,21.966a9.033,9.033,0,0,1,2.744,4.342c.059.206.128,35.891.128,53.219,0,.778,0,.78-.775.78q-14.959,0-29.919,0a1.126,1.126,0,0,1-.668-.086,1.755,1.755,0,0,1-.05-.733q0-25.881-.005-51.762c0-.225.283-2.936,1.071-3.683C16.06,12.727,30.374,20.873,31.6,21.966M24.011,11.217a3.987,3.987,0,0,1,2.186,2.8,11.69,11.69,0,0,1,.045,1.7c.012.3-.142.362-.4.251-.407.057-7.312-1.895-14.278,0-.225.061-.287-.015-.282-.2a14.444,14.444,0,0,1,.047-1.98,3.565,3.565,0,0,1,1.394-2.062,8.557,8.557,0,0,1,3.866-1.475,12.41,12.41,0,0,1,7.418.972M43.491,4.5Q34.1,4.49,24.7,4.479V3.17q9.4-.009,18.79-.017c.242,0,.51-.115.51.671s-.268.672-.509.672" transform="translate(0 0)" fill="#12263f"/>
        <path id="Trazado_698435" data-name="Trazado 698435" d="M58.454,173.954c-4.994-.1-3.82,1.029-3.935-3.929.007-.387-.1-.532-.509-.529-9.4.337-6.4-1.592-7.149,4.355-.171.183-.393.106-.593.108-1.064.007-2.129.019-3.193,0-.4-.009-.573.076-.568.529.024,2.339.014,4.678.016,7.018,5.712.18,4.266-1.24,4.456,4.457h7.526c.189-5.707-1.24-4.272,4.458-4.459,0-2.343-.005-4.685.013-7.027,0-.4-.125-.525-.522-.517M56,178.529c-5.285.146-4.294-1.242-4.458,4.462H49.946c-.047-5.145.819-4.46-4.457-4.458h0a6.327,6.327,0,0,1-.058-1.357c-.024-.33.21-.3.419-.3,1.16,0,2.32-.022,3.478.011.454.013.581-.116.568-.569-.033-1.14-.015-2.708-.036-3.849l1.679,0h0c.015,5.5-.616,4.323,4.454,4.46,0,0,0,1.062,0,1.593" transform="translate(-31.98 -127.487)" fill="#12263f"/>
      </g>
    </g>
  </g>
</svg>
