<svg xmlns="http://www.w3.org/2000/svg" xmlns:xlink="http://www.w3.org/1999/xlink" width="106" height="106" viewBox="0 0 106 106">
  <defs>
    <clipPath id="clip-path">
      <rect id="Rectángulo_339719" data-name="Rectángulo 339719" width="78.498" height="62.703" fill="#11253e"/>
    </clipPath>
  </defs>
  <g id="Grupo_973510" data-name="Grupo 973510" transform="translate(-637 -1452)">
    <circle id="Elipse_5582" data-name="Elipse 5582" cx="53" cy="53" r="53" transform="translate(637 1452)" fill="#c4a424"/>
    <circle id="Elipse_1145" data-name="Elipse 1145" cx="50.5" cy="50.5" r="50.5" transform="translate(637 1452)" fill="#ffd947"/>
    <g id="Grupo_973352" data-name="Grupo 973352" transform="translate(648.9 1472.297)">
      <g id="Grupo_973351" data-name="Grupo 973351" clip-path="url(#clip-path)">
        <path id="Trazado_698436" data-name="Trazado 698436" d="M14.682,17.374a.427.427,0,0,1-.324-.293c-.43-.919-.863-1.838-1.285-2.76-.542-1.184-1.093-2.364-1.634-3.548q-.727-1.592-1.463-3.18C9.377,6.3,8.811,5,8.179,3.726A2.564,2.564,0,0,0,6.123,2.419c-.229-.042-3.987.052-5.647.051A.489.489,0,0,1,0,2.017C-.006,1.341.039,1.1,0,.423-.018.029.165,0,.482,0,2.66.012,4.839.009,7.017.011A4.014,4.014,0,0,1,10.169,2.2c.813,1.267,1.7,2.481,2.553,3.722,1,1.464,2.022,2.918,3.025,4.382.488.712,1,1.405,1.459,2.136.316.434.589.9.881,1.346.086.276-3.068,3.5-3.405,3.592" transform="translate(0 0)" fill="#11253e"/>
        <path id="Trazado_698437" data-name="Trazado 698437" d="M252.791,47.572a2.278,2.278,0,0,0,.336-.814,1.349,1.349,0,0,0,0-1.027,2.774,2.774,0,0,0-1.814-2.12,8,8,0,0,1-1.135-.549c-.39-.286-.541-.087-.732.2-.811,1.225-1.641,2.438-2.433,3.676-.205.321-.38.369-.689.184-.52-.311-1.055-.6-1.58-.9-.177-.1-.367-.218-.18-.469.909-1.307,1.734-2.671,2.678-3.956.263-.278.191-.457-.156-.578a1.952,1.952,0,0,1-.567-.316c-.156-.122-.271-.258-.129-.465a5.285,5.285,0,0,1,1.01-1.825c1.717.91,3.477,1.734,5.2,2.63a5.831,5.831,0,0,1,2.334,1.88c.15.227.261.472.406.7l.313.9c.117.155-.02.357.1.512h0a3.95,3.95,0,0,1,0,1.93,5.084,5.084,0,0,1-1.019,2.332,4.065,4.065,0,0,1-.418.514l.009-.009a5.314,5.314,0,0,1-.508.421,6.652,6.652,0,0,1-2.3,1.061,6.262,6.262,0,0,1-.848.05,24.073,24.073,0,0,1-.051-2.454c.029-.411.407-.125.564-.282.2,0,.337-.14.5-.212a4.1,4.1,0,0,0,1.1-1.008" transform="translate(-177.378 -28.012)" fill="#11253e"/>
        <path id="Trazado_698438" data-name="Trazado 698438" d="M57.268,54.46a.125.125,0,0,0,.081-.023.187.187,0,0,1,.191.016,19.733,19.733,0,0,1,1.889,1.877c.03.034.013.1,0,.146-2.262,2.307-4.565,4.572-6.84,6.866-.179.181-.342.28-.552.062-.584-.606-1.234-1.149-1.765-1.808.031-.226,4.459-4.572,6.508-6.621.167-.167.331-.338.488-.516" transform="translate(-36.472 -39.481)" fill="#11253e"/>
        <path id="Trazado_698439" data-name="Trazado 698439" d="M119.064,43.71c-.072-.393-9.119-5.478-9.13-5.533-.032-1.984.015-3.97-.026-5.956.07-3.734-3.657-3.817-3.741-3.817H87.609c-.135,0-3.826-.1-3.826,3.519q0,2.814-.018,5.628a.992.992,0,0,1-.078.592l-.029-.018a2.288,2.288,0,0,1-.47.531L67.759,54.094a3.638,3.638,0,0,0-.48.524A3.005,3.005,0,0,0,66.77,56.6q0,6.863,0,13.726c0,3.218-.027,6.437.02,9.655a3.783,3.783,0,0,0,3.04,3.332c.338-.039,45.716-.068,46.088,0,3.325-.067,3.165-3.9,3.165-4.192q0-17.373,0-34.747a4.325,4.325,0,0,0-.019-.661M87.835,33.13a1.173,1.173,0,0,1,.911-.72c.13-.057,10.667-.036,15.8-.035a.994.994,0,0,1,.4.033,1.233,1.233,0,0,1,.991.942c.148.83.629,4.161-.82,4.161-4.88,0-10.711.052-15.588.053-.862-.023-1.738.339-1.784-1.4a17.843,17.843,0,0,1,.089-3.037m26.97,47.433c-.242.026-42.987.153-43.153.2a2.647,2.647,0,0,1-2.145-2,4.27,4.27,0,0,1-.092-1.006q0-10.048,0-20.095a2.587,2.587,0,0,1,.775-2.233q5.275-5.278,10.558-10.549a2.591,2.591,0,0,1,2.024-.753c10.383,0,31.417,0,31.534.083a2.532,2.532,0,0,1,2.013,1.766c.134.167.119,21.58.122,32.089,0,.169.152,2.3-1.632,2.489" transform="translate(-48.438 -20.607)" fill="#11253e"/>
        <path id="Trazado_698440" data-name="Trazado 698440" d="M60.079,74.1c.474-.483.943-.97,1.421-1.449q3.862-3.868,7.729-7.732c.131-.131.275-.248.413-.372a.536.536,0,0,1,.383.222c.682.683,1.357,1.374,2.052,2.044.228.22.211.356-.006.573q-4.588,4.573-9.163,9.158c-.128.128-.245.31-.455.1-.763-.77-1.53-1.535-2.29-2.308-.052-.054-.057-.155-.083-.233" transform="translate(-43.587 -46.832)" fill="#11253e"/>
        <path id="Trazado_698441" data-name="Trazado 698441" d="M148.571,123.6a89.557,89.557,0,0,0-5.674-8.715.853.853,0,0,0-.555-.4,1.169,1.169,0,0,0-.632,0,1.359,1.359,0,0,0-.82.7c-1.814,2.711-3.368,5.45-5.207,8.144-.845,1.238-2.6,6.46.609,9.576a7.5,7.5,0,0,0,4.812,2.378,9.008,9.008,0,0,0,1.942,0c9.329-1.113,6.112-10.524,5.526-11.678m-1.855,6.164a5.03,5.03,0,0,1-3.495,2.846c-.159.04-1.149-.1-1.1-.589s.008-.972.01-1.459c0-.185-.011-.377.2-.47a2.507,2.507,0,0,0,2.212-1.864,2.067,2.067,0,0,0,.012-1.2,26.558,26.558,0,0,0-2.293-3.679c-.187-.3-.154-.416.108-.582.5-.316.993-.642,1.478-.979.259-.18.426-.179.612.112.684,1.07,1.4,2.122,2.084,3.191a5.5,5.5,0,0,1,.17,4.671" transform="translate(-97.535 -83.026)" fill="#11253e"/>
        <path id="Trazado_698442" data-name="Trazado 698442" d="M128.032,95.368c-.135,0-.271-.013-.407-.013H97.3c-.135,0-.271.009-.406.013-.125.138-.245.281-.376.412q-4.872,4.878-9.751,9.749a1.089,1.089,0,0,0-.363.841q.015,9.848,0,19.7c0,.4.073.561.522.56q20.551-.019,41.1-.013.006-4.223.012-8.447,0-11.4-.007-22.8M116.882,117.5c-1.436,3.372-3.1,6.1-10.422,6.583a10.168,10.168,0,0,1-7.353-3.727,9.946,9.946,0,0,1-2.044-3.783,13.027,13.027,0,0,1,1.551-8.824c1.731-2.762,3.592-5.441,5.422-8.138a3.614,3.614,0,0,1,2.623-1.625,3.431,3.431,0,0,1,1.029,0,3.664,3.664,0,0,1,2.571,1.608c1.9,2.851,3.8,5.7,5.682,8.568.715,1.091,2.608,5.423.939,9.34" transform="translate(-62.686 -69.179)" fill="#11253e"/>
      </g>
    </g>
  </g>
</svg>
