<svg id="Grupo_972952" data-name="Grupo 972952" xmlns="http://www.w3.org/2000/svg" xmlns:xlink="http://www.w3.org/1999/xlink" width="173.64" height="173.64" viewBox="0 0 173.64 173.64">
  <defs>
    <clipPath id="clip-path">
      <rect id="Rectángulo_339292" data-name="Rectángulo 339292" width="173.64" height="173.64" fill="#3c0061"/>
    </clipPath>
  </defs>
  <g id="Grupo_972951" data-name="Grupo 972951" clip-path="url(#clip-path)">
    <path id="Trazado_697308" data-name="Trazado 697308" d="M173.64,86.82A86.82,86.82,0,1,1,86.82,0a86.82,86.82,0,0,1,86.82,86.82" fill="#8a008d"/>
    <path id="Trazado_697309" data-name="Trazado 697309" d="M131.343,66.511,130.31,95.176l24.883-14.269-15.228,24.308,28.684.084-25.342,13.438,24.8,14.415-28.666-1.033L153.71,157,129.4,141.775l-.085,28.684-13.438-25.341-14.415,24.8,1.033-28.665L77.614,155.52l15.228-24.308-28.684-.084L89.5,117.689,64.7,103.274l28.665,1.033L79.1,79.424l24.308,15.228.084-28.684,13.438,25.341Z" transform="translate(-28.845 -29.658)" fill="#ffde7f"/>
    <path id="Trazado_697310" data-name="Trazado 697310" d="M226.554,36.149s-51.371-13.21-71.92,40.119l14.678,5.871s8.807-37.673,56.753-29.845Z" transform="translate(-69.522 -15.6)" fill="#36cfb3"/>
    <path id="Trazado_697311" data-name="Trazado 697311" d="M37.3,242.943s53.34,12.98,70.869-41.416l-14.983-5.04S95,233.849,37.3,227.287Z" transform="translate(-16.77 -88.339)" fill="#36cfb3"/>
    <path id="Trazado_697312" data-name="Trazado 697312" d="M104.357,190.476c-1.153-.442-2.095-.786-3.023-1.163-2.224-.9-4.446-1.809-6.657-2.742-.567-.24-.753-.112-.958.472a44.468,44.468,0,0,1-6.362,11.78A41.068,41.068,0,0,1,76.5,209.312a51.84,51.84,0,0,1-13.124,6.025,36.808,36.808,0,0,1-10.136,1.623q-8.115.08-16.231.121a3.048,3.048,0,0,1-2.9-1.373,2.7,2.7,0,0,1,1.828-4.047,7.407,7.407,0,0,1,1.568-.15c4.7-.011,9.4-.039,14.1,0A36.908,36.908,0,0,0,67.176,208.1a41.9,41.9,0,0,0,15.14-11.584,34.305,34.305,0,0,0,6.117-10.966c.4-1.167.78-2.342,1.209-3.5a2.672,2.672,0,0,1,3.552-1.884c.667.165.651-.263.714-.674q.636-4.165,1.278-8.329a9.788,9.788,0,0,1,.288-1.268,2.7,2.7,0,0,1,3-1.956,2.576,2.576,0,0,1,2.314,2.764,16.037,16.037,0,0,1-.231,1.9q-.685,4.429-1.388,8.857a.994.994,0,0,0,.7,1.278c.837.3,1.637.7,2.453,1.065.843.372.874.344,1.361-.413,1.82-2.827,3.634-5.658,5.491-8.461a2.6,2.6,0,0,1,3.7-.93,2.514,2.514,0,0,1,1.145,3.069,15.315,15.315,0,0,1-1.329,2.388c-1.33,2.079-2.69,4.14-4.05,6.2-.206.312-.22.552.127.733,1.734.9,1.69,2.425,1.184,3.971a61.014,61.014,0,0,1-5.9,13.021A67.867,67.867,0,0,1,96.2,213.859,58.586,58.586,0,0,1,75.907,228.13a61.437,61.437,0,0,1-15.541,4.636,60.787,60.787,0,0,1-7.525.629c-5.388.093-10.778.024-16.168.035a2.966,2.966,0,0,1-2.02-.724,2.59,2.59,0,0,1-.8-2.85,2.873,2.873,0,0,1,2.568-1.869c.733-.03,1.467-.006,2.2-.01,5.045-.033,10.092.023,15.132-.124a50.364,50.364,0,0,0,21.151-5.3A54.651,54.651,0,0,0,85.674,216c6.048-5,11.389-10.625,15.014-17.669,1.3-2.531,2.416-5.158,3.67-7.858" transform="translate(-15.153 -75.492)" fill="#161615"/>
    <path id="Trazado_697313" data-name="Trazado 697313" d="M163.454,78.719a7.64,7.64,0,0,0,.366-.733,45.288,45.288,0,0,1,35.568-29.357,52.312,52.312,0,0,1,9.177-.609c3.715.056,7.431.018,11.145.024.5,0,1.009.012,1.513.04a2.677,2.677,0,0,1,2.612,2.365,2.761,2.761,0,0,1-1.857,2.82,5.325,5.325,0,0,1-1.613.268c-4.266.021-8.532.077-12.8-.006a43.6,43.6,0,0,0-14.63,2.385A38.537,38.537,0,0,0,180.89,62.9a49.331,49.331,0,0,0-4.016,3.737,36.112,36.112,0,0,0-5.838,8.6,36.962,36.962,0,0,0-3.034,7.4c-.585,2.055-1.656,2.652-3.7,2.259-.452-.087-.552.1-.61.483q-.515,3.418-1.064,6.831c-.116.72-.325,1.428-.407,2.152a2.77,2.77,0,0,1-3.108,2.743,2.692,2.692,0,0,1-2.347-3.326c.3-2.241.652-4.475.994-6.711.187-1.219.394-2.433.6-3.648a.918.918,0,0,0-.674-1.194c-.949-.332-1.874-.738-2.8-1.139-.432-.188-.624-.05-.868.334-1.853,2.913-3.7,5.828-5.627,8.694a2.707,2.707,0,1,1-4.578-2.887q2.444-3.855,4.965-7.658c.272-.413.386-.664-.107-1a2.694,2.694,0,0,1-1.209-3.438,54.269,54.269,0,0,1,4.407-10.619,60.013,60.013,0,0,1,12.755-16.565,62.6,62.6,0,0,1,18.814-11.787,61.036,61.036,0,0,1,13.874-3.787,74.7,74.7,0,0,1,8.618-.719c4.973-.114,9.952-.026,14.929-.036a2.846,2.846,0,0,1,2.548,1.349,2.358,2.358,0,0,1,.064,2.654,2.757,2.757,0,0,1-2.488,1.445c-4.839.007-9.679-.052-14.517.02a65.416,65.416,0,0,0-12.659,1.54,54.465,54.465,0,0,0-20.6,9.511,59.379,59.379,0,0,0-10.723,10.194A52.362,52.362,0,0,0,153.7,73.671a1.921,1.921,0,0,1-.166.374c-.286.433-.105.647.324.814,1.237.479,2.467.976,3.7,1.472,1.949.785,3.9,1.575,5.9,2.387" transform="translate(-64.453 -14.208)" fill="#161615"/>
    <path id="Trazado_697314" data-name="Trazado 697314" d="M47.057,159.781c-1.169,0-2.337.008-3.506,0a2.886,2.886,0,0,1-2.873-2.675,2.851,2.851,0,0,1,2.785-2.758q3.642-.048,7.285,0a2.7,2.7,0,0,1,2.652,2.7,2.739,2.739,0,0,1-2.7,2.733c-1.214.029-2.428.005-3.643.007" transform="translate(-18.288 -69.381)" fill="#161615"/>
    <path id="Trazado_697315" data-name="Trazado 697315" d="M265.869,159.789c-1.168,0-2.336.006-3.5,0a2.722,2.722,0,1,1,.014-5.441q3.47-.016,6.94,0a2.729,2.729,0,1,1-.014,5.444c-1.145,0-2.29,0-3.436,0" transform="translate(-116.696 -69.389)" fill="#161615"/>
    <path id="Trazado_697316" data-name="Trazado 697316" d="M248.592,205.576a7.628,7.628,0,0,1,1.278.472q3.137,1.767,6.236,3.6a2.682,2.682,0,0,1-.7,4.88,2.924,2.924,0,0,1-1.836-.177c-2.2-1.163-4.355-2.42-6.5-3.683a2.555,2.555,0,0,1-1.345-2.715,2.647,2.647,0,0,1,1.978-2.229,7.684,7.684,0,0,1,.893-.146" transform="translate(-110.457 -92.425)" fill="#161615"/>
    <path id="Trazado_697317" data-name="Trazado 697317" d="M207.993,245.843a2.907,2.907,0,0,1,1.8-2.517,2.681,2.681,0,0,1,2.95.684,4.877,4.877,0,0,1,.587.839q1.722,3,3.425,6a2.5,2.5,0,0,1-.189,2.89,2.65,2.65,0,0,1-2.737,1.019,2.252,2.252,0,0,1-1.65-1.118q-1.927-3.273-3.793-6.58a6.119,6.119,0,0,1-.388-1.22" transform="translate(-93.511 -109.315)" fill="#161615"/>
    <path id="Trazado_697318" data-name="Trazado 697318" d="M56.327,99.443a2.676,2.676,0,0,1,3.875-2.6q3.189,1.75,6.319,3.608a2.6,2.6,0,0,1,1.378,3.18,2.629,2.629,0,0,1-3.56,1.716c-2.369-1.242-4.674-2.609-6.967-3.99a2.181,2.181,0,0,1-1.046-1.913" transform="translate(-25.324 -43.395)" fill="#161615"/>
    <path id="Trazado_697319" data-name="Trazado 697319" d="M105.235,65.923a2.645,2.645,0,0,1-2.4-1.222c-1.311-2.221-2.622-4.443-3.853-6.708a2.564,2.564,0,0,1,1.041-3.384,2.685,2.685,0,0,1,3.517.648,20.433,20.433,0,0,1,1.257,2.038c.908,1.585,1.855,3.15,2.678,4.778a2.616,2.616,0,0,1-1.647,3.721,4.624,4.624,0,0,1-.592.129" transform="translate(-44.374 -24.377)" fill="#161615"/>
  </g>
</svg>
