<svg xmlns="http://www.w3.org/2000/svg" xmlns:xlink="http://www.w3.org/1999/xlink" width="905.718" height="615.11" viewBox="0 0 905.718 615.11">
  <defs>
    <clipPath id="clip-path">
      <rect id="Rect치ngulo_339320" data-name="Rect치ngulo 339320" width="905.718" height="615.11" fill="none"/>
    </clipPath>
  </defs>
  <g id="Grupo_973499" data-name="Grupo 973499" transform="translate(-235.282 -4362.333)">
    <g id="Grupo_973003" data-name="Grupo 973003" transform="translate(235.282 4362.333)">
      <g id="Grupo_973002" data-name="Grupo 973002" clip-path="url(#clip-path)">
        <path id="Trazado_697448" data-name="Trazado 697448" d="M780.1,339.4v-3.365H718.979V0h-3.365v287.43H598.9l-30.589-51.467h142.5V232.6h-144.5L537.5,184.121H681.531v-3.365H535.978v.8L503.4,126.748l-2.891,1.719L623.875,336.031H410.137l.043-.077-57.244-99,137.57-.987-.024-3.365-139.074,1,.006.721-29.022-50.194h144.8v-3.365H321.636v2.059l-33.561-58.045-2.912,1.685L406.31,335.982l-.027.048H165.428l-18.99-45.237h142.8v-3.365H145.025l-21.606-51.467h143.76V232.6H122.006l-20.351-48.476h142.22v-3.365H100.242L76.82,124.963l-3.1,1.3,88.062,209.766H0V339.4H161.223L74.7,557.665l3.128,1.239,23.858-60.187v.187H247.24v-3.365H102.946l20.8-52.466v1H269.3v-3.365H124.682L143.9,392.232H288.114v-3.365H145.231L164.843,339.4H404.406L347.87,440.709h-.811v1.454l-64.9,116.3,2.94,1.64,34.419-61.682v.483H470.554v-3.365H321.126l28.72-51.466H492.612v-3.365H351.723l27.612-49.481v1H511.428v-3.365H380.653L408.26,339.4H625.313L495.548,546.424l2.85,1.788L530.37,497.2v1.7H675.924v-3.365H531.413l32.258-51.466H708.948v-3.365H565.781l31.384-50.072v1.595H715.614V615.111h3.365V339.4Zm-179.2-48.6H715.614v45.237H627.789Zm114.712,98.073H598.275L629,339.852l.286-.456h86.331Z" transform="translate(0 0)" fill="#696969"/>
        <rect id="Rect치ngulo_339319" data-name="Rect치ngulo 339319" width="127.234" height="3.365" transform="translate(385.316 287.429)" fill="#696969"/>
        <path id="Trazado_697449" data-name="Trazado 697449" d="M465.56,120.118H418.206A14.206,14.206,0,0,1,404,105.911v-5.483a14.206,14.206,0,0,1,14.207-14.206H465.56a14.206,14.206,0,0,1,14.207,14.206v5.483a14.206,14.206,0,0,1-14.207,14.207" transform="translate(49.108 10.481)" fill="#68006a"/>
        <path id="Trazado_697450" data-name="Trazado 697450" d="M278.893,120.118H231.539a14.206,14.206,0,0,1-14.207-14.207v-5.483a14.206,14.206,0,0,1,14.207-14.206h47.354A14.206,14.206,0,0,1,293.1,100.428v5.483a14.206,14.206,0,0,1-14.207,14.207" transform="translate(26.418 10.481)" fill="#900095"/>
        <path id="Trazado_697451" data-name="Trazado 697451" d="M92.227,120.118H44.873a14.206,14.206,0,0,1-14.207-14.207v-5.483A14.206,14.206,0,0,1,44.873,86.222H92.227a14.206,14.206,0,0,1,14.207,14.206v5.483a14.206,14.206,0,0,1-14.207,14.207" transform="translate(3.728 10.481)" fill="#68006a"/>
        <path id="Trazado_697452" data-name="Trazado 697452" d="M464.671,521.9H417.317a14.206,14.206,0,0,1-14.207-14.207v-5.483A14.206,14.206,0,0,1,417.317,488h47.354a14.206,14.206,0,0,1,14.207,14.206v5.483A14.206,14.206,0,0,1,464.671,521.9" transform="translate(49 59.319)" fill="#68006a"/>
        <path id="Trazado_697453" data-name="Trazado 697453" d="M277.116,521.9H229.762a14.206,14.206,0,0,1-14.207-14.207v-5.483A14.206,14.206,0,0,1,229.762,488h47.354a14.206,14.206,0,0,1,14.207,14.206v5.483A14.206,14.206,0,0,1,277.116,521.9" transform="translate(26.202 59.319)" fill="#900095"/>
        <path id="Trazado_697454" data-name="Trazado 697454" d="M90.449,521.9H43.095a14.206,14.206,0,0,1-14.207-14.207v-5.483A14.206,14.206,0,0,1,43.095,488H90.449a14.206,14.206,0,0,1,14.207,14.206v5.483A14.206,14.206,0,0,1,90.449,521.9" transform="translate(3.512 59.319)" fill="#68006a"/>
        <path id="Trazado_697447" data-name="Trazado 697447" d="M808.658,345.316H694.011a14.456,14.456,0,0,1-14.456-14.456V282.011a14.455,14.455,0,0,1,14.456-14.456H808.658a14.456,14.456,0,0,1,14.456,14.456V330.86a14.456,14.456,0,0,1-14.456,14.456" transform="translate(82.604 32.523)" fill="#ffce30"/>
        <path id="Trazado_699056" data-name="Trazado 699056" d="M4.936,14.176V19H1.508V4.781H7.182a6.608,6.608,0,0,1,2.886.6,4.526,4.526,0,0,1,1.943,1.709A4.667,4.667,0,0,1,12.7,9.605a4.114,4.114,0,0,1-1.489,3.325,6.179,6.179,0,0,1-4.087,1.245Zm0-2.646H7.182a2.118,2.118,0,0,0,1.519-.5,1.85,1.85,0,0,0,.522-1.406,2.287,2.287,0,0,0-.537-1.592,1.9,1.9,0,0,0-1.465-.605H4.936Zm14.873,2.441H17.953V19H14.525V4.781h5.6A6.246,6.246,0,0,1,24.076,5.9,3.8,3.8,0,0,1,25.5,9.074a4.616,4.616,0,0,1-.6,2.458,4.263,4.263,0,0,1-1.88,1.58l2.969,5.741V19H22.318Zm-1.855-2.637h2.168a1.946,1.946,0,0,0,1.47-.514,1.987,1.987,0,0,0,.493-1.434,2.01,2.01,0,0,0-.5-1.444,1.928,1.928,0,0,0-1.465-.524H17.953Zm21.66.85a8.385,8.385,0,0,1-.771,3.682,5.7,5.7,0,0,1-2.192,2.466,6.1,6.1,0,0,1-3.237.864,6.191,6.191,0,0,1-3.223-.835A5.692,5.692,0,0,1,28,15.973a8.144,8.144,0,0,1-.825-3.564v-.8a8.422,8.422,0,0,1,.767-3.687,5.688,5.688,0,0,1,2.2-2.466,6.5,6.5,0,0,1,6.479-.01,5.79,5.79,0,0,1,2.2,2.446,8.18,8.18,0,0,1,.8,3.638Zm-3.486-.6a5.979,5.979,0,0,0-.708-3.218,2.271,2.271,0,0,0-2.026-1.1q-2.578,0-2.725,3.867l-.01,1.045a6.149,6.149,0,0,0,.693,3.213,2.268,2.268,0,0,0,2.061,1.123,2.24,2.24,0,0,0,2-1.1,5.982,5.982,0,0,0,.713-3.174ZM41.381,19V4.781h5.107a7.232,7.232,0,0,1,4.175,1.006,3.347,3.347,0,0,1,1.431,2.92,3.383,3.383,0,0,1-.508,1.885,2.959,2.959,0,0,1-1.494,1.152A3,3,0,0,1,51.8,12.838a3.18,3.18,0,0,1,.6,1.953,3.765,3.765,0,0,1-1.323,3.14A6.3,6.3,0,0,1,47.152,19Zm3.428-6.045v3.408h2.246a2.136,2.136,0,0,0,1.426-.425,1.487,1.487,0,0,0,.5-1.2,1.576,1.576,0,0,0-1.768-1.787Zm0-2.246H46.6a2.539,2.539,0,0,0,1.6-.411,1.46,1.46,0,0,0,.479-1.185,1.533,1.533,0,0,0-.518-1.3,2.77,2.77,0,0,0-1.67-.4h-1.68Zm12.9,5.654h5.967V19H54.281V4.781h3.428Zm16.23-3.4H68.549v3.4h6.367V19H65.121V4.781h9.814V7.428H68.549v3h5.391Zm6.875-8.184,3.174,9.893,3.164-9.893h4.512V19H88.227V15.68l.332-6.8L85.121,19H82.855L79.408,8.873l.332,6.807V19H76.313V4.781Zm21.279,11.563H97.4L96.576,19H92.914L98.129,4.781h3.223L106.605,19h-3.682ZM98.217,13.7h3.057L99.74,8.766Z" transform="translate(780.718 326.667)" fill="#12263f"/>
      </g>
    </g>
    <path id="Trazado_699054" data-name="Trazado 699054" d="M30.484,17.223a6.231,6.231,0,0,1-.961,3.146,5.8,5.8,0,0,1-2.467,2.115,8.4,8.4,0,0,1-3.627.75,6.7,6.7,0,0,1-5.3-2.191A9.048,9.048,0,0,1,16.2,14.855v-.844a10.328,10.328,0,0,1,.873-4.389,6.615,6.615,0,0,1,2.514-2.906,7.013,7.013,0,0,1,3.8-1.025,7.354,7.354,0,0,1,4.992,1.635,6.459,6.459,0,0,1,2.145,4.506h-4.1a3.056,3.056,0,0,0-.785-2.238,3.229,3.229,0,0,0-2.25-.68,2.457,2.457,0,0,0-2.25,1.148,7.381,7.381,0,0,0-.75,3.668v1.207a8.167,8.167,0,0,0,.686,3.9,2.509,2.509,0,0,0,2.361,1.172,3.159,3.159,0,0,0,2.168-.668,2.835,2.835,0,0,0,.8-2.121Zm11.637,2.59H36.484L35.5,23H31.105L37.363,5.938H41.23L47.535,23H43.117Zm-4.652-3.176h3.668L39.3,10.719Zm24.492-10.7V17.105a6.419,6.419,0,0,1-.809,3.287,5.238,5.238,0,0,1-2.32,2.115,8.174,8.174,0,0,1-3.574.727,7.062,7.062,0,0,1-4.91-1.617,5.768,5.768,0,0,1-1.828-4.43V5.938h4.137V17.27q.07,2.8,2.6,2.8a2.518,2.518,0,0,0,1.934-.7,3.286,3.286,0,0,0,.656-2.285V5.938ZM73.328,18.465a1.69,1.69,0,0,0-.639-1.406,7.938,7.938,0,0,0-2.244-1.043,21.53,21.53,0,0,1-2.625-1.043Q64.5,13.344,64.5,10.5a4.014,4.014,0,0,1,.826-2.5,5.344,5.344,0,0,1,2.338-1.687,9.1,9.1,0,0,1,3.4-.6,7.958,7.958,0,0,1,3.3.656,5.223,5.223,0,0,1,2.268,1.869A4.881,4.881,0,0,1,77.441,11h-4.1A2.063,2.063,0,0,0,72.7,9.383a2.489,2.489,0,0,0-1.729-.574,2.807,2.807,0,0,0-1.74.486,1.432,1.432,0,0,0,.064,2.426,8.867,8.867,0,0,0,2.473,1.1,15.147,15.147,0,0,1,2.906,1.225,4.884,4.884,0,0,1,2.766,4.395,4.166,4.166,0,0,1-1.687,3.516,7.506,7.506,0,0,1-4.629,1.277,9.184,9.184,0,0,1-3.756-.744,5.663,5.663,0,0,1-2.531-2.039,5.313,5.313,0,0,1-.85-2.982h4.125a2.617,2.617,0,0,0,.709,2.021,3.351,3.351,0,0,0,2.3.65,2.647,2.647,0,0,0,1.611-.439A1.45,1.45,0,0,0,73.328,18.465Zm15.914,1.348H83.605L82.621,23H78.227L84.484,5.938h3.867L94.656,23H90.238ZM84.59,16.637h3.668l-1.84-5.918Z" transform="translate(455 4394)" fill="#12263f"/>
    <path id="Trazado_699055" data-name="Trazado 699055" d="M59.988,15.758H53.52v4.078H61.16V23H49.406V5.938H61.184V9.113H53.52v3.6h6.469Zm13.594.445H66.949V23H62.836V5.938H74.25V9.113h-7.3v3.926h6.633Zm12.961-.445H80.074v4.078h7.641V23H75.961V5.938H87.738V9.113H80.074v3.6h6.469ZM103.2,17.223a6.231,6.231,0,0,1-.961,3.146,5.8,5.8,0,0,1-2.467,2.115,8.4,8.4,0,0,1-3.627.75,6.7,6.7,0,0,1-5.3-2.191,9.048,9.048,0,0,1-1.934-6.187v-.844a10.328,10.328,0,0,1,.873-4.389A6.615,6.615,0,0,1,92.3,6.717a7.013,7.013,0,0,1,3.8-1.025,7.354,7.354,0,0,1,4.992,1.635,6.459,6.459,0,0,1,2.145,4.506h-4.1a3.056,3.056,0,0,0-.785-2.238,3.229,3.229,0,0,0-2.25-.68,2.457,2.457,0,0,0-2.25,1.148,7.381,7.381,0,0,0-.75,3.668v1.207a8.167,8.167,0,0,0,.686,3.9,2.509,2.509,0,0,0,2.361,1.172,3.159,3.159,0,0,0,2.168-.668,2.835,2.835,0,0,0,.8-2.121Zm15-8.109h-5.121V23h-4.113V9.113h-5.027V5.938H118.2Zm15.855,5.707a10.062,10.062,0,0,1-.926,4.418,6.842,6.842,0,0,1-2.631,2.959,7.326,7.326,0,0,1-3.885,1.037,7.429,7.429,0,0,1-3.867-1,6.831,6.831,0,0,1-2.631-2.865,9.772,9.772,0,0,1-.99-4.277v-.961a10.106,10.106,0,0,1,.92-4.424,6.825,6.825,0,0,1,2.637-2.959,7.805,7.805,0,0,1,7.775-.012A6.948,6.948,0,0,1,133.1,9.67a9.816,9.816,0,0,1,.955,4.365Zm-4.184-.715a7.175,7.175,0,0,0-.85-3.861,2.725,2.725,0,0,0-2.432-1.318q-3.094,0-3.27,4.641L123.3,14.82a7.379,7.379,0,0,0,.832,3.855,2.721,2.721,0,0,0,2.473,1.348,2.688,2.688,0,0,0,2.4-1.324,7.178,7.178,0,0,0,.855-3.809Z" transform="translate(975 4394)" fill="#12263f"/>
  </g>
</svg>
