<svg id="Grupo_972956" data-name="Grupo 972956" xmlns="http://www.w3.org/2000/svg" xmlns:xlink="http://www.w3.org/1999/xlink" width="173.64" height="173.64" viewBox="0 0 173.64 173.64">
  <defs>
    <clipPath id="clip-path">
      <rect id="Rectángulo_339297" data-name="Rectángulo 339297" width="173.64" height="173.64" fill="none"/>
    </clipPath>
  </defs>
  <g id="Grupo_972955" data-name="Grupo 972955" clip-path="url(#clip-path)">
    <path id="Trazado_697328" data-name="Trazado 697328" d="M173.64,86.82A86.82,86.82,0,1,1,86.82,0a86.82,86.82,0,0,1,86.82,86.82" fill="#8a008d"/>
    <path id="Trazado_697331" data-name="Trazado 697331" d="M0,0H46.077V60.61H0Z" transform="translate(57.29 40.576)" fill="#00cca7"/>
    <rect id="Rectángulo_339295" data-name="Rectángulo 339295" width="48.486" height="35.906" transform="translate(56.687 98.709)" fill="#ffce30"/>
    <rect id="Rectángulo_339296" data-name="Rectángulo 339296" width="32.123" height="2.033" transform="translate(64.718 99.367)" fill="#161615"/>
    <path id="Trazado_697329" data-name="Trazado 697329" d="M116.6,161.7h1.151v-3.626h4.067v-.918h-4.067v-3.594H116.6v3.594h-4.065v.918H116.6Z" transform="translate(-50.596 -69.038)" fill="#161615"/>
    <path id="Trazado_697330" data-name="Trazado 697330" d="M201.58,163.731l-75.619-.386.269-16.532,21.906.192h.024a2.711,2.711,0,0,0,2.711-2.71V47.523a2.711,2.711,0,0,0-2.711-2.711H135.736V38.288a2.033,2.033,0,0,0-2.033-2.033h-6.926V20.921h74.887a2.711,2.711,0,0,0,0-5.421h-77.6a2.711,2.711,0,0,0-2.71,2.711V36.254h-6.525a2.033,2.033,0,0,0-2.033,2.033v6.525H100.777a2.71,2.71,0,0,0-2.71,2.733l.8,96.365a2.711,2.711,0,0,0,2.687,2.688l18.575.162-.319,19.569a3.051,3.051,0,0,0,3.033,3.1l78.7.4h.016a3.049,3.049,0,0,0,.015-6.1M131.671,44.812h-4.894V40.32h4.894ZM116.863,40.32h4.492v4.492h-4.492ZM104.268,141.2l-.758-90.967h17.846v2.912a2.71,2.71,0,0,0,2.694,2.709l-1,1.311,5.668,4.334-11.993,7.6,12.064,10.054-12.967,8.51L128.5,96.373l-5.488,2.744.446,6.7,2.028-.135-.356-5.348,7.361-3.681L119.464,87.7,132.2,79.342,120.167,69.318l12.1-7.662L124.611,55.8a2.711,2.711,0,0,0,2.166-2.655V50.233h18.672V141.56l-19.131-.167.384-23.584,5.75.133h.048a2.033,2.033,0,0,0,.046-4.065l-17.266-.4a2.007,2.007,0,0,0-2.079,1.985,2.032,2.032,0,0,0,1.985,2.079l5.419.125-.385,23.673Z" transform="translate(-44.09 -6.969)" fill="#161615"/>
  </g>
</svg>
