<svg xmlns="http://www.w3.org/2000/svg" width="85" height="71" viewBox="0 0 85 71">
  <g id="Grupo_901995" data-name="Grupo 901995" transform="translate(-180 -1905)">
    <rect id="Rectángulo_336752" data-name="Rectángulo 336752" width="85" height="71" rx="8" transform="translate(180 1905)" fill="#fbe594"/>
    <g id="energy-system" transform="translate(197 1915)">
      <g id="Grupo_54894" data-name="Grupo 54894" transform="translate(0.748 0.748)">
        <path id="Trazado_103295" data-name="Trazado 103295" d="M108.19,106h26.927a1.5,1.5,0,0,1,1.5,1.5v26.927c0,.826-.917,1.339-1.743,1.339h-26.56a1.5,1.5,0,0,1-1.5-1.5l-.044-26.669A1.523,1.523,0,0,1,108.19,106Z" transform="translate(-96.871 -96.176)" fill="#00cca7"/>
        <path id="Trazado_103296" data-name="Trazado 103296" d="M135.919,134.423a1.5,1.5,0,0,1-1.5,1.5H107.5a1.5,1.5,0,0,1-1.5-1.5V107.5a1.5,1.5,0,0,1,1.5-1.5v27.825a.6.6,0,0,0,.6.6Z" transform="translate(-96.176 -96.176)" fill="#00b090"/>
        <path id="Trazado_103297" data-name="Trazado 103297" d="M138,159.537V136.4a.2.2,0,0,1,.2-.2l1.1-.2h22.24a.2.2,0,0,1,.2.2v22.24l-.2,1.1a.2.2,0,0,1-.2.2H138.2A.2.2,0,0,1,138,159.537Z" transform="translate(-124.985 -123.185)" fill="#f8f7f7"/>
        <g id="Grupo_54880" data-name="Grupo 54880" transform="translate(18.705 15.558)">
          <path id="Trazado_103298" data-name="Trazado 103298" d="M195.831,174.083a.8.8,0,0,0,.519,1.308h4.326a.189.189,0,0,1,.154.079c.037.051.211.1.183.162l-2.387,5.424a1.252,1.252,0,0,0,2.11,1.341l6.855-9.134a.794.794,0,0,0-.635-1.27h-4.288a.19.19,0,0,1-.175-.266l2.352-5.441a1.3,1.3,0,0,0-.488-1.612,1.213,1.213,0,0,0-.7-.1,1.3,1.3,0,0,0-1.042.521Z" transform="translate(-195.594 -164.468)" fill="#ffd947"/>
          <g id="Grupo_54879" data-name="Grupo 54879">
            <path id="Trazado_103299" data-name="Trazado 103299" d="M227.074,273.3l-3.138,7.178a1.3,1.3,0,0,1-.737-1.738l2.353-5.441a.191.191,0,0,0-.175-.266H226.9A.191.191,0,0,1,227.074,273.3Z" transform="translate(-220.295 -262.108)" fill="#e0bf3e"/>
            <path id="Trazado_103300" data-name="Trazado 103300" d="M203.815,163.707l-8.008,10.715a.793.793,0,0,1-.6-1.269l6.854-9.134a1.3,1.3,0,0,1,1.042-.52A1.289,1.289,0,0,1,203.815,163.707Z" transform="translate(-195.05 -163.5)" fill="#e0bf3e"/>
          </g>
        </g>
        <path id="Trazado_103301" data-name="Trazado 103301" d="M159.936,158.44v1.3a.2.2,0,0,1-.2.2H136.2a.2.2,0,0,1-.2-.2V136.2a.2.2,0,0,1,.2-.2h1.3v22.14a.3.3,0,0,0,.3.3Z" transform="translate(-123.185 -123.185)" fill="#e8e8e8"/>
        <g id="Grupo_54893" data-name="Grupo 54893">
          <g id="Grupo_54881" data-name="Grupo 54881" transform="translate(33.41)">
            <path id="Trazado_103302" data-name="Trazado 103302" d="M347.255,9.495a2,2,0,0,0-2.674-1.876,1.922,1.922,0,0,0-1.231,1.875,1.848,1.848,0,0,0,1.96,1.852,1.81,1.81,0,0,0,1.813-1.138A1.989,1.989,0,0,0,347.255,9.495Z" transform="translate(-343.266 -7.5)" fill="#ffd947"/>
            <path id="Trazado_103303" data-name="Trazado 103303" d="M346.371,11.245a1.995,1.995,0,1,1-2.555-2.555,2,2,0,0,0,2.555,2.555Z" transform="translate(-342.5 -8.571)" fill="#ffd947"/>
          </g>
          <g id="Grupo_54882" data-name="Grupo 54882" transform="translate(12.267)">
            <path id="Trazado_103304" data-name="Trazado 103304" d="M135.255,9.495a2,2,0,0,0-2.674-1.876,1.922,1.922,0,0,0-1.231,1.875,1.848,1.848,0,0,0,1.96,1.852,1.81,1.81,0,0,0,1.813-1.138A1.99,1.99,0,0,0,135.255,9.495Z" transform="translate(-131.266 -7.5)" fill="#ffd947"/>
            <path id="Trazado_103305" data-name="Trazado 103305" d="M134.371,11.245a1.995,1.995,0,1,1-2.555-2.555,2,2,0,0,0,2.555,2.555Z" transform="translate(-130.5 -8.571)" fill="#ffd947"/>
          </g>
          <g id="Grupo_54883" data-name="Grupo 54883" transform="translate(0 12.169)">
            <path id="Trazado_103306" data-name="Trazado 103306" d="M12.255,131.512a2,2,0,0,0-2.674-1.876,1.922,1.922,0,0,0-1.231,1.875,1.848,1.848,0,0,0,1.96,1.852,1.81,1.81,0,0,0,1.813-1.138A1.989,1.989,0,0,0,12.255,131.512Z" transform="translate(-8.266 -129.517)" fill="#ffd947"/>
            <path id="Trazado_103307" data-name="Trazado 103307" d="M11.371,133.262a1.995,1.995,0,1,1-2.555-2.555,2,2,0,0,0,2.555,2.555Z" transform="translate(-7.5 -130.588)" fill="#ffd947"/>
          </g>
          <g id="Grupo_54884" data-name="Grupo 54884" transform="translate(0 22.789)">
            <path id="Trazado_103308" data-name="Trazado 103308" d="M12.255,237.995a2,2,0,0,0-2.674-1.876,1.922,1.922,0,0,0-1.231,1.875,1.848,1.848,0,0,0,1.96,1.852,1.81,1.81,0,0,0,1.813-1.138A1.989,1.989,0,0,0,12.255,237.995Z" transform="translate(-8.266 -236)" fill="#ffd947"/>
            <path id="Trazado_103309" data-name="Trazado 103309" d="M11.371,239.745a1.995,1.995,0,1,1-2.555-2.555,2,2,0,0,0,2.555,2.555Z" transform="translate(-7.5 -237.071)" fill="#ffd947"/>
          </g>
          <g id="Grupo_54885" data-name="Grupo 54885" transform="translate(0 33.508)">
            <path id="Trazado_103310" data-name="Trazado 103310" d="M12.255,345.478A2,2,0,0,0,9.582,343.6a1.922,1.922,0,0,0-1.231,1.875,1.848,1.848,0,0,0,1.96,1.852,1.81,1.81,0,0,0,1.813-1.138A1.989,1.989,0,0,0,12.255,345.478Z" transform="translate(-8.266 -343.483)" fill="#ffd947"/>
            <path id="Trazado_103311" data-name="Trazado 103311" d="M11.371,347.228a1.995,1.995,0,1,1-2.555-2.555,2,2,0,0,0,2.555,2.555Z" transform="translate(-7.5 -344.554)" fill="#ffd947"/>
          </g>
          <g id="Grupo_54886" data-name="Grupo 54886" transform="translate(45.577 12.169)">
            <path id="Trazado_103312" data-name="Trazado 103312" d="M469.255,131.512a2,2,0,0,0-2.674-1.876,1.922,1.922,0,0,0-1.231,1.875,1.848,1.848,0,0,0,1.96,1.852,1.81,1.81,0,0,0,1.813-1.138A1.99,1.99,0,0,0,469.255,131.512Z" transform="translate(-465.266 -129.517)" fill="#ffd947"/>
            <path id="Trazado_103313" data-name="Trazado 103313" d="M468.371,133.262a1.995,1.995,0,1,1-2.555-2.555,2,2,0,0,0,2.555,2.555Z" transform="translate(-464.5 -130.588)" fill="#ffd947"/>
          </g>
          <g id="Grupo_54887" data-name="Grupo 54887" transform="translate(45.577 22.789)">
            <path id="Trazado_103314" data-name="Trazado 103314" d="M469.255,237.995a2,2,0,0,0-2.674-1.876,1.922,1.922,0,0,0-1.231,1.875,1.848,1.848,0,0,0,1.96,1.852,1.81,1.81,0,0,0,1.813-1.138A1.99,1.99,0,0,0,469.255,237.995Z" transform="translate(-465.266 -236)" fill="#ffd947"/>
            <path id="Trazado_103315" data-name="Trazado 103315" d="M468.371,239.745a1.995,1.995,0,1,1-2.555-2.555,2,2,0,0,0,2.555,2.555Z" transform="translate(-464.5 -237.071)" fill="#ffd947"/>
          </g>
          <g id="Grupo_54888" data-name="Grupo 54888" transform="translate(45.577 33.508)">
            <path id="Trazado_103316" data-name="Trazado 103316" d="M469.255,345.478a2,2,0,0,0-2.674-1.876,1.922,1.922,0,0,0-1.231,1.875,1.848,1.848,0,0,0,1.96,1.852,1.81,1.81,0,0,0,1.813-1.138A1.99,1.99,0,0,0,469.255,345.478Z" transform="translate(-465.266 -343.483)" fill="#ffd947"/>
            <path id="Trazado_103317" data-name="Trazado 103317" d="M468.371,347.228a1.995,1.995,0,1,1-2.555-2.555,2,2,0,0,0,2.555,2.555Z" transform="translate(-464.5 -344.554)" fill="#ffd947"/>
          </g>
          <g id="Grupo_54889" data-name="Grupo 54889" transform="translate(22.789)">
            <path id="Trazado_103318" data-name="Trazado 103318" d="M240.755,9.495a2,2,0,0,0-2.674-1.876,1.922,1.922,0,0,0-1.231,1.875,1.848,1.848,0,0,0,1.96,1.852,1.81,1.81,0,0,0,1.813-1.138A1.989,1.989,0,0,0,240.755,9.495Z" transform="translate(-236.766 -7.5)" fill="#ffd947"/>
            <path id="Trazado_103319" data-name="Trazado 103319" d="M239.871,11.245a1.995,1.995,0,1,1-2.555-2.555,2,2,0,0,0,2.555,2.555Z" transform="translate(-236 -8.571)" fill="#ffd947"/>
          </g>
          <g id="Grupo_54890" data-name="Grupo 54890" transform="translate(33.41 45.582)">
            <path id="Trazado_103320" data-name="Trazado 103320" d="M347.255,466.538a2,2,0,0,0-2.674-1.876,1.922,1.922,0,0,0-1.231,1.875,1.848,1.848,0,0,0,1.96,1.852,1.81,1.81,0,0,0,1.813-1.138,1.989,1.989,0,0,0,.131-.713Z" transform="translate(-343.266 -464.543)" fill="#ffd947"/>
            <path id="Trazado_103321" data-name="Trazado 103321" d="M346.371,468.288a1.995,1.995,0,1,1-2.555-2.555,2,2,0,0,0,2.555,2.555Z" transform="translate(-342.5 -465.614)" fill="#ffd947"/>
          </g>
          <g id="Grupo_54891" data-name="Grupo 54891" transform="translate(12.267 45.582)">
            <path id="Trazado_103322" data-name="Trazado 103322" d="M135.255,466.538a2,2,0,0,0-2.674-1.876,1.922,1.922,0,0,0-1.231,1.875,1.848,1.848,0,0,0,1.96,1.852,1.81,1.81,0,0,0,1.813-1.138,1.99,1.99,0,0,0,.131-.713Z" transform="translate(-131.266 -464.543)" fill="#ffd947"/>
            <path id="Trazado_103323" data-name="Trazado 103323" d="M134.371,468.288a1.995,1.995,0,1,1-2.555-2.555,2,2,0,0,0,2.555,2.555Z" transform="translate(-130.5 -465.614)" fill="#ffd947"/>
          </g>
          <g id="Grupo_54892" data-name="Grupo 54892" transform="translate(22.789 45.582)">
            <path id="Trazado_103324" data-name="Trazado 103324" d="M240.755,466.538a2,2,0,0,0-2.674-1.876,1.922,1.922,0,0,0-1.231,1.875,1.848,1.848,0,0,0,1.96,1.852,1.81,1.81,0,0,0,1.813-1.138,1.99,1.99,0,0,0,.131-.713Z" transform="translate(-236.766 -464.543)" fill="#ffd947"/>
            <path id="Trazado_103325" data-name="Trazado 103325" d="M239.871,468.288a1.995,1.995,0,1,1-2.555-2.555,2,2,0,0,0,2.555,2.555Z" transform="translate(-236 -465.614)" fill="#ffd947"/>
          </g>
        </g>
      </g>
      <g id="Grupo_54895" data-name="Grupo 54895" transform="translate(0 0)">
        <path id="Trazado_103326" data-name="Trazado 103326" d="M138.024,128.5h-8.776a.748.748,0,0,0-.748.748v23.936a.748.748,0,0,0,.748.748h23.936a.748.748,0,0,0,.748-.748V140.019a.748.748,0,0,0-1.5,0v12.417H130V130h8.028a.748.748,0,1,0,0-1.5Z" transform="translate(-115.685 -115.685)"/>
        <path id="Trazado_103327" data-name="Trazado 103327" d="M264.367,137.276a.748.748,0,0,0,.748-.748v-7.28a.748.748,0,0,0-.748-.748H252.748a.748.748,0,1,0,0,1.5h10.871v6.532A.748.748,0,0,0,264.367,137.276Z" transform="translate(-226.868 -115.685)"/>
        <path id="Trazado_103328" data-name="Trazado 103328" d="M187.715,167.568a1.533,1.533,0,0,0,1.379.852h3.439l-2.016,4.662a2.05,2.05,0,0,0,3.522,2.044l1.319-1.757a.748.748,0,0,0-1.2-.9l-1.319,1.757a.557.557,0,0,1-.443.222.555.555,0,0,1-.509-.775l2.467-5.707a.748.748,0,0,0-.687-1.045h-4.577a.045.045,0,0,1-.036-.073l6.854-9.134a.557.557,0,0,1,.443-.222.554.554,0,0,1,.509.775l-2.467,5.707a.748.748,0,0,0,.687,1.045h4.577a.045.045,0,0,1,.036.073l-3.44,4.584a.748.748,0,1,0,1.2.9l3.44-4.584a1.542,1.542,0,0,0-1.233-2.467h-3.439l2.016-4.662a2.05,2.05,0,0,0-3.522-2.044l-6.854,9.134A1.533,1.533,0,0,0,187.715,167.568Z" transform="translate(-168.847 -140.442)"/>
        <path id="Trazado_103329" data-name="Trazado 103329" d="M48.285,33.508A2.747,2.747,0,0,0,45.647,35.5H43.911a.248.248,0,0,1-.176-.073l-2.5-2.5V26.279h4.443a2.743,2.743,0,1,0,0-1.5H41.239V18.229l2.5-2.5a.247.247,0,0,1,.176-.073h1.736a2.743,2.743,0,1,0,0-1.5H43.912a1.733,1.733,0,0,0-1.234.511l-1.439,1.438V12.068a2.247,2.247,0,0,0-2.244-2.244H34.917L36.39,8.351A1.734,1.734,0,0,0,36.9,7.117V5.381a2.743,2.743,0,1,0-1.5,0V7.117a.251.251,0,0,1-.073.176c-.035.038-2.485,2.48-2.528,2.531H26.329V5.367a2.743,2.743,0,1,0-1.5.028V9.824H18.358c-.033-.042-2.5-2.5-2.528-2.531a.251.251,0,0,1-.073-.176V5.381a2.743,2.743,0,1,0-1.5,0V7.117a1.734,1.734,0,0,0,.511,1.234l1.473,1.473H12.068a2.247,2.247,0,0,0-2.244,2.244v4.08L8.351,14.675a1.733,1.733,0,0,0-1.234-.511H5.381a2.743,2.743,0,1,0,0,1.5H7.117a.248.248,0,0,1,.176.073c.038.035,2.48,2.485,2.531,2.528v1.686a.748.748,0,1,0,1.5,0V12.068a.749.749,0,0,1,.748-.748H39a.749.749,0,0,1,.748.748V38.995a.749.749,0,0,1-.748.748H12.068a.749.749,0,0,1-.748-.748V23.437a.748.748,0,1,0-1.5,0v1.346H5.381a2.743,2.743,0,1,0,0,1.5H9.824V32.9c-.041.033-2.5,2.5-2.531,2.528a.247.247,0,0,1-.176.073H5.381a2.743,2.743,0,1,0,0,1.5H7.117a1.733,1.733,0,0,0,1.234-.511l1.473-1.473v3.98a2.247,2.247,0,0,0,2.244,2.244h4.178l-1.473,1.473a1.734,1.734,0,0,0-.511,1.234v1.736a2.743,2.743,0,1,0,1.5,0V43.946a.251.251,0,0,1,.073-.176c.035-.038,2.485-2.48,2.528-2.531h6.475v4.429a2.743,2.743,0,1,0,1.5.028V41.239H32.8c.033.042,2.5,2.5,2.528,2.531a.251.251,0,0,1,.073.176v1.736a2.743,2.743,0,1,0,1.5,0V43.946a1.734,1.734,0,0,0-.511-1.234l-1.473-1.473h4.078a2.247,2.247,0,0,0,2.244-2.244V35.049l1.438,1.438A1.733,1.733,0,0,0,43.912,37h1.736a2.742,2.742,0,1,0,2.638-3.491Zm.034-9.223a1.247,1.247,0,1,1-1.247,1.247A1.248,1.248,0,0,1,48.32,24.285Zm-.034-10.62a1.247,1.247,0,1,1-1.247,1.247A1.248,1.248,0,0,1,48.285,13.665ZM34.906,2.743a1.247,1.247,0,1,1,1.247,1.247A1.248,1.248,0,0,1,34.906,2.743Zm-10.621,0a1.247,1.247,0,1,1,1.247,1.247A1.248,1.248,0,0,1,24.285,2.743Zm-10.522,0A1.247,1.247,0,1,1,15.01,3.989,1.248,1.248,0,0,1,13.763,2.743ZM2.743,16.158a1.247,1.247,0,1,1,1.247-1.247A1.248,1.248,0,0,1,2.743,16.158Zm0,10.62a1.247,1.247,0,1,1,1.247-1.247A1.248,1.248,0,0,1,2.743,26.778Zm0,10.719a1.247,1.247,0,1,1,1.247-1.247A1.248,1.248,0,0,1,2.743,37.5ZM16.256,48.32a1.247,1.247,0,1,1-1.247-1.247A1.248,1.248,0,0,1,16.256,48.32Zm10.522,0a1.247,1.247,0,1,1-1.247-1.247A1.248,1.248,0,0,1,26.778,48.32Zm10.621,0a1.247,1.247,0,1,1-1.247-1.247A1.248,1.248,0,0,1,37.4,48.32ZM48.285,37.5a1.247,1.247,0,1,1,1.247-1.247A1.248,1.248,0,0,1,48.285,37.5Z" transform="translate(0 0)"/>
      </g>
    </g>
  </g>
</svg>
