<svg xmlns="http://www.w3.org/2000/svg" xmlns:xlink="http://www.w3.org/1999/xlink" width="106" height="106" viewBox="0 0 106 106">
  <defs>
    <clipPath id="clip-path">
      <rect id="Rectángulo_339717" data-name="Rectángulo 339717" width="68.492" height="91.43" fill="#12263f" stroke="#12263f" stroke-width="1"/>
    </clipPath>
  </defs>
  <g id="Grupo_973508" data-name="Grupo 973508" transform="translate(-637 -1129)">
    <circle id="Elipse_5580" data-name="Elipse 5580" cx="53" cy="53" r="53" transform="translate(637 1129)" fill="#c4a424"/>
    <circle id="Elipse_1146" data-name="Elipse 1146" cx="50.5" cy="50.5" r="50.5" transform="translate(637 1129)" fill="#ffd947"/>
    <g id="Grupo_973348" data-name="Grupo 973348" transform="translate(651.112 1132.81)">
      <g id="Grupo_973347" data-name="Grupo 973347" clip-path="url(#clip-path)">
        <path id="Trazado_698424" data-name="Trazado 698424" d="M103.339,98.186c-.2.8-.687.974-1.474,1.053-.539.054-.968-.347-1.251-1.072-.1-2.116-.083-4.231-.007-6.347a1.231,1.231,0,0,1,.795-.957,1.636,1.636,0,0,1,1.243.019,1.208,1.208,0,0,1,.682.8c.1,2.168.079,4.337.012,6.5" transform="translate(-72.031 -65.013)" fill="#12263f" stroke="#12263f" stroke-width="1"/>
        <path id="Trazado_698425" data-name="Trazado 698425" d="M129.873,98.186c-.2.8-.687.974-1.474,1.053-.539.054-.968-.347-1.251-1.072-.1-2.116-.083-4.231-.007-6.347a1.231,1.231,0,0,1,.795-.957,1.637,1.637,0,0,1,1.243.019,1.208,1.208,0,0,1,.682.8c.1,2.168.079,4.337.012,6.5" transform="translate(-91.04 -65.013)" fill="#12263f" stroke="#12263f" stroke-width="1"/>
        <path id="Trazado_698426" data-name="Trazado 698426" d="M156.407,98.186c-.2.8-.687.974-1.474,1.053-.539.054-.968-.347-1.251-1.072-.1-2.116-.083-4.231-.007-6.347a1.231,1.231,0,0,1,.795-.957,1.637,1.637,0,0,1,1.243.019,1.208,1.208,0,0,1,.682.8c.1,2.168.079,4.337.012,6.5" transform="translate(-110.049 -65.013)" fill="#12263f" stroke="#12263f" stroke-width="1"/>
        <path id="Trazado_698427" data-name="Trazado 698427" d="M66.335,21.556c-1.071.416-.6,1.724-.789,2.589-.127.12-5.92.022-6.073-.033a2.751,2.751,0,0,0-2.624-1.272c-9.219.032-4.777.457-7.625-2.6-.449-.482-1.952-.519-1.952-.519a11.412,11.412,0,0,0-.431-2.882c-.626-2.307-3.264-2.537-5.29-2.611,0,0-.018-4.06-.121-5.8.176-.573,4.077.18,4.167-4.557.013-.676-.15-3.688-4.6-3.87H33.31C29.5.212,28.717,2.476,28.717,3.99,28.717,8.666,33.3,8,33.3,8.427c.017,1.636.088,4.121.03,5.756,0,0-7.315-.36-6.289,5.619,0,0-3.574-.163-3.982,2.961a.57.57,0,0,1-.224.12c-4.765.163-9.6-.227-14.332.153A9.684,9.684,0,0,0,.053,31.4C-.02,38.786.057,46.215,0,53.618a6.663,6.663,0,0,0,1.107,4.165c1.611,1.965,9.832,2.839,10.372-3.159q-.015-6.418,0-12.838c.139-2.461-.058-7.516-.058-7.516,2.357-.086,4.478-.029,6.835-.03.906.127,1.952-.4,1.829-1.349a1.6,1.6,0,0,0-1.8-1.492q-4.043,0-8.086,0c-.675-.009-1.445.2-1.55.945-.243,7.377.083,14.864-.117,22.257-.172,2.453-3.261,2.171-3.292,2.164-1.339-.293-2.279-1.045-2.194-2.28-.017-7.108,0-14.217-.008-21.327-.282-2.578,1.326-4.865,3.3-6.366l0,.009c2.255-1.36,4.916-1.056,7.435-1.065,2.994.134,6.177-.28,9.081.163.014,3.5.059,6.994-.022,10.489.1,2.08,1.461,2.626,1.316,2.975l-4.174,4.172a9.746,9.746,0,0,0-2.8,5.944c-.106,12.025.024,24.112-.051,36.133a7.541,7.541,0,0,0,2.86,4.3l-.008-.006c.2.294.673.372.82.642.178.409.9.146,1.2.478,9.784.651,19.816.379,29.645.125a7.053,7.053,0,0,0,5.5-6.973,58.122,58.122,0,0,0-.117-9.11.909.909,0,0,0-.978-.854c-.925-.12-1.868.228-1.863,1.286-.1,2.792-.014,5.585-.048,8.378a4.556,4.556,0,0,1-3.036,4.41c-9,.409-18.172.033-27.23.137a4.943,4.943,0,0,1-1.609-.416c-.909-1.057-2.084-1.939-2.114-3.5.028-11.456.009-22.914.008-34.374a7.2,7.2,0,0,1,2.155-4.6c1.907-1.779,3.628-3.887,5.638-5.5q9.143-.018,18.291,0c.91.415,7.642,6.4,7.833,9.97.237,6.613-.157,12.888.041,19.515.086.223,0,1.959,1.312,1.874,1.242.031,1.8-.829,1.8-2.03-.042-6.266.086-12.549-.046-18.806.172-3.3-2.723-6.729-2.723-6.729a48.291,48.291,0,0,0-4.023-4.189c-.358-.353-.54-.723-.06-1.054C52.1,37.388,51.412,34.3,51.412,34.3c2-.03,4.229-.06,6.231-.073.894-.011,1.984-.5,2.1-1.313,1.784-.074,3.57-.009,5.355-.036.9-.054.5,2.036.7,2.183.6,1.044,2.751.715,2.694-.621q0-5.9,0-11.8c.073-1.252-1.216-1.287-2.154-1.082m-34.9-16.9A1.454,1.454,0,0,1,32.2,3.064a3.075,3.075,0,0,1,.859-.12q4.269,0,8.537,0a1.249,1.249,0,0,1,1.3,1.545A1.405,1.405,0,0,1,41.68,5.81c-2.5-.074-5-.014-7.5-.036-.536,0-2.618.254-2.746-1.117m6.985,9.472a10.057,10.057,0,0,1-2.672,0q0-2.69,0-5.379a10.431,10.431,0,0,1,2.671,0Zm-8.361,4.034a1.154,1.154,0,0,1,.94-.937,1.84,1.84,0,0,1,.732-.05q5.351-.006,10.7,0a1.935,1.935,0,0,1,.733.048,1.34,1.34,0,0,1,1.046,1.362c.039.439.005.885,0,1.328a.33.33,0,0,1-.244.088c-4.625-.014-9.251.031-13.876-.024a4.937,4.937,0,0,1-.037-1.814m18.408,17.1a1.984,1.984,0,0,1-.047.733c-.08.571-.5.833-.96,1.067a.977.977,0,0,1-.527.059q-9.852,0-19.7,0a.968.968,0,0,1-.527-.059,1.406,1.406,0,0,1-.956-1.074,1.841,1.841,0,0,1-.05-.731q-.006-5.28,0-10.559a2.114,2.114,0,0,1,.044-.733,1.132,1.132,0,0,1,.529-.808,2.052,2.052,0,0,1,1.094-.261q9.721.008,19.441,0a2.16,2.16,0,0,1,1.1.259,1.057,1.057,0,0,1,.52.807,7.507,7.507,0,0,1,.045,1.541q.011,4.88,0,9.76M51.4,31.255q0-2.69,0-5.381a45.619,45.619,0,0,1,5.615,0q0,2.692,0,5.384a44.23,44.23,0,0,1-5.616,0M65,29.92c-1.661-.024-3.323-.018-4.985-.023,0-.718.01-1.436-.02-2.153-.017-.421.149-.538.549-.534,1.659.018,3.318.011,4.977.013,0,.719-.011,1.438.019,2.156.017.414-.128.546-.54.541" transform="translate(0)" fill="#12263f" stroke="#12263f" stroke-width="1"/>
        <path id="Trazado_698428" data-name="Trazado 698428" d="M111.254,191.019H92.733c-.337,0-2.126-.34-2.126,1.805q0,9.589-.005,19.179a1.715,1.715,0,0,0,2.135,1.941h18.371c2.312,0,2.342-.993,2.339-1.547,0-6.669-.031-12.25-.027-18.921,0-2.558-1.876-2.457-2.167-2.457m-.787,19.942-16.832-.006c0-5.367.009-10.734-.014-16.1,0-.6.167-.751.756-.748,5.364.022,10.728.014,16.093.014q0,8.42,0,16.841" transform="translate(-64.908 -136.832)" fill="#12263f" stroke="#12263f" stroke-width="1"/>
      </g>
    </g>
  </g>
</svg>
