<svg xmlns="http://www.w3.org/2000/svg" xmlns:xlink="http://www.w3.org/1999/xlink" width="106" height="106" viewBox="0 0 106 106">
  <defs>
    <clipPath id="clip-path">
      <rect id="Rectángulo_339716" data-name="Rectángulo 339716" width="45.244" height="90.458" fill="#12263f"/>
    </clipPath>
  </defs>
  <g id="Grupo_973508" data-name="Grupo 973508" transform="translate(-637 -968)">
    <circle id="Elipse_5579" data-name="Elipse 5579" cx="53" cy="53" r="53" transform="translate(637 968)" fill="#c4a424"/>
    <circle id="Elipse_1142" data-name="Elipse 1142" cx="50.5" cy="50.5" r="50.5" transform="translate(637 968)" fill="#ffd947"/>
    <g id="Grupo_973346" data-name="Grupo 973346" transform="translate(663.199 973.141)">
      <g id="Grupo_973345" data-name="Grupo 973345" clip-path="url(#clip-path)">
        <path id="Trazado_698422" data-name="Trazado 698422" d="M56.354,205.209c-1.426-1.41-.981-4.568-1-5.385,0,0-5.264-.178-5.937-1.582a4.078,4.078,0,0,1,0-3.774c1.306-2.024,4.159-1.116,6.143-1.411l-.048-3.862c.048-2.479,2.364-3.083,4.337-2.728,3.108.56,2.172,6.594,2.172,6.594,3.03-.128,7.047,0,6.108,4.221-.634,3.021-4.044,1.947-6.172,2.394-.216,1.271.108,2.6-.207,3.848-.411,2.494-3.6,3.283-5.4,1.685" transform="translate(-35.258 -134.236)" fill="#12263f"/>
        <path id="Trazado_698423" data-name="Trazado 698423" d="M45.2,44.323A16.222,16.222,0,0,0,39.37,32.517,23.426,23.426,0,0,0,32.34,29.2c-.1-.983.018-1.972-.064-2.952-.115-1.449,3.111.521,3.255-4.482.074-2.572,1.119-8.7-3.108-8.765-3.438-.051-3.228,3.613-3.368,6.2a103.636,103.636,0,0,1-12.841-.056c-.036-4.17-.037-8.68-.048-12.851,0,0,3.606.124,3.295.062l-.062.311c.158,3.611,6.4,3.606,6.279,0-.011-.321,4.47.094,7.211-.249,1.989-.248,2.922-1.057,2.984-2.673.048-1.25-.046-3.623-3.433-3.7C26.182-.012,19.92.054,13.66.02,11.4-.169,9.731,1.058,9.749,3.5c.045,6.021-.141,13.667-.017,20.443.031,1.691,1.764,1.579,3.156,2.011.1,4.636-.3,3.584-2.853,4.153l.005,0c-4.287.8-9.509,6.4-9.784,12.2h0C-.081,55.682-.063,69.22.18,82.627c.1,5.662,6.152,7.793,8.891,7.832,9.969-.377,18.1.3,28.014-.244,5.657-.311,7.216-3.69,7.948-7.061.45-12.912.02-25.894.164-38.832M19.963,26.712c2.08-.063,4.16-.109,6.239.025,0,0,.633,3.051-.675,2.986-1.856-.022-3.713,0-5.569,0ZM7.805,41.85c1.27-3.77,4.569-5.456,8.408-5.612,4.81.062,9.654-.214,14.446.067,6.55.385,7.918,6.042,7.3,6.29-10,.43-19.481.025-29.542.152-.281,0-.656-.187-.608-.9m31.31,33.122c-7.573.175-15.208,0-22.8.063-1.687-.394-3.165.942-3.165,3.37,0,2.362,2.179,3.516,3.428,3.09q10.9-.01,21.787,0c.824-.195,2.387,3.253-1.472,3.194-9.414-.145-19.083.544-28.412-.238-.539-.4-1.55-.076-1.55-2.479q0-16.069-.008-32.135c-.121-.692.52-.749,1.052-.685q15.042,0,30.085,0c.921-.08,1.352.107,1.187,1.136-.13,8.206.259,16.536-.138,24.682Z" transform="translate(0 -0.001)" fill="#12263f"/>
      </g>
    </g>
  </g>
</svg>
