<svg xmlns="http://www.w3.org/2000/svg" xmlns:xlink="http://www.w3.org/1999/xlink" width="135.937" height="134.485" viewBox="0 0 135.937 134.485">
  <defs>
    <clipPath id="clip-path">
      <rect x="4" width="135.937" height="134.485" fill="none"/>
    </clipPath>
    <clipPath id="clip-path-2">
      <rect id="Rectángulo_339594" data-name="Rectángulo 339594" width="163.937" height="134.485" fill="none"/>
    </clipPath>
    <clipPath id="clip-path-4">
      <path id="Trazado_697972" data-name="Trazado 697972" d="M5.967,67.735A66.808,66.808,0,1,0,72.774.928,66.807,66.807,0,0,0,5.967,67.735" transform="translate(-5.967 -0.928)" fill="none"/>
    </clipPath>
    <clipPath id="clip-path-5">
      <rect id="Rectángulo_339575" data-name="Rectángulo 339575" width="49.835" height="33.345" fill="none"/>
    </clipPath>
    <clipPath id="clip-path-6">
      <rect id="Rectángulo_339576" data-name="Rectángulo 339576" width="1.741" height="1.994" fill="none"/>
    </clipPath>
    <clipPath id="clip-path-7">
      <rect id="Rectángulo_339578" data-name="Rectángulo 339578" width="102.957" height="5.293" fill="none"/>
    </clipPath>
    <clipPath id="clip-path-8">
      <rect id="Rectángulo_339584" data-name="Rectángulo 339584" width="39.73" height="20.264" fill="none"/>
    </clipPath>
    <clipPath id="clip-path-9">
      <rect id="Rectángulo_339588" data-name="Rectángulo 339588" width="3.302" height="3.311" fill="none"/>
    </clipPath>
    <clipPath id="clip-path-10">
      <path id="Trazado_697954" data-name="Trazado 697954" d="M76.228,113.874l2.085,1.1L77.1,117.185l-2.085-1.1Z" transform="translate(-75.011 -113.874)" fill="none"/>
    </clipPath>
    <clipPath id="clip-path-11">
      <rect id="Rectángulo_339589" data-name="Rectángulo 339589" width="1.769" height="1.961" fill="none"/>
    </clipPath>
    <clipPath id="clip-path-12">
      <path id="Trazado_697956" data-name="Trazado 697956" d="M75.808,114.69l.972.511-.8,1.45-.972-.511Z" transform="translate(-75.011 -114.69)" fill="none"/>
    </clipPath>
    <clipPath id="clip-path-13">
      <rect id="Rectángulo_339590" data-name="Rectángulo 339590" width="2.781" height="2.937" fill="none"/>
    </clipPath>
    <clipPath id="clip-path-14">
      <path id="Trazado_697960" data-name="Trazado 697960" d="M74.556,114.187l1.642.863-1.14,2.074-1.641-.863Z" transform="translate(-73.417 -114.187)" fill="none"/>
    </clipPath>
    <clipPath id="clip-path-15">
      <rect id="Rectángulo_339591" data-name="Rectángulo 339591" width="0.782" height="0.911" fill="none"/>
    </clipPath>
    <clipPath id="clip-path-16">
      <path id="Trazado_697962" data-name="Trazado 697962" d="M74.446,115.733l.4.207-.386.7-.4-.208Z" transform="translate(-74.06 -115.733)" fill="none"/>
    </clipPath>
    <clipPath id="clip-path-17">
      <rect id="Rectángulo_339592" data-name="Rectángulo 339592" width="4.376" height="3.676" fill="none"/>
    </clipPath>
    <clipPath id="clip-path-18">
      <path id="Trazado_697964" data-name="Trazado 697964" d="M79.071,112.714l3.314,1.743-1.063,1.933-3.313-1.742Z" transform="translate(-78.009 -112.714)" fill="none"/>
    </clipPath>
    <clipPath id="clip-path-19">
      <rect id="Rectángulo_339593" data-name="Rectángulo 339593" width="9.615" height="1.21" fill="none"/>
    </clipPath>
  </defs>
  <g id="Grupo_de_desplazamiento_1" data-name="Grupo de desplazamiento 1" transform="translate(-4)" clip-path="url(#clip-path)" style="isolation: isolate">
    <g id="Grupo_973290" data-name="Grupo 973290">
      <g id="Grupo_973289" data-name="Grupo 973289" clip-path="url(#clip-path-2)">
        <g id="Grupo_973246" data-name="Grupo 973246">
          <g id="Grupo_973245" data-name="Grupo 973245" clip-path="url(#clip-path-2)">
            <path id="Trazado_697856" data-name="Trazado 697856" d="M72.292,0A66.808,66.808,0,1,1,5.484,66.808,66.808,66.808,0,0,1,72.292,0" transform="translate(-0.344)" fill="#ffce30"/>
          </g>
        </g>
        <g id="Grupo_973288" data-name="Grupo 973288" transform="translate(5.593 0.87)">
          <g id="Grupo_973287" data-name="Grupo 973287" clip-path="url(#clip-path-4)">
            <g id="Grupo_973249" data-name="Grupo 973249" transform="translate(18.383 72.996)" style="isolation: isolate">
              <g id="Grupo_973248" data-name="Grupo 973248">
                <g id="Grupo_973247" data-name="Grupo 973247" clip-path="url(#clip-path-5)">
                  <path id="Trazado_697857" data-name="Trazado 697857" d="M75.416,112.153H29.734L25.581,78.808H71.261Z" transform="translate(-25.58 -78.808)" fill="#211a47"/>
                </g>
              </g>
            </g>
            <path id="Trazado_697858" data-name="Trazado 697858" d="M73.2,110.672H31.871L28.112,80.5H69.443Z" transform="translate(-7.356 -5.918)" fill="#504e53"/>
            <path id="Trazado_697859" data-name="Trazado 697859" d="M73.2,110.672H31.871L28.112,80.5H69.443Z" transform="translate(-7.356 -5.918)" fill="none" stroke="#1c262b" stroke-miterlimit="10" stroke-width="1"/>
            <path id="Trazado_697860" data-name="Trazado 697860" d="M100.016,131.03l-.37-36.448-10.2,7.032-9.971,3.176-11.13-2.5.927-2.268s3.711-8.167,5.8-10.435S84.8,83.012,84.8,83.012L91.3,77.8s2.319-11.342,3.014-13.384,13.682-9.528,13.682-9.528,9.507-5.217,14.377-6.124a26.152,26.152,0,0,1,7.884-.454s19.71,7.485,21.1,9.3,1.622,46.048,1.622,54.894,2.783,20.416,2.783,20.416" transform="translate(-9.879 -3.892)" fill="#fff"/>
            <path id="Trazado_697861" data-name="Trazado 697861" d="M100.016,131.03l-.37-36.448-10.2,7.032-9.971,3.176-11.13-2.5.927-2.268s3.711-8.167,5.8-10.435S84.8,83.012,84.8,83.012L91.3,77.8s2.319-11.342,3.014-13.384,13.682-9.528,13.682-9.528,9.507-5.217,14.377-6.124a26.152,26.152,0,0,1,7.884-.454s19.71,7.485,21.1,9.3,1.622,46.048,1.622,54.894,2.783,20.416,2.783,20.416" transform="translate(-9.879 -3.892)" fill="none" stroke="#1c262b" stroke-miterlimit="10" stroke-width="1"/>
            <path id="Trazado_697862" data-name="Trazado 697862" d="M116.869,124.633c-.023,1.769-.038,2.87-.038,2.87" transform="translate(-12.92 -8.686)" fill="none" stroke="#1c262b" stroke-miterlimit="10" stroke-width="1"/>
            <path id="Trazado_697863" data-name="Trazado 697863" d="M118,77.058c-.363,7.052-.852,17.085-.852,19.939,0,3.165-.151,15.311-.242,22.366" transform="translate(-12.924 -5.702)" fill="none" stroke="#1c262b" stroke-miterlimit="10" stroke-width="1"/>
            <path id="Trazado_697864" data-name="Trazado 697864" d="M118.463,69.288s-.116,2.125-.277,5.2" transform="translate(-13.005 -5.215)" fill="none" stroke="#1c262b" stroke-miterlimit="10" stroke-width="1"/>
            <line id="Línea_412" data-name="Línea 412" x1="0.277" y1="2.321" transform="translate(87.038 65.394)" fill="none" stroke="#1c262b" stroke-miterlimit="10" stroke-width="1"/>
            <line id="Línea_413" data-name="Línea 413" x1="2.42" y1="20.293" transform="translate(87.524 69.472)" fill="none" stroke="#1c262b" stroke-miterlimit="10" stroke-width="1"/>
            <path id="Trazado_697865" data-name="Trazado 697865" d="M96.011,79.472a9.6,9.6,0,0,1-1.613-2.13" transform="translate(-11.513 -5.72)" fill="none" stroke="#1c262b" stroke-miterlimit="10" stroke-width="1"/>
            <path id="Trazado_697866" data-name="Trazado 697866" d="M99.974,83.38s-1.368-1.219-2.737-2.6" transform="translate(-11.691 -5.936)" fill="none" stroke="#1c262b" stroke-miterlimit="10" stroke-width="1"/>
            <path id="Trazado_697867" data-name="Trazado 697867" d="M88.787,83.265a34.744,34.744,0,0,0,9.827,6.9" transform="translate(-11.161 -6.092)" fill="none" stroke="#1c262b" stroke-miterlimit="10" stroke-width="1"/>
            <path id="Trazado_697868" data-name="Trazado 697868" d="M92.443,89.242a32.977,32.977,0,0,0,5.57,2.522" transform="translate(-11.39 -6.466)" fill="none" stroke="#1c262b" stroke-miterlimit="10" stroke-width="1"/>
            <path id="Trazado_697869" data-name="Trazado 697869" d="M88.935,87.021s.575.426,1.551,1.044" transform="translate(-11.17 -6.327)" fill="none" stroke="#1c262b" stroke-miterlimit="10" stroke-width="1"/>
            <path id="Trazado_697870" data-name="Trazado 697870" d="M134.414,49.085S117.547,63,126.691,132.361l18.757.235s-4.689-71.48,4.414-77.378Z" transform="translate(-13.368 -3.948)" fill="#671470"/>
            <path id="Trazado_697871" data-name="Trazado 697871" d="M105.226,57.7s-4.41,1.415-2.3,73.839l13.023.236S111.041,57,118.007,51.1Z" transform="translate(-12.012 -4.074)" fill="#671470"/>
            <path id="Trazado_697872" data-name="Trazado 697872" d="M118.289,69.009,111.8,65.453l-3.229,4.306,1.908-10.908,5.429,4.736Z" transform="translate(-12.401 -4.56)" fill="#fff"/>
            <path id="Trazado_697873" data-name="Trazado 697873" d="M118.289,69.009,111.8,65.453l-3.229,4.306,1.908-10.908,5.429,4.736Z" transform="translate(-12.401 -4.56)" fill="none" stroke="#1c262b" stroke-miterlimit="10" stroke-width="1"/>
            <path id="Trazado_697874" data-name="Trazado 697874" d="M128.057,44.506,116.431,56.628l-.343,7.9-3.029-2.755-7.541-6.853S101.439,57.737,100,57.89s-6.406-6.97-6.406-6.97-2.861.874-3.663.247-1.049-7.834-1.049-7.834a8.182,8.182,0,0,0-2.292-3.093c-1.308-.815-2.68-8.779-2.68-8.779s-.578-3.038,1.458-4.445S93.3,21.645,98.147,21.37s13.882,2.107,16.362,4.706,4.013,9.828,4.013,9.828Z" transform="translate(-10.85 -2.209)" fill="#ef9196"/>
            <path id="Trazado_697875" data-name="Trazado 697875" d="M128.057,44.506,116.431,56.628l-.343,7.9-3.029-2.755-7.541-6.853S101.439,57.737,100,57.89s-6.406-6.97-6.406-6.97-2.861.874-3.663.247-1.049-7.834-1.049-7.834a8.182,8.182,0,0,0-2.292-3.093c-1.308-.815-2.68-8.779-2.68-8.779s-.578-3.038,1.458-4.445S93.3,21.645,98.147,21.37s13.882,2.107,16.362,4.706,4.013,9.828,4.013,9.828Z" transform="translate(-10.85 -2.209)" fill="none" stroke="#ea787b" stroke-miterlimit="10" stroke-width="1"/>
            <g id="Grupo_973252" data-name="Grupo 973252" transform="translate(82.212 39.548)" style="isolation: isolate">
              <g id="Grupo_973251" data-name="Grupo 973251">
                <g id="Grupo_973250" data-name="Grupo 973250" clip-path="url(#clip-path-6)">
                  <path id="Trazado_697876" data-name="Trazado 697876" d="M95.119,43.728c.365.506.4,1.092.092,1.308s-.863-.02-1.228-.527-.4-1.092-.092-1.308.863.02,1.228.526" transform="translate(-93.68 -43.122)" fill="#211a47"/>
                </g>
              </g>
            </g>
            <path id="Trazado_697877" data-name="Trazado 697877" d="M95.143,39.374c-3.923.56-3.926,1.86-3.926,1.86l-.229.6" transform="translate(-11.299 -3.339)" fill="none" stroke="#1c262b" stroke-linecap="round" stroke-miterlimit="10" stroke-width="2"/>
            <path id="Trazado_697878" data-name="Trazado 697878" d="M94.241,52.712l2.531-1.134L96.291,49.9" transform="translate(-11.503 -3.999)" fill="none" stroke="#ea787b" stroke-miterlimit="10" stroke-width="1"/>
            <path id="Trazado_697879" data-name="Trazado 697879" d="M115.256,48.29l-.747,14.873-7.541-6.853s6.826-6.564,7.153-7.612-.874-5.247-.874-5.247Z" transform="translate(-12.301 -3.595)" fill="#ea787b"/>
            <path id="Trazado_697880" data-name="Trazado 697880" d="M114.718,34.693s-.283,2.773-.5,3.518-2.24,1.1-2.24,1.1" transform="translate(-12.615 -3.045)" fill="#ef9196"/>
            <path id="Trazado_697881" data-name="Trazado 697881" d="M114.718,34.693s-.283,2.773-.5,3.518-2.24,1.1-2.24,1.1" transform="translate(-12.615 -3.045)" fill="none" stroke="#ea787b" stroke-miterlimit="10" stroke-width="1"/>
            <path id="Trazado_697882" data-name="Trazado 697882" d="M101.33,49.944,98.315,53.55a2.374,2.374,0,0,0,3.3-.172c.02-.022.039-.043.058-.066a2.4,2.4,0,0,0-.346-3.366" transform="translate(-11.758 -4.002)" fill="#a15256"/>
            <path id="Trazado_697883" data-name="Trazado 697883" d="M101.864,53.348a2.215,2.215,0,0,1-.208.2,2.082,2.082,0,0,1,.388-2.932,2.362,2.362,0,0,1-.185,2.726" transform="translate(-11.941 -4.044)" fill="#ea787b"/>
            <path id="Trazado_697884" data-name="Trazado 697884" d="M94.507,51.648s-1.9-.477-5.291-6.844c0,0-.059,7.29,1.049,7.834a4.109,4.109,0,0,0,4.242-.99" transform="translate(-11.188 -3.68)" fill="#ea787b"/>
            <path id="Trazado_697885" data-name="Trazado 697885" d="M89.127,16.823s-1.889-3.853-5.86-.095S78.2,28.233,79.349,29.78s4.545,1.426,5.508,1.324,10.261-4.187,10.261-4.187.437,6.153,2.2,6.681a20.322,20.322,0,0,0,4.923.433s.554,2.8,2,2.649,2.572-.987,2.441-2.165-2.963-2.548-.521-4.714,4.9-1.95,5.912.566-.117,3.35.925,3.955a53.075,53.075,0,0,0,6.309,1.954s-.314-11.65-1.506-15.815-8.3-8.9-13.056-10.062-11.674,2.429-12.774,3.5-2.845,2.924-2.845,2.924" transform="translate(-10.542 -1.508)" fill="#29373f"/>
            <path id="Trazado_697886" data-name="Trazado 697886" d="M116.934,61.479l4.618,11.935,13.4-24.216-6.146-5.9Z" transform="translate(-12.926 -3.585)" fill="#fff"/>
            <path id="Trazado_697887" data-name="Trazado 697887" d="M116.934,61.479l4.618,11.935,13.4-24.216-6.146-5.9Z" transform="translate(-12.926 -3.585)" fill="none" stroke="#1c262b" stroke-miterlimit="10" stroke-width="1"/>
            <path id="Trazado_697888" data-name="Trazado 697888" d="M101.375,88.579s2.569-2.394,4.772-1.317,2.937,4.19,2.937,5.746v39.381" transform="translate(-11.95 -6.325)" fill="none" stroke="#1c262b" stroke-miterlimit="10" stroke-width="1"/>
            <path id="Trazado_697889" data-name="Trazado 697889" d="M95.045,95.5s-2.528-.471-3.731-.824-2.166-.707-2.286.706,2.768,2.826,3.25,2.826,5.416-1.059,5.776-1.177S95.045,95.5,95.045,95.5" transform="translate(-11.176 -6.788)" fill="#354952"/>
            <path id="Trazado_697890" data-name="Trazado 697890" d="M95.045,95.5s-2.528-.471-3.731-.824-2.166-.707-2.286.706,2.768,2.826,3.25,2.826,5.416-1.059,5.776-1.177S95.045,95.5,95.045,95.5Z" transform="translate(-11.176 -6.788)" fill="none" stroke="#060809" stroke-miterlimit="10" stroke-width="0.5"/>
            <path id="Trazado_697891" data-name="Trazado 697891" d="M79.772,113.182l-.339-.28,7.818-9.067.339.279Z" transform="translate(-10.574 -7.382)" fill="#fff"/>
            <path id="Trazado_697892" data-name="Trazado 697892" d="M79.772,113.182l-.339-.28,7.818-9.067.339.279Z" transform="translate(-10.574 -7.382)" fill="none" stroke="#1c262b" stroke-miterlimit="10" stroke-width="1"/>
            <path id="Trazado_697893" data-name="Trazado 697893" d="M88.128,103.935l-1.244-1.026L99.755,87.98,101,89.006Z" transform="translate(-11.042 -6.387)" fill="#94b2bc"/>
            <path id="Trazado_697894" data-name="Trazado 697894" d="M88.128,103.935l-1.244-1.026L99.755,87.98,101,89.006Z" transform="translate(-11.042 -6.387)" fill="none" stroke="#060809" stroke-miterlimit="10" stroke-width="0.5"/>
            <path id="Trazado_697895" data-name="Trazado 697895" d="M115.953,106.345,104.359,95.91H93.923s-6.261,4.537-6.956,6.125.927,1.134,1.623.907a21.688,21.688,0,0,0,3.246-2.722s-.464,7.032,1.158,8.619,8.117,1.815,9.739,1.815,5.334,1.815,6.726,2.041,5.1.454,5.1.454Z" transform="translate(-11.036 -6.885)" fill="#354952"/>
            <path id="Trazado_697896" data-name="Trazado 697896" d="M115.953,106.345,104.359,95.91H93.923s-6.261,4.537-6.956,6.125.927,1.134,1.623.907a21.688,21.688,0,0,0,3.246-2.722s-.464,7.032,1.158,8.619,8.117,1.815,9.739,1.815,5.334,1.815,6.726,2.041,5.1.454,5.1.454Z" transform="translate(-11.036 -6.885)" fill="none" stroke="#060809" stroke-miterlimit="10" stroke-width="0.5"/>
            <path id="Trazado_697897" data-name="Trazado 697897" d="M92.174,100.428l1.391-1.134,7.936-.071" transform="translate(-11.373 -7.092)" fill="#354952"/>
            <path id="Trazado_697898" data-name="Trazado 697898" d="M92.174,100.428l1.391-1.134,7.936-.071" transform="translate(-11.373 -7.092)" fill="none" stroke="#060809" stroke-miterlimit="10" stroke-width="0.5"/>
            <line id="Línea_414" data-name="Línea 414" y1="0.118" x2="8.545" transform="translate(80.981 96.015)" fill="#354952"/>
            <line id="Línea_415" data-name="Línea 415" y1="0.118" x2="8.545" transform="translate(80.981 96.015)" fill="none" stroke="#060809" stroke-miterlimit="10" stroke-width="0.5"/>
            <line id="Línea_416" data-name="Línea 416" x2="7.944" y2="0.118" transform="translate(81.101 99.666)" fill="#354952"/>
            <line id="Línea_417" data-name="Línea 417" x2="7.944" y2="0.118" transform="translate(81.101 99.666)" fill="none" stroke="#060809" stroke-miterlimit="10" stroke-width="0.5"/>
            <path id="Trazado_697899" data-name="Trazado 697899" d="M113.957,103.029l-1.685,11.328,11.675,3.776,1.926-10.938Z" transform="translate(-12.634 -7.331)" fill="#fff"/>
            <path id="Trazado_697900" data-name="Trazado 697900" d="M113.957,103.029l-1.685,11.328,11.675,3.776,1.926-10.938Z" transform="translate(-12.634 -7.331)" fill="none" stroke="#1c262b" stroke-miterlimit="10" stroke-width="1"/>
            <path id="Trazado_697901" data-name="Trazado 697901" d="M142.491,64.777c-3.247,3.025-7.884,15.728-7.575,17.24s8.5,17.694,8.5,17.694-.773,1.512-.928,1.965,1.236,1.21,1.236,1.21-14.685-.605-15.459-.152a13.473,13.473,0,0,0-1.65,1.216s-2.833,7.707-2.369,10.58,4.328,4.991,6.029,5.293,14.841,2.571,22.416,2.571,12.676.907,15.149-.454,4.484-8.468,2.783-12.1-8.657-32.967-9.585-37.051-5.875-13.232-6.029-13.912-2.473-2.269-6.648-.3" transform="translate(-13.382 -4.484)" fill="#fff"/>
            <path id="Trazado_697902" data-name="Trazado 697902" d="M142.491,64.777c-3.247,3.025-7.884,15.728-7.575,17.24s8.5,17.694,8.5,17.694-.773,1.512-.928,1.965,1.236,1.21,1.236,1.21-14.685-.605-15.459-.152a13.473,13.473,0,0,0-1.65,1.216s-2.833,7.707-2.369,10.58,4.328,4.991,6.029,5.293,14.841,2.571,22.416,2.571,12.676.907,15.149-.454,4.484-8.468,2.783-12.1-8.657-32.967-9.585-37.051-5.875-13.232-6.029-13.912-2.473-2.269-6.648-.3" transform="translate(-13.382 -4.484)" fill="none" stroke="#1c262b" stroke-miterlimit="10" stroke-width="1"/>
            <path id="Trazado_697903" data-name="Trazado 697903" d="M145.035,105.9s9.275-.454,11.9.3" transform="translate(-14.688 -7.503)" fill="none" stroke="#1c262b" stroke-miterlimit="10" stroke-width="1"/>
            <path id="Trazado_697904" data-name="Trazado 697904" d="M147.674,104.256s8.811-4.688,11.9-5.293,2.319.3,1.236,1.058a17.358,17.358,0,0,1-3.246,1.513" transform="translate(-14.854 -7.064)" fill="none" stroke="#1c262b" stroke-miterlimit="10" stroke-width="1"/>
            <path id="Trazado_697905" data-name="Trazado 697905" d="M148.845,88.355c.3-1.279.609-2.5.912-3.578" transform="translate(-14.927 -6.186)" fill="none" stroke="#1c262b" stroke-miterlimit="10" stroke-width="1"/>
            <path id="Trazado_697906" data-name="Trazado 697906" d="M146.025,101.806s.953-5.442,2.119-10.753" transform="translate(-14.75 -6.58)" fill="none" stroke="#1c262b" stroke-miterlimit="10" stroke-width="1"/>
            <path id="Trazado_697907" data-name="Trazado 697907" d="M106.755,135.269V114.626H3.8v20.643" transform="translate(-5.831 -8.058)" fill="#fff"/>
            <path id="Trazado_697908" data-name="Trazado 697908" d="M106.755,135.269V114.626H3.8v20.643" transform="translate(-5.831 -8.058)" fill="none" stroke="#1c262b" stroke-miterlimit="10" stroke-width="1"/>
            <g id="Grupo_973255" data-name="Grupo 973255" transform="translate(-2.032 108.08)" style="isolation: isolate">
              <g id="Grupo_973254" data-name="Grupo 973254">
                <g id="Grupo_973253" data-name="Grupo 973253" clip-path="url(#clip-path-7)">
                  <rect id="Rectángulo_339577" data-name="Rectángulo 339577" width="102.956" height="5.293" transform="translate(0 0)" fill="#152031"/>
                </g>
              </g>
            </g>
            <rect id="Rectángulo_339579" data-name="Rectángulo 339579" width="109.14" height="5.293" transform="translate(-5.124 106.568)" fill="#fff"/>
            <rect id="Rectángulo_339580" data-name="Rectángulo 339580" width="109.14" height="5.293" transform="translate(-5.124 106.568)" fill="none" stroke="#1c262b" stroke-miterlimit="10" stroke-width="1"/>
            <path id="Trazado_697909" data-name="Trazado 697909" d="M79.834,107.08a9.72,9.72,0,0,0-3.71-3.781,11.678,11.678,0,0,0-5.256-1.512s-1.083,8.015-1.392,8.62-.772.6,1.237,1.209a13.213,13.213,0,0,0,5.1,0Z" transform="translate(-9.933 -7.253)" fill="#354952"/>
            <path id="Trazado_697910" data-name="Trazado 697910" d="M79.834,107.08a9.72,9.72,0,0,0-3.71-3.781,11.678,11.678,0,0,0-5.256-1.512s-1.083,8.015-1.392,8.62-.772.6,1.237,1.209a13.213,13.213,0,0,0,5.1,0Z" transform="translate(-9.933 -7.253)" fill="none" stroke="#060809" stroke-miterlimit="10" stroke-width="0.5"/>
            <path id="Trazado_697911" data-name="Trazado 697911" d="M62.914,106.788s-2.164,1.361-2.164,1.815-.309,4.386.464,4.536,1.391-1.058,1.391-1.058l.464-1.361h.773Z" transform="translate(-9.399 -7.567)" fill="#354952"/>
            <path id="Trazado_697912" data-name="Trazado 697912" d="M62.914,106.788s-2.164,1.361-2.164,1.815-.309,4.386.464,4.536,1.391-1.058,1.391-1.058l.464-1.361h.773Z" transform="translate(-9.399 -7.567)" fill="none" stroke="#060809" stroke-miterlimit="10" stroke-width="0.5"/>
            <path id="Trazado_697913" data-name="Trazado 697913" d="M65.627,104.52s-4.019.3-3.555,1.815,1.391,5.293,2.01,5.747,2.937-.3,2.937-.3l-.618-7.41Z" transform="translate(-9.483 -7.415)" fill="#354952"/>
            <path id="Trazado_697914" data-name="Trazado 697914" d="M65.627,104.52s-4.019.3-3.555,1.815,1.391,5.293,2.01,5.747,2.937-.3,2.937-.3l-.618-7.41Z" transform="translate(-9.483 -7.415)" fill="none" stroke="#060809" stroke-miterlimit="10" stroke-width="0.5"/>
            <path id="Trazado_697915" data-name="Trazado 697915" d="M67.935,101.787A6.066,6.066,0,0,0,64.688,103c-1.082,1.058.619,2.419.773,3.025s.619,5.141,1.237,5.595a1.381,1.381,0,0,0,2.164-.6c.308-1.058-.928-9.225-.928-9.225" transform="translate(-9.627 -7.253)" fill="#354952"/>
            <path id="Trazado_697916" data-name="Trazado 697916" d="M67.935,101.787A6.066,6.066,0,0,0,64.688,103c-1.082,1.058.619,2.419.773,3.025s.619,5.141,1.237,5.595a1.381,1.381,0,0,0,2.164-.6C69.171,109.954,67.935,101.787,67.935,101.787Z" transform="translate(-9.627 -7.253)" fill="none" stroke="#060809" stroke-miterlimit="10" stroke-width="0.5"/>
            <path id="Trazado_697917" data-name="Trazado 697917" d="M72.175,101.625s1.083,8.771.155,9.376-3.864,1.361-3.864.454-.619-10.737-.619-11.19,1.082-1.059,2.319-1.059,2.01,2.42,2.01,2.42" transform="translate(-9.848 -7.091)" fill="#354952"/>
            <path id="Trazado_697918" data-name="Trazado 697918" d="M72.175,101.625s1.083,8.771.155,9.376-3.864,1.361-3.864.454-.619-10.737-.619-11.19,1.082-1.059,2.319-1.059S72.175,101.625,72.175,101.625Z" transform="translate(-9.848 -7.091)" fill="none" stroke="#060809" stroke-miterlimit="10" stroke-width="0.5"/>
            <path id="Trazado_697919" data-name="Trazado 697919" d="M77.378,105.921s-3.4,4.688-2.937,5.6.619,1.058,1.237,1.058,5.451-4.379,5.354-4.987-2.88-2.574-2.88-2.574Z" transform="translate(-10.258 -7.456)" fill="#354952"/>
            <path id="Trazado_697920" data-name="Trazado 697920" d="M77.378,105.921s-3.4,4.688-2.937,5.6.619,1.058,1.237,1.058,5.451-4.379,5.354-4.987-2.88-2.574-2.88-2.574Z" transform="translate(-10.258 -7.456)" fill="none" stroke="#060809" stroke-miterlimit="10" stroke-width="0.5"/>
            <rect id="Rectángulo_339581" data-name="Rectángulo 339581" width="31.072" height="1.361" transform="translate(46.869 105.056)" fill="#fff"/>
            <rect id="Rectángulo_339582" data-name="Rectángulo 339582" width="31.072" height="1.361" transform="translate(46.869 105.056)" fill="none" stroke="#1c262b" stroke-miterlimit="10" stroke-width="1"/>
            <g id="Grupo_973258" data-name="Grupo 973258" transform="translate(14.045 86.304)" style="isolation: isolate">
              <g id="Grupo_973257" data-name="Grupo 973257">
                <g id="Grupo_973256" data-name="Grupo 973256" clip-path="url(#clip-path-8)">
                  <rect id="Rectángulo_339583" data-name="Rectángulo 339583" width="39.73" height="20.264" transform="translate(0 0)" fill="#211a47"/>
                </g>
              </g>
            </g>
            <rect id="Rectángulo_339585" data-name="Rectángulo 339585" width="31.072" height="20.264" transform="translate(22.702 86.304)" fill="#fff"/>
            <rect id="Rectángulo_339586" data-name="Rectángulo 339586" width="31.072" height="20.264" transform="translate(22.702 86.304)" fill="none" stroke="#1c262b" stroke-miterlimit="10" stroke-width="1"/>
            <path id="Trazado_697921" data-name="Trazado 697921" d="M43.678,109.329H35.662a2.175,2.175,0,0,1-2.175-2.175V97.44a2.175,2.175,0,0,1,2.175-2.175h8.016a2.175,2.175,0,0,1,2.175,2.175v9.713a2.175,2.175,0,0,1-2.175,2.175" transform="translate(-7.693 -6.844)" fill="#fff"/>
            <rect id="Rectángulo_339587" data-name="Rectángulo 339587" width="12.367" height="14.064" rx="2.321" transform="translate(25.794 88.421)" fill="none" stroke="#1c262b" stroke-miterlimit="10" stroke-width="1"/>
            <path id="Trazado_697922" data-name="Trazado 697922" d="M43.111,108.684h-6.8a2.176,2.176,0,0,1-2.176-2.175V98.177A2.177,2.177,0,0,1,36.309,96h6.8a2.176,2.176,0,0,1,2.175,2.176v8.332a2.175,2.175,0,0,1-2.175,2.175" transform="translate(-7.733 -6.89)" fill="#ffcd31"/>
            <path id="Trazado_697923" data-name="Trazado 697923" d="M34.071,99h1.162l.5-1.029.554,1.354.72-.65.277.975,1-1.786.443,1.353.72-.813.166.7.553-.542.167.812,1-1.3.277,1.083h.83l.388-1.3s.221,1.028.221,1.191,1.107-.758,1.107-.758l.277,1.624.387-1.029.221-.053" transform="translate(-7.729 -7.007)" fill="none" stroke="#1c262b" stroke-miterlimit="10" stroke-width="1"/>
            <path id="Trazado_697924" data-name="Trazado 697924" d="M44.929,102.869H43.791L43.3,101.84l-.543,1.354-.7-.65-.272.975-.976-1.786-.434,1.353-.706-.813-.162.7-.543-.542-.163.813-.977-1.3-.271,1.083h-.814l-.38-1.3s-.217,1.028-.217,1.191-1.084-.758-1.084-.758l-.272,1.624-.38-1.029-.217-.053" transform="translate(-7.737 -7.25)" fill="none" stroke="#1c262b" stroke-miterlimit="10" stroke-width="1"/>
            <path id="Trazado_697925" data-name="Trazado 697925" d="M44.929,106.278H43.791l-.488-1.029L42.76,106.6l-.7-.65-.272.975-.976-1.786-.434,1.353-.706-.813-.162.7-.543-.542-.163.812-.977-1.3-.271,1.083h-.814l-.38-1.3s-.217,1.028-.217,1.191-1.084-.758-1.084-.758l-.272,1.624-.38-1.029-.217-.053" transform="translate(-7.737 -7.463)" fill="none" stroke="#1c262b" stroke-miterlimit="10" stroke-width="1"/>
            <path id="Trazado_697926" data-name="Trazado 697926" d="M50.489,96.629A.642.642,0,1,1,49.848,96a.635.635,0,0,1,.641.627" transform="translate(-8.679 -6.89)" fill="#fff"/>
            <path id="Trazado_697927" data-name="Trazado 697927" d="M50.489,96.629A.642.642,0,1,1,49.848,96,.635.635,0,0,1,50.489,96.629Z" transform="translate(-8.679 -6.89)" fill="none" stroke="#1c262b" stroke-miterlimit="10" stroke-width="1"/>
            <path id="Trazado_697928" data-name="Trazado 697928" d="M54.911,96.629A.642.642,0,1,1,54.27,96a.635.635,0,0,1,.641.627" transform="translate(-8.956 -6.89)" fill="#fff"/>
            <path id="Trazado_697929" data-name="Trazado 697929" d="M54.911,96.629A.642.642,0,1,1,54.27,96,.635.635,0,0,1,54.911,96.629Z" transform="translate(-8.956 -6.89)" fill="none" stroke="#1c262b" stroke-miterlimit="10" stroke-width="1"/>
            <path id="Trazado_697930" data-name="Trazado 697930" d="M59.334,96.629A.642.642,0,1,1,58.693,96a.635.635,0,0,1,.641.627" transform="translate(-9.233 -6.89)" fill="#fff"/>
            <path id="Trazado_697931" data-name="Trazado 697931" d="M59.334,96.629A.642.642,0,1,1,58.693,96,.635.635,0,0,1,59.334,96.629Z" transform="translate(-9.233 -6.89)" fill="none" stroke="#1c262b" stroke-miterlimit="10" stroke-width="1"/>
            <path id="Trazado_697932" data-name="Trazado 697932" d="M50.489,100.286a.642.642,0,1,1-.641-.628.634.634,0,0,1,.641.628" transform="translate(-8.679 -7.12)" fill="#fff"/>
            <path id="Trazado_697933" data-name="Trazado 697933" d="M50.489,100.286a.642.642,0,1,1-.641-.628A.634.634,0,0,1,50.489,100.286Z" transform="translate(-8.679 -7.12)" fill="none" stroke="#1c262b" stroke-miterlimit="10" stroke-width="1"/>
            <path id="Trazado_697934" data-name="Trazado 697934" d="M54.911,100.286a.642.642,0,1,1-.641-.628.634.634,0,0,1,.641.628" transform="translate(-8.956 -7.12)" fill="#fff"/>
            <path id="Trazado_697935" data-name="Trazado 697935" d="M54.911,100.286a.642.642,0,1,1-.641-.628A.634.634,0,0,1,54.911,100.286Z" transform="translate(-8.956 -7.12)" fill="none" stroke="#1c262b" stroke-miterlimit="10" stroke-width="1"/>
            <path id="Trazado_697936" data-name="Trazado 697936" d="M59.334,100.286a.642.642,0,1,1-.641-.628.634.634,0,0,1,.641.628" transform="translate(-9.233 -7.12)" fill="#fff"/>
            <path id="Trazado_697937" data-name="Trazado 697937" d="M59.334,100.286a.642.642,0,1,1-.641-.628A.634.634,0,0,1,59.334,100.286Z" transform="translate(-9.233 -7.12)" fill="none" stroke="#1c262b" stroke-miterlimit="10" stroke-width="1"/>
            <path id="Trazado_697938" data-name="Trazado 697938" d="M50.489,103.942a.642.642,0,1,1-.641-.628.634.634,0,0,1,.641.628" transform="translate(-8.679 -7.349)" fill="#fff"/>
            <path id="Trazado_697939" data-name="Trazado 697939" d="M50.489,103.942a.642.642,0,1,1-.641-.628A.634.634,0,0,1,50.489,103.942Z" transform="translate(-8.679 -7.349)" fill="none" stroke="#1c262b" stroke-miterlimit="10" stroke-width="1"/>
            <path id="Trazado_697940" data-name="Trazado 697940" d="M54.911,103.942a.642.642,0,1,1-.641-.628.634.634,0,0,1,.641.628" transform="translate(-8.956 -7.349)" fill="#fff"/>
            <path id="Trazado_697941" data-name="Trazado 697941" d="M54.911,103.942a.642.642,0,1,1-.641-.628A.634.634,0,0,1,54.911,103.942Z" transform="translate(-8.956 -7.349)" fill="none" stroke="#1c262b" stroke-miterlimit="10" stroke-width="1"/>
            <path id="Trazado_697942" data-name="Trazado 697942" d="M59.334,103.942a.642.642,0,1,1-.641-.628.634.634,0,0,1,.641.628" transform="translate(-9.233 -7.349)" fill="#fff"/>
            <path id="Trazado_697943" data-name="Trazado 697943" d="M59.334,103.942a.642.642,0,1,1-.641-.628A.634.634,0,0,1,59.334,103.942Z" transform="translate(-9.233 -7.349)" fill="none" stroke="#1c262b" stroke-miterlimit="10" stroke-width="1"/>
            <path id="Trazado_697944" data-name="Trazado 697944" d="M50.489,107.6a.642.642,0,1,1-.641-.627.635.635,0,0,1,.641.627" transform="translate(-8.679 -7.578)" fill="#fff"/>
            <path id="Trazado_697945" data-name="Trazado 697945" d="M50.489,107.6a.642.642,0,1,1-.641-.627A.635.635,0,0,1,50.489,107.6Z" transform="translate(-8.679 -7.578)" fill="none" stroke="#1c262b" stroke-miterlimit="10" stroke-width="1"/>
            <path id="Trazado_697946" data-name="Trazado 697946" d="M54.911,107.6a.642.642,0,1,1-.641-.627.635.635,0,0,1,.641.627" transform="translate(-8.956 -7.578)" fill="#fff"/>
            <path id="Trazado_697947" data-name="Trazado 697947" d="M54.911,107.6a.642.642,0,1,1-.641-.627A.635.635,0,0,1,54.911,107.6Z" transform="translate(-8.956 -7.578)" fill="none" stroke="#1c262b" stroke-miterlimit="10" stroke-width="1"/>
            <path id="Trazado_697948" data-name="Trazado 697948" d="M59.334,107.6a.642.642,0,1,1-.641-.627.635.635,0,0,1,.641.627" transform="translate(-9.233 -7.578)" fill="#fff"/>
            <path id="Trazado_697949" data-name="Trazado 697949" d="M59.334,107.6a.642.642,0,1,1-.641-.627A.635.635,0,0,1,59.334,107.6Z" transform="translate(-9.233 -7.578)" fill="none" stroke="#1c262b" stroke-miterlimit="10" stroke-width="1"/>
            <path id="Trazado_697950" data-name="Trazado 697950" d="M74.24,117.417l7.122-.212a.2.2,0,0,0,.232-.163.2.2,0,0,0-.051-.167l-.919-1.452a.736.736,0,0,0-.583-.307l-7.122.213a.2.2,0,0,0-.233.162.2.2,0,0,0,.052.168l.46.725-8.938.266c-.211.007-.16.073-.11.157s.086.149.3.143l8.939-.266.27.428a.736.736,0,0,0,.583.307" transform="translate(-9.613 -8.089)" fill="#d7d7d7"/>
            <path id="Trazado_697951" data-name="Trazado 697951" d="M77.008,114.3l.08,2.575,5.128-.153a.638.638,0,0,0,.553-.392,1.973,1.973,0,0,0-.057-1.821.655.655,0,0,0-.55-.362Z" transform="translate(-10.422 -8.029)" fill="#8c569a"/>
            <path id="Trazado_697952" data-name="Trazado 697952" d="M76.476,114.6h0c-.182.291-.65.127-.65.127l.057,1.822s.456-.186.657.088c.311.384.74.336,1-.136a1.98,1.98,0,0,0-.057-1.822c-.289-.456-.721-.478-1.007-.077" transform="translate(-10.348 -8.039)" fill="#8c569a"/>
            <g id="Grupo_973263" data-name="Grupo 973263" transform="translate(64.714 105.863)" opacity="0.05">
              <g id="Grupo_973262" data-name="Grupo 973262">
                <g id="Grupo_973261" data-name="Grupo 973261" clip-path="url(#clip-path-9)">
                  <g id="Grupo_973260" data-name="Grupo 973260" transform="translate(0 0)">
                    <g id="Grupo_973259" data-name="Grupo 973259" clip-path="url(#clip-path-10)">
                      <path id="Trazado_697953" data-name="Trazado 697953" d="M76.476,114.6h0c-.182.291-.65.127-.65.127l.057,1.822s.456-.186.657.088c.311.384.74.336,1-.136a1.98,1.98,0,0,0-.057-1.822c-.289-.456-.721-.478-1.007-.077" transform="translate(-75.062 -113.902)" fill="#211a47"/>
                    </g>
                  </g>
                </g>
              </g>
            </g>
            <g id="Grupo_973268" data-name="Grupo 973268" transform="translate(64.714 106.627)" opacity="0.05">
              <g id="Grupo_973267" data-name="Grupo 973267">
                <g id="Grupo_973266" data-name="Grupo 973266" clip-path="url(#clip-path-11)">
                  <g id="Grupo_973265" data-name="Grupo 973265" transform="translate(0 0)">
                    <g id="Grupo_973264" data-name="Grupo 973264" clip-path="url(#clip-path-12)">
                      <path id="Trazado_697955" data-name="Trazado 697955" d="M76.056,114.8a1.015,1.015,0,0,1-.23-.044l.057,1.822a1.035,1.035,0,0,1,.226-.056,2,2,0,0,0-.053-1.723" transform="translate(-75.062 -114.694)" fill="#211a47"/>
                    </g>
                  </g>
                </g>
              </g>
            </g>
            <path id="Trazado_697957" data-name="Trazado 697957" d="M74.833,114.378l0,.153a.941.941,0,0,0-.172.231,1.976,1.976,0,0,0,.056,1.821.954.954,0,0,0,.187.22l0,.152.359-.01a.653.653,0,0,0,.526-.394,1.975,1.975,0,0,0-.057-1.822.656.656,0,0,0-.549-.361Z" transform="translate(-10.263 -8.042)" fill="#8c569a"/>
            <path id="Trazado_697958" data-name="Trazado 697958" d="M75.415,116.563a1.978,1.978,0,0,0-.057-1.822.572.572,0,0,0-1.075.033,1.976,1.976,0,0,0,.056,1.821.572.572,0,0,0,1.076-.032" transform="translate(-10.239 -8.043)" fill="#8c569a"/>
            <g id="Grupo_973273" data-name="Grupo 973273" transform="translate(63.22 106.157)" opacity="0.15">
              <g id="Grupo_973272" data-name="Grupo 973272">
                <g id="Grupo_973271" data-name="Grupo 973271" clip-path="url(#clip-path-13)">
                  <g id="Grupo_973270" data-name="Grupo 973270" transform="translate(0 0)">
                    <g id="Grupo_973269" data-name="Grupo 973269" clip-path="url(#clip-path-14)">
                      <path id="Trazado_697959" data-name="Trazado 697959" d="M75.415,116.563a1.978,1.978,0,0,0-.057-1.822.572.572,0,0,0-1.075.033,1.976,1.976,0,0,0,.056,1.821.572.572,0,0,0,1.076-.032" transform="translate(-73.459 -114.199)" fill="#211a47"/>
                    </g>
                  </g>
                </g>
              </g>
            </g>
            <g id="Grupo_973278" data-name="Grupo 973278" transform="translate(63.823 107.605)" opacity="0.15">
              <g id="Grupo_973277" data-name="Grupo 973277">
                <g id="Grupo_973276" data-name="Grupo 973276" clip-path="url(#clip-path-15)">
                  <g id="Grupo_973275" data-name="Grupo 973275" transform="translate(0 0)">
                    <g id="Grupo_973274" data-name="Grupo 973274" clip-path="url(#clip-path-16)">
                      <path id="Trazado_697961" data-name="Trazado 697961" d="M74.164,116.264a1.654,1.654,0,0,0,.106.285l.486-.435-.141-.289Z" transform="translate(-74.067 -115.739)" fill="#211a47"/>
                    </g>
                  </g>
                </g>
              </g>
            </g>
            <g id="Grupo_973283" data-name="Grupo 973283" transform="translate(67.524 104.776)" opacity="0.2">
              <g id="Grupo_973282" data-name="Grupo 973282">
                <g id="Grupo_973281" data-name="Grupo 973281" clip-path="url(#clip-path-17)">
                  <g id="Grupo_973280" data-name="Grupo 973280" transform="translate(0 0)">
                    <g id="Grupo_973279" data-name="Grupo 973279" clip-path="url(#clip-path-18)">
                      <path id="Trazado_697963" data-name="Trazado 697963" d="M82.291,114.6h0a.146.146,0,0,1-.053.2.152.152,0,0,1-.082.02l-3.731.111a.35.35,0,0,1-.31-.208.145.145,0,0,1,.053-.2.152.152,0,0,1,.082-.02l3.731-.111a.349.349,0,0,1,.309.208" transform="translate(-78.014 -112.819)" fill="#211a47"/>
                    </g>
                  </g>
                </g>
              </g>
            </g>
            <path id="Trazado_697965" data-name="Trazado 697965" d="M65.028,115.646l-.294.535,1.607.284a2.4,2.4,0,0,1,.9-.358l6.812-.2.4-.36-.111-.175-6.812.2a.619.619,0,0,1-.531-.316Z" transform="translate(-9.652 -8.098)" fill="#354952"/>
            <g id="Grupo_973286" data-name="Grupo 973286" transform="translate(55.191 107.334)" style="isolation: isolate">
              <g id="Grupo_973285" data-name="Grupo 973285">
                <g id="Grupo_973284" data-name="Grupo 973284" clip-path="url(#clip-path-19)">
                  <path id="Trazado_697966" data-name="Trazado 697966" d="M65.144,115.834l-.294.535,1.607.284a2.4,2.4,0,0,1,.9-.358l6.812-.2.294-.535-6.812.2a.619.619,0,0,1-.531-.316Z" transform="translate(-64.85 -115.443)" fill="#211a47"/>
                </g>
              </g>
            </g>
            <path id="Trazado_697967" data-name="Trazado 697967" d="M118.9,25.3a19.33,19.33,0,0,1-.055,5.69,20.3,20.3,0,0,0-1.716-1.179A34.459,34.459,0,0,0,106,25.536l-.017,0a42.021,42.021,0,0,0-27.107,3.177,18.574,18.574,0,0,1,.424-4.87,20.1,20.1,0,0,1,23.811-15.2A19.849,19.849,0,0,1,118.9,25.3" transform="translate(-10.538 -1.385)" fill="#671470"/>
            <path id="Trazado_697968" data-name="Trazado 697968" d="M106.336,8.571c-1.093-.241-6.371-.56-6.792-.582A12.1,12.1,0,0,0,89.3,13.157,19.7,19.7,0,0,0,85.177,25.1l5.627.413,1.712-.226c-.28-3.908,2.869-13.2,9.934-15.13a7.038,7.038,0,0,1,1.013-.217,9.718,9.718,0,0,1,2.892-.079,27.751,27.751,0,0,1,3.287,1.54,4.468,4.468,0,0,0-3.31-2.824" transform="translate(-10.934 -1.371)" fill="#d5e3eb"/>
            <path id="Trazado_697969" data-name="Trazado 697969" d="M92.893,25.312c-.315-4.552,4.047-16.5,13.836-15.434a27.884,27.884,0,0,1,3.3,1.536A4.507,4.507,0,0,0,106.711,8.6c-2.619-.564-7.466-.04-11.412,5.005a19.655,19.655,0,0,0-4.11,11.935Z" transform="translate(-11.312 -1.398)" fill="#251a49"/>
            <path id="Trazado_697970" data-name="Trazado 697970" d="M105.3,25.1a22.673,22.673,0,0,0-10.526-5.59c-4.52-1.183-12.783.591-16.469,1.495-6.445,1.578-7.669,3.279-7.526,4.234.034.224.187,1.27.211,1.5a.912.912,0,0,0,.278.568c1.312,1.215,7.129,2.508,7.129,2.508a42.027,42.027,0,0,1,27.116-3.176Z" transform="translate(-10.031 -2.069)" fill="#d5e3eb"/>
            <path id="Trazado_697971" data-name="Trazado 697971" d="M105.529,26.754A42.02,42.02,0,0,0,78.422,29.93s-5.819-1.293-7.13-2.508c-.708-.678-.724-2.814,7.25-4.767,3.681-.9,11.944-2.674,16.468-1.494a22.679,22.679,0,0,1,10.527,5.589" transform="translate(-10.046 -2.172)" fill="#251a49"/>
          </g>
        </g>
      </g>
    </g>
  </g>
</svg>
