<svg xmlns="http://www.w3.org/2000/svg" width="85" height="77" viewBox="0 0 85 77">
  <g id="Grupo_972962" data-name="Grupo 972962" transform="translate(-180 -1899)">
    <rect id="Rectángulo_336752" data-name="Rectángulo 336752" width="85" height="77" rx="8" transform="translate(180 1899)" fill="#fbe594"/>
    <g id="competencia" transform="translate(174.611 1884.401)">
      <path id="Trazado_663357" data-name="Trazado 663357" d="M33.849,57.849A4.849,4.849,0,0,1,29,53h9.7A4.849,4.849,0,0,1,33.849,57.849Z" transform="translate(13.944 17.878)" fill="#e8e8e8" stroke="#161615" stroke-width="1"/>
      <path id="Trazado_663358" data-name="Trazado 663358" d="M69.631,47.315A11.314,11.314,0,0,0,58.123,36,11.459,11.459,0,0,0,47.007,46.9a11.25,11.25,0,0,0,3.226,8.322,10.681,10.681,0,0,1,3.233,7.442v.818h9.7v-.826a10.337,10.337,0,0,1,3.125-7.326,11.244,11.244,0,0,0,3.341-8.013Z" transform="translate(16.958 7.398)" fill="#f5d96b" stroke="#161615" stroke-width="2"/>
      <path id="Trazado_663359" data-name="Trazado 663359" d="M62.932,50.466a6.466,6.466,0,0,0-12.932,0v1.882a10.114,10.114,0,0,1,1.616,5.384v.816h9.7v-.826a10.122,10.122,0,0,1,1.616-5.438Z" transform="translate(18.808 12.329)" fill="#47e9cc" stroke="#161615" stroke-width="1"/>
      <path id="Trazado_663360" data-name="Trazado 663360" d="M54.329,40.165A16.165,16.165,0,1,0,27.771,52.527a6.457,6.457,0,0,1,2.312,4.942v3.71H46.247v-3.71a6.371,6.371,0,0,1,2.268-4.9A16.1,16.1,0,0,0,54.329,40.165Z" transform="translate(9.629 0)" fill="#f5d96b" stroke="#161615" stroke-width="2"/>
      <path id="Trazado_663361" data-name="Trazado 663361" d="M45.4,46.464V44.7a9.7,9.7,0,1,0-19.4,0v1.773a6.416,6.416,0,0,1,1.616,4.216V54.4H43.781v-3.71A6.383,6.383,0,0,1,45.4,46.464Z" transform="translate(12.095 6.781)" fill="#17efc8" stroke="#161615" stroke-width="1"/>
      <circle id="Elipse_5570" data-name="Elipse 5570" cx="4.979" cy="4.979" r="4.979" transform="translate(43 32.31)" fill="#edbf89" stroke="#161615" stroke-width="1"/>
      <circle id="Elipse_5571" data-name="Elipse 5571" cx="3.112" cy="3.112" r="3.112" transform="translate(72.257 49.735)" fill="#edbf89" stroke="#161615" stroke-width="1"/>
      <path id="Trazado_663362" data-name="Trazado 663362" d="M33.233,35,30,41.466l3.233,6.466,3.233-6.466Z" transform="translate(14.561 6.781)" fill="#26547c"/>
      <path id="Trazado_663373" data-name="Trazado 663373" d="M41.548,52.233H28.616a1.616,1.616,0,1,1,0-3.233H41.548a1.616,1.616,0,0,1,0,3.233Z" transform="translate(12.711 15.412)" fill="#e8e8e8" stroke="#161615" stroke-width="1"/>
      <path id="Trazado_663374" data-name="Trazado 663374" d="M59.082,58.233H52.616a1.616,1.616,0,0,1,0-3.233h6.466a1.616,1.616,0,0,1,0,3.233Z" transform="translate(19.425 19.111)" fill="#e8e8e8" stroke="#161615" stroke-width="1"/>
      <path id="Trazado_663375" data-name="Trazado 663375" d="M56.849,61.233H53.616a1.616,1.616,0,1,1,0-3.233h3.233a1.616,1.616,0,1,1,0,3.233Z" transform="translate(20.041 20.96)" fill="#e8e8e8" stroke="#161615" stroke-width="1"/>
      <path id="Trazado_663376" data-name="Trazado 663376" d="M26.631,49.315A11.314,11.314,0,0,0,15.123,38,11.459,11.459,0,0,0,4.007,48.9,11.25,11.25,0,0,0,7.233,57.22a10.681,10.681,0,0,1,3.233,7.442v.818h9.7v-.826a10.337,10.337,0,0,1,3.125-7.326,11.244,11.244,0,0,0,3.341-8.013Z" transform="translate(6 8.631)" fill="#f5d96b" stroke="#161615" stroke-width="2"/>
      <path id="Trazado_663377" data-name="Trazado 663377" d="M19.932,52.466A6.466,6.466,0,1,0,7,52.466v1.882a10.114,10.114,0,0,1,1.616,5.384v.816h9.7v-.826a10.122,10.122,0,0,1,1.616-5.438Z" transform="translate(7.85 13.562)" fill="#47e9cc" stroke="#161615" stroke-width="1"/>
      <circle id="Elipse_5572" data-name="Elipse 5572" cx="3.112" cy="3.112" r="3.112" transform="translate(18.107 53.469)" fill="#edbf89" stroke="#161615" stroke-width="1"/>
      <path id="Trazado_663378" data-name="Trazado 663378" d="M16.082,60.233H9.616a1.616,1.616,0,0,1,0-3.233h6.466a1.616,1.616,0,0,1,0,3.233Z" transform="translate(8.466 20.343)" fill="#e8e8e8" stroke="#161615" stroke-width="1"/>
      <path id="Trazado_663379" data-name="Trazado 663379" d="M13.849,63.233H10.616a1.616,1.616,0,1,1,0-3.233h3.233a1.616,1.616,0,1,1,0,3.233Z" transform="translate(9.083 22.193)" fill="#e8e8e8" stroke="#161615" stroke-width="1"/>
    </g>
  </g>
</svg>
